<svg width="190" height="50" viewBox="0 0 190 50" fill="none" xmlns="http://www.w3.org/2000/svg">
<g clip-path="url(#clip0_2993_19)">
<path d="M164.177 49.7809V47.3768C164.177 45.5546 164.434 43.9328 164.94 42.5113C165.445 41.0898 166.161 39.7733 167.077 38.5712C168.002 37.3692 169.118 36.2339 170.416 35.1654C171.713 34.0969 173.144 32.9902 174.709 31.8454C176.006 30.92 177.113 30.0232 178.029 29.1837C178.954 28.3346 179.698 27.4951 180.28 26.6555C180.862 25.816 181.301 24.9479 181.597 24.0606C181.893 23.1638 182.036 22.2289 182.036 21.2463C182.036 19.281 181.492 17.7832 180.395 16.7624C179.298 15.7416 177.895 15.236 176.188 15.236C174.48 15.236 172.906 15.7321 171.694 16.7242C170.483 17.7164 169.443 19.1379 168.594 20.9792L163.394 18.7372C164.72 15.9324 166.495 13.7572 168.708 12.2308C170.922 10.7044 173.602 9.93164 176.76 9.93164C180.147 9.93164 182.942 10.9047 185.136 12.8414C187.331 14.778 188.428 17.5256 188.428 21.0841C188.428 22.5247 188.208 23.908 187.76 25.2245C187.312 26.5506 186.691 27.7717 185.89 28.8975C185.07 30.0423 184.125 31.1394 183.047 32.1602C181.969 33.1906 180.719 34.2114 179.298 35.2322C177.953 36.2339 176.76 37.1116 175.739 37.8557C174.719 38.5998 173.889 39.3249 173.249 40.0118C172.591 40.7368 172.133 41.4428 171.856 42.1202C171.58 42.7975 171.446 43.5321 171.446 44.3335H189.248V49.7714H164.177V49.7809ZM156.459 10.38V35.9954H160.446V41.2138H156.459V49.9908H150.305V41.2138H132.809V35.9954C134.392 34.1541 136.024 32.1602 137.693 30.0232C139.363 27.8862 140.956 25.7015 142.492 23.4787C144.028 21.2558 145.44 19.0234 146.747 16.791C148.054 14.5586 149.16 12.4216 150.067 10.38H156.468H156.459ZM139.019 35.9954H150.315V19.2047C149.294 21.065 148.283 22.7918 147.281 24.4041C146.279 26.0068 145.306 27.4951 144.352 28.8593C143.408 30.2426 142.482 31.521 141.576 32.6849C140.67 33.8488 139.821 34.9555 139.019 35.9954Z" fill="url(#paint0_linear_2993_19)"/>
<path d="M0 27.7046L3.52986 26.0065C4.19767 27.5425 5.15169 28.7064 6.37283 29.5077C7.59397 30.3091 9.09178 30.7098 10.8567 30.7098C12.9365 30.7098 14.5774 30.2137 15.7985 29.212C17.0197 28.2103 17.6302 26.8079 17.6302 24.9952C17.6302 23.2971 17.0578 21.9328 15.9035 20.9025C14.7491 19.8722 13.0319 19.0422 10.7422 18.403C7.43179 17.4871 5.06583 16.3041 3.65388 14.8445C2.24194 13.3849 1.53597 11.4768 1.53597 9.1204C1.53597 6.15341 2.54722 3.88285 4.5602 2.31826C6.57317 0.782294 8.91051 0 11.5627 0C13.7951 0 15.7604 0.524709 17.4585 1.56459C19.1566 2.60446 20.5495 4.21675 21.6371 6.38237L18.2503 7.88972C17.4871 6.35375 16.5426 5.26617 15.4264 4.6079C14.3007 3.94963 13.0032 3.62526 11.5245 3.62526C9.5974 3.62526 8.09006 4.07365 7.00248 4.97997C5.9149 5.88628 5.36157 7.1265 5.36157 8.70063C5.36157 10.2748 5.83858 11.5054 6.7926 12.3641C7.74661 13.2322 9.42568 13.9763 11.8203 14.6155C15.312 15.5409 17.7924 16.8002 19.2616 18.3839C20.7308 19.9676 21.4558 22.0759 21.4558 24.709C21.4558 27.3421 20.5495 29.6604 18.7464 31.5302C16.9338 33.4001 14.3579 34.3351 11.0189 34.3351C8.27132 34.3351 5.9626 33.7626 4.08319 32.6083C2.20378 31.4539 0.849075 29.8226 0.00954016 27.6951L0 27.7046Z" fill="white"/>
<path d="M47.2811 3.64434H37.7981V34.3446H33.9534V3.64434H24.4991V0H47.2811V3.64434Z" fill="white"/>
<path d="M75.5295 20.6831C75.5295 24.5468 74.4801 27.7905 72.3717 30.414C70.2634 33.0376 67.1628 34.3446 63.051 34.3446C58.9392 34.3446 56.1535 33.0853 54.1309 30.5667C52.1084 28.0481 51.0972 24.7472 51.0972 20.664V0H54.9419V20.3969C54.9419 23.7741 55.7241 26.3309 57.2983 28.0672C58.8724 29.8035 60.9235 30.6716 63.4612 30.6716C65.9989 30.6716 67.8879 29.8321 69.4047 28.1626C70.9216 26.493 71.6848 24.0221 71.6848 20.7499V0H75.5295V20.6831Z" fill="white"/>
<path d="M79.3456 34.3446V0H88.4088C94.1042 0 98.4164 1.37378 101.355 4.12135C104.293 6.86892 105.762 11.0761 105.762 16.743C105.762 22.4098 104.169 26.5789 100.973 29.689C97.7867 32.7895 93.465 34.3446 88.0367 34.3446H79.3361H79.3456ZM83.1998 3.64434V30.7098H88.1035C92.4061 30.7098 95.7547 29.5554 98.1588 27.2562C100.563 24.9571 101.755 21.4844 101.755 16.8384C101.755 12.1923 100.649 8.87235 98.4355 6.78306C96.2221 4.69376 92.8545 3.64434 88.342 3.64434H83.2094H83.1998Z" fill="white"/>
<path d="M113.442 34.3446H109.597V0H113.442V34.3446Z" fill="white"/>
<path d="M129.918 33.5051C130.681 32.6178 131.463 31.6924 132.246 30.7193C129.078 30.5858 126.483 29.3551 124.47 27.0082C122.343 24.5087 121.275 21.2459 121.275 17.22C121.275 13.194 122.362 9.81683 124.537 7.33639C126.712 4.85594 129.565 3.61572 133.085 3.61572C136.606 3.61572 139.21 4.86548 141.309 7.35547C142.74 9.06316 143.675 11.1715 144.123 13.652C145.058 11.9824 145.879 10.3606 146.565 8.82465L146.785 8.32856C146.146 6.94524 145.316 5.69548 144.304 4.58882C141.528 1.52643 137.874 0 133.362 0C128.554 0 124.661 1.60275 121.694 4.80824C118.727 8.01374 117.239 12.2687 117.239 17.5634C117.239 22.5529 118.67 26.598 121.542 29.6985C123.679 32.0073 126.321 33.4574 129.441 34.0393L129.899 33.5051H129.918Z" fill="white"/>
</g>
<defs>
<linearGradient id="paint0_linear_2993_19" x1="148.329" y1="9.93164" x2="167.224" y2="55.7299" gradientUnits="userSpaceOnUse">
<stop stop-color="#F2A573"/>
<stop offset="0.33" stop-color="#F45A9B"/>
<stop offset="0.66" stop-color="#7E80EE"/>
<stop offset="1" stop-color="#1376BF"/>
</linearGradient>
<clipPath id="clip0_2993_19">
<rect width="189.248" height="50" fill="white"/>
</clipPath>
</defs>
</svg>
