<svg xmlns="http://www.w3.org/2000/svg" width="100" height="88" fill="none" viewBox="0 0 100 88"><g clip-path="url(#a)"><path fill="#7e80e7" d="M23.489 83.619c.397 0 .779-.22.971-.599l15.816-31.44a1.087 1.087 0 0 0-1.939-.978l-15.816 31.44a1.087 1.087 0 0 0 .968 1.574zm35.49-.121a1.087 1.087 0 0 0 .971-1.573c-.109-.22-10.977-21.994-15.507-31.22a1.084 1.084 0 1 0-1.948.955c4.533 9.233 15.404 31.016 15.513 31.233.189.381.574.602.97.602z"/><path fill="#7e80e7" d="M41.372 87.903c.599 0 1.086-.487 1.086-1.086V51.76c0-.599-.487-.465-1.086-.465s-1.086-.134-1.086.465v35.058c0 .6.487 1.086 1.086 1.086"/><path fill="#7e80e7" d="M50.084 67.883a1.085 1.085 0 0 0 .295-2.132l-8.6-2.454a1.1 1.1 0 0 0-.556-.012l-10.095 2.454a1.09 1.09 0 0 0-.8 1.312c.142.584.728.94 1.312.8l9.816-2.385 8.324 2.373q.149.041.298.04z"/><path fill="#afdcf2" d="M59.956 36.939a1.08 1.08 0 0 1-.602-.575L50.016 15.32a1.09 1.09 0 0 1 .552-1.433l15.02-6.664a1.087 1.087 0 0 1 1.433.552l9.338 21.041a1.087 1.087 0 0 1-.552 1.434l-15.02 6.667a1.1 1.1 0 0 1-.83.021m5.52-27.29-13.034 5.783L60.9 34.49l13.034-5.787-8.458-19.058z"/><path fill="#afdcf2" d="m47.649 16.934 3.363-1.508a1.09 1.09 0 0 1 1.436.546l7.992 17.827a1.09 1.09 0 0 1-.546 1.436l-3.363 1.508a1.09 1.09 0 0 1-1.436-.546l-4.298-9.202a29 29 0 0 1 1.974-.788c.015-.006.028-.025.046-.025l3.816 8.138 1.384-.62-7.105-15.848-1.383.62 1.545 3.466-2.01.822-1.962-4.39a1.09 1.09 0 0 1 .547-1.437"/><path fill="#afdcf2" d="m51.496 22.962.909 1.98-2.095.775-.831-1.927z"/><path fill="#afdcf2" d="m44.7 20.275 3.702-1.66c.04-.019.08-.028.121-.04a1.1 1.1 0 0 0-.04.4c.053.59.164 1.16.307 1.722a1.1 1.1 0 0 0-.431.48l-.06-.133-1.718.77 5.746 12.82 1.719-.77-.155-.341c.176.015.36-.004.552-.084-.258.105-.124.065.065.19.205.133.39.269.565.443q.115.117.226.235c.18.273.363.54.537.81.059.09.12.162.186.227-.034.018-.065.04-.1.056l-3.7 1.66a1.09 1.09 0 0 1-1.437-.546L44.152 21.71c-.245-.546 0-1.188.546-1.433zm-9.021 5.635 1.908-.801c.006.052.037-.044.065.009.291.602.664 1.263.906 1.886l-1.964.872c-.307-.655-.608-1.315-.912-1.97zm-6.044 2.757 4.964-2.25c.307.659.608 1.316.912 1.97l-4.849 2.176c-.366-.655-.667-1.263-1.027-1.896"/><path fill="#afdcf2" d="m26.13 30.215 2.553-1.145c.36.633.642 1.09 1.055 1.918l-1.729.763 4.39 9.792 17.192-7.707-4.39-9.792-5.56 2.405c-.335-.723-.608-1.204-.915-1.83-.013-.025.05-.038.034-.056l6.543-2.945a1.09 1.09 0 0 1 1.436.546l5.278 11.774c.245.546 0 1.189-.546 1.434l-19.174 8.594a1.1 1.1 0 0 1-.443.096q-.196 0-.388-.072a1.08 1.08 0 0 1-.605-.57l-5.278-11.774c-.245-.547 0-1.189.546-1.434z"/><path fill="#afdcf2" d="m14.783 49.013-3.921-8.745a1.09 1.09 0 0 1 .546-1.437l15.472-6.937a1.09 1.09 0 0 1 1.436.546l3.922 8.746a1.09 1.09 0 0 1-.546 1.436L16.22 49.56a1.09 1.09 0 0 1-1.436-.546m11.998-14.69L13.288 40.37l3.03 6.763 13.494-6.047z"/><path fill="#afdcf2" d="m3.602 52.007-2.414-5.382a1.09 1.09 0 0 1 .546-1.437l10.428-4.675a1.09 1.09 0 0 1 1.436.546l2.414 5.383c.245.545 0 1.19-.546 1.433L5.038 52.55a1.09 1.09 0 0 1-1.436-.546zm8.46-9.065-8.444 3.785 1.523 3.4 8.445-3.785z"/><path fill="#afdcf2" d="M5.377 54.918q.225 0 .446-.097c.546-.248.788-.89.543-1.436L2.076 43.9a1.09 1.09 0 0 0-1.437-.544 1.09 1.09 0 0 0-.543 1.437l4.29 9.484c.18.4.578.64.99.64m29.102-6.322q.23.001.45-.1l13.98-6.372c.543-.248.785-.888.543-1.43l-2.063-4.626a1.084 1.084 0 0 0-1.434-.55 1.085 1.085 0 0 0-.549 1.434l1.623 3.642-12.066 5.498-2.104-4.015a1.09 1.09 0 0 0-1.464-.459 1.09 1.09 0 0 0-.46 1.464l2.582 4.924c.193.37.571.583.962.583z"/><path fill="#afdcf2" d="M36.718 46.02c.599 0 1.086.487 1.086 1.085v2.793h6.826v-5.275h-2.256q.135-.077.26-.167c.54-.177.962-.494 1.288-.89.323-.022.614-.088.881-.184h.913c.598 0 1.085-1.064 1.085-.465v8.066c0 .6-.487 1.086-1.086 1.086h-8.997a1.087 1.087 0 0 1-1.086-1.086v-3.878c0-.598.487-1.085 1.086-1.085"/><path fill="#d77599" d="M92.69 21.876a1.086 1.086 0 0 0 .236-2.147c-.149-.037-1.551-.416-1.672-1.824a1.084 1.084 0 0 0-1.064-.993 1.094 1.094 0 0 0-1.095.958c-.022.171-.267 1.741-1.564 1.837a1.085 1.085 0 1 0 .161 2.166 3.5 3.5 0 0 0 2.51-1.3c.953.974 2.172 1.26 2.25 1.278q.119.027.238.025"/><path fill="#d77599" d="M90.162 24.594c.543 0 1.008-.407 1.077-.953.021-.152.263-1.58 1.622-1.765a1.087 1.087 0 0 0-.291-2.153 3.8 3.8 0 0 0-2.358 1.231c-.745-.75-1.728-1.114-2.383-1.213a1.086 1.086 0 0 0-.329 2.147c.251.044 1.551.332 1.576 1.638.01.571.46 1.037 1.027 1.064h.06zm8.724-19.062a1.086 1.086 0 0 0 .224-2.15c-.196-.044-1.983-.506-2.172-2.405a1.085 1.085 0 0 0-2.16-.018c-.012.087-.313 2.27-2.081 2.404a1.085 1.085 0 1 0 .161 2.166c1.415-.106 2.392-.826 3.034-1.697.866 1.008 2.03 1.52 2.768 1.678.074.016.152.025.226.025z"/><path fill="#d77599" d="M95.846 8.802c.543 0 1.008-.403 1.077-.953.028-.204.338-2.066 2.137-2.311a1.085 1.085 0 0 0 .931-1.222 1.09 1.09 0 0 0-1.222-.931A4.37 4.37 0 0 0 95.889 5c-.856-.937-2.047-1.43-2.832-1.588-.59-.121-1.16.26-1.278.85s.26 1.16.85 1.278c.08.019 2.134.475 2.131 2.172 0 .574.444 1.048 1.018 1.086h.068zm-18.488-.304c.599 0 1.086-.487 1.086-1.086V3.484a1.087 1.087 0 0 0-2.172 0v3.928c0 .599.487 1.086 1.086 1.086"/><path fill="#d77599" d="M75.394 6.53h3.928a1.087 1.087 0 0 0 0-2.171h-3.928a1.087 1.087 0 0 0 0 2.172"/><path fill="#afdcf2" d="M30.411 23.142a1.086 1.086 0 0 1-.487-2.057 1.09 1.09 0 0 1 1.458.484 1.09 1.09 0 0 1-.971 1.573m3.605-1.8a1.085 1.085 0 0 1-.484-2.057 1.08 1.08 0 0 1 1.455.484 1.08 1.08 0 0 1-.484 1.455q-.238.119-.487.118m3.608-1.809a1.087 1.087 0 0 1-.487-2.057 1.086 1.086 0 1 1 .487 2.057"/></g><defs><clipPath id="a"><path fill="#fff" d="M0 0h100v87.903H0z"/></clipPath></defs></svg>