<svg width="100" height="102" viewBox="0 0 100 102" fill="none" xmlns="http://www.w3.org/2000/svg">
<g clip-path="url(#clip0_25_1630)">
<path d="M20.8488 62.3818C20.6912 62.3818 20.5302 62.3489 20.3759 62.2799C19.7978 62.0172 19.5417 61.3374 19.8044 60.7593C25.2071 48.8341 35.6018 42.4855 40.5939 39.4344L40.7352 39.349C51.9444 32.5013 59.5082 32.2878 63.8828 33.3158C64.5003 33.4603 64.8845 34.081 64.74 34.6985C64.5955 35.3159 63.9748 35.7002 63.3573 35.5557C59.4031 34.6262 52.4798 34.8693 41.9339 41.313L41.7927 41.3984C36.6265 44.5546 27.0068 50.4302 21.8965 61.7118C21.7027 62.1354 21.2856 62.3883 20.8488 62.3883V62.3818Z" fill="#D77599"/>
<path d="M69.7946 39.037C69.4497 39.037 69.1082 38.8827 68.8848 38.5904C68.8586 38.5575 68.0112 37.5066 66.2081 36.5837C65.6432 36.2947 65.4199 35.6017 65.7089 35.0368C65.9979 34.4719 66.6909 34.2486 67.2558 34.5376C69.5778 35.7265 70.6682 37.1322 70.7109 37.1913C71.0952 37.6971 70.9966 38.4163 70.4908 38.8006C70.2839 38.9582 70.0376 39.0338 69.7946 39.0338V39.037Z" fill="#D77599"/>
<path d="M64.8579 58.3618C64.3258 58.8938 63.7642 59.3044 63.1764 59.5573C62.3586 59.9087 61.5276 59.8332 60.9003 59.3536C60.0727 58.7198 59.7344 57.521 59.9545 55.9807C60.0431 55.3534 60.6245 54.9133 61.255 55.0052C61.8823 55.0939 62.3224 55.6752 62.2305 56.3058C62.1451 56.9101 62.2075 57.2747 62.2666 57.4455C64.6543 56.4208 67.4821 49.4876 67.1471 45.4775C66.6413 39.4147 64.4704 36.252 60.6934 36.0812C60.0596 36.0516 59.5669 35.5163 59.5965 34.8791C59.626 34.2453 60.1614 33.7526 60.7952 33.7822C64.3127 33.9431 68.6677 36.068 69.4362 45.287C69.7351 48.8538 67.7842 55.4322 64.8513 58.3651L64.8579 58.3618Z" fill="#D77599"/>
<path d="M62.4836 45.7764C62.3588 45.1557 62.7627 44.5514 63.3867 44.4266C64.0108 44.3018 64.6151 44.7057 64.7399 45.3297C64.8614 45.9537 64.4574 46.5581 63.8367 46.6829C63.7612 46.696 63.6856 46.7026 63.6101 46.7026C63.0715 46.7026 62.5919 46.3249 62.4836 45.7764ZM66.6448 46.5121C66.0634 46.2625 65.7908 45.5892 66.0372 45.0046C66.2868 44.42 66.9633 44.1474 67.5479 44.397C68.1325 44.6466 68.4019 45.3232 68.1555 45.9045C67.9683 46.3446 67.5414 46.604 67.0947 46.604C66.9469 46.604 66.7926 46.5745 66.6448 46.5121Z" fill="#D77599"/>
<path d="M57.9546 51.9673C57.5507 51.9673 57.1565 51.7505 56.9463 51.3728C56.9037 51.294 56.8708 51.2086 56.8445 51.1265C56.8314 51.0871 56.8183 51.0477 56.8084 51.005C56.6672 50.3941 57.0449 49.7832 57.6525 49.6289L57.7641 49.5993C58.3783 49.4351 59.0089 49.7964 59.1731 50.4105C59.2191 50.5813 59.2256 50.7521 59.1961 50.913C59.1567 51.2086 58.9892 51.56 58.5097 51.8261C58.3323 51.9213 58.1451 51.9673 57.9579 51.9673H57.9546ZM57.3996 49.8095L57.9513 50.8112L57.4029 49.8062C57.4029 49.8062 57.4029 49.8062 57.3996 49.8062V49.8095Z" fill="#D77599"/>
<path d="M17.0718 74.2807C16.9995 74.2807 16.924 74.2742 16.8484 74.2577C16.2244 74.1362 15.8205 73.5319 15.942 72.9079C21.5942 44.2525 43.5366 30.4355 60.605 27.3089C71.8176 25.2562 81.3486 27.6012 84.8858 33.283C86.8301 36.403 87.8548 41.8648 81.7066 50.1609C70.3823 66.1587 50.8507 68.2803 50.0263 68.3625C49.3957 68.4281 48.8308 67.9651 48.7684 67.3345C48.706 66.7039 49.1658 66.139 49.7964 66.0766C49.9869 66.0569 69.1245 63.9549 79.8444 48.8144C84.1172 43.0504 85.1781 38.1076 82.9316 34.5014C79.9429 29.7031 71.1377 27.7227 61.0156 29.575C44.6565 32.5703 23.6239 45.8355 18.195 73.3579C18.0866 73.9063 17.6071 74.284 17.0685 74.284L17.0718 74.2807Z" fill="#AFDCF2"/>
<path d="M58.1385 72.2379C56.1482 72.2379 54.4798 71.9423 53.1135 71.5252C52.5059 71.338 52.1644 70.6976 52.3516 70.09C52.5355 69.4824 53.1792 69.1408 53.7868 69.328C57.8725 70.5761 65.0848 70.5432 76.248 63.2915L76.386 63.2029C81.4635 59.9054 90.919 53.7704 95.7173 42.3509C95.9636 41.7663 96.6369 41.4904 97.2215 41.7367C97.8061 41.9831 98.082 42.6563 97.8357 43.2409C92.7647 55.3107 82.5473 61.9417 77.6373 65.1274L77.4994 65.2161C69.1671 70.6253 62.7825 72.2346 58.1385 72.2346V72.2379Z" fill="#AFDCF2"/>
<path d="M50.3151 70.1458C50.1016 70.1458 49.8882 70.0867 49.6977 69.9652C48.3347 69.0916 47.6647 68.2869 47.5957 68.1983C47.1983 67.7023 47.2772 66.9798 47.7698 66.5824C48.2624 66.185 48.9817 66.2605 49.3824 66.7532C49.4021 66.7762 49.9079 67.3706 50.9391 68.034C51.4745 68.3789 51.6288 69.0883 51.2873 69.6236C51.0672 69.9652 50.6961 70.1524 50.3184 70.1524L50.3151 70.1458Z" fill="#AFDCF2"/>
<path d="M82.3436 8.48004C81.8805 8.48004 81.4897 8.12534 81.4536 7.65569C81.4142 7.16304 81.782 6.7328 82.2746 6.69339C82.7016 6.65398 86.4884 6.16134 86.2913 0.929465C86.2749 0.436822 86.6592 0.0197173 87.1518 0.0032959C87.165 0.0032959 87.1748 0.0032959 87.1847 0.0032959C87.6642 0.0032959 88.0616 0.380989 88.078 0.863779C88.3407 7.93485 82.4684 8.47676 82.4093 8.48004C82.3863 8.48004 82.3633 8.48004 82.3371 8.48004H82.3436Z" fill="white"/>
<path d="M92.1046 8.48004C92.0816 8.48004 92.0586 8.48004 92.0356 8.48004C91.9765 8.47675 86.1042 7.93485 86.367 0.863773C86.3834 0.37113 86.7972 -0.0098472 87.2931 0.00328995C87.7891 0.0229957 88.1733 0.436816 88.1536 0.929459C87.9533 6.30255 91.9995 6.68025 92.1736 6.69338C92.6662 6.7328 93.0341 7.16304 92.9946 7.65568C92.9585 8.12533 92.5644 8.48004 92.1046 8.48004Z" fill="white"/>
<path d="M87.1881 15.1439C87.1881 15.1439 87.1651 15.1439 87.1552 15.1439C86.6626 15.1275 86.275 14.7104 86.2947 14.2177C86.4951 8.84465 82.4488 8.46696 82.2781 8.45382C81.7854 8.41441 81.4176 7.98417 81.457 7.49152C81.4964 6.99888 81.9234 6.62447 82.4193 6.66717C82.4784 6.67374 88.3507 7.21236 88.088 14.2834C88.0683 14.7662 87.6709 15.1439 87.1946 15.1439H87.1881Z" fill="white"/>
<path d="M87.2603 15.1438C86.7808 15.1438 86.3867 14.7662 86.367 14.2834C86.1042 7.21229 91.9732 6.67367 92.0356 6.6671C92.5283 6.62441 92.9585 6.99553 92.9979 7.49146C93.0374 7.9841 92.6695 8.41434 92.1769 8.45375C91.7499 8.49317 87.9631 8.98581 88.1569 14.2177C88.1733 14.7103 87.7891 15.1274 87.2964 15.1438C87.2866 15.1438 87.2734 15.1438 87.2636 15.1438H87.2603Z" fill="white"/>
<path d="M1.14939 93.2902C0.554931 93.2902 0.0524346 92.8337 0.00645461 92.2294C-0.0428097 91.5955 0.430128 91.0437 1.06071 90.9945C1.60919 90.9452 6.46993 90.3113 6.22033 83.5917C6.19734 82.9578 6.69326 82.4225 7.32713 82.3995C7.961 82.3864 8.49305 82.8724 8.51933 83.5063C8.85761 92.5841 1.31689 93.2803 1.24135 93.2869C1.21179 93.2869 1.17895 93.2902 1.14939 93.2902Z" fill="white"/>
<path d="M13.6857 93.2902C13.6561 93.2902 13.6233 93.2902 13.5937 93.2869C13.5182 93.2804 5.97746 92.5841 6.31574 83.5063C6.33873 82.8724 6.8675 82.3765 7.50793 82.3995C8.1418 82.4225 8.63773 82.9578 8.61474 83.5917C8.35856 90.492 13.5543 90.9781 13.7776 90.9945C14.4115 91.0438 14.8844 91.5988 14.8319 92.2294C14.7859 92.8304 14.2801 93.2902 13.689 93.2902H13.6857Z" fill="white"/>
<path d="M7.3698 101.846C7.3698 101.846 7.34024 101.846 7.32711 101.846C6.69324 101.823 6.19731 101.287 6.2203 100.654C6.47648 93.7533 1.28073 93.2672 1.06069 93.2508C0.426818 93.2015 -0.0461193 92.6498 0.00642935 92.0159C0.0556937 91.382 0.607454 90.9058 1.24132 90.9584C1.31686 90.9649 8.85758 91.6612 8.5193 100.739C8.49631 101.36 7.98725 101.846 7.3698 101.846Z" fill="white"/>
<path d="M7.46195 101.846C6.84779 101.846 6.33873 101.36 6.31574 100.739C5.97746 91.6579 13.5182 90.9649 13.5937 90.9583C14.2276 90.9025 14.7793 91.382 14.8286 92.0159C14.8779 92.6498 14.4049 93.2015 13.7744 93.2508C13.2259 93.3 8.36185 93.9339 8.61145 100.654C8.63444 101.287 8.13852 101.819 7.50465 101.846C7.49151 101.846 7.47509 101.846 7.46195 101.846Z" fill="white"/>
<path d="M51.3005 14.3162C51.3005 14.9501 50.7848 15.4657 50.151 15.4657C49.5171 15.4657 49.0015 14.9501 49.0015 14.3162C49.0015 13.6824 49.5171 13.1667 50.151 13.1667C50.7848 13.1667 51.3005 13.6824 51.3005 14.3162Z" fill="#E7A87B"/>
<path d="M32.5803 29.4239C32.5803 30.0578 32.0646 30.5734 31.4308 30.5734C30.7969 30.5734 30.2812 30.0578 30.2812 29.4239C30.2812 28.7901 30.7969 28.2744 31.4308 28.2744C32.0646 28.2744 32.5803 28.7901 32.5803 29.4239Z" fill="#E7A87B"/>
<path d="M66.7365 19.2426C66.7365 19.8765 66.2209 20.3921 65.587 20.3921C64.9531 20.3921 64.4375 19.8765 64.4375 19.2426C64.4375 18.6088 64.9531 18.0931 65.587 18.0931C66.2209 18.0931 66.7365 18.6088 66.7365 19.2426Z" fill="#AFDCF2"/>
<path d="M90.4492 29.0955C90.2062 28.5109 90.482 27.8376 91.0667 27.5913C91.6545 27.3483 92.3278 27.6241 92.5709 28.2088C92.8172 28.7966 92.538 29.4699 91.9534 29.713C91.8089 29.7754 91.6578 29.8016 91.51 29.8016C91.0601 29.8016 90.6331 29.5389 90.4492 29.0955ZM88.2028 25.5649C87.7791 25.0952 87.8152 24.3694 88.2849 23.9425C88.7578 23.5188 89.4836 23.5549 89.9106 24.0246C90.3343 24.4942 90.2981 25.2233 89.8285 25.647C89.6084 25.8473 89.3326 25.9459 89.0567 25.9459C88.7447 25.9459 88.4327 25.8178 88.2028 25.5649ZM84.9119 22.8816C84.37 22.5532 84.1959 21.8471 84.5243 21.3019C84.8561 20.76 85.5622 20.5859 86.1041 20.9176C86.646 21.2461 86.8201 21.9522 86.4916 22.4974C86.2749 22.8521 85.8972 23.0491 85.5064 23.0491C85.306 23.0491 85.0991 22.9966 84.9119 22.8816ZM80.9708 21.072C80.3697 20.8684 80.0479 20.2148 80.2515 19.6138C80.4551 19.0127 81.1087 18.6909 81.7097 18.8945C82.3107 19.0981 82.6326 19.7517 82.429 20.3527C82.2648 20.8322 81.8181 21.1311 81.3386 21.1311C81.2171 21.1311 81.0923 21.1114 80.9708 21.072ZM76.6946 20.0177C76.0673 19.9159 75.6436 19.3248 75.7455 18.6975C75.8473 18.0702 76.4384 17.6465 77.0657 17.7483C77.693 17.8534 78.1167 18.4446 78.0149 19.0686C77.9196 19.6335 77.4336 20.0342 76.8818 20.0342C76.8194 20.0342 76.757 20.0276 76.6946 20.0177ZM72.2707 19.6006C71.6368 19.5809 71.1376 19.0522 71.1573 18.4183C71.1737 17.7844 71.7025 17.2852 72.3396 17.3016C72.9735 17.3213 73.4727 17.8501 73.453 18.484C73.4366 19.108 72.9242 19.6006 72.3035 19.6006H72.2707Z" fill="#AFDCF2"/>
<path d="M92.7417 35.1222C92.7154 35.1222 92.6891 35.1222 92.6629 35.1222C92.029 35.0795 91.5495 34.531 91.5922 33.8971C91.5955 33.8347 91.602 33.769 91.6086 33.6935C91.6414 33.3125 91.6808 32.8363 91.5396 32.2681C91.3853 31.6507 91.7597 31.0267 92.3771 30.8756C92.9946 30.7212 93.6186 31.0956 93.7697 31.7131C94.0061 32.6557 93.9372 33.4308 93.8977 33.8939L93.8846 34.0548C93.8452 34.6624 93.3394 35.1255 92.7384 35.1255L92.7417 35.1222Z" fill="#AFDCF2"/>
<path d="M91.3426 42.0028C91.2112 42.0028 91.0799 41.9798 90.9485 41.9338C90.3508 41.717 90.0453 41.0569 90.2621 40.4592C90.6857 39.2965 90.8861 38.3605 91.0897 37.3424C91.2145 36.7183 91.8188 36.3177 92.4428 36.4392C93.0669 36.564 93.4675 37.1683 93.346 37.7923C93.1325 38.863 92.8994 39.9304 92.4231 41.2441C92.2524 41.7105 91.8123 41.9995 91.3426 41.9995V42.0028Z" fill="#AFDCF2"/>
<path d="M80.3959 57.659C80.0642 57.659 79.7357 57.5178 79.5091 57.2419C79.1052 56.7525 79.1741 56.0267 79.6635 55.6227C83.6046 52.3713 86.8364 48.2889 89.0073 43.8124C89.2865 43.241 89.9729 43.0045 90.5443 43.2804C91.1158 43.5595 91.3523 44.2459 91.0764 44.8174C88.761 49.5862 85.319 53.9379 81.125 57.3962C80.9115 57.5736 80.6521 57.659 80.3959 57.659Z" fill="#AFDCF2"/>
<path d="M53.1497 85.4211C53.1103 84.7872 53.5898 84.242 54.2237 84.2026C54.8576 84.1632 55.4027 84.6427 55.4454 85.2765C55.4849 85.9104 55.0053 86.4556 54.3715 86.495C53.7376 86.5344 53.1924 86.0549 53.153 85.4211H53.1497Z" fill="#E7A87B"/>
<path d="M45.8423 86.6461C45.8226 86.0089 46.3185 85.4769 46.9524 85.4572C47.5862 85.4342 48.1183 85.9301 48.1413 86.5673C48.1643 87.2011 47.6651 87.7332 47.0312 87.7529C47.0312 87.7529 47.0049 87.7529 46.9918 87.7529C46.3743 87.7529 45.8653 87.2635 45.8423 86.6428V86.6461ZM42.2854 87.6084C41.6548 87.546 41.1917 86.9844 41.2541 86.3505C41.3165 85.7199 41.8814 85.2568 42.512 85.3225C43.1459 85.3849 43.6057 85.9465 43.5433 86.5804C43.4842 87.1716 42.985 87.6149 42.4004 87.6149C42.3609 87.6149 42.3248 87.6149 42.2854 87.6084ZM37.579 86.761C36.9649 86.5968 36.6036 85.9662 36.7678 85.3521C36.9353 84.7379 37.5659 84.3766 38.18 84.5409C38.7909 84.7084 39.1555 85.3389 38.988 85.9531C38.85 86.4654 38.387 86.8004 37.8779 86.8004C37.7794 86.8004 37.6775 86.7873 37.579 86.761ZM33.0631 85.0236C32.5015 84.7281 32.2847 84.0351 32.577 83.4702C32.8726 82.9086 33.5656 82.6918 34.1272 82.9841C34.6921 83.2797 34.9089 83.9727 34.6133 84.5376C34.4097 84.9284 34.009 85.155 33.5952 85.155C33.4145 85.155 33.2339 85.1123 33.0631 85.0236ZM29.0694 82.163C28.6129 81.7196 28.6031 80.9905 29.0464 80.5373C29.4898 80.0841 30.2189 80.0742 30.6722 80.5176C31.1254 80.9577 31.1352 81.6868 30.6952 82.1433C30.4685 82.3732 30.1697 82.4882 29.8708 82.4882C29.5818 82.4882 29.2928 82.3798 29.0694 82.163ZM26.1464 78.1562C25.864 77.5847 26.0971 76.895 26.6653 76.6159C27.2335 76.3334 27.9265 76.5666 28.2057 77.1348C28.4881 77.703 28.2549 78.3927 27.6867 78.6751C27.5225 78.7572 27.3485 78.7933 27.1777 78.7933C26.754 78.7933 26.3468 78.5602 26.1464 78.1562Z" fill="#E7A87B"/>
<path d="M25.8868 74.8785C25.4894 74.8785 25.1052 74.6748 24.8917 74.307C24.4976 73.6304 24.4549 72.9013 24.4582 72.412C24.4582 71.7781 24.9738 71.2657 25.6077 71.2657H25.611C26.2448 71.2657 26.7572 71.7847 26.7572 72.4185C26.7572 72.6583 26.7703 72.9604 26.8787 73.1476C27.1973 73.6961 27.0101 74.399 26.4616 74.7208C26.281 74.8259 26.0806 74.8752 25.8836 74.8752L25.8868 74.8785Z" fill="#E7A87B"/>
<path d="M25.9032 69.9422C25.8539 69.9422 25.8014 69.9422 25.7488 69.9323C25.1182 69.8469 24.6781 69.2689 24.7635 68.6383C24.908 67.5578 25.0722 66.474 25.4664 65.134C25.6437 64.5264 26.2841 64.175 26.8917 64.3556C27.4993 64.533 27.8508 65.1734 27.6701 65.781C27.322 66.9699 27.1808 67.9158 27.0395 68.9438C26.9607 69.5218 26.4681 69.9389 25.9032 69.9389V69.9422Z" fill="#E7A87B"/>
<path d="M27.6438 63.0715C27.4861 63.0715 27.3285 63.0386 27.1774 62.9729C26.5961 62.7135 26.3366 62.0369 26.5928 61.4556C28.8097 56.47 31.1809 53.0412 35.664 48.348C36.1008 47.8882 36.8299 47.8718 37.2897 48.3119C37.7495 48.7487 37.7659 49.4778 37.3291 49.9376C33.0497 54.4174 30.7901 57.6787 28.6947 62.3916C28.5043 62.8186 28.0839 63.0747 27.6438 63.0747V63.0715Z" fill="#E7A87B"/>
<path d="M50.2497 52.8771C49.9082 52.8771 49.5666 52.726 49.34 52.4337C48.9491 51.9312 49.0411 51.2086 49.5436 50.8211C49.8326 50.5945 50.1282 50.3744 50.4205 50.1609C50.9329 49.7865 51.6521 49.9015 52.0265 50.4171C52.3976 50.9295 52.286 51.6487 51.7703 52.0231C51.4977 52.2235 51.2219 52.4271 50.9526 52.6373C50.7424 52.8015 50.496 52.8803 50.2497 52.8803V52.8771Z" fill="#AFDCF2"/>
<path d="M47.5827 55.7048C47.3266 55.7048 47.0704 55.6194 46.8602 55.4486C46.8503 55.4388 46.8405 55.4322 46.8306 55.4256C46.7617 55.3731 46.6993 55.3173 46.6434 55.2516C46.5285 55.1202 46.003 54.4141 46.7978 53.5766C47.2346 53.1168 47.9637 53.0971 48.4235 53.5372C48.4301 53.5437 48.4366 53.547 48.4399 53.5536C48.4826 53.5897 48.5089 53.616 48.522 53.6291C48.637 53.7539 49.1789 54.4174 48.4761 55.2811C48.2494 55.5603 47.9177 55.7048 47.5827 55.7048Z" fill="#AFDCF2"/>
<path d="M49.4154 68.3887C49.376 68.3887 49.3366 68.3887 49.2939 68.3822C47.3824 68.1851 45.806 67.3246 44.8535 65.9584C44.0587 64.822 43.7927 63.4262 44.1244 62.1322C44.2821 61.5147 44.9061 61.1436 45.5203 61.3012C46.1344 61.4589 46.5088 62.0829 46.3512 62.7003C46.187 63.3473 46.3282 64.0568 46.7387 64.6446C47.3036 65.4526 48.2955 65.9715 49.5304 66.0963C50.161 66.162 50.6208 66.7269 50.5551 67.3575C50.4927 67.9486 49.9935 68.3887 49.4121 68.3887H49.4154Z" fill="#AFDCF2"/>
<path d="M63.7644 96.522C63.1436 96.522 62.6313 96.0293 62.6149 95.4053L62.6083 95.1754C62.5919 94.5415 63.0911 94.0128 63.725 93.9931C64.349 93.9799 64.8876 94.4758 64.9073 95.1097L64.9139 95.3396C64.9303 95.9735 64.4311 96.5023 63.7972 96.522H63.7644Z" fill="white"/>
<path d="M63.7614 93.034C63.1308 93.034 62.6152 92.525 62.6119 91.8944V91.7104C62.6053 91.0766 63.1177 90.5577 63.7515 90.5544C64.3952 90.5577 64.9043 91.0602 64.9076 91.694V91.8779C64.9142 92.5118 64.4018 93.0307 63.7679 93.034H63.7581H63.7614Z" fill="white"/>
<path d="M65.4786 94.663C64.8447 94.663 64.3324 94.1507 64.3291 93.5201C64.3291 92.8862 64.8382 92.3673 65.4753 92.364H65.9384C65.9384 92.364 65.9384 92.364 65.9417 92.364C66.5756 92.364 67.0879 92.8764 67.0912 93.5102C67.0912 94.1441 66.5821 94.663 65.9483 94.663H65.4852C65.4852 94.663 65.4819 94.663 65.4786 94.663Z" fill="white"/>
<path d="M61.8037 94.6663C61.183 94.6663 60.6739 94.1737 60.6542 93.5496C60.6378 92.9158 61.137 92.387 61.7709 92.3673L62.0008 92.3607C62.6281 92.3476 63.1634 92.8435 63.1831 93.4774C63.1995 94.1113 62.7003 94.64 62.0664 94.6597L61.8365 94.6663C61.8365 94.6663 61.8136 94.6663 61.8037 94.6663Z" fill="white"/>
<path d="M94.9158 80.1038C94.8666 80.1038 94.8173 80.1038 94.768 80.0939C92.8566 79.8443 91.6086 78.7342 90.8433 77.4993C89.3063 79.4009 86.9712 79.8378 86.8365 79.864C86.2125 79.9757 85.6147 79.5586 85.5064 78.9313C85.3947 78.3073 85.8118 77.7095 86.4391 77.6012C86.554 77.5782 89.395 77.0133 89.8186 74.2709C89.9073 73.6994 90.4098 73.2987 90.9813 73.2987C91.5593 73.3119 92.0355 73.752 92.0979 74.3267C92.1111 74.4515 92.4888 77.4829 95.0669 77.8179C95.6975 77.9 96.1409 78.4748 96.0588 79.1054C95.9832 79.6834 95.4906 80.1071 94.9191 80.1071L94.9158 80.1038Z" fill="white"/>
<path d="M90.6563 84.1697C90.0782 84.1697 89.5856 83.7362 89.5166 83.1582C89.5035 83.0465 89.0995 80.2417 86.4392 79.887C85.8087 79.8016 85.3686 79.2236 85.454 78.593C85.5393 77.9624 86.1174 77.5191 86.748 77.6077C88.6266 77.8606 89.8779 78.8689 90.6661 80.0053C91.8189 78.6456 93.5661 78.0117 94.6598 77.854C95.2871 77.7621 95.8717 78.1956 95.9637 78.8262C96.0556 79.4535 95.6221 80.0381 94.9915 80.1301C94.87 80.1498 91.9371 80.6326 91.8058 83.0826C91.7729 83.6771 91.2934 84.15 90.6957 84.1697C90.6825 84.1697 90.6694 84.1697 90.6563 84.1697Z" fill="white"/>
<path d="M16.3194 82.5374C16.0369 81.9692 16.2701 81.2763 16.8383 80.9971C17.4065 80.7146 18.0962 80.9445 18.3786 81.5127C18.6611 82.0809 18.4312 82.7706 17.863 83.0531C17.6988 83.1352 17.5214 83.1746 17.3507 83.1746C16.927 83.1746 16.523 82.9414 16.3194 82.5374ZM16.4869 79.3352C15.8563 79.24 15.4228 78.6587 15.5147 78.0281C15.6067 77.4008 16.1913 76.9673 16.8186 77.0592C17.4492 77.1512 17.8827 77.7358 17.7908 78.3631C17.7054 78.9346 17.216 79.3451 16.6544 79.3451C16.5986 79.3451 16.5427 79.3418 16.4869 79.3352Z" fill="#E7A87B"/>
<path d="M97.2017 21.476C97.2017 20.8421 97.714 20.3265 98.3512 20.3265C98.985 20.3265 99.5007 20.8421 99.5007 21.476C99.5007 22.1098 98.985 22.6255 98.3512 22.6255C97.714 22.6255 97.2017 22.1098 97.2017 21.476ZM96.4857 18.0176C96.0226 17.5841 95.9996 16.855 96.4364 16.3919C96.8699 15.9288 97.5958 15.9058 98.0589 16.3393C98.5219 16.7729 98.5449 17.502 98.1114 17.9651C97.8848 18.2048 97.5793 18.3296 97.2739 18.3296C96.9915 18.3296 96.709 18.2245 96.4857 18.0176Z" fill="#E7A87B"/>
<path d="M51.0213 79.0134C45.1195 79.0134 40.0715 77.5913 36.7478 74.8686C31.2663 70.3757 31.4831 63.2587 37.3357 55.337C48.6369 39.3261 68.1653 37.1749 68.993 37.0895C69.6235 37.0271 70.1884 37.4836 70.2508 38.1174C70.3165 38.748 69.8567 39.3129 69.2229 39.3786C69.0324 39.3983 49.8981 41.5265 39.1979 56.6835C34.081 63.6068 33.7328 69.4266 38.2028 73.0918C46.6007 79.9757 70.4578 77.6274 86.2059 60.2733C93.7237 51.987 97.6976 40.226 97.6976 26.2546C97.6976 25.6207 98.2133 25.1051 98.8471 25.1051C99.481 25.1051 99.9966 25.6207 99.9966 26.2546C99.9966 40.8073 95.8158 53.1037 87.9105 61.8202C80.4519 70.0407 70.507 75.8014 59.9053 78.0445C56.8148 78.6981 53.8196 79.02 51.0213 79.02V79.0134Z" fill="#D77599"/>
</g>
<defs>
<clipPath id="clip0_25_1630">
<rect width="100" height="101.846" fill="white"/>
</clipPath>
</defs>
</svg>
