<svg xmlns="http://www.w3.org/2000/svg" width="100" height="102" fill="none" viewBox="0 0 100 102"><g clip-path="url(#a)"><path fill="#d77599" d="M20.849 62.382a1.148 1.148 0 0 1-1.044-1.622c5.402-11.926 15.797-18.274 20.789-21.326l.141-.085c11.21-6.848 18.773-7.061 23.148-6.033.617.144 1.002.765.857 1.383a1.15 1.15 0 0 1-1.383.857c-3.954-.93-10.877-.687-21.423 5.757l-.141.085c-5.166 3.157-14.786 9.032-19.896 20.314a1.16 1.16 0 0 1-1.048.676zm48.946-23.345a1.14 1.14 0 0 1-.91-.447c-.026-.033-.874-1.083-2.677-2.006a1.15 1.15 0 0 1 1.048-2.046c2.322 1.189 3.412 2.594 3.455 2.653a1.147 1.147 0 0 1-.916 1.843z"/><path fill="#d77599" d="M64.858 58.362c-.532.532-1.094.942-1.682 1.195-.817.352-1.648.276-2.276-.203-.827-.634-1.166-1.833-.945-3.373a1.147 1.147 0 0 1 1.3-.976c.627.089 1.067.67.975 1.3-.085.605-.022.97.037 1.14 2.387-1.024 5.215-7.957 4.88-11.968-.506-6.062-2.677-9.225-6.454-9.396a1.15 1.15 0 0 1 .102-2.299c3.518.161 7.873 2.286 8.641 11.505.3 3.567-1.652 10.145-4.585 13.078z"/><path fill="#d77599" d="M62.484 45.776a1.15 1.15 0 0 1 .903-1.35 1.15 1.15 0 0 1 1.353.904 1.154 1.154 0 0 1-.903 1.353q-.114.02-.227.02a1.15 1.15 0 0 1-1.126-.927m4.16.736a1.154 1.154 0 0 1-.607-1.507 1.152 1.152 0 0 1 2.118.9 1.15 1.15 0 0 1-1.51.607m-8.69 5.455a1.16 1.16 0 0 1-1.11-.84q-.022-.06-.037-.122a1.155 1.155 0 0 1 .845-1.376l.111-.03a1.15 1.15 0 0 1 1.432 1.314c-.04.296-.207.647-.686.913a1.16 1.16 0 0 1-.552.141zM57.4 49.81l.551 1.001-.548-1.005H57.4z"/><path fill="#afdcf2" d="M17.072 74.28q-.109.001-.224-.022a1.15 1.15 0 0 1-.906-1.35c5.652-28.656 27.595-42.472 44.663-45.6 11.213-2.052 20.744.293 24.28 5.975 1.945 3.12 2.97 8.582-3.178 16.878-11.325 15.998-30.856 18.12-31.68 18.201a1.15 1.15 0 0 1-.23-2.286c.19-.02 19.328-2.121 30.047-17.262 4.273-5.764 5.334-10.706 3.088-14.313-2.99-4.798-11.794-6.778-21.916-4.926-16.36 2.995-37.392 16.26-42.821 43.783a1.15 1.15 0 0 1-1.126.926z"/><path fill="#afdcf2" d="M58.139 72.238c-1.99 0-3.66-.296-5.026-.713a1.147 1.147 0 0 1-.761-1.435c.184-.608.827-.95 1.435-.762 4.086 1.248 11.298 1.215 22.461-6.037l.138-.088c5.078-3.298 14.533-9.433 19.331-20.852a1.15 1.15 0 0 1 2.119.89c-5.071 12.07-15.289 18.7-20.199 21.886l-.138.09c-8.332 5.408-14.716 7.018-19.36 7.018zm-7.824-2.092c-.213 0-.427-.06-.617-.18-1.363-.874-2.033-1.68-2.102-1.768a1.15 1.15 0 0 1 .174-1.616 1.147 1.147 0 0 1 1.612.171c.02.023.526.618 1.557 1.281.535.345.69 1.054.348 1.59-.22.341-.59.528-.969.528z"/><path fill="#fff" d="M82.344 8.48a.894.894 0 0 1-.069-1.787c.427-.039 4.213-.532 4.016-5.764a.895.895 0 0 1 .86-.926h.034c.48 0 .877.378.893.86.263 7.072-5.61 7.614-5.669 7.617h-.072z"/><path fill="#fff" d="M92.105 8.48h-.07c-.058-.003-5.93-.545-5.668-7.616a.895.895 0 0 1 1.787.065c-.2 5.374 3.846 5.751 4.02 5.764a.894.894 0 0 1-.07 1.787m-4.916 6.664h-.033a.893.893 0 0 1-.86-.926c.2-5.373-3.846-5.751-4.017-5.764a.894.894 0 0 1-.821-.962.893.893 0 0 1 .962-.825c.06.007 5.932.545 5.669 7.616a.896.896 0 0 1-.893.86z"/><path fill="#fff" d="M87.26 15.144a.894.894 0 0 1-.893-.86c-.263-7.072 5.606-7.61 5.669-7.617a.89.89 0 0 1 .962.824.894.894 0 0 1-.821.963c-.427.04-4.214.532-4.02 5.764a.895.895 0 0 1-.86.926zM1.15 93.29a1.146 1.146 0 0 1-1.144-1.06 1.15 1.15 0 0 1 1.055-1.236c.548-.049 5.409-.683 5.16-7.402A1.15 1.15 0 0 1 7.326 82.4a1.16 1.16 0 0 1 1.192 1.106c.339 9.078-7.202 9.774-7.278 9.78l-.092.004"/><path fill="#fff" d="M13.686 93.29q-.047 0-.092-.003c-.076-.007-7.617-.703-7.278-9.78a1.15 1.15 0 0 1 1.192-1.108c.634.023 1.13.559 1.107 1.193-.256 6.9 4.94 7.386 5.163 7.403a1.146 1.146 0 0 1 1.054 1.234 1.15 1.15 0 0 1-1.143 1.061zm-6.316 8.556h-.043a1.15 1.15 0 0 1-1.107-1.192c.256-6.9-4.94-7.387-5.16-7.403a1.144 1.144 0 0 1-1.054-1.235c.05-.634.601-1.11 1.235-1.058.076.007 7.617.703 7.278 9.781a1.15 1.15 0 0 1-1.15 1.107"/><path fill="#fff" d="M7.462 101.846a1.15 1.15 0 0 1-1.146-1.107c-.339-9.081 7.202-9.774 7.278-9.78a1.144 1.144 0 0 1 1.235 1.057 1.15 1.15 0 0 1-1.055 1.235c-.548.049-5.412.683-5.163 7.403a1.154 1.154 0 0 1-1.106 1.192z"/><path fill="#e7a87b" d="M51.3 14.316a1.15 1.15 0 1 1-1.15-1.15c.635 0 1.15.516 1.15 1.15M32.58 29.424a1.15 1.15 0 0 1-2.299 0 1.15 1.15 0 0 1 2.3 0"/><path fill="#afdcf2" d="M66.737 19.243a1.15 1.15 0 0 1-2.3 0 1.15 1.15 0 0 1 2.299 0m23.714 9.853a1.153 1.153 0 0 1 .617-1.505 1.15 1.15 0 0 1 1.504.618 1.148 1.148 0 0 1-1.061 1.593c-.45 0-.877-.263-1.06-.706m-2.247-3.531a1.15 1.15 0 0 1 .082-1.623 1.155 1.155 0 0 1 1.626.083 1.151 1.151 0 0 1-1.708 1.54m-3.291-2.683a1.15 1.15 0 1 1 1.192-1.964c.542.328.716 1.034.388 1.58a1.15 1.15 0 0 1-1.58.384m-3.941-1.81a1.15 1.15 0 1 1 .74-2.178 1.15 1.15 0 0 1-.74 2.178m-4.276-1.054a1.149 1.149 0 1 1 .369-2.268 1.149 1.149 0 0 1-.37 2.268M72.27 19.6a1.15 1.15 0 1 1 .033 0zm20.472 15.522h-.08a1.15 1.15 0 0 1-1.07-1.225q.006-.092.017-.203c.032-.382.072-.858-.07-1.426a1.145 1.145 0 0 1 .838-1.392 1.145 1.145 0 0 1 1.393.837c.236.943.167 1.718.128 2.18l-.013.162a1.146 1.146 0 0 1-1.147 1.07zm-1.399 6.881q-.198 0-.395-.07a1.15 1.15 0 0 1-.686-1.474c.424-1.163.624-2.099.828-3.117a1.151 1.151 0 0 1 2.256.45c-.214 1.071-.447 2.138-.923 3.452a1.15 1.15 0 0 1-1.08.755zM80.396 57.659a1.151 1.151 0 0 1-.732-2.036c3.94-3.252 7.172-7.334 9.343-11.81.28-.572.966-.809 1.537-.533.572.28.808.966.532 1.537-2.315 4.77-5.757 9.12-9.951 12.58a1.14 1.14 0 0 1-.73.262"/><path fill="#e7a87b" d="M53.15 85.421a1.146 1.146 0 0 1 1.074-1.218 1.147 1.147 0 1 1-1.07 1.218zm-7.308 1.225a1.15 1.15 0 1 1 1.19 1.107h-.04c-.618 0-1.127-.49-1.15-1.11zm-3.557.962a1.147 1.147 0 1 1 .227-2.286 1.148 1.148 0 0 1-.112 2.293c-.04 0-.075 0-.115-.007m-4.706-.847a1.15 1.15 0 0 1-.811-1.409 1.153 1.153 0 0 1 1.412-.811c.61.167.976.798.808 1.412a1.146 1.146 0 0 1-1.409.808m-4.516-1.737a1.154 1.154 0 0 1-.486-1.554 1.149 1.149 0 1 1 2.036 1.067 1.15 1.15 0 0 1-1.55.487m-3.994-2.861a1.148 1.148 0 1 1 1.603-1.645c.453.44.463 1.169.023 1.625a1.154 1.154 0 0 1-1.626.02m-2.923-4.007a1.149 1.149 0 1 1 2.06-1.023 1.149 1.149 0 0 1-2.06 1.023m-.259-3.277c-.398 0-.782-.204-.995-.572-.394-.677-.437-1.406-.434-1.895 0-.634.516-1.146 1.15-1.146h.003a1.15 1.15 0 0 1 1.146 1.152c0 .24.013.542.122.73a1.148 1.148 0 0 1-.995 1.728zm.016-4.937c-.05 0-.102 0-.154-.01a1.15 1.15 0 0 1-.985-1.294c.144-1.08.308-2.164.702-3.504a1.147 1.147 0 1 1 2.204.647c-.348 1.189-.49 2.135-.63 3.163a1.15 1.15 0 0 1-1.137.995zm1.741-6.87q-.239 0-.467-.1a1.15 1.15 0 0 1-.584-1.516c2.217-4.986 4.588-8.415 9.071-13.108a1.151 1.151 0 0 1 1.665 1.59c-4.28 4.48-6.539 7.74-8.634 12.454-.19.427-.611.683-1.051.683z"/><path fill="#afdcf2" d="M50.25 52.877a1.149 1.149 0 0 1-.706-2.056c.289-.227.584-.447.877-.66a1.15 1.15 0 0 1 1.35 1.862c-.273.2-.55.404-.818.614-.21.164-.457.243-.703.243zm-2.667 2.828a1.14 1.14 0 0 1-.752-.28 1.2 1.2 0 0 1-.188-.173c-.114-.132-.64-.838.155-1.675a1.15 1.15 0 0 1 1.625-.04q.011.008.017.017.063.055.082.075c.115.125.657.788-.046 1.652-.227.28-.558.424-.893.424m1.832 12.684q-.058.002-.121-.007c-1.912-.197-3.488-1.057-4.44-2.424-.795-1.136-1.061-2.532-.73-3.826a1.147 1.147 0 0 1 1.396-.83c.614.157.989.78.831 1.398-.164.647-.023 1.357.388 1.945.565.808 1.556 1.327 2.791 1.451a1.15 1.15 0 0 1-.118 2.293z"/><path fill="#fff" d="M63.764 96.522a1.15 1.15 0 0 1-1.15-1.117l-.006-.23a1.153 1.153 0 0 1 1.117-1.182 1.16 1.16 0 0 1 1.182 1.117l.007.23a1.153 1.153 0 0 1-1.117 1.182zm-.003-3.488a1.15 1.15 0 0 1-1.15-1.14v-.184a1.146 1.146 0 0 1 1.14-1.156 1.146 1.146 0 0 1 1.157 1.14v.184a1.146 1.146 0 0 1-1.14 1.156h-.01z"/><path fill="#fff" d="M65.479 94.663a1.15 1.15 0 0 1-.004-2.299h.467a1.15 1.15 0 0 1 .006 2.299zm-3.675.003a1.15 1.15 0 0 1-.033-2.299l.23-.006a1.16 1.16 0 0 1 1.182 1.116 1.153 1.153 0 0 1-1.117 1.183l-.23.006zm33.112-14.562c-.05 0-.099 0-.148-.01-1.911-.25-3.16-1.36-3.925-2.595-1.537 1.902-3.872 2.339-4.007 2.365a1.145 1.145 0 0 1-1.33-.933 1.145 1.145 0 0 1 .933-1.33c.115-.023 2.956-.588 3.38-3.33a1.164 1.164 0 0 1 1.162-.972 1.15 1.15 0 0 1 1.117 1.028c.013.124.39 3.156 2.969 3.49a1.15 1.15 0 0 1-.148 2.29z"/><path fill="#fff" d="M90.656 84.17a1.15 1.15 0 0 1-1.14-1.012c-.013-.112-.416-2.916-3.077-3.271a1.15 1.15 0 0 1-.985-1.294 1.146 1.146 0 0 1 1.294-.985c1.879.253 3.13 1.26 3.918 2.397 1.153-1.36 2.9-1.993 3.994-2.151a1.15 1.15 0 1 1 .332 2.276c-.122.02-3.055.503-3.186 2.953a1.15 1.15 0 0 1-1.11 1.087z"/><path fill="#e7a87b" d="M16.32 82.537a1.15 1.15 0 0 1 .518-1.54 1.148 1.148 0 1 1 .513 2.178c-.424 0-.828-.234-1.032-.638m.167-3.202a1.15 1.15 0 1 1 .33-2.278 1.15 1.15 0 0 1-.33 2.278m80.716-57.859a1.149 1.149 0 1 1 2.297-.002 1.149 1.149 0 0 1-2.297.002m-.716-3.458a1.15 1.15 0 0 1-.05-1.626 1.147 1.147 0 0 1 1.623-.053 1.151 1.151 0 0 1-.785 1.99c-.282 0-.565-.105-.788-.311"/><path fill="#d77599" d="M51.021 79.013c-5.901 0-10.95-1.422-14.273-4.144-5.482-4.493-5.265-11.61.588-19.532 11.3-16.01 30.83-18.162 31.657-18.248a1.15 1.15 0 0 1 .23 2.29c-.19.02-19.325 2.148-30.025 17.305-5.117 6.923-5.465 12.743-.995 16.408 8.398 6.884 32.255 4.535 48.003-12.819 7.518-8.286 11.492-20.047 11.492-34.018a1.15 1.15 0 0 1 2.299 0c0 14.552-4.181 26.849-12.086 35.565-7.46 8.22-17.404 13.981-28.006 16.224-3.09.654-6.085.976-8.884.976z"/></g><defs><clipPath id="a"><path fill="#fff" d="M0 0h100v101.846H0z"/></clipPath></defs></svg>