<svg xmlns="http://www.w3.org/2000/svg" width="100" height="109" fill="none" viewBox="0 0 100 109"><g clip-path="url(#a)"><path fill="#fff" d="M50.99 27.45c-7.515 0-13.626-6.111-13.626-13.626S43.475.194 50.99.194 64.616 6.305 64.616 13.82 58.501 27.446 50.99 27.446zm0-25.315c-6.445 0-11.689 5.244-11.689 11.689s5.244 11.689 11.69 11.689c6.444 0 11.688-5.244 11.688-11.689S57.435 2.135 50.99 2.135"/><path fill="#fff" d="M50.99 27.644c-7.62 0-13.82-6.2-13.82-13.82S43.37 0 50.99 0s13.82 6.2 13.82 13.82-6.2 13.82-13.82 13.82zm0-27.256c-7.406 0-13.433 6.026-13.433 13.432s6.027 13.433 13.433 13.433 13.433-6.027 13.433-13.433S58.396.388 50.99.388m0 25.314c-6.55 0-11.882-5.328-11.882-11.882S44.437 1.938 50.99 1.938c6.554 0 11.882 5.329 11.882 11.882 0 6.554-5.328 11.882-11.882 11.882m0-23.373c-6.337 0-11.495 5.155-11.495 11.495S44.65 25.319 50.99 25.319s11.495-5.155 11.495-11.495S57.33 2.329 50.99 2.329"/><path fill="#fff" d="M51.277 22.76c-4.325 0-7.522-2.472-8.553-6.618l-.105-.423c-.318-1.244-.678-2.655-.399-4.061.438-2.194 2.574-2.221 3.852-2.24q.216.002.419-.008c.903-.027 1.814-.031 2.697-.035.923 0 1.872-.004 2.798-.039a86 86 0 0 1 2.748-.062c1.857 0 3.263.132 4.089.78 1.155.902 1.14 2.468 1.128 3.611v.31c0 2.694-.946 4.969-2.736 6.58-1.578 1.42-3.686 2.202-5.934 2.202zm3.457-11.54c-.821 0-1.77.03-2.682.062-.957.034-1.926.034-2.86.038-.868 0-1.767.004-2.643.031q-.223.007-.457.008c-1.48.02-1.868.151-1.973.678-.194.973.097 2.109.376 3.202q.057.22.109.434c.383 1.546 1.802 5.146 6.67 5.146 1.743 0 3.433-.62 4.634-1.701 1.372-1.232 2.097-3.007 2.097-5.135v-.333c.008-.74.016-1.752-.38-2.062-.314-.244-1.286-.368-2.895-.368z"/><path fill="#fff" d="M51.277 22.955c-4.422 0-7.689-2.531-8.74-6.767l-.104-.418c-.322-1.268-.69-2.698-.403-4.147.469-2.349 2.79-2.38 4.038-2.395.144 0 .283 0 .419-.008.887-.027 1.786-.031 2.655-.035h.046c.915 0 1.856-.004 2.79-.039a82 82 0 0 1 2.756-.062c1.895 0 3.34.14 4.209.818 1.232.961 1.213 2.581 1.201 3.767v.31c0 2.752-.969 5.077-2.802 6.724-1.612 1.45-3.767 2.248-6.065 2.248zm3.457-13.483c-.864 0-1.872.03-2.74.062-.938.035-1.887.035-2.802.039h-.047c-.864 0-1.759.003-2.643.034-.135.004-.279.008-.422.008-1.298.016-3.26.043-3.662 2.081-.272 1.36.085 2.748.395 3.973q.057.219.108.426c1.008 4.05 4.132 6.472 8.364 6.472 2.201 0 4.263-.763 5.805-2.15 1.748-1.574 2.674-3.799 2.674-6.438v-.314c.016-1.104.027-2.612-1.05-3.457-.783-.612-2.155-.736-3.972-.736zm-3.457 11.541c-5 0-6.46-3.701-6.856-5.294l-.108-.434c-.283-1.116-.582-2.271-.376-3.286.143-.729.802-.814 2.162-.834q.233.002.454-.007a86 86 0 0 1 2.639-.031c.888 0 1.887-.004 2.86-.04a79 79 0 0 1 2.686-.061c2.236 0 2.79.232 3.015.41.473.369.461 1.388.453 2.21v.337c0 2.186-.748 4.011-2.158 5.278-1.236 1.113-2.977 1.752-4.767 1.752zm3.457-9.6c-.833 0-1.822.031-2.674.062-.985.035-1.984.035-2.868.04-.872 0-1.767.003-2.635.03q-.223.007-.462.008c-1.526.02-1.716.174-1.786.52-.186.93.1 2.042.372 3.115l.112.434c.372 1.504 1.752 5 6.48 5 1.698 0 3.34-.601 4.507-1.655 1.33-1.194 2.031-2.918 2.031-4.992v-.333c.008-.624.016-1.655-.306-1.907-.155-.124-.725-.325-2.779-.325zm.686 31.597h-9.425a3.19 3.19 0 0 1-3.186-3.185v-4.159a3.19 3.19 0 0 1 3.186-3.185h9.425c1.76 0 3.186 1.43 3.186 3.185v4.159c0 1.76-1.43 3.185-3.186 3.185m-9.425-8.591c-.69 0-1.248.558-1.248 1.247v4.159a1.25 1.25 0 0 0 1.248 1.248h9.425a1.25 1.25 0 0 0 1.248-1.248v-4.159c0-.686-.562-1.247-1.248-1.247z"/><path fill="#fff" d="M55.42 43.204h-9.425a3.383 3.383 0 0 1-3.38-3.38v-4.158a3.383 3.383 0 0 1 3.38-3.38h9.425a3.38 3.38 0 0 1 3.38 3.38v4.159a3.38 3.38 0 0 1-3.38 3.38m-9.425-10.533a2.994 2.994 0 0 0-2.992 2.992v4.158a2.996 2.996 0 0 0 2.992 2.992h9.425a2.994 2.994 0 0 0 2.992-2.992v-4.158a2.994 2.994 0 0 0-2.992-2.992zm9.425 8.592h-9.425a1.444 1.444 0 0 1-1.442-1.442v-4.158c0-.795.647-1.442 1.442-1.442h9.425c.794 0 1.442.647 1.442 1.442v4.158c0 .794-.648 1.442-1.442 1.442m-9.425-6.65c-.582 0-1.054.472-1.054 1.053v4.159c0 .581.472 1.054 1.054 1.054h9.425c.581 0 1.054-.473 1.054-1.054v-4.159c0-.58-.473-1.054-1.054-1.054z"/><path fill="#fff" d="M51.176 57.699a1 1 0 0 1-.391-.082l-8.705-3.844c-1.593-.415-2.871-2.05-2.871-3.693V30.4c0-1.76 1.43-3.186 3.185-3.186H59.3c1.76 0 3.186 1.43 3.186 3.186v19.68c0 1.546-.81 3.542-3.089 4.499l-7.871 3.058a1 1 0 0 1-.353.066zm-8.782-28.547c-.69 0-1.248.558-1.248 1.248v19.68c0 .782.698 1.65 1.461 1.825.062.011.12.035.179.058l8.413 3.717 7.472-2.903c1.74-.733 1.876-2.252 1.876-2.697V30.4c0-.69-.558-1.248-1.248-1.248z"/><path fill="#fff" d="M51.176 57.893q-.246-.001-.469-.101l-8.704-3.845c-1.663-.43-2.988-2.135-2.988-3.871v-19.68a3.383 3.383 0 0 1 3.38-3.38h16.904a3.383 3.383 0 0 1 3.38 3.38v19.68c0 1.608-.841 3.681-3.21 4.677l-7.878 3.062a1.1 1.1 0 0 1-.423.078zm-8.782-30.49a2.994 2.994 0 0 0-2.992 2.993v19.68c0 1.542 1.225 3.115 2.729 3.507l8.735 3.856c.19.081.407.09.597.016l7.871-3.058c2.186-.919 2.965-2.833 2.965-4.318V30.4a2.994 2.994 0 0 0-2.992-2.991H42.402zm8.801 28.486-8.487-3.752a1 1 0 0 0-.14-.046c-.86-.194-1.612-1.136-1.612-2.015v-19.68c0-.795.647-1.442 1.442-1.442h16.905c.794 0 1.442.647 1.442 1.442v19.68c0 .476-.144 2.1-1.992 2.88l-7.554 2.933zm-8.8-26.544c-.582 0-1.055.473-1.055 1.055v19.68c0 .69.635 1.484 1.31 1.635q.107.023.213.07l8.34 3.685 7.398-2.875c1.624-.682 1.752-2.1 1.752-2.52v-19.68c0-.58-.473-1.053-1.054-1.053H42.394z"/><path fill="#fff" d="m39.325 37.751-2.03 1.04a3.4 3.4 0 0 1 1.325 1.499l.717-.364c-.1-.733-.082-1.454-.012-2.175"/><path fill="#fff" d="m38.53 40.553-.085-.182a3.2 3.2 0 0 0-1.252-1.418l-.298-.178 2.655-1.357-.035.353c-.078.83-.078 1.504.011 2.127l.02.136zm-.856-1.74q.634.472 1.03 1.217l.42-.213a9 9 0 0 1-.024-1.732zm-3.666-.79-1.353-3.02a.977.977 0 0 1 .422-1.31l8.08-4.127s-.007-.011-.007-.015a5.1 5.1 0 0 1-.496-1.907l-8.46 4.325c-1.43.733-2 2.488-1.267 3.918l1.337 2.988 1.744-.848z"/><path fill="#fff" d="m32.167 39.131-1.419-3.17a3.08 3.08 0 0 1-.182-2.36 3.08 3.08 0 0 1 1.539-1.81l8.724-4.457.015.299a4.9 4.9 0 0 0 .477 1.833l.108.178-.186.093-8.08 4.127a.78.78 0 0 0-.337 1.047l1.434 3.2zm8.317-11.185-8.205 4.194a2.7 2.7 0 0 0-1.349 1.585 2.7 2.7 0 0 0 .163 2.073l1.26 2.814 1.395-.678-1.275-2.849a1.166 1.166 0 0 1 .511-1.558l7.918-4.046a5.2 5.2 0 0 1-.418-1.53z"/><path fill="#fff" d="M38.197 38.848c-.457-.24-.965-.287-1.209.175l-3.476 6.731a.934.934 0 0 1-1.264.392l-3.852-2.031a.94.94 0 0 1-.392-1.267l3.554-6.74c-.31-.225-.07-1.314-.314-1.6-.193-.229.16-1.14.016-1.384l-4.914 8.852a2.82 2.82 0 0 0 1.174 3.798l3.852 2.03a2.82 2.82 0 0 0 2.14.202 2.78 2.78 0 0 0 1.654-1.376l3.566-6.689c.24-.457-.081-.849-.539-1.089z"/><path fill="#fff" d="M32.682 48.32c-.48 0-.965-.12-1.399-.349l-3.852-2.03c-.71-.373-1.229-1-1.469-1.768a3 3 0 0 1 .21-2.29l5.08-9.15.175.29c.104.175.058.454.007.775-.027.179-.081.508-.039.582.155.186.163.52.175.88.004.232.015.627.104.69l.136.096-3.635 6.89a.745.745 0 0 0 .31 1.005l3.852 2.03a.74.74 0 0 0 1.004-.31l3.476-6.727c.256-.489.841-.586 1.47-.256.642.34.879.856.62 1.352l-3.57 6.69a2.97 2.97 0 0 1-2.659 1.6zm-1.666-14.363-4.5 8.108a2.62 2.62 0 0 0-.182 1.992 2.6 2.6 0 0 0 1.279 1.542l3.852 2.031a2.63 2.63 0 0 0 1.527.283c.16-.02.314-.05.465-.1a2.6 2.6 0 0 0 1.539-1.28l3.57-6.689c.209-.399-.198-.69-.462-.825-.43-.225-.787-.21-.946.093l-3.476 6.728c-.14.267-.376.465-.666.554a1.14 1.14 0 0 1-.865-.081L28.3 44.282a1.133 1.133 0 0 1-.473-1.527l3.492-6.623c-.128-.206-.136-.528-.143-.865-.008-.236-.016-.558-.086-.64-.128-.15-.116-.395-.081-.666z"/><path fill="#fff" d="M32.706 47.3c-.36 1.086-.624 1.892-.791 3.101-.054.4-.02.802.012 1.19.038.422.077.903-.058 1.05-.527.202-2.516-.414-3.174-.616-.283-.09-.532-.163-.714-.213-.19-.05-.403-.101-.628-.155-.57-.136-2.054-.492-2.352-.837a.9.9 0 0 1 .143-.225c.776-.996 1.167-1.659 1.442-2.977.186-.887.527-2.267.853-3.32a5.2 5.2 0 0 1-1.28-1.888c-.034.05-.065.1-.092.159-.547 1.279-1.136 3.802-1.318 4.666-.201.96-.434 1.376-1.085 2.209-.651.837-.605 1.535-.453 1.972.45 1.283 2.255 1.714 3.705 2.062.209.05.407.097.585.144.163.042.38.112.635.19 1.787.55 3.368.972 4.415.57.174-.067.337-.16.476-.276.923-.752.826-1.868.756-2.678-.023-.283-.05-.577-.023-.767.15-1.07.372-1.74.74-2.849l.256-.779a4.75 4.75 0 0 1-2.058.268z"/><path fill="#fff" d="M31.574 54.738c-1.012 0-2.279-.364-3.488-.74l-.066-.02a15 15 0 0 0-.562-.166q-.246-.064-.538-.132l-.043-.012c-1.496-.356-3.36-.802-3.845-2.186-.17-.484-.224-1.251.48-2.158.64-.822.857-1.202 1.051-2.132.182-.872.775-3.41 1.33-4.7q.047-.104.112-.195l.21-.302.13.341a5 5 0 0 0 1.233 1.818l.09.081-.035.116a39 39 0 0 0-.85 3.302c-.282 1.353-.685 2.035-1.48 3.058l-.046.062c.283.186 1.004.419 2.147.69q.35.08.636.155c.186.05.434.124.72.213.523.163 2.1.647 2.826.647a1 1 0 0 0 .166-.011c.05-.155.012-.628-.011-.868-.035-.4-.07-.81-.012-1.233.174-1.248.45-2.08.798-3.135l.047-.144.151.012q.359.03.725.008a4.6 4.6 0 0 0 1.255-.267l.369-.132-.12.372-.23.701-.026.082c-.365 1.104-.586 1.767-.733 2.817-.023.17 0 .465.023.721.07.806.179 2.027-.825 2.845a2 2 0 0 1-.531.306 2.9 2.9 0 0 1-1.054.174zm-5.418-11.863c-.512 1.314-1.043 3.589-1.21 4.399-.209.992-.46 1.441-1.123 2.29-.597.767-.562 1.4-.422 1.79.414 1.182 2.162 1.601 3.569 1.934l.043.012q.297.071.55.136c.15.038.349.1.577.17l.066.02c1.182.364 2.415.72 3.372.72.36 0 .659-.046.914-.147a1.6 1.6 0 0 0 .427-.244c.845-.69.756-1.697.686-2.511-.027-.295-.05-.597-.023-.81.15-1.086.375-1.76.747-2.876l.028-.085.112-.341a4.8 4.8 0 0 1-1.62.17c-.322.97-.574 1.767-.736 2.926-.055.376-.02.768.011 1.14.05.6.074 1.003-.108 1.201l-.031.035-.043.015a1 1 0 0 1-.36.055c-.783 0-2.345-.48-2.93-.663-.29-.09-.531-.163-.713-.213-.186-.05-.4-.1-.62-.151-1.05-.252-2.159-.555-2.457-.9l-.078-.089.047-.112q.05-.12.166-.271c.756-.97 1.14-1.62 1.403-2.9a41 41 0 0 1 .826-3.224 5.4 5.4 0 0 1-1.066-1.476zm41.184 8.328q-.262 0-.53-.046a2.9 2.9 0 0 1-1.872-1.21l-4.096-5.929a.97.97 0 0 1 1.597-1.1l4.096 5.929a.973.973 0 0 0 1.353.248L71.6 46.53a.975.975 0 0 0 .248-1.353l-8.48-12.274c-1.755-2.573-2.414-3.05-2.623-3.131a.97.97 0 0 1-.795-1.093.97.97 0 0 1 1.097-.826c1.132.16 2.34 1.632 3.926 3.953l.147.213 8.325 12.05a2.91 2.91 0 0 1-.74 4.05l-3.713 2.565a2.9 2.9 0 0 1-1.651.516z"/><path fill="#fff" d="M67.34 51.397q-.285.001-.565-.05a3.07 3.07 0 0 1-1.996-1.29l-4.096-5.93a1.14 1.14 0 0 1-.186-.872c.054-.306.228-.574.484-.748.512-.353 1.267-.213 1.62.294l4.097 5.93c.116.17.294.287.5.321a.77.77 0 0 0 .58-.124l3.713-2.565a.78.78 0 0 0 .198-1.081l-8.48-12.274c-1.755-2.574-2.383-2.988-2.519-3.054a1.154 1.154 0 0 1-.93-1.306 1.164 1.164 0 0 1 1.318-.988c1.201.17 2.441 1.67 4.058 4.034l.147.213 8.325 12.05a3.1 3.1 0 0 1 .5 2.324 3.06 3.06 0 0 1-1.287 1.996l-3.713 2.566c-.523.36-1.132.55-1.76.55zm-5.696-8.704a.76.76 0 0 0-.442.14.76.76 0 0 0-.322.5.77.77 0 0 0 .124.58l4.097 5.93c.41.597 1.034 1 1.748 1.128a2.74 2.74 0 0 0 2.034-.438l3.713-2.566c.597-.41.996-1.03 1.128-1.748a2.7 2.7 0 0 0-.438-2.034l-8.472-12.266c-1.511-2.213-2.736-3.72-3.794-3.872a.766.766 0 0 0-.876.659.77.77 0 0 0 .636.872l.038.012c.473.186 1.411 1.294 2.713 3.2l8.48 12.275a1.167 1.167 0 0 1-.295 1.62l-3.712 2.565a1.17 1.17 0 0 1-.873.19 1.16 1.16 0 0 1-.748-.484l-4.096-5.93a.78.78 0 0 0-.64-.337z"/><path fill="#fff" d="M71.387 58.028q-.292.002-.566-.089c-1.174-.384-1.496-1.496-1.728-2.31-.082-.283-.167-.573-.264-.748-.543-.98-1.008-1.542-1.779-2.48-.496-.605-1.112-1.353-1.918-2.426a.966.966 0 0 1 .194-1.357.967.967 0 0 1 1.356.194 66 66 0 0 0 1.868 2.36c.783.95 1.349 1.64 1.976 2.771.206.369.318.768.43 1.155.125.423.26.9.446.992.585 0 2.28-1.337 2.837-1.779.24-.19.45-.356.609-.468.162-.12.352-.249.55-.384.5-.345 1.802-1.24 1.961-1.686a1 1 0 0 0-.22-.167c-1.12-.674-1.749-1.17-2.504-2.34-.698-1.082-2.023-2.95-2.775-3.72a.97.97 0 0 1 .019-1.373.97.97 0 0 1 1.372.02c1.004 1.03 2.515 3.251 3.011 4.018.554.853.934 1.167 1.876 1.733s1.159 1.26 1.174 1.74c.043 1.407-1.542 2.5-2.813 3.376-.186.127-.36.247-.512.356-.14.1-.33.248-.546.419-1.52 1.197-2.895 2.197-4.054 2.197z"/><path fill="#fff" d="M71.387 58.222q-.326.001-.624-.097c-1.271-.415-1.62-1.632-1.856-2.434-.082-.279-.163-.558-.248-.713-.535-.965-.996-1.523-1.76-2.453a63 63 0 0 1-1.926-2.434 1.17 1.17 0 0 1 .233-1.632 1.16 1.16 0 0 1 1.627.233c.772 1.027 1.372 1.756 1.849 2.34.798.974 1.372 1.667 2.007 2.815.214.387.334.794.45 1.193.07.24.21.721.318.849.279-.047.969-.403 2.655-1.725.251-.197.465-.364.623-.48q.227-.163.5-.35l.055-.038c1.015-.697 1.627-1.194 1.825-1.48q-.031-.023-.074-.047c-1.147-.69-1.79-1.197-2.565-2.403-.694-1.073-2.008-2.93-2.752-3.69a1.167 1.167 0 0 1 .023-1.646 1.193 1.193 0 0 1 1.647.023c1.02 1.046 2.539 3.279 3.035 4.05.535.825.888 1.116 1.814 1.67 1.015.613 1.252 1.372 1.267 1.9.047 1.515-1.585 2.635-2.899 3.538l-.074.05c-.155.108-.306.21-.434.306-.131.093-.298.229-.496.384l-.042.035c-1.554 1.224-2.938 2.24-4.178 2.24zm-5.484-9.608a.77.77 0 0 0-.465.156.78.78 0 0 0-.155 1.088c.798 1.062 1.41 1.806 1.903 2.407.787.957 1.256 1.527 1.81 2.523.108.194.194.492.279.783.236.822.53 1.833 1.604 2.182 1.163.38 2.771-.76 4.442-2.077l.042-.035c.202-.16.376-.295.508-.392q.204-.145.442-.31l.07-.05c1.236-.849 2.77-1.907 2.732-3.209-.016-.434-.213-1.058-1.078-1.581-.953-.574-1.368-.91-1.937-1.79-.493-.764-1.988-2.965-2.988-3.992a.795.795 0 0 0-1.097-.016.777.777 0 0 0-.016 1.097c.76.779 2.093 2.662 2.798 3.751.737 1.14 1.35 1.624 2.442 2.28.143.084.22.154.263.2l.082.086-.039.112c-.159.442-1.116 1.148-2.03 1.78l-.059.042-.492.34c-.155.113-.36.276-.6.466-1.601 1.26-2.512 1.818-2.958 1.821h-.046l-.043-.019c-.244-.124-.376-.52-.546-1.112-.109-.376-.221-.768-.415-1.113-.62-1.116-1.182-1.798-1.957-2.74a59 59 0 0 1-1.872-2.367.77.77 0 0 0-.624-.31M47.212 75.898h-4.434c-1.76 0-3.186-1.488-3.186-3.317V53.16q0-.248.035-.485a.966.966 0 0 1 1.109-.806c.53.081.89.581.806 1.108a1 1 0 0 0-.012.182v19.42c0 .76.558 1.377 1.248 1.377h4.434c.685 0 1.247-.617 1.247-1.376V57.05a.97.97 0 0 1 1.938 0v15.53c0 1.829-1.43 3.317-3.185 3.317"/><path fill="#fff" d="M47.212 76.092h-4.434c-1.864 0-3.38-1.577-3.38-3.511V53.16q-.001-.268.04-.516a1.153 1.153 0 0 1 1.328-.969c.632.1 1.07.698.97 1.33a1 1 0 0 0-.012.15v19.42c0 .652.473 1.183 1.054 1.183h4.434c.58 0 1.054-.531 1.054-1.182v-15.53a1.164 1.164 0 0 1 2.325 0v15.53c0 1.938-1.515 3.511-3.38 3.511zm-6.632-24.04a.78.78 0 0 0-.763.655 3 3 0 0 0-.035.453v19.42c0 1.725 1.341 3.124 2.992 3.124h4.434c1.65 0 2.992-1.403 2.992-3.123V57.05a.777.777 0 0 0-.776-.775.777.777 0 0 0-.775.775v15.53c0 .868-.647 1.57-1.441 1.57h-4.434c-.794 0-1.442-.706-1.442-1.57V53.16q-.001-.116.016-.214a.78.78 0 0 0-.771-.899z"/><path fill="#fff" d="M49.774 81.022c-1.175 0-3.473-.016-5.566-.028a870 870 0 0 0-4.046-.019.97.97 0 0 1-.922-1.267c-.151-1.236.174-2.364.953-3.279 1.256-1.473 3.415-2.077 4.996-2.011 2.034.077 3.616.713 4.569 1.84.849 1 1.178 2.318.977 3.919a.97.97 0 0 1-.962.848zm-8.631-1.989c.81.004 1.91.012 3.073.02 1.628.011 3.38.023 4.627.027-.035-.643-.224-1.17-.565-1.57-.752-.883-2.136-1.116-3.167-1.158-1.112-.043-2.65.399-3.441 1.329a2.12 2.12 0 0 0-.527 1.353"/><path fill="#fff" d="M49.774 81.215c-1.175 0-3.473-.015-5.57-.027h-.159a839 839 0 0 0-3.883-.02A1.15 1.15 0 0 1 39 80.007q.001-.161.043-.318c-.147-1.275.202-2.445 1.004-3.387 1.31-1.538 3.46-2.085 4.906-2.085q.122-.001.245.004c2.088.081 3.716.74 4.708 1.907.884 1.042 1.229 2.41 1.023 4.07a1.17 1.17 0 0 1-1.154 1.018m-4.822-6.611c-1.364 0-3.387.511-4.612 1.945-.74.868-1.054 1.95-.91 3.132v.042l-.008.043a.777.777 0 0 0 .736 1.015c.667 0 2.198.008 3.887.02h.16c2.092.015 4.39.03 5.565.03.391 0 .724-.29.77-.681.195-1.547-.12-2.814-.933-3.771-.919-1.082-2.45-1.694-4.43-1.771-.074 0-.151-.004-.229-.004zm4.1 4.67h-.205c-1.07-.004-2.507-.016-3.922-.023l-3.98-.024.008-.197c.02-.558.205-1.043.573-1.473.86-1.012 2.496-1.442 3.597-1.4 1.07.043 2.511.288 3.306 1.225.368.43.573 1 .612 1.686zm-7.7-.43 3.573.023 3.71.02q-.091-.763-.505-1.253c-.705-.829-2.034-1.05-3.027-1.089-1.015-.038-2.51.35-3.286 1.26-.264.31-.419.651-.465 1.035zm17.997-2.947h-4.434c-1.76 0-3.185-1.488-3.185-3.317V58.706s0-1.918.038-2.147a.97.97 0 0 1 1.922.248c-.011.225-.019 1.667-.019 1.903v13.875c0 .76.562 1.375 1.248 1.375h4.434c.69 0 1.248-.616 1.248-1.375V51.51a.97.97 0 0 1 1.937 0v21.075c0 1.829-1.43 3.317-3.185 3.317z"/><path fill="#fff" d="M59.35 76.092h-4.434c-1.864 0-3.38-1.577-3.38-3.511V58.706c0-.077 0-1.934.04-2.178a1.16 1.16 0 0 1 1.333-.969c.608.097 1.038.652.976 1.264-.011.21-.02 1.659-.02 1.883v13.875c0 .65.474 1.182 1.055 1.182h4.433c.582 0 1.055-.531 1.055-1.182V51.506a1.164 1.164 0 0 1 2.325 0V72.58c0 1.938-1.515 3.51-3.38 3.51zm-6.631-20.157a.78.78 0 0 0-.764.655c-.027.163-.035 1.496-.035 2.116v13.875c0 1.724 1.345 3.123 2.992 3.123h4.434c1.65 0 2.992-1.403 2.992-3.123V51.506a.777.777 0 0 0-.775-.776.777.777 0 0 0-.776.776V72.58c0 .868-.647 1.57-1.441 1.57h-4.434c-.794 0-1.441-.706-1.441-1.57V58.706c0-.232.007-1.682.019-1.91a.78.78 0 0 0-.775-.864z"/><path fill="#fff" d="M61.892 81.208c-1.186 0-3.515-.05-5.573-.097-1.72-.039-3.34-.074-4.023-.074a.97.97 0 0 1-.922-1.267c-.151-1.236.174-2.364.953-3.279 1.256-1.473 3.415-2.077 4.996-2.011 2.112.081 3.666.705 4.62 1.852.848 1.02 1.15 2.384.907 4.05a.97.97 0 0 1-.962.83zm-8.611-2.1c.822.015 1.93.038 3.085.065 1.604.035 3.38.078 4.631.093-.012-.702-.19-1.271-.542-1.69-.73-.88-2.148-1.112-3.202-1.155-1.108-.046-2.65.4-3.441 1.33a2.13 2.13 0 0 0-.527 1.36z"/><path fill="#fff" d="M61.892 81.401c-1.19 0-3.519-.05-5.577-.096h-.073a254 254 0 0 0-3.946-.074 1.15 1.15 0 0 1-1.162-1.163q0-.161.042-.318c-.147-1.275.202-2.445 1.004-3.387 1.31-1.538 3.461-2.085 4.903-2.085q.126-.001.248.004c2.17.085 3.77.733 4.763 1.922.883 1.066 1.205 2.477.95 4.201a1.17 1.17 0 0 1-1.152.996m-4.805-6.735c-1.36 0-3.384.511-4.608 1.945-.74.868-1.054 1.953-.911 3.132v.042l-.008.043a.777.777 0 0 0 .736 1.015c.67 0 2.268.035 3.953.074h.074c2.054.046 4.383.1 5.57.1a.78.78 0 0 0 .767-.662c.236-1.608-.055-2.922-.865-3.895-.918-1.104-2.422-1.705-4.48-1.783-.077 0-.15-.004-.232-.004zm4.104 4.79h-.198c-1.252-.02-3.023-.058-4.631-.093l-.392-.008a413 413 0 0 0-2.693-.054h-.198l.008-.198a2.33 2.33 0 0 1 .574-1.48c.86-1.012 2.496-1.438 3.596-1.4 1.097.043 2.57.291 3.345 1.225.38.454.577 1.066.585 1.814v.198zm-7.705-.539c.698.012 1.57.031 2.492.05l.388.008c1.519.035 3.19.07 4.422.09-.039-.566-.202-1.028-.489-1.373-.686-.825-2.042-1.046-3.061-1.085-1.016-.042-2.512.35-3.287 1.26a1.9 1.9 0 0 0-.465 1.046z"/><path fill="#63a566" d="M74.39 74.495c-.228 0-.457-.058-.67-.178a48.3 48.3 0 0 0-8.743-3.88c-.713-.232-1.1-1-.864-1.712.232-.71 1-1.097 1.713-.865a51 51 0 0 1 9.235 4.097 1.357 1.357 0 0 1-.67 2.535zM30.6 71.84a1.357 1.357 0 0 1-.55-2.597 52 52 0 0 1 5.577-2.072 1.354 1.354 0 0 1 1.694.899 1.35 1.35 0 0 1-.899 1.693c-1.79.55-3.57 1.21-5.278 1.961a1.4 1.4 0 0 1-.547.117zM1.357 106.751a1.355 1.355 0 0 1-1.322-1.655c1.818-8.057 5.116-14.886 10.084-20.881a1.354 1.354 0 0 1 1.91-.178c.578.476.66 1.333.179 1.91-4.69 5.659-7.801 12.12-9.526 19.75a1.356 1.356 0 0 1-1.322 1.058zm97.283 1.384c-.636 0-1.202-.45-1.33-1.097a48 48 0 0 0-4.867-13.584 1.356 1.356 0 1 1 2.387-1.286 50.7 50.7 0 0 1 5.143 14.351 1.358 1.358 0 0 1-1.333 1.62zM91.11 89.99c-.434 0-.865-.21-1.128-.597a48.6 48.6 0 0 0-8.48-9.569 1.357 1.357 0 1 1 1.78-2.05 51.4 51.4 0 0 1 8.952 10.103c.418.62.255 1.465-.369 1.884a1.36 1.36 0 0 1-.755.232zM78.596 77.355a1.33 1.33 0 0 1-.806-.267c-.644-.477-.71-1.194-.493-1.694.035-.081.303-.643.962-.786.403-.14.86-.09 1.232.174.659.469.736 1.19.52 1.694-.036.081-.3.655-.958.794q-.223.077-.457.078z"/><path fill="#afdcf2" d="M15.766 108.561h-.144c-.852-.043-2.089-.508-3.135-2.453a1.356 1.356 0 1 1 2.391-1.283c.442.826.795 1.023.884 1.027h.004c.263 0 .996-.539 1.422-1.213.213-.337.225-.833.24-1.407.02-.721.043-1.535.45-2.345.376-.74.95-1.278 1.457-1.751.368-.341.713-.663.86-.954.117-.228.454-1.027-.19-1.635-.154-.147-.317-.163-1.15.02-.404.088-.857.185-1.341.193-.396.008-.76-.02-1.078-.043-.988-.066-1.294-.066-1.786.411-.66.644-.985 1.198-1.167 1.984l-.023.097a1.354 1.354 0 0 1-1.64.996 1.355 1.355 0 0 1-.996-1.639l.008-.039c.306-1.317.895-2.34 1.922-3.34 1.38-1.35 2.76-1.252 3.864-1.179.299.02.578.04.868.035.206 0 .489-.066.791-.128.938-.205 2.36-.515 3.6.663 1.314 1.248 1.605 3.147.737 4.844-.365.714-.927 1.237-1.423 1.702-.375.349-.728.682-.887.988-.136.271-.147.702-.163 1.202-.023.806-.05 1.813-.659 2.778-.589.934-2.019 2.481-3.72 2.481z"/><path fill="#afdcf2" d="M12.208 103.569c-.287 0-.562-.093-.787-.252a1.48 1.48 0 0 1-.624-1.123c-.05-.745.458-1.38 1.178-1.477a1.37 1.37 0 0 1 1.489.957 1.355 1.355 0 0 1-1.011 1.876 1.4 1.4 0 0 1-.245.023zm63.218-3.069h-.066c-.81-.039-1.492-.663-1.83-1.666-.104-.318-.15-.609-.193-.865-.035-.225-.07-.442-.132-.53-.175-.268-.36-.535-.543-.807-.484-.71-.984-1.442-1.395-2.228a65 65 0 0 1-.53-1.039c-.388-.767-.757-1.492-1.175-2.19a9 9 0 0 1-.21-.364c-.193-.345-.313-.55-.492-.705-.166-.147-.422-.14-.46-.097-.07.077-.137.163-.206.248-1.264 1.604-2.419 1.279-3.163.72-.488-.367-.88-.848-1.255-1.313-.256-.318-.5-.62-.733-.833-.201-.186-.45-.368-.713-.566q-.193-.143-.38-.287a6 6 0 0 1-.387-.33c-.113-.1-.28-.251-.345-.278-.252-.04-.539.007-.721.128l-.031.023q.001.016.008.03c.081.385.22 1.028-.17 1.8a2.04 2.04 0 0 1-1.404 1.08 2.21 2.21 0 0 1-1.848-.457c-.423-.349-.775-.729-1.085-1.062l-.221-.236c-.148-.16-.547-.578-1.57-.202-.643.24-1.128.655-1.322 1.136q-.219.547.074 1.193c.062.074.221.225.33.326.523.492 1.751 1.64.968 3.077-.437.806-1.228 1.163-1.806 1.418-.193.09-.38.171-.496.245a1.354 1.354 0 1 1-1.461-2.283 6 6 0 0 1 .849-.434q.046-.018.093-.043c-.322-.302-.686-.643-.903-1.093-.546-1.143-.605-2.325-.163-3.418.48-1.186 1.535-2.155 2.891-2.662 1.721-.64 3.357-.318 4.488.883l.058.062c.148-.635.578-1.217 1.24-1.647.752-.488 1.721-.678 2.663-.523.802.132 1.337.609 1.694.926.081.07.159.144.244.21l.337.252c.306.228.624.46.93.74.388.352.72.767 1.016 1.135.112.14.228.283.34.411.055-.066.113-.136.171-.198 1.062-1.158 3.011-1.205 4.255-.1.527.465.822.988 1.058 1.406l.17.299c.47.783.877 1.585 1.268 2.36q.254.506.516 1.008c.337.647.79 1.314 1.232 1.957q.293.43.574.852c.097.148.174.291.236.438.438-.263.91-.27 1.31-.186q.11.024.213.058c-.054-.24-.12-.496-.186-.751-.112-.446-.22-.865-.287-1.248-.097-.547-.07-1.082-.05-1.554.043-.872.008-1.105-.174-1.244-.407-.314-.97-.547-1.562-.78-.923-.364-1.67-1.096-2.109-2.065a34 34 0 0 1-.55-1.322c-.105-.263-.91-.515-2.399-.751-.267-.043-.515-.082-.732-.128-.756-.152-1.62-.655-2.202-1.287-.922-1.008-1.34-2.52-.356-3.457 1.147-1.093 2.64-.275 3.201.035q.082.046.151.081.402.208.802.392c.26.124.524.248.783.38q.316.156.647.314c.318.154.64.306.946.468.52.272.876.601 1.19.896.1.093.201.186.314.282.434.369 1.073.655 1.686.93l.29.132c.213.097.415.202.613.303.356.186.608.31.84.364.055-.376.206-.83.636-1.163.229-.178.725-.453 1.446-.286.825.193 1.33.96 1.752 1.76.061.115.197.274.325.43l.182.216.062.082s1.302 1.895 3.55 5.135c.426.612.295 1.472-.314 1.903-.608.43-1.43.313-1.868-.287l-.05-.07a1136 1136 0 0 1-3.527-5.1l-.112-.132q-.084-.097-.17-.205c-.582.457-1.295.457-1.656.46h-.011a3.7 3.7 0 0 1-.74-.073c.201.12.395.248.585.396 1.345 1.034 1.275 2.53 1.228 3.522-.015.365-.03.706.012.958.05.283.143.655.244 1.05.151.593.306 1.205.372 1.744.198 1.686-.407 2.713-1.79 3.05a1.7 1.7 0 0 1-1.271-.182c-.466.945-1.245 1.05-1.562 1.05zm-21.646 2.593c-.406 0-.813-.183-1.08-.535l-.148-.194c-.256-.341-.496-.643-.732-.942-.36-.457-.733-.926-1.128-1.488-.12-.17-.264-.345-.41-.527q-.148-.181-.295-.368a1.356 1.356 0 0 1 2.143-1.663c.085.113.178.225.263.334.17.213.35.434.512.662.353.5.69.923 1.042 1.372.248.314.504.636.775.996l.136.178a1.358 1.358 0 0 1-1.077 2.182zm-.507 4.042a1.35 1.35 0 0 1-1.283-.919c-.24-.709.136-1.48.845-1.72.279-.097.546-.19.787-.279.147-.055.217-.101.24-.117a1.355 1.355 0 0 1 2.318 1.407c-.322.554-.865.973-1.613 1.252-.26.097-.554.201-.856.302a1.3 1.3 0 0 1-.438.074m33.81-8.697a1.356 1.356 0 0 1-1.349-1.232 1.356 1.356 0 0 1 2.558-.9c.116.3.147.466.147.772 0 .748-.608 1.356-1.356 1.356z"/><path fill="#d77599" d="m24.602 78.456 13.161-24.64a1.357 1.357 0 0 0-.488-1.795l-1.961-1.205a1.354 1.354 0 0 0-1.864.445 1.354 1.354 0 0 0 .445 1.865l.872.534-2.868 5.368-11.324-6.216a3.98 3.98 0 0 0-5.394 1.57L4.728 73.417a3.95 3.95 0 0 0-.333 3.023 3.96 3.96 0 0 0 1.903 2.371l6.46 3.547c.206.112.43.166.651.166q.163 0 .326-.042a5.637 5.637 0 0 0 5.658 5.538 5.664 5.664 0 0 0 5.41-7.34 5.7 5.7 0 0 0-.817-1.648 1.34 1.34 0 0 0 .62-.589zm-10.39 1.632c-.047-.035-.097-.074-.152-.105l-1.158-.636c.24-.48.643-1.302 1.352-2.751a844 844 0 0 1 4.91-9.914 1.357 1.357 0 0 0-.596-1.821 1.354 1.354 0 0 0-1.822.596 850 850 0 0 0-4.926 9.945c-.527 1.074-1.003 2.046-1.298 2.64L7.6 76.436a1.27 1.27 0 0 1-.605-.752 1.23 1.23 0 0 1 .105-.957L17.552 55.69a1.266 1.266 0 0 1 1.713-.5l2.236 1.229-1.282 2.538c-.338.67-.07 1.485.6 1.822q.298.146.609.147c.496 0 .973-.271 1.213-.744l1.24-2.457 6.736 3.697-8.414 15.754c-.039.07-.066.147-.09.221a5.68 5.68 0 0 0-4.406-.442 5.66 5.66 0 0 0-3.503 3.135zm6.05 5.096q-.431.133-.873.132a2.94 2.94 0 0 1-2.817-2.078 2.96 2.96 0 0 1 1.945-3.693q.43-.134.876-.132a2.94 2.94 0 0 1 2.818 2.078 2.95 2.95 0 0 1-1.946 3.689z"/><path fill="#d77599" d="M19.46 63.86a1.357 1.357 0 0 0 1.817-.604 1.4 1.4 0 0 0-.12-1.488c-.07-.093-.26-.31-.57-.438-.012-.004-.02-.012-.031-.015a1.355 1.355 0 0 0-1.822.6 1.4 1.4 0 0 0 .117 1.489c.07.092.252.302.554.433q.024.014.054.028z"/></g><defs><clipPath id="a"><path fill="#fff" d="M0 0h100v108.561H0z"/></clipPath></defs></svg>