<svg width="100" height="109" viewBox="0 0 100 109" fill="none" xmlns="http://www.w3.org/2000/svg">
<g clip-path="url(#clip0_25_1679)">
<path d="M50.9901 27.4503C43.4755 27.4503 37.3638 21.3386 37.3638 13.824C37.3638 6.30935 43.4755 0.193787 50.9901 0.193787C58.5047 0.193787 64.6164 6.30548 64.6164 13.8201C64.6164 21.3347 58.5008 27.4464 50.9901 27.4464V27.4503ZM50.9901 2.13542C44.5451 2.13542 39.3015 7.379 39.3015 13.824C39.3015 20.269 44.5451 25.5125 50.9901 25.5125C57.4351 25.5125 62.6787 20.269 62.6787 13.824C62.6787 7.379 57.4351 2.13542 50.9901 2.13542Z" fill="white"/>
<path d="M50.99 27.6441C43.3708 27.6441 37.1699 21.4432 37.1699 13.824C37.1699 6.2047 43.3708 0 50.99 0C58.6093 0 64.8101 6.20083 64.8101 13.8201C64.8101 21.4394 58.6093 27.6402 50.99 27.6402V27.6441ZM50.99 0.387552C43.5839 0.387552 37.5575 6.41398 37.5575 13.8201C37.5575 21.2262 43.5839 27.2526 50.99 27.2526C58.3961 27.2526 64.4226 21.2262 64.4226 13.8201C64.4226 6.41398 58.3961 0.387552 50.99 0.387552ZM50.99 25.7024C44.4404 25.7024 39.1077 20.3736 39.1077 13.8201C39.1077 7.2666 44.4365 1.93776 50.99 1.93776C57.5435 1.93776 62.8724 7.2666 62.8724 13.8201C62.8724 20.3736 57.5435 25.7024 50.99 25.7024ZM50.99 2.32919C44.6535 2.32919 39.4952 7.48363 39.4952 13.824C39.4952 20.1643 44.6497 25.3188 50.99 25.3188C57.3304 25.3188 62.4848 20.1643 62.4848 13.824C62.4848 7.48363 57.3304 2.32919 50.99 2.32919Z" fill="white"/>
<path d="M51.2772 22.7609C46.9522 22.7609 43.7549 20.2884 42.724 16.1416C42.6891 16.002 42.6542 15.8625 42.6193 15.7191C42.3015 14.4751 41.9411 13.0644 42.2202 11.6576C42.6581 9.46404 44.7935 9.43691 46.0724 9.41753C46.2158 9.41753 46.3553 9.41753 46.491 9.40978C47.394 9.38265 48.3047 9.37878 49.1883 9.3749C50.1107 9.3749 51.0602 9.37103 51.9865 9.33615C52.9127 9.30514 53.8855 9.27414 54.7342 9.27414C56.5906 9.27414 57.9974 9.40591 58.8229 10.0531C59.9778 10.9561 59.9623 12.5218 59.9507 13.6651C59.9507 13.7736 59.9507 13.8783 59.9507 13.9751C59.9507 16.6686 59.005 18.9436 57.2145 20.5558C55.6372 21.9742 53.5289 22.7571 51.2811 22.7571L51.2772 22.7609ZM54.7342 11.2196C53.9126 11.2196 52.9631 11.2507 52.0523 11.2817C51.0951 11.3165 50.1262 11.3165 49.1922 11.3204C48.3241 11.3204 47.425 11.3243 46.5491 11.3514C46.4018 11.3553 46.2468 11.3592 46.0918 11.3592C44.6114 11.3785 44.2238 11.5103 44.1192 12.0374C43.9254 13.0101 44.2161 14.1457 44.4951 15.2386C44.5338 15.3858 44.5687 15.5292 44.6036 15.6726C44.9873 17.219 46.4057 20.8193 51.2734 20.8193C53.0174 20.8193 54.7071 20.1992 55.9085 19.118C57.2804 17.8855 58.0051 16.1106 58.0051 13.9829C58.0051 13.8744 58.0051 13.7659 58.0051 13.6496C58.0129 12.9094 58.0206 11.8979 57.6253 11.5878C57.3114 11.3437 56.3387 11.2196 54.7303 11.2196H54.7342Z" fill="white"/>
<path d="M51.277 22.9547C46.855 22.9547 43.588 20.424 42.5377 16.1881C42.5028 16.0485 42.468 15.909 42.4331 15.7695C42.1114 14.5022 41.7432 13.0721 42.03 11.6227C42.499 9.27413 44.8204 9.24312 46.0683 9.22762C46.2117 9.22762 46.3512 9.22762 46.4869 9.21987C47.3744 9.19274 48.2735 9.18887 49.1416 9.18499H49.1881C50.1027 9.18499 51.0445 9.18112 51.9785 9.14624C52.8543 9.11523 53.8659 9.08423 54.734 9.08423C56.6291 9.08423 58.0747 9.22375 58.9428 9.90196C60.1752 10.8631 60.1558 12.4831 60.1442 13.669V13.979C60.1442 16.7306 59.1753 19.0559 57.3422 20.703C55.73 22.1525 53.5752 22.9508 51.277 22.9508V22.9547ZM54.734 9.47178C53.8697 9.47178 52.8621 9.50278 51.994 9.53379C51.0561 9.56867 50.1066 9.56867 49.192 9.57254H49.1455C48.2812 9.57254 47.386 9.57642 46.5024 9.60742C46.3667 9.6113 46.2233 9.61517 46.0799 9.61517C44.7816 9.63068 42.8206 9.65781 42.4176 11.6963C42.1463 13.0566 42.5028 14.4441 42.8129 15.6687C42.8516 15.816 42.8865 15.9555 42.9214 16.095C43.929 20.145 47.0527 22.5672 51.2848 22.5672C53.4861 22.5672 55.5478 21.8037 57.0903 20.4162C58.8381 18.8428 59.7644 16.6182 59.7644 13.979V13.6651C59.7799 12.5606 59.7915 11.053 58.7141 10.2081C57.9313 9.5958 56.5593 9.47178 54.7417 9.47178H54.734ZM51.277 21.0131C46.2776 21.0131 44.8165 17.312 44.4212 15.7191L44.3127 15.2851C44.0298 14.1689 43.7314 13.014 43.9368 11.9986C44.0802 11.27 44.739 11.1848 46.0993 11.1654C46.2543 11.1654 46.4055 11.1654 46.5528 11.1576C47.4286 11.1305 48.3239 11.1266 49.192 11.1266C50.0795 11.1266 51.0794 11.1228 52.0521 11.0879C52.9086 11.0569 53.9007 11.0259 54.7378 11.0259C56.974 11.0259 57.5282 11.2584 57.753 11.4367C58.2258 11.8048 58.2142 12.8241 58.2064 13.6457C58.2064 13.7659 58.2064 13.8782 58.2064 13.9829C58.2064 16.1687 57.4585 17.994 56.0478 19.2613C54.8115 20.3736 53.0714 21.0131 51.2809 21.0131H51.277ZM54.734 11.4134C53.9007 11.4134 52.9125 11.4444 52.0599 11.4754C51.0755 11.5103 50.0756 11.5103 49.192 11.5142C48.32 11.5142 47.4247 11.5181 46.5566 11.5452C46.4094 11.5491 46.2543 11.5529 46.0954 11.5529C44.5685 11.5723 44.3786 11.7273 44.3088 12.0723C44.1228 13.0024 44.4096 14.1147 44.6809 15.1882L44.7933 15.6222C45.1653 17.1259 46.545 20.6216 51.2731 20.6216C52.9706 20.6216 54.6138 20.0209 55.7804 18.9668C57.1097 17.7731 57.8111 16.0485 57.8111 13.9751C57.8111 13.8666 57.8111 13.7542 57.8111 13.6418C57.8189 13.0179 57.8266 11.987 57.505 11.7351C57.3499 11.6111 56.7802 11.4095 54.7262 11.4095L54.734 11.4134Z" fill="white"/>
<path d="M55.42 43.0105H45.9948C44.2353 43.0105 42.8091 41.5804 42.8091 39.8248V35.6664C42.8091 33.9108 44.2391 32.4807 45.9948 32.4807H55.42C57.1795 32.4807 58.6057 33.9108 58.6057 35.6664V39.8248C58.6057 41.5843 57.1756 43.0105 55.42 43.0105ZM45.9948 34.4185C45.3049 34.4185 44.7468 34.9765 44.7468 35.6664V39.8248C44.7468 40.5108 45.3049 41.0727 45.9948 41.0727H55.42C56.106 41.0727 56.6679 40.5147 56.6679 39.8248V35.6664C56.6679 34.9804 56.106 34.4185 55.42 34.4185H45.9948Z" fill="white"/>
<path d="M55.4199 43.2043H45.9947C44.1306 43.2043 42.6152 41.6889 42.6152 39.8248V35.6664C42.6152 33.8023 44.1306 32.2869 45.9947 32.2869H55.4199C57.2841 32.2869 58.7994 33.8023 58.7994 35.6664V39.8248C58.7994 41.6889 57.2841 43.2043 55.4199 43.2043ZM45.9947 32.6706C44.3437 32.6706 43.0028 34.0115 43.0028 35.6625V39.8209C43.0028 41.4719 44.3476 42.8128 45.9947 42.8128H55.4199C57.0709 42.8128 58.4118 41.4719 58.4118 39.8209V35.6625C58.4118 34.0115 57.0709 32.6706 55.4199 32.6706H45.9947ZM55.4199 41.2626H45.9947C45.2002 41.2626 44.553 40.6154 44.553 39.8209V35.6625C44.553 34.868 45.2002 34.2208 45.9947 34.2208H55.4199C56.2144 34.2208 56.8616 34.868 56.8616 35.6625V39.8209C56.8616 40.6154 56.2144 41.2626 55.4199 41.2626ZM45.9947 34.6122C45.4134 34.6122 44.9405 35.0851 44.9405 35.6664V39.8248C44.9405 40.4061 45.4134 40.879 45.9947 40.879H55.4199C56.0013 40.879 56.4741 40.4061 56.4741 39.8248V35.6664C56.4741 35.0851 56.0013 34.6122 55.4199 34.6122H45.9947Z" fill="white"/>
<path d="M51.1761 57.6987C51.0405 57.6987 50.9087 57.6716 50.7847 57.6173L42.0803 53.7728C40.4874 53.3581 39.2085 51.7227 39.2085 50.0795V30.3996C39.2085 28.6401 40.6386 27.2139 42.3942 27.2139H59.2992C61.0587 27.2139 62.4849 28.644 62.4849 30.3996V50.0795C62.4849 51.6258 61.6749 53.6217 59.3961 54.5789L51.5249 57.6367C51.4125 57.6793 51.2924 57.7026 51.1722 57.7026L51.1761 57.6987ZM42.3942 29.1517C41.7043 29.1517 41.1463 29.7097 41.1463 30.3996V50.0795C41.1463 50.8623 41.8439 51.7304 42.6073 51.9048C42.6693 51.9164 42.7275 51.9397 42.7856 51.963L51.1994 55.6796L58.6713 52.7768C60.4115 52.0443 60.5471 50.5251 60.5471 50.0795V30.3996C60.5471 29.7097 59.989 29.1517 59.2992 29.1517H42.3942Z" fill="white"/>
<path d="M51.176 57.8925C51.0133 57.8925 50.8544 57.8576 50.7071 57.7917L42.0027 53.9472C40.3401 53.517 39.0146 51.8118 39.0146 50.0756V30.3957C39.0146 28.5316 40.53 27.0162 42.3941 27.0162H59.2991C61.1632 27.0162 62.6786 28.5316 62.6786 30.3957V50.0756C62.6786 51.6839 61.8376 53.7573 59.4696 54.7533L51.5907 57.815C51.4551 57.8692 51.3155 57.8925 51.1683 57.8925H51.176ZM42.3941 27.4038C40.7431 27.4038 39.4022 28.7447 39.4022 30.3957V50.0756C39.4022 51.618 40.6269 53.1915 42.1306 53.5829L50.866 57.4391C51.0559 57.5204 51.2729 57.5282 51.4628 57.4546L59.334 54.3968C61.5198 53.4783 62.2988 51.5638 62.2988 50.0794V30.3996C62.2988 28.7486 60.9578 27.4077 59.3069 27.4077H42.4019L42.3941 27.4038ZM51.1954 55.8889L42.708 52.1373C42.6615 52.118 42.615 52.1025 42.5685 52.0908C41.7081 51.8971 40.9563 50.9553 40.9563 50.0756V30.3957C40.9563 29.6012 41.6035 28.954 42.398 28.954H59.303C60.0975 28.954 60.7447 29.6012 60.7447 30.3957V50.0756C60.7447 50.5523 60.6013 52.1761 58.7527 52.9551L51.1993 55.8889H51.1954ZM42.3941 29.3454C41.8128 29.3454 41.34 29.8182 41.34 30.3996V50.0794C41.34 50.7693 41.9755 51.5638 42.6499 51.7149C42.7196 51.7304 42.7933 51.7537 42.863 51.7847L51.2032 55.4703L58.6015 52.5947C60.2254 51.9126 60.3533 50.4941 60.3533 50.0756V30.3957C60.3533 29.8144 59.8804 29.3415 59.2991 29.3415H42.3941V29.3454Z" fill="white"/>
<path d="M39.3252 37.7514L37.2944 38.7901C37.837 39.1156 38.3021 39.6117 38.6199 40.2899L39.3368 39.9256C39.2361 39.1931 39.2554 38.4723 39.3252 37.7514Z" fill="white"/>
<path d="M38.5305 40.5534L38.4452 40.3713C38.1546 39.7551 37.7321 39.2784 37.1934 38.9529L36.895 38.7746L39.5498 37.4182L39.5149 37.7708C39.4374 38.6002 39.4374 39.2745 39.5265 39.8985L39.5459 40.0341L38.5305 40.5534ZM37.674 38.8133C38.0964 39.1273 38.4414 39.5342 38.7049 40.0303L39.1234 39.8171C39.0614 39.2939 39.0537 38.7358 39.1002 38.0847L37.674 38.8133Z" fill="white"/>
<path d="M34.0076 38.0227L32.655 35.0037C32.4109 34.527 32.6008 33.9418 33.0775 33.6938L41.1579 29.5664C41.1579 29.5664 41.1502 29.5547 41.1502 29.5509C40.8479 28.9191 40.6929 28.2758 40.6541 27.6441L32.1938 31.9692C30.7638 32.7017 30.1941 34.4573 30.9266 35.8873L32.2636 38.8754L34.0076 38.0266V38.0227Z" fill="white"/>
<path d="M32.1667 39.1311L30.7483 35.961C30.3762 35.2324 30.3103 34.3914 30.5661 33.6008C30.8219 32.8102 31.3684 32.1668 32.1047 31.7909L40.8285 27.334L40.844 27.6325C40.8789 28.2642 41.0417 28.8804 41.3207 29.4656L41.4292 29.6439L41.2432 29.7369L33.1627 33.8643C32.7829 34.0581 32.6279 34.5309 32.8256 34.9107L34.2595 38.1119L32.1667 39.1311ZM40.4836 27.9464L32.2791 32.1397C31.6319 32.4691 31.1552 33.0311 30.9304 33.7248C30.7056 34.4146 30.7638 35.151 31.0932 35.7982L32.3527 38.6118L33.7479 37.9336L32.4729 35.0851C32.1861 34.5231 32.4148 33.8178 32.9845 33.5271L40.9021 29.4811C40.6812 28.9773 40.5417 28.4696 40.4836 27.9503V27.9464Z" fill="white"/>
<path d="M38.1971 38.8482C37.7398 38.6079 37.2321 38.5614 36.988 39.0226L33.5116 45.7544C33.3954 45.9753 33.1977 46.138 32.9613 46.2117C32.721 46.2853 32.4691 46.2621 32.2482 46.1458L28.396 44.115C27.9386 43.8747 27.7643 43.305 28.0045 42.8477L31.5584 36.1082C31.2483 35.8834 31.4886 34.7944 31.2445 34.5076C31.0507 34.279 31.4034 33.3682 31.26 33.1241L26.3458 41.9757C25.625 43.3477 26.152 45.049 27.5201 45.7737L31.3724 47.8045C31.8839 48.0719 32.4498 48.1766 33.0117 48.1107C33.1783 48.0913 33.3489 48.0564 33.5116 48.006C34.2286 47.7851 34.8177 47.2968 35.1665 46.6302L38.732 39.9411C38.9722 39.4838 38.6506 39.0924 38.1933 38.8521L38.1971 38.8482Z" fill="white"/>
<path d="M32.6822 48.32C32.2016 48.32 31.7172 48.1998 31.2831 47.9712L27.4308 45.9404C26.7216 45.5684 26.2023 44.9405 25.962 44.1732C25.7256 43.4058 25.7992 42.592 26.1713 41.8827L31.2521 32.7326L31.4265 33.0233C31.5311 33.1977 31.4846 33.4767 31.4343 33.7984C31.4071 33.9767 31.3529 34.3061 31.3955 34.3797C31.5505 34.5658 31.5583 34.8991 31.5699 35.2595C31.5738 35.492 31.5854 35.8873 31.6745 35.9493L31.8102 36.0462L28.1749 42.9369C27.985 43.3012 28.1246 43.7507 28.485 43.9406L32.3372 45.9714C32.5116 46.0644 32.7132 46.0838 32.9031 46.0257C33.093 45.9675 33.248 45.8358 33.341 45.6614L36.8173 38.9335C37.0731 38.4451 37.6583 38.3483 38.2862 38.6777C38.9295 39.0187 39.1659 39.5342 38.9063 40.0302L35.3369 46.7194C34.9648 47.4286 34.337 47.9518 33.5697 48.1882C33.3953 48.2425 33.217 48.2812 33.0348 48.3006C32.9186 48.3161 32.7984 48.32 32.6783 48.32H32.6822ZM31.0157 33.9573L26.5162 42.0649C26.1945 42.6772 26.1287 43.3864 26.3341 44.0569C26.5395 44.7235 26.9929 45.2738 27.613 45.5994L31.4653 47.6301C31.8412 47.8278 32.2636 47.9324 32.6822 47.9324C32.7868 47.9324 32.8876 47.9247 32.9922 47.913C33.1511 47.8937 33.3061 47.8627 33.4573 47.8123C34.1239 47.6069 34.6742 47.1496 34.9959 46.5334L38.5652 39.8442C38.7745 39.445 38.3676 39.1544 38.104 39.0187C37.6738 38.7939 37.3173 38.8094 37.1584 39.1117L33.6821 45.8396C33.5425 46.107 33.3061 46.3047 33.0155 46.3938C32.7287 46.483 32.4186 46.452 32.1512 46.3125L28.299 44.2817C27.7486 43.991 27.5355 43.3051 27.8261 42.7547L31.318 36.1315C31.1901 35.9261 31.1823 35.6044 31.1746 35.2672C31.1668 35.0308 31.1591 34.7091 31.0893 34.6278C30.9614 34.4766 30.9731 34.2325 31.0079 33.9612L31.0157 33.9573Z" fill="white"/>
<path d="M32.7056 47.3007C32.3452 48.3858 32.0817 49.1919 31.915 50.4011C31.8608 50.8003 31.8956 51.2033 31.9267 51.5909C31.9654 52.0133 32.0042 52.4939 31.8685 52.6412C31.3415 52.8427 29.3533 52.2265 28.6945 52.025C28.4116 51.9358 28.1635 51.8622 27.9814 51.8118C27.7915 51.7614 27.5783 51.711 27.3535 51.6568C26.7838 51.5211 25.2995 51.1646 25.0011 50.8197C25.0166 50.7809 25.0554 50.7034 25.1445 50.5949C25.9196 49.5989 26.311 48.9362 26.5862 47.6185C26.7722 46.731 27.1133 45.3513 27.4388 44.2972C26.8846 43.774 26.4428 43.1345 26.1599 42.4098C26.125 42.4602 26.094 42.5106 26.0669 42.5687C25.5204 43.8476 24.9313 46.3706 24.7492 47.2348C24.5477 48.1959 24.3151 48.6106 23.664 49.4439C23.013 50.281 23.0595 50.9786 23.2106 51.4165C23.6602 52.6993 25.4662 53.1295 26.9156 53.4783C27.1249 53.5287 27.3225 53.5752 27.5008 53.6217C27.6636 53.6643 27.8806 53.7341 28.1364 53.8116C29.923 54.3619 31.5042 54.7843 32.5506 54.3813C32.725 54.3154 32.8878 54.2224 33.0273 54.1061C33.9497 53.3543 33.8528 52.2381 33.783 51.4281C33.7598 51.1452 33.7326 50.8507 33.7598 50.6608C33.9109 49.5911 34.1318 48.9207 34.5 47.8123C34.5775 47.5759 34.6628 47.3162 34.7558 47.0333C34.3411 47.1806 33.9032 47.2813 33.4497 47.3084C33.1978 47.3239 32.9459 47.3162 32.6979 47.3007H32.7056Z" fill="white"/>
<path d="M31.574 54.7378C30.5624 54.7378 29.2951 54.3735 28.086 53.9976L28.0201 53.9782C27.7953 53.9085 27.6015 53.8503 27.4582 53.8116C27.2954 53.7689 27.1132 53.7263 26.9195 53.6798L26.8768 53.6682C25.3809 53.3116 23.5168 52.8659 23.0323 51.4824C22.8618 50.9979 22.8075 50.2306 23.5129 49.3237C24.1523 48.5021 24.3694 48.1223 24.5631 47.1922C24.7453 46.3202 25.3382 43.7817 25.8924 42.4912C25.9234 42.4214 25.9622 42.3594 26.0048 42.2974L26.2141 41.9951L26.3459 42.3362C26.6133 43.0221 27.028 43.6345 27.5783 44.1538L27.6674 44.2352L27.6326 44.3514C27.3031 45.4017 26.9698 46.7659 26.7838 47.6534C26.5009 49.0059 26.0978 49.688 25.3034 50.7112C25.284 50.7344 25.2685 50.7538 25.2569 50.7732C25.5398 50.9592 26.2606 51.1917 27.4039 51.463C27.6364 51.5173 27.8496 51.5676 28.0395 51.618C28.2255 51.6684 28.4735 51.742 28.7603 51.8312C29.2835 51.994 30.8609 52.4784 31.5856 52.4784C31.6631 52.4784 31.7173 52.4745 31.7522 52.4668C31.8026 52.3117 31.7639 51.8389 31.7406 51.5987C31.7057 51.1995 31.6708 50.7887 31.729 50.3662C31.9034 49.1183 32.1785 48.2851 32.5273 47.2309L32.5738 47.0875L32.725 47.0992C32.9653 47.1186 33.2055 47.1224 33.4497 47.1069C33.8605 47.0798 34.2829 46.9907 34.7054 46.8395L35.0735 46.7077L34.9534 47.0798C34.872 47.3317 34.7945 47.5642 34.7247 47.7813L34.6976 47.8627C34.3333 48.9672 34.1124 49.6299 33.9651 50.6802C33.9419 50.8507 33.9651 51.1452 33.9884 51.401C34.0582 52.2071 34.1667 53.4279 33.1629 54.2456C33.0079 54.3735 32.8257 54.4743 32.632 54.5518C32.3297 54.6681 31.9848 54.7262 31.5778 54.7262L31.574 54.7378ZM26.156 42.8749C25.6444 44.1887 25.1135 46.4636 24.9468 47.2736C24.7375 48.2657 24.4856 48.7153 23.8229 49.564C23.2261 50.3314 23.261 50.9631 23.4005 51.3545C23.8152 52.5365 25.563 52.9551 26.9698 53.2884L27.0125 53.3C27.2101 53.3465 27.3961 53.393 27.5628 53.4356C27.7139 53.4744 27.9116 53.5364 28.1402 53.6062L28.2061 53.6255C29.3882 53.9898 30.6206 54.3464 31.5778 54.3464C31.9383 54.3464 32.2367 54.2999 32.4924 54.1991C32.6513 54.1371 32.7947 54.0557 32.9188 53.955C33.7636 53.2651 33.6745 52.2575 33.6047 51.4436C33.5776 51.1491 33.5543 50.8468 33.5815 50.6336C33.7326 49.5485 33.9574 48.8742 34.3294 47.758L34.3566 47.6728C34.3915 47.5642 34.4302 47.4518 34.469 47.3317C34.1357 47.4247 33.8024 47.4829 33.4768 47.5022C33.2676 47.5177 33.0583 47.5139 32.849 47.5022C32.5273 48.4711 32.2754 49.2695 32.1127 50.4282C32.0584 50.8042 32.0933 51.1956 32.1243 51.5676C32.1747 52.1684 32.1979 52.5714 32.0158 52.7691L31.9848 52.8039L31.9421 52.8194C31.8491 52.8543 31.7328 52.8737 31.5817 52.8737C30.7988 52.8737 29.237 52.3931 28.6518 52.211C28.3611 52.1218 28.1209 52.0482 27.9387 51.9978C27.7527 51.9474 27.5395 51.8971 27.3186 51.8467C26.2684 51.5948 25.16 51.2925 24.8616 50.9476L24.784 50.8584L24.8306 50.746C24.8654 50.6647 24.9197 50.5755 24.9972 50.4748C25.7529 49.5059 26.1366 48.8548 26.4001 47.5759C26.5823 46.7116 26.904 45.3978 27.2256 44.3514C26.7838 43.9135 26.4234 43.4213 26.1599 42.8749H26.156Z" fill="white"/>
<path d="M67.3408 51.2034C67.1664 51.2034 66.9881 51.1879 66.8098 51.1568C66.0463 51.0173 65.3797 50.5871 64.9379 49.9477L60.8415 44.0181C60.5354 43.5763 60.6477 42.9718 61.0895 42.6695C61.5314 42.3672 62.1359 42.4757 62.4382 42.9175L66.5346 48.847C66.6819 49.0602 66.9028 49.2036 67.1586 49.2501C67.4144 49.2966 67.6702 49.2423 67.8872 49.0951L71.6 46.5295C72.0418 46.2233 72.1503 45.6187 71.848 45.1769L63.3683 32.9032C61.6127 30.3298 60.9539 29.8531 60.7446 29.7717C60.2292 29.6826 59.8765 29.202 59.9501 28.6788C60.0277 28.1479 60.516 27.7758 61.0469 27.8534C62.1786 28.0123 63.3877 29.4849 64.9728 31.8064L65.1201 32.0195L73.4447 44.0685C74.3593 45.3901 74.026 47.2077 72.7045 48.1184L68.9917 50.684C68.4995 51.0251 67.926 51.1995 67.3408 51.1995V51.2034Z" fill="white"/>
<path d="M67.3408 51.3971C67.1509 51.3971 66.961 51.3816 66.775 51.3467C65.9572 51.1995 65.248 50.7383 64.7791 50.0562L60.6827 44.1267C60.5044 43.8709 60.4385 43.5608 60.4966 43.2547C60.5509 42.9485 60.7253 42.6811 60.9811 42.5067C61.4926 42.154 62.2484 42.2935 62.601 42.8012L66.6975 48.7308C66.8137 48.9013 66.992 49.0176 67.1974 49.0524C67.4028 49.0912 67.6082 49.0447 67.7787 48.9284L71.4915 46.3628C71.8441 46.1187 71.9333 45.6342 71.6891 45.2816L63.2095 33.0078C61.4539 30.4344 60.8261 30.0198 60.6904 29.9539C60.0781 29.8376 59.6711 29.2679 59.7603 28.6478C59.8494 28.02 60.4385 27.5627 61.078 27.6596C62.2794 27.8301 63.5195 29.3299 65.1356 31.694L65.2829 31.9071L73.6075 43.9561C74.0803 44.6382 74.2547 45.4637 74.1075 46.2814C73.9602 47.0992 73.5029 47.8084 72.8208 48.2773L69.108 50.8429C68.5848 51.2034 67.9764 51.3933 67.3485 51.3933L67.3408 51.3971ZM61.6438 42.6927C61.4849 42.6927 61.3337 42.7392 61.202 42.8322C61.0314 42.9485 60.9152 43.1268 60.8803 43.3322C60.8415 43.5376 60.8881 43.743 61.0043 43.9135L65.1007 49.843C65.5115 50.4399 66.1355 50.8429 66.8486 50.9708C67.5462 51.0987 68.2864 50.9437 68.8833 50.5329L72.596 47.9673C73.1928 47.5565 73.592 46.9364 73.7238 46.2194C73.8555 45.5025 73.7005 44.7816 73.2858 44.1848L64.814 31.9188C63.3025 29.7059 62.0778 28.1983 61.0198 28.0471C60.5819 27.9812 60.2021 28.2874 60.144 28.706C60.0858 29.1245 60.3649 29.5082 60.7795 29.578L60.8183 29.5896C61.2911 29.7756 62.229 30.884 63.5312 32.7908L72.0108 45.0645C72.3751 45.5916 72.2433 46.3202 71.7163 46.6845L68.0035 49.2501C67.7516 49.4245 67.4377 49.4942 67.1315 49.44C66.8254 49.3857 66.5618 49.2113 66.3835 48.9556L62.2871 43.026C62.1398 42.8167 61.9034 42.6888 61.6477 42.6888L61.6438 42.6927Z" fill="white"/>
<path d="M71.3868 58.0281C71.193 58.0281 71.0031 58.001 70.821 57.939C69.6467 57.5553 69.325 56.443 69.0925 55.6292C69.0111 55.3463 68.9259 55.0556 68.829 54.8812C68.2864 53.9007 67.8213 53.3388 67.0501 52.4009C66.554 51.7963 65.9378 51.0483 65.1317 49.9748C64.8101 49.5446 64.8953 48.94 65.3255 48.6184C65.7518 48.2967 66.3603 48.382 66.6819 48.8121C67.4648 49.8508 68.0655 50.5833 68.5499 51.1723C69.3328 52.1218 69.8986 52.8117 70.5264 53.9433C70.7319 54.3115 70.8442 54.7107 70.9566 55.0982C71.0806 55.5207 71.2163 55.9974 71.4023 56.0904C71.9875 56.0904 73.6811 54.7533 74.2392 54.3115C74.4795 54.1216 74.6888 53.955 74.8477 53.8426C75.0104 53.7224 75.2003 53.5945 75.398 53.4589C75.8979 53.114 77.2001 52.2187 77.359 51.773C77.328 51.7382 77.2621 51.6839 77.1381 51.6064C76.0181 50.9321 75.3902 50.436 74.6345 49.2656C73.9369 48.1843 72.6115 46.3163 71.8596 45.5451C71.4876 45.1614 71.4953 44.5491 71.879 44.1732C72.2627 43.8011 72.875 43.8089 73.2509 44.1925C74.2547 45.2234 75.7662 47.4441 76.2622 48.2114C76.8164 49.0641 77.1962 49.378 78.138 49.9438C79.0797 50.5096 79.2967 51.2033 79.3122 51.6839C79.3549 53.0907 77.7698 54.1836 76.4986 55.0595C76.3126 55.1874 76.1382 55.3075 75.9871 55.416C75.8475 55.5168 75.6576 55.6641 75.4406 55.8346C73.9214 57.0321 72.5456 58.032 71.3868 58.032V58.0281Z" fill="white"/>
<path d="M71.387 58.2219C71.1699 58.2219 70.9607 58.1909 70.763 58.125C69.4918 57.7104 69.143 56.4934 68.9066 55.6912C68.8253 55.4122 68.7439 55.1331 68.6586 54.9781C68.1238 54.0131 67.6626 53.455 66.8991 52.5249C66.3914 51.9087 65.7752 51.1607 64.973 50.0911C64.5893 49.5756 64.694 48.847 65.2055 48.4595C65.407 48.3083 65.6512 48.227 65.9031 48.227C66.2713 48.227 66.6123 48.3975 66.8332 48.692C67.6045 49.719 68.2052 50.4476 68.6819 51.0328C69.4802 52.0056 70.0538 52.6993 70.6894 53.8465C70.9025 54.234 71.0227 54.6409 71.1389 55.0401C71.2087 55.2804 71.3482 55.761 71.4567 55.8889C71.7358 55.8424 72.4256 55.4858 74.1115 54.1643C74.3634 53.9666 74.5765 53.8 74.7354 53.6837C74.8866 53.5752 75.0532 53.4589 75.2354 53.3349L75.2896 53.2961C76.305 52.5985 76.9173 52.1025 77.115 51.8157C77.0956 51.8002 77.0685 51.7847 77.0414 51.7692C75.8942 51.0793 75.2509 50.5716 74.4758 49.3664C73.782 48.2928 72.4682 46.4365 71.7241 45.6769C71.2785 45.2157 71.2862 44.4793 71.7474 44.0298C72.1931 43.5957 72.9604 43.6073 73.3945 44.053C74.4138 45.0994 75.933 47.3317 76.429 48.1029C76.9638 48.9284 77.3165 49.2191 78.2428 49.7733C79.2582 50.3856 79.4946 51.1452 79.5101 51.6723C79.5566 53.1876 77.925 54.3076 76.6112 55.2106L76.5375 55.261C76.3825 55.3695 76.2314 55.4703 76.1035 55.5672C75.9717 55.6602 75.8051 55.7958 75.6074 55.9509L75.5648 55.9857C74.0107 57.2104 72.6271 58.2258 71.387 58.2258V58.2219ZM65.9031 48.6145C65.7326 48.6145 65.5737 48.6688 65.4381 48.7695C65.097 49.0253 65.0272 49.5136 65.283 49.8585C66.0814 50.9204 66.6937 51.6645 67.1859 52.2652C67.9726 53.2225 68.4416 53.7922 68.9958 54.7882C69.1043 54.982 69.1896 55.2804 69.2748 55.5711C69.5112 56.3927 69.8058 57.4042 70.8793 57.753C72.0419 58.1328 73.6503 56.9934 75.3206 55.6757L75.3633 55.6408C75.5648 55.4819 75.7392 55.3463 75.8709 55.2494C76.0066 55.1525 76.1539 55.0479 76.3128 54.9394L76.3825 54.889C77.6188 54.0402 79.1535 52.9822 79.1148 51.68C79.0993 51.246 78.9016 50.622 78.0374 50.0988C77.084 49.5253 76.6693 49.1881 76.0996 48.3083C75.6074 47.5449 74.1115 45.3436 73.1116 44.3166C72.8209 44.0181 72.3132 44.0143 72.0148 44.3011C71.7086 44.5995 71.7009 45.0917 71.9993 45.3978C72.7589 46.1768 74.0921 48.0603 74.7974 49.1493C75.5338 50.2887 76.1461 50.7732 77.239 51.4281C77.3824 51.5134 77.4599 51.5832 77.5025 51.6297L77.5839 51.7149L77.5452 51.8273C77.3863 52.2691 76.429 52.9745 75.5144 53.6062L75.4563 53.6488C75.278 53.7689 75.1152 53.8852 74.9641 53.9899C74.8091 54.1022 74.6037 54.265 74.3634 54.4549C72.7628 55.7145 71.852 56.2725 71.4064 56.2764H71.3598L71.3172 56.257C71.0731 56.133 70.9413 55.7377 70.7708 55.1448C70.6623 54.7688 70.5499 54.3774 70.3561 54.0325C69.736 52.9163 69.1741 52.2342 68.399 51.2925C67.9029 50.6918 67.3022 49.9593 66.5271 48.9246C66.3798 48.7269 66.1511 48.6145 65.9031 48.6145Z" fill="white"/>
<path d="M47.2116 75.8982H42.778C41.0185 75.8982 39.5923 74.41 39.5923 72.5807V53.1605C39.5923 52.9938 39.6039 52.8349 39.6272 52.676C39.7085 52.1451 40.2085 51.7847 40.7356 51.8699C41.2665 51.9513 41.6269 52.4513 41.5417 52.9783C41.5339 53.0365 41.53 53.0907 41.53 53.1605V72.5807C41.53 73.3403 42.0881 73.9565 42.778 73.9565H47.2116C47.8975 73.9565 48.4595 73.3403 48.4595 72.5807V57.0515C48.4595 56.5167 48.8935 56.0826 49.4283 56.0826C49.9632 56.0826 50.3972 56.5167 50.3972 57.0515V72.5807C50.3972 74.41 48.9672 75.8982 47.2116 75.8982Z" fill="white"/>
<path d="M47.2115 76.0919H42.7779C40.9138 76.0919 39.3984 74.5146 39.3984 72.5807V53.1605C39.3984 52.9822 39.4101 52.8117 39.4372 52.645C39.5341 52.0133 40.1193 51.5715 40.7665 51.6762C41.3982 51.7769 41.8361 52.3738 41.7354 53.0055C41.7276 53.052 41.7237 53.1023 41.7237 53.1566V72.5768C41.7237 73.2279 42.1966 73.7589 42.7779 73.7589H47.2115C47.7928 73.7589 48.2656 73.2279 48.2656 72.5768V57.0476C48.2656 56.4043 48.7888 55.885 49.4283 55.885C50.0677 55.885 50.5909 56.4082 50.5909 57.0476V72.5768C50.5909 74.5146 49.0756 76.088 47.2115 76.088V76.0919ZM40.5805 52.0521C40.2045 52.0521 39.8751 52.335 39.817 52.707C39.7937 52.8543 39.7821 53.0016 39.7821 53.1605V72.5807C39.7821 74.3053 41.123 75.7044 42.774 75.7044H47.2076C48.8586 75.7044 50.1995 74.3014 50.1995 72.5807V57.0515C50.1995 56.6252 49.8507 56.2764 49.4244 56.2764C48.9981 56.2764 48.6493 56.6252 48.6493 57.0515V72.5807C48.6493 73.4488 48.0021 74.1503 47.2076 74.1503H42.774C41.9795 74.1503 41.3323 73.4449 41.3323 72.5807V53.1605C41.3323 53.083 41.3362 53.0132 41.3478 52.9473C41.4137 52.5249 41.123 52.1257 40.7006 52.0598C40.658 52.0521 40.6192 52.0482 40.5766 52.0482L40.5805 52.0521Z" fill="white"/>
<path d="M49.7735 81.0216C48.5992 81.0216 46.3011 81.0061 44.2083 80.9945C42.4604 80.9829 40.8521 80.9751 40.1622 80.9751C39.6274 80.9751 39.1934 80.5411 39.1934 80.0062C39.1934 79.9016 39.2089 79.8008 39.2399 79.7078C39.0887 78.4715 39.4143 77.3438 40.1932 76.4291C41.4489 74.9564 43.6076 74.3519 45.1888 74.4177C47.2234 74.4952 48.8046 75.1308 49.758 76.2586C50.6068 77.2585 50.9362 78.5762 50.7347 80.1768C50.6765 80.6612 50.2618 81.0255 49.7735 81.0255V81.0216ZM41.1427 79.0335C41.9527 79.0373 43.0534 79.0451 44.216 79.0529C45.8437 79.0645 47.5955 79.0761 48.8434 79.08C48.8085 78.4366 48.6186 77.9096 48.2776 77.5104C47.5257 76.6268 46.1422 76.3942 45.1113 76.3516C43.999 76.309 42.4604 76.7508 41.6698 77.6809C41.3326 78.0762 41.1582 78.5219 41.1427 79.0335Z" fill="white"/>
<path d="M49.7735 81.2154C48.5992 81.2154 46.301 81.1999 44.2043 81.1882H44.0454C42.3596 81.1766 40.8288 81.1689 40.1622 81.1689C39.4956 81.1689 38.9995 80.6457 38.9995 80.0062C38.9995 79.8977 39.015 79.7931 39.0421 79.6884C38.8949 78.4134 39.2437 77.243 40.0459 76.3012C41.3558 74.7626 43.5067 74.2162 44.9523 74.2162C45.0337 74.2162 45.1151 74.2162 45.1965 74.2201C47.2854 74.3014 48.9131 74.9603 49.9052 76.1268C50.7888 77.1693 51.1338 78.5374 50.9284 80.1961C50.8547 80.7774 50.3587 81.2154 49.7735 81.2154ZM44.9523 74.6037C43.5881 74.6037 41.5651 75.1153 40.3404 76.5493C39.6002 77.4174 39.2863 78.4986 39.4297 79.6807V79.7233L39.4219 79.7659C39.3987 79.8434 39.3832 79.9248 39.3832 80.0062C39.3832 80.4325 39.732 80.7813 40.1583 80.7813C40.8249 80.7813 42.3557 80.7891 44.0454 80.8007H44.2043C46.2971 80.8162 48.5953 80.8317 49.7696 80.8317C50.161 80.8317 50.4943 80.541 50.5408 80.1496C50.7346 78.6033 50.4207 77.336 49.6068 76.3787C48.6883 75.2975 47.1575 74.6851 45.1771 74.6076C45.1035 74.6076 45.0259 74.6037 44.9484 74.6037H44.9523ZM49.0526 79.2737H48.8472C47.7776 79.2699 46.3397 79.2582 44.9252 79.2505L40.945 79.2272L40.9528 79.0296C40.9722 78.4715 41.1582 77.9871 41.5264 77.5569C42.3867 76.5454 44.0222 76.1152 45.1228 76.1578C46.1925 76.2004 47.6342 76.4446 48.4286 77.3825C48.7968 77.8127 49.0022 78.3824 49.041 79.0683L49.0526 79.2737ZM41.352 78.8436L44.9252 78.8668C46.2467 78.8746 47.5915 78.8823 48.6341 78.8862C48.5759 78.3785 48.4054 77.9599 48.1302 77.6344C47.4249 76.805 46.0956 76.5841 45.1035 76.5454C44.0881 76.5066 42.5921 76.8942 41.817 77.8049C41.5535 78.115 41.3985 78.456 41.352 78.8397V78.8436Z" fill="white"/>
<path d="M59.3497 75.8982H54.9161C53.1567 75.8982 51.7305 74.41 51.7305 72.5807V58.7064C51.7305 58.7064 51.7305 56.788 51.7692 56.5593C51.8506 56.0284 52.3506 55.668 52.8776 55.7532C53.3892 55.8346 53.7419 56.2997 53.6915 56.8074C53.6799 57.0321 53.6721 58.4738 53.6721 58.7102V72.5846C53.6721 73.3442 54.2341 73.9604 54.92 73.9604H59.3536C60.0435 73.9604 60.6015 73.3442 60.6015 72.5846V51.5095C60.6015 50.9747 61.0356 50.5406 61.5704 50.5406C62.1052 50.5406 62.5393 50.9747 62.5393 51.5095V72.5846C62.5393 74.4138 61.1092 75.902 59.3536 75.902L59.3497 75.8982Z" fill="white"/>
<path d="M59.3497 76.0919H54.9161C53.0519 76.0919 51.5366 74.5146 51.5366 72.5807V58.7064C51.5366 58.6288 51.5366 56.7725 51.5754 56.5283C51.6761 55.9005 52.2575 55.4548 52.9086 55.5594C53.517 55.6563 53.9472 56.2105 53.8852 56.8229C53.8736 57.0321 53.8658 58.4816 53.8658 58.7064V72.5807C53.8658 73.2318 54.3386 73.7627 54.92 73.7627H59.3535C59.9349 73.7627 60.4077 73.2318 60.4077 72.5807V51.5056C60.4077 50.8623 60.9309 50.343 61.5703 50.343C62.2098 50.343 62.733 50.8662 62.733 51.5056V72.5807C62.733 74.5185 61.2177 76.0919 59.3535 76.0919H59.3497ZM52.7187 55.9354C52.3427 55.9354 52.0133 56.2183 51.9552 56.5903C51.928 56.7531 51.9203 58.0863 51.9203 58.7064V72.5807C51.9203 74.3053 53.2651 75.7044 54.9122 75.7044H59.3458C60.9968 75.7044 62.3377 74.3014 62.3377 72.5807V51.5056C62.3377 51.0793 61.9889 50.7305 61.5626 50.7305C61.1363 50.7305 60.7875 51.0793 60.7875 51.5056V72.5807C60.7875 73.4488 60.1403 74.1503 59.3458 74.1503H54.9122C54.1177 74.1503 53.4705 73.445 53.4705 72.5807V58.7064C53.4705 58.4738 53.4783 57.0244 53.4899 56.7957C53.5325 56.3772 53.2457 56.009 52.8388 55.9431C52.7962 55.9354 52.7574 55.9315 52.7148 55.9315L52.7187 55.9354Z" fill="white"/>
<path d="M61.8923 81.2076C60.7064 81.2076 58.3772 81.1573 56.3193 81.1108C54.5986 81.072 52.9786 81.0371 52.2965 81.0371C51.7617 81.0371 51.3276 80.6031 51.3276 80.0682C51.3276 79.9636 51.3431 79.8628 51.3741 79.7698C51.223 78.5335 51.5485 77.4058 52.3275 76.4911C53.5832 75.0184 55.7419 74.4139 57.3231 74.4797C59.4352 74.5611 60.9893 75.1851 61.9427 76.3323C62.7914 77.3515 63.0937 78.7157 62.8496 80.3822C62.7798 80.8589 62.3729 81.2115 61.8884 81.2115L61.8923 81.2076ZM53.2809 79.1071C54.1025 79.1226 55.2109 79.1459 56.3658 79.173C57.9703 79.2079 59.7453 79.2505 60.9971 79.266C60.9854 78.5645 60.8072 77.9948 60.4545 77.5763C59.7259 76.6965 58.3074 76.464 57.2533 76.4214C56.1449 76.3749 54.6025 76.8206 53.8118 77.7507C53.4747 78.146 53.3003 78.5956 53.2848 79.111L53.2809 79.1071Z" fill="white"/>
<path d="M61.8922 81.4014C60.7024 81.4014 58.3733 81.351 56.3154 81.3045H56.2417C54.5559 81.2658 52.963 81.2309 52.2964 81.2309C51.6299 81.2309 51.1338 80.7077 51.1338 80.0682C51.1338 79.9597 51.1493 79.8551 51.1764 79.7504C51.0292 78.4754 51.3779 77.305 52.1802 76.3632C53.4901 74.8246 55.641 74.2782 57.0827 74.2782C57.168 74.2782 57.2494 74.2782 57.3307 74.2821C59.501 74.3673 61.1016 75.0145 62.0938 76.2043C62.9774 77.2701 63.299 78.6808 63.0433 80.4054C62.9619 80.9712 62.4658 81.4014 61.8922 81.4014ZM57.0866 74.6658C55.7263 74.6658 53.7033 75.1773 52.4786 76.6113C51.7384 77.4794 51.4245 78.5645 51.5678 79.7427V79.7853L51.5601 79.8279C51.5368 79.9054 51.5213 79.9868 51.5213 80.0682C51.5213 80.4945 51.8701 80.8433 52.2964 80.8433C52.9669 80.8433 54.5636 80.8782 56.2495 80.917H56.3231C58.3771 80.9635 60.7063 81.0177 61.8922 81.0177C62.2759 81.0177 62.6053 80.7309 62.6596 80.355C62.896 78.7467 62.6053 77.4329 61.7953 76.4601C60.8768 75.3556 59.3731 74.7549 57.3152 74.6774C57.2377 74.6774 57.1641 74.6735 57.0827 74.6735L57.0866 74.6658ZM61.1908 79.4559H60.9931C59.7413 79.4365 57.9702 79.3978 56.3619 79.3629L55.9704 79.3551C54.9589 79.3319 54.0017 79.3125 53.277 79.3009H53.0793L53.087 79.1032C53.1025 78.549 53.2963 78.0491 53.6606 77.6228C54.521 76.6113 56.1565 76.1849 57.2571 76.2237C58.3539 76.2663 59.8266 76.5144 60.6017 77.4484C60.9815 77.9018 61.1791 78.5141 61.1869 79.2621V79.4598L61.1908 79.4559ZM53.4862 78.9172C54.1838 78.9288 55.0558 78.9482 55.9782 78.9676L56.3657 78.9753C57.8849 79.0102 59.5553 79.0451 60.7877 79.0645C60.749 78.4986 60.5862 78.0375 60.2994 77.6925C59.6134 76.867 58.257 76.6461 57.2377 76.6074C56.2223 76.5648 54.7264 76.9562 53.9513 77.8669C53.6839 78.1808 53.5327 78.5219 53.4862 78.9133V78.9172Z" fill="white"/>
<path d="M74.3907 74.4952C74.162 74.4952 73.9334 74.4371 73.7202 74.317C70.9454 72.7396 68.0038 71.4336 64.9771 70.4376C64.264 70.205 63.8764 69.4377 64.1128 68.7246C64.3453 68.0154 65.1127 67.6278 65.8258 67.8604C69.0231 68.9106 72.1313 70.2903 75.0612 71.9568C75.7122 72.3288 75.9409 73.1543 75.5689 73.8054C75.3208 74.2433 74.8596 74.4914 74.3907 74.4914V74.4952Z" fill="#63A566"/>
<path d="M30.6009 71.8405C30.0777 71.8405 29.5817 71.5382 29.3569 71.0305C29.0546 70.3445 29.3685 69.5462 30.0506 69.2439C31.8605 68.4494 33.7362 67.7518 35.6275 67.1705C36.3444 66.9496 37.1002 67.3526 37.3211 68.0696C37.542 68.7866 37.1389 69.5462 36.422 69.7632C34.6315 70.3135 32.8526 70.9724 31.1435 71.7242C30.9652 71.8017 30.7792 71.8405 30.597 71.8405H30.6009Z" fill="#63A566"/>
<path d="M1.3566 106.751C1.25583 106.751 1.15895 106.74 1.05818 106.716C0.329586 106.55 -0.131601 105.825 0.0350464 105.096C1.85266 97.0391 5.15073 90.2104 10.1191 84.215C10.5958 83.6375 11.4523 83.5562 12.0298 84.0367C12.6072 84.5134 12.6886 85.3699 12.208 85.9474C7.51867 91.6056 4.40663 98.0661 2.68203 105.697C2.53863 106.329 1.98056 106.755 1.36047 106.755L1.3566 106.751Z" fill="#63A566"/>
<path d="M98.6398 108.135C98.0042 108.135 97.4384 107.685 97.3105 107.038C96.3804 102.287 94.741 97.7174 92.4428 93.4543C92.0863 92.7954 92.3343 91.9738 92.9932 91.6173C93.652 91.2607 94.4736 91.5088 94.8302 92.1676C97.2601 96.671 98.9925 101.5 99.973 106.519C100.116 107.255 99.6358 107.968 98.9033 108.111C98.8142 108.127 98.7289 108.139 98.6398 108.139V108.135Z" fill="#63A566"/>
<path d="M91.1096 89.9896C90.6756 89.9896 90.2454 89.7803 89.9818 89.3927C87.5945 85.8505 84.7421 82.6299 81.5022 79.8241C80.9364 79.3319 80.8744 78.4754 81.3666 77.9096C81.8588 77.3437 82.7153 77.2817 83.2811 77.7739C86.6993 80.7348 89.7106 84.1375 92.2335 87.8774C92.6521 88.4975 92.4893 89.3423 91.8653 89.7609C91.6328 89.9159 91.3693 89.9934 91.1096 89.9934V89.9896Z" fill="#63A566"/>
<path d="M78.5957 77.3554C78.3167 77.3554 78.0299 77.2701 77.7896 77.088C77.1463 76.6113 77.0804 75.8943 77.2974 75.3944C77.3323 75.313 77.5997 74.751 78.2585 74.6076C78.6616 74.4681 79.1189 74.5185 79.4909 74.782C80.1498 75.251 80.2273 75.9718 80.0103 76.4756C79.9754 76.557 79.7118 77.1306 79.053 77.2701C78.9057 77.3205 78.7507 77.3476 78.5957 77.3476V77.3554Z" fill="#63A566"/>
<path d="M15.7657 108.561C15.7192 108.561 15.6688 108.561 15.6223 108.561C14.7697 108.518 13.5334 108.053 12.487 106.108C12.1343 105.449 12.3824 104.623 13.0412 104.271C13.7001 103.918 14.5217 104.162 14.8782 104.825C15.32 105.651 15.6727 105.848 15.7618 105.852H15.7657C16.0292 105.852 16.7617 105.313 17.188 104.639C17.4012 104.302 17.4128 103.806 17.4283 103.232C17.4477 102.511 17.4709 101.697 17.8779 100.887C18.2538 100.147 18.8274 99.6086 19.3351 99.1358C19.7032 98.7947 20.0481 98.473 20.1954 98.1824C20.3117 97.9537 20.6489 97.1554 20.0055 96.5469C19.8505 96.3996 19.6877 96.3841 18.8545 96.5663C18.4514 96.6554 17.998 96.7523 17.5136 96.7601C17.1183 96.7678 16.754 96.7407 16.4362 96.7174C15.4479 96.6515 15.1417 96.6515 14.6496 97.1282C13.9907 97.7716 13.6652 98.3258 13.483 99.1125L13.4598 99.2094C13.2815 99.938 12.549 100.384 11.8204 100.205C11.0918 100.027 10.6461 99.2946 10.8244 98.5661L10.8322 98.5273C11.1383 97.2096 11.7274 96.1865 12.7544 95.1866C14.1341 93.8379 15.5138 93.9348 16.6183 94.0084C16.9167 94.0278 17.1958 94.0472 17.4864 94.0433C17.6918 94.0433 17.9747 93.9774 18.277 93.9154C19.2149 93.71 20.6372 93.4 21.8774 94.5781C23.1912 95.8261 23.4819 97.7251 22.6137 99.4225C22.2494 100.136 21.6875 100.659 21.1914 101.124C20.8155 101.473 20.4628 101.806 20.3039 102.112C20.1683 102.383 20.1567 102.814 20.1412 103.314C20.1179 104.12 20.0908 105.127 19.4823 106.092C18.8932 107.026 17.4632 108.573 15.7618 108.573L15.7657 108.561Z" fill="#AFDCF2"/>
<path d="M12.2081 103.569C11.9213 103.569 11.6461 103.476 11.4213 103.317C11.0687 103.073 10.8323 102.67 10.7974 102.194C10.747 101.449 11.2547 100.814 11.9755 100.717C12.553 100.639 13.2196 100.946 13.4637 101.674C13.5335 101.841 13.5761 102.019 13.5761 102.213C13.5761 102.883 13.0917 103.441 12.4522 103.55C12.3708 103.565 12.2856 103.573 12.2081 103.573V103.569Z" fill="#AFDCF2"/>
<path d="M75.4255 100.5C75.4022 100.5 75.379 100.5 75.3596 100.5C74.5496 100.461 73.8675 99.8372 73.5304 98.8335C73.4257 98.5157 73.3792 98.225 73.3366 97.9692C73.3017 97.7444 73.2668 97.5274 73.2048 97.4383C73.0304 97.1709 72.8444 96.9035 72.6623 96.6322C72.1778 95.9229 71.6779 95.1905 71.2671 94.4037C71.0888 94.0627 70.9105 93.7139 70.7361 93.3651C70.3486 92.5978 69.9804 91.873 69.5618 91.1754C69.4882 91.0553 69.4184 90.9313 69.3526 90.8111C69.1588 90.4662 69.0386 90.2608 68.8604 90.1058C68.6937 89.9585 68.4379 89.9663 68.3992 90.0089C68.3294 90.0864 68.2635 90.1717 68.1938 90.2569C66.9304 91.8614 65.7755 91.5359 65.0314 90.9778C64.543 90.6096 64.1516 90.129 63.7757 89.664C63.5199 89.3462 63.2757 89.0439 63.0432 88.8308C62.8417 88.6447 62.5937 88.4626 62.3301 88.2649C62.2022 88.168 62.0743 88.075 61.9503 87.9781C61.8147 87.8735 61.6868 87.7611 61.5628 87.6487C61.4504 87.548 61.2837 87.3968 61.2179 87.3697C60.9659 87.3309 60.6792 87.3774 60.497 87.4976C60.4854 87.5053 60.4738 87.5131 60.466 87.5208C60.466 87.5325 60.4699 87.5402 60.4737 87.5518C60.5551 87.9355 60.6947 88.5788 60.3032 89.3501C60.0203 89.9081 59.5087 90.3034 58.9003 90.4313C58.2531 90.567 57.5632 90.3965 57.0517 89.974C56.6292 89.6252 56.2766 89.2454 55.9665 88.9121L55.7456 88.6757C55.5983 88.5168 55.1992 88.0983 54.176 88.4742C53.5327 88.7145 53.0483 89.1292 52.8545 89.6097C52.7072 89.974 52.7343 90.3732 52.9281 90.8034C52.9901 90.877 53.149 91.0282 53.2575 91.1289C53.7807 91.6211 55.0093 92.7683 54.2264 94.2061C53.7885 95.0122 52.9979 95.3688 52.4204 95.6245C52.2266 95.7137 52.0406 95.7951 51.9244 95.8687C51.2926 96.2717 50.4555 96.0896 50.0525 95.4579C49.6494 94.8262 49.8316 93.9891 50.4633 93.586C50.7501 93.4039 51.0485 93.2682 51.312 93.152C51.343 93.1403 51.374 93.1248 51.405 93.1093C51.0834 92.807 50.7191 92.466 50.502 92.0164C49.9556 90.8731 49.8975 89.6911 50.3393 88.5982C50.8198 87.4123 51.874 86.4434 53.2304 85.9357C54.9511 85.2963 56.5866 85.6179 57.7183 86.8194L57.7764 86.8814C57.9237 86.2458 58.3538 85.6644 59.0166 85.2343C59.7684 84.7459 60.7373 84.5561 61.679 84.7111C62.4813 84.8428 63.0161 85.3195 63.3726 85.6373C63.454 85.7071 63.5315 85.7807 63.6168 85.8466C63.7253 85.928 63.8377 86.0132 63.954 86.0985C64.2601 86.3272 64.5779 86.5597 64.8841 86.8387C65.2716 87.1914 65.6049 87.6061 65.8995 87.9743C66.0119 88.1138 66.1281 88.2572 66.2405 88.3851C66.2948 88.3192 66.3529 88.2494 66.411 88.1874C67.4729 87.0286 69.4223 86.9821 70.6664 88.0866C71.1934 88.5517 71.488 89.0749 71.7244 89.4935C71.7786 89.5903 71.8368 89.6911 71.8949 89.7919C72.3638 90.5747 72.7708 91.377 73.1622 92.1521C73.3327 92.4892 73.5032 92.8264 73.6776 93.1597C74.0148 93.8069 74.4682 94.4735 74.9101 95.1168C75.1038 95.4036 75.2976 95.6865 75.4836 95.9695C75.5805 96.1167 75.658 96.2601 75.72 96.4074C76.158 96.1439 76.6308 96.1361 77.03 96.2214C77.1036 96.2369 77.1734 96.2562 77.2431 96.2795C77.1889 96.0392 77.123 95.7834 77.0571 95.5276C76.9447 95.082 76.8362 94.6634 76.7703 94.2797C76.6734 93.7333 76.7005 93.1985 76.7199 92.7256C76.7626 91.8537 76.7277 91.6211 76.5455 91.4816C76.1386 91.1677 75.5766 90.9352 74.9837 90.7026C74.0613 90.3383 73.3133 89.6059 72.8754 88.637C72.6816 88.2029 72.5034 87.765 72.3251 87.3154C72.2204 87.0519 71.4143 86.8 69.9261 86.5636C69.6587 86.5209 69.4107 86.4822 69.1937 86.4357C68.4379 86.2845 67.5737 85.7807 66.9924 85.149C66.07 84.1414 65.6514 82.6299 66.6358 81.692C67.783 80.5991 69.2751 81.4169 69.837 81.7269C69.8913 81.7579 69.9416 81.7851 69.9881 81.8083C70.2556 81.9478 70.523 82.0757 70.7904 82.1997C71.05 82.3238 71.3136 82.4478 71.5732 82.5795C71.7825 82.6842 71.9995 82.7888 72.2204 82.8935C72.5382 83.0485 72.8599 83.1996 73.1661 83.3624C73.6854 83.6337 74.0419 83.9631 74.3559 84.2576C74.4566 84.3507 74.5574 84.4437 74.6698 84.5405C75.1038 84.9087 75.7433 85.1955 76.3556 85.4707L76.6463 85.6024C76.8594 85.6993 77.061 85.804 77.2586 85.9047C77.6152 86.0908 77.8671 86.2148 78.0996 86.269C78.1539 85.8931 78.305 85.4397 78.7352 85.1064C78.9638 84.9281 79.4599 84.6529 80.1808 84.8196C81.0062 85.0134 81.5101 85.7807 81.9325 86.5791C81.9945 86.6953 82.1301 86.8542 82.258 87.0093C82.32 87.0829 82.3821 87.1565 82.4402 87.2263C82.4596 87.2534 82.4828 87.2805 82.5022 87.3077C82.5022 87.3077 83.8044 89.2028 86.0522 92.4427C86.4785 93.0551 86.3467 93.9154 85.7383 94.3456C85.1298 94.7758 84.3082 94.6595 83.8703 94.0588L83.8199 93.9891C81.7658 91.032 80.5024 89.195 80.2931 88.8889C80.2583 88.8463 80.2195 88.8036 80.1808 88.7571C80.1265 88.6912 80.0684 88.6253 80.0102 88.5517C79.4289 89.009 78.7158 89.009 78.3554 89.0129H78.3438C78.0802 89.0129 77.8361 88.9858 77.6035 88.9393C77.8051 89.0594 77.9988 89.1873 78.1887 89.3346C79.5335 90.3693 79.4638 91.8653 79.4173 92.8574C79.4018 93.2217 79.3863 93.5628 79.4289 93.8147C79.4793 94.0976 79.5723 94.4696 79.6731 94.8649C79.8242 95.4579 79.9792 96.0702 80.0451 96.6089C80.2428 98.2948 79.6382 99.3218 78.2546 99.6589C77.7469 99.783 77.3206 99.6667 76.9835 99.4768C76.5184 100.422 75.7394 100.527 75.4216 100.527L75.4255 100.5Z" fill="#AFDCF2"/>
<path d="M53.7808 103.093C53.3738 103.093 52.9669 102.91 52.6995 102.558L52.5522 102.364C52.2964 102.023 52.0561 101.721 51.8197 101.422C51.4593 100.965 51.0873 100.496 50.692 99.9341C50.5718 99.7636 50.4284 99.5892 50.2812 99.407C50.1843 99.2869 50.0835 99.1629 49.9866 99.0389C49.5254 98.4459 49.6339 97.5972 50.2269 97.136C50.8199 96.6787 51.6725 96.7833 52.1298 97.3763C52.215 97.4886 52.3081 97.601 52.3933 97.7095C52.5638 97.9227 52.7421 98.1436 52.9049 98.3723C53.2576 98.8722 53.5947 99.2946 53.9474 99.7442C54.1954 100.058 54.4512 100.38 54.7225 100.74L54.8581 100.918C55.3116 101.515 55.1992 102.364 54.6024 102.821C54.3582 103.007 54.0675 103.1 53.7808 103.1V103.093Z" fill="#AFDCF2"/>
<path d="M53.2728 107.135C52.707 107.135 52.1838 106.782 51.99 106.216C51.7497 105.507 52.1256 104.736 52.8349 104.496C53.1139 104.399 53.3813 104.306 53.6216 104.217C53.7689 104.162 53.8386 104.116 53.8619 104.1C54.2494 103.484 55.0594 103.283 55.695 103.651C56.3422 104.031 56.5592 104.86 56.1794 105.507C55.8578 106.061 55.3152 106.48 54.5672 106.759C54.3076 106.856 54.013 106.96 53.7107 107.061C53.5635 107.112 53.4162 107.135 53.2728 107.135Z" fill="#AFDCF2"/>
<path d="M87.0829 98.4382C86.3775 98.4382 85.7962 97.8956 85.7342 97.2058C85.521 96.5314 85.8659 95.7951 86.5364 95.5354C87.234 95.2641 88.0207 95.6091 88.292 96.3066C88.4083 96.6051 88.4393 96.7717 88.4393 97.0779C88.4393 97.8259 87.8308 98.4343 87.0829 98.4343V98.4382Z" fill="#AFDCF2"/>
<path d="M24.6019 78.456L37.7632 53.8155C38.1003 53.1837 37.8872 52.397 37.2748 52.0211L35.3138 50.8158C34.6744 50.4244 33.8411 50.622 33.4497 51.2615C33.0583 51.9009 33.2559 52.7342 33.8954 53.1256L34.7674 53.6604L31.8995 59.028L20.5752 52.8117C18.653 51.7576 16.2347 52.4629 15.1805 54.3813L4.72824 73.4178C4.21667 74.3479 4.10041 75.4215 4.39495 76.4407C4.69336 77.46 5.3677 78.301 6.29783 78.8125L12.7583 82.3586C12.9637 82.471 13.1885 82.5253 13.4094 82.5253C13.5179 82.5253 13.6264 82.5098 13.7349 82.4827C13.7466 82.9981 13.8241 83.5174 13.983 84.0329C14.7232 86.4202 16.8974 88.0208 19.3932 88.0208C19.959 88.0208 20.5249 87.9355 21.0713 87.765C24.0555 86.8426 25.7297 83.6647 24.8034 80.6805C24.6174 80.076 24.3384 79.5256 23.9857 79.0334C24.2415 78.9133 24.4624 78.7157 24.6058 78.4444L24.6019 78.456ZM14.2116 80.0876C14.1651 80.0527 14.1147 80.014 14.0605 79.983L12.9017 79.3474C13.142 78.8668 13.545 78.0452 14.2543 76.5957C15.4828 74.0844 17.3392 70.2903 19.1645 66.6822C19.5017 66.0156 19.2343 65.1978 18.5677 64.8607C17.9011 64.5196 17.0834 64.7909 16.7462 65.4575C14.9131 69.0811 13.0529 72.883 11.8204 75.4021C11.2934 76.4756 10.8167 77.4484 10.5221 78.0413L7.6 76.4368C7.30546 76.2741 7.09231 76.0067 6.99542 75.685C6.89853 75.3633 6.93729 75.0223 7.10006 74.7277L17.5523 55.6912C17.8856 55.0827 18.6569 54.858 19.2653 55.1913L21.5015 56.4198L20.2187 58.9583C19.8815 59.6287 20.1489 60.4426 20.8194 60.7798C21.017 60.8766 21.2224 60.927 21.4278 60.927C21.9239 60.927 22.4006 60.6557 22.6409 60.1829L23.8811 57.7258L30.6167 61.4231L22.203 77.1771C22.1642 77.2468 22.1371 77.3243 22.1138 77.398C21.3 76.9523 20.366 76.7004 19.3855 76.7004C18.8196 76.7004 18.2538 76.7857 17.7074 76.9562C16.0796 77.46 14.8433 78.642 14.2039 80.0915L14.2116 80.0876ZM20.2613 85.1839C19.9745 85.273 19.6839 85.3157 19.3893 85.3157C18.091 85.3157 16.9555 84.4786 16.5718 83.2384C16.0913 81.6843 16.9633 80.0295 18.5173 79.545C18.8041 79.4559 19.0948 79.4133 19.3932 79.4133C20.6915 79.4133 21.827 80.2504 22.2107 81.4905C22.6913 83.0446 21.8193 84.6995 20.2652 85.18L20.2613 85.1839Z" fill="#D77599"/>
<path d="M19.4591 63.8608C19.6529 63.9577 19.8621 64.0042 20.0637 64.0042C20.5597 64.0042 21.0403 63.729 21.2767 63.2562C21.5247 62.7601 21.4782 62.1904 21.1566 61.768C21.0868 61.675 20.8969 61.4579 20.5869 61.3301C20.5752 61.3262 20.5675 61.3184 20.5559 61.3146C19.8893 60.9774 19.0715 61.2448 18.7344 61.9153C18.4863 62.4074 18.529 62.981 18.8506 63.4035C18.9204 63.4965 19.1025 63.7058 19.4048 63.8375C19.4203 63.8453 19.4397 63.8569 19.4591 63.8646V63.8608Z" fill="#D77599"/>
</g>
<defs>
<clipPath id="clip0_25_1679">
<rect width="100" height="108.561" fill="white"/>
</clipPath>
</defs>
</svg>
