<svg width="100" height="72" viewBox="0 0 100 72" fill="none" xmlns="http://www.w3.org/2000/svg">
<g clip-path="url(#clip0_25_1741)">
<path d="M37.5484 44.3172L37.1201 43.415C36.9888 43.141 36.866 42.8583 36.7518 42.5814L36.375 41.6564L38.225 40.8998L38.6019 41.8248C38.7018 42.0704 38.8103 42.3159 38.9245 42.5586L39.3527 43.4607L37.5484 44.3172Z" fill="#D77599"/>
<path d="M51.8916 52.882L51.7917 50.8864L52.7909 50.8351C53.3248 50.8094 53.8644 50.7523 54.3925 50.6666L55.3803 50.5067L55.7001 52.4795L54.7123 52.6394C54.1127 52.7364 53.4989 52.8021 52.8908 52.8335L51.8916 52.882ZM58.1696 51.7115L57.3188 49.9043L58.2239 49.479C58.7063 49.2506 59.1831 48.9936 59.6399 48.7138L60.4907 48.1914L61.5384 49.8929L60.6877 50.4154C60.1681 50.7351 59.6285 51.0263 59.0775 51.2861L58.1725 51.7115H58.1696ZM63.5283 48.2485L62.058 46.8952L62.7347 46.1587C63.0972 45.7647 63.4398 45.345 63.7567 44.9139L64.3477 44.1088L65.9579 45.2908L65.3669 46.0959C65.0072 46.5869 64.6161 47.0637 64.205 47.5119L63.5283 48.2485ZM67.1855 43.0125L65.3127 42.3188L65.6581 41.3823C65.8437 40.8799 66.0036 40.3631 66.132 39.8435L66.3719 38.8729L68.3104 39.3525L68.0705 40.3232C67.9249 40.9141 67.7422 41.5023 67.531 42.0732L67.1855 43.0097V43.0125ZM35.7412 39.1441L35.6327 38.1506C35.567 37.5539 35.5356 36.9458 35.5356 36.3405V35.3413L37.5341 35.3242V36.3234C37.5341 36.8744 37.5627 37.4083 37.6198 37.9336L37.7282 38.9271L35.7412 39.1441ZM66.5831 36.8487L66.5489 35.8495C66.5317 35.3127 66.4832 34.7732 66.4061 34.245L66.2634 33.2572L68.2418 32.9717L68.3846 33.9595C68.4702 34.559 68.5245 35.1729 68.5445 35.781L68.5787 36.7802L66.5803 36.8458L66.5831 36.8487ZM37.8139 33.3114L35.8925 32.7633L36.1666 31.8012C36.335 31.2159 36.5349 30.6335 36.7661 30.0682L37.1458 29.1432L38.993 29.9026L38.6133 30.8276C38.4106 31.3215 38.2336 31.8326 38.0851 32.3493L37.811 33.3114H37.8139ZM65.6981 31.3073L65.287 30.3965C65.0671 29.9083 64.8188 29.4287 64.5475 28.9691L64.0394 28.1097L65.7609 27.0934L66.2691 27.9527C66.5803 28.478 66.8629 29.0233 67.1113 29.5772L67.5224 30.4879L65.7009 31.3073H65.6981ZM40.0208 28.1497L38.4505 26.9135L39.0701 26.1284C39.4469 25.6516 39.8523 25.1891 40.2806 24.7552L40.9829 24.0443L42.4075 25.4461L41.7052 26.157C41.3283 26.5395 40.9715 26.9449 40.6403 27.3646L40.0208 28.1497ZM62.7718 26.5167L62.0466 25.8286C61.6584 25.4603 61.2472 25.1092 60.8219 24.7837L60.0253 24.1785L61.2358 22.5883L62.0323 23.1935C62.5177 23.5618 62.9859 23.9615 63.4256 24.3812L64.1507 25.0692L62.7746 26.5167H62.7718ZM44.0205 24.207L43.0327 22.4684L43.9006 21.9745C44.4316 21.6747 44.9826 21.4006 45.5394 21.1608L46.4586 20.7668L47.2466 22.6025L46.3273 22.9965C45.8363 23.2078 45.3509 23.4476 44.8856 23.7131L44.0177 24.207H44.0205ZM58.2524 23.1821L57.3217 22.8195C56.8249 22.6254 56.311 22.4569 55.7914 22.3199L54.8265 22.063L55.3404 20.133L56.3053 20.39C56.8935 20.547 57.4816 20.7383 58.0469 20.961L58.9776 21.3235L58.2496 23.185L58.2524 23.1821ZM49.2108 22.0715L48.9596 20.0902L49.9502 19.9646C50.5526 19.8875 51.1664 19.8447 51.7745 19.8361L52.7738 19.8218L52.8052 21.8203L51.806 21.8374C51.2692 21.846 50.7296 21.8831 50.1986 21.9516L49.208 22.0772L49.2108 22.0715Z" fill="#D77599"/>
<path d="M49.2622 52.6508L48.2887 52.4253C47.9946 52.3568 47.6977 52.2797 47.4065 52.194L46.4473 51.9142L47.0068 49.9957L47.9661 50.2755C48.2202 50.3497 48.48 50.4183 48.7398 50.4782L49.7133 50.7038L49.2594 52.6508H49.2622Z" fill="#D77599"/>
<path d="M67.9646 17.7635L67.1824 17.1439C66.8969 16.9184 66.6028 16.6957 66.3059 16.4816L65.4951 15.8963L66.6656 14.2747L67.4764 14.86C67.7962 15.0912 68.116 15.331 68.4214 15.5766L69.2037 16.1961L67.9646 17.7635Z" fill="#AFDCF2"/>
<path d="M52.3454 63.1456L51.3462 63.1256C50.5497 63.1085 49.7474 63.0571 48.9595 62.9715L47.9659 62.863L48.1829 60.8759L49.1764 60.9844C49.9044 61.0644 50.6496 61.1129 51.3862 61.1272L52.3854 61.1472L52.3454 63.1456ZM54.8321 62.9914L54.5409 61.0158L55.5287 60.8702C56.2567 60.7617 56.9875 60.6218 57.7013 60.4477L58.672 60.2136L59.1402 62.1549L58.1695 62.3891C57.3987 62.5746 56.6078 62.7288 55.8199 62.8458L54.8321 62.9914ZM45.5193 62.3805L44.5571 62.1064C43.792 61.8866 43.0297 61.6325 42.2875 61.3441L41.3539 60.9844L42.0762 59.1201L43.0069 59.4799C43.6921 59.7454 44.4001 59.9823 45.1053 60.185L46.0674 60.4591L45.5164 62.3805H45.5193ZM61.5098 61.367L60.719 59.5313L61.6354 59.1373C62.312 58.8461 62.9801 58.5206 63.6281 58.1723L64.5075 57.6955L65.461 59.4513L64.5817 59.9281C63.8822 60.3078 63.1571 60.659 62.4291 60.973L61.5126 61.367H61.5098ZM39.1128 59.8881L38.2534 59.3771C37.5711 58.9717 36.9002 58.5263 36.255 58.0581L35.447 57.47L36.6204 55.8541L37.4284 56.4422C38.025 56.8762 38.6474 57.2873 39.2755 57.6613L40.132 58.1723L39.1071 59.8881H39.1128ZM67.5423 58.0838L66.3089 56.5107L67.094 55.8941C67.6736 55.4401 68.2389 54.9548 68.7756 54.4495L69.5036 53.7643L70.8711 55.2203L70.1431 55.9055C69.5636 56.4508 68.9526 56.9732 68.3274 57.4643L67.5423 58.081V58.0838ZM33.5628 55.8427L32.8633 55.1289C32.3066 54.5608 31.7699 53.9613 31.2674 53.3446L30.6336 52.5709L32.181 51.3062L32.8148 52.0799C33.2801 52.6508 33.7797 53.2047 34.2936 53.73L34.9931 54.4438L33.5656 55.8427H33.5628ZM72.5413 53.3703L70.9482 52.1627L71.5535 51.3661C71.9988 50.7809 72.4214 50.1671 72.8125 49.5418L73.3435 48.6939L75.0365 49.7531L74.5055 50.601C74.0829 51.2748 73.6261 51.9371 73.1465 52.5709L72.5413 53.3674V53.3703ZM29.2233 50.5154L28.7293 49.6475C28.3354 48.9566 27.9699 48.24 27.6388 47.5148L27.2248 46.6041L29.0434 45.7762L29.4574 46.684C29.7628 47.3521 30.0997 48.0173 30.4651 48.6568L30.9591 49.5247L29.2233 50.5125V50.5154ZM76.1756 47.5377L74.3285 46.7782L74.7082 45.8532C74.9879 45.1738 75.2392 44.4714 75.4562 43.7691L75.7502 42.8156L77.6602 43.4066L77.3661 44.3601C77.132 45.1195 76.8579 45.8789 76.5553 46.6155L76.1756 47.5405V47.5377ZM26.3883 44.2573L26.1342 43.2924C25.9315 42.5244 25.7631 41.7364 25.6289 40.9513L25.4633 39.9664L27.4332 39.6323L27.5988 40.6173C27.7216 41.3424 27.8786 42.0704 28.0641 42.7813L28.3182 43.7463L26.3854 44.2545L26.3883 44.2573ZM78.1912 40.9656L76.2099 40.7058L76.3412 39.7151C76.4354 38.99 76.5011 38.2448 76.5296 37.5082L76.5696 36.509L78.5652 36.5918L78.5252 37.591C78.4938 38.3876 78.4253 39.1898 78.3225 39.9749L78.1912 40.9656ZM27.2533 37.4826H25.2549V36.4833C25.2549 35.6868 25.2891 34.8817 25.3605 34.0937L25.449 33.0974L27.4389 33.2744L27.3504 34.2707C27.2847 35.0016 27.2533 35.7439 27.2533 36.4833V37.4826ZM76.4782 34.3535L76.3526 33.3629C76.2613 32.632 76.1328 31.8983 75.9758 31.1817L75.7616 30.2053L77.7144 29.7771L77.9285 30.7535C78.0998 31.53 78.234 32.3237 78.3339 33.1116L78.4596 34.1023L76.4754 34.3535H76.4782ZM27.8101 31.1503L25.8773 30.6421L26.1313 29.6771C26.3341 28.9092 26.5739 28.1383 26.8451 27.3903L27.1848 26.4511L29.0634 27.1334L28.7236 28.0727C28.4724 28.7636 28.2497 29.4744 28.0641 30.1853L27.8101 31.1503ZM75.125 28.1469L74.7481 27.2219C74.4712 26.5396 74.16 25.8629 73.8231 25.2092L73.3663 24.3213L75.1421 23.4048L75.5989 24.2927C75.9643 24.9979 76.3012 25.7316 76.5981 26.4682L76.975 27.3932L75.1221 28.144L75.125 28.1469ZM29.9741 25.1749L28.2383 24.1871L28.7322 23.3192C29.1262 22.6283 29.5544 21.946 30.0084 21.295L30.5793 20.4757L32.2209 21.6176L31.65 22.437C31.2303 23.0394 30.8334 23.6704 30.468 24.3099L29.9741 25.1778V25.1749ZM72.2187 22.4913L71.6191 21.6919C71.1766 21.1038 70.7027 20.5271 70.2116 19.9818L69.5436 19.2395L71.0281 17.9005L71.6962 18.6428C72.2301 19.2338 72.7411 19.8533 73.2179 20.4899L73.8174 21.2893L72.2187 22.4913ZM33.5942 19.9504L32.1667 18.5514L32.8662 17.8377C33.4229 17.2696 34.011 16.7214 34.6162 16.2047L35.3756 15.5566L36.6718 17.0783L35.9124 17.7264C35.3528 18.2031 34.8075 18.7142 34.2936 19.2366L33.5942 19.9504ZM38.4276 15.8193L37.4027 14.1034L38.2591 13.5924C38.9415 13.1842 39.6523 12.8044 40.3689 12.459L41.2682 12.025L42.1333 13.8265L41.234 14.2605C40.5716 14.5802 39.915 14.9314 39.2841 15.3082L38.4276 15.8193ZM44.1517 13.0585L43.6036 11.1372L44.5657 10.8631C45.3308 10.6433 46.1159 10.4577 46.8953 10.3092L47.8774 10.1237L48.2514 12.0879L47.2693 12.2734C46.547 12.4105 45.8247 12.5818 45.1167 12.7845L44.1546 13.0585H44.1517Z" fill="#AFDCF2"/>
<path d="M53.5332 11.8709L52.534 11.8452C52.1686 11.8366 51.8031 11.8337 51.4377 11.8423L50.4385 11.8623L50.4014 9.86384L51.4006 9.84386C51.7946 9.83529 52.1943 9.83815 52.5883 9.84671L53.5875 9.87241L53.5361 11.8709H53.5332Z" fill="#AFDCF2"/>
<path d="M22.0517 20.3329L20.3159 19.3422L20.8098 18.4743C21.0268 18.0974 21.2523 17.7149 21.4864 17.338L22.0146 16.4901L23.7133 17.5464L23.1851 18.3944C22.9653 18.7484 22.7483 19.1081 22.5456 19.465L22.0517 20.3329Z" fill="#A0A2F8"/>
<path d="M51.9001 71.9816C51.4376 71.9816 50.9751 71.973 50.524 71.9559L49.5248 71.9188L49.6019 69.9203L50.6011 69.9575C51.429 69.9889 52.2941 69.9917 53.1334 69.9575L54.1327 69.9232L54.204 71.9217L53.2048 71.9559C52.7737 71.9702 52.3369 71.9788 51.9001 71.9788V71.9816ZM56.6621 71.6818L56.3424 69.7091L57.3302 69.5492C58.161 69.415 58.9975 69.2466 59.8111 69.0524L60.7818 68.8183L61.2472 70.7626L60.2765 70.9967C59.4143 71.2051 58.5293 71.3821 57.6471 71.522L56.6593 71.6818H56.6621ZM47.0695 71.6704L46.0846 71.5077C45.2081 71.3649 44.3231 71.1851 43.458 70.9767L42.4873 70.7426L42.9556 68.8012L43.9262 69.0353C44.7456 69.2323 45.5792 69.4007 46.4072 69.5378L47.395 69.7005L47.0724 71.6733L47.0695 71.6704ZM63.6111 70.0345L62.9059 68.1646L63.8394 67.8105C64.6217 67.5136 65.4068 67.1853 66.1691 66.8284L67.0741 66.4059L67.9192 68.2159L67.0141 68.6385C66.2062 69.0153 65.3754 69.3636 64.5475 69.6777L63.6139 70.0317L63.6111 70.0345ZM40.1206 70.0117L39.187 69.6577C38.3562 69.3408 37.5226 68.9896 36.7175 68.6099L35.8125 68.1845L36.6604 66.3745L37.5654 66.7999C38.3277 67.1568 39.11 67.4908 39.8979 67.7877L40.8315 68.1417L40.1206 70.0088V70.0117ZM70.0889 67.0369L69.024 65.3467L69.8691 64.8157C70.5771 64.3703 71.2823 63.8907 71.9589 63.3882L72.7611 62.7944L73.9488 64.4017L73.1466 64.9956C72.43 65.5266 71.6848 66.0348 70.934 66.5058L70.0889 67.0369ZM33.6427 66.994L32.7977 66.4602C32.044 65.9834 31.3017 65.4723 30.588 64.9413L29.7857 64.3446L30.9791 62.7402L31.7813 63.3369C32.4551 63.8365 33.1574 64.3189 33.8683 64.77L34.7133 65.3039L33.6456 66.994H33.6427ZM75.8416 62.8115L74.4627 61.3641L75.1878 60.676C75.7959 60.0965 76.3926 59.4855 76.955 58.8632L77.626 58.1237L79.1077 59.4656L78.4368 60.205C77.8401 60.8645 77.2091 61.5097 76.5639 62.1235L75.8388 62.8115H75.8416ZM27.8957 62.7516L27.1734 62.0607C26.5311 61.444 25.903 60.7988 25.3063 60.1365L24.6383 59.3942L26.1228 58.0552L26.7909 58.7975C27.3533 59.4227 27.9471 60.0337 28.5552 60.6132L29.2775 61.3041L27.8957 62.7487V62.7516ZM80.6493 57.5299L79.0135 56.3822L79.5873 55.5628C80.0698 54.872 80.5323 54.1582 80.9634 53.4359L81.4744 52.5766L83.1931 53.5987L82.6821 54.458C82.2281 55.2203 81.7371 55.9797 81.226 56.7105L80.6522 57.5299H80.6493ZM23.1023 57.4614L22.5313 56.642C22.0203 55.9111 21.5349 55.1517 21.081 54.3866L20.5728 53.5273L22.2944 52.5109L22.8025 53.3703C23.2279 54.0926 23.6904 54.8091 24.17 55.4972L24.741 56.3166L23.1023 57.4585V57.4614ZM84.3179 51.4003L82.4851 50.601L82.8848 49.6845C83.2216 48.9137 83.5328 48.12 83.8069 47.3263L84.1352 46.3842L86.0223 47.0409L85.694 47.983C85.4 48.8223 85.0716 49.6645 84.7148 50.4811L84.3151 51.3975L84.3179 51.4003ZM19.4508 51.329L19.054 50.4125C18.7 49.596 18.3745 48.7567 18.0833 47.9173L17.7579 46.9723L19.645 46.3186L19.9733 47.2635C20.2474 48.0572 20.5557 48.848 20.8897 49.6189L21.2866 50.5353L19.4537 51.329H19.4508ZM86.6904 44.657L84.7348 44.2402L84.9432 43.2638C85.1173 42.4444 85.2629 41.605 85.3771 40.7714L85.5113 39.7807L87.4926 40.0491L87.3584 41.0398C87.2385 41.9219 87.0844 42.8127 86.8988 43.6806L86.6904 44.657ZM17.0955 44.5885L16.89 43.6121C16.7072 42.7413 16.5531 41.8534 16.436 40.9712L16.3047 39.9806L18.286 39.7179L18.4173 40.7086C18.5287 41.5422 18.6714 42.3816 18.8456 43.2038L19.0511 44.1802L17.0955 44.5913V44.5885ZM87.6725 37.5853L85.674 37.5653L85.6855 36.5661C85.6855 36.4433 85.6855 36.3205 85.6855 36.1978C85.6855 35.4783 85.6626 34.7503 85.6169 34.0337L85.5541 33.0374L87.5497 32.9117L87.6125 33.9081C87.6611 34.6675 87.6839 35.4384 87.6839 36.1978C87.6839 36.3263 87.6839 36.4547 87.6839 36.5861L87.6725 37.5853ZM85.2772 30.8334L85.0916 29.8513C84.9346 29.0233 84.7433 28.1954 84.5263 27.3846L84.2665 26.4196L86.1965 25.9L86.4563 26.865C86.6875 27.7243 86.8902 28.6008 87.0558 29.4773L87.2414 30.4594L85.2772 30.8334ZM83.5528 24.3155L83.1731 23.3905C82.8533 22.614 82.5022 21.8403 82.1253 21.0894L81.6771 20.1958L83.4643 19.2994L83.9125 20.193C84.3122 20.9895 84.6834 21.8089 85.0202 22.6311L85.4 23.5561L83.55 24.3155H83.5528ZM80.5637 18.2773L80.007 17.4465C79.5416 16.7499 79.042 16.059 78.5224 15.3967L77.9057 14.6087L79.4788 13.3782L80.0955 14.1662C80.6436 14.8685 81.1746 15.5965 81.6686 16.336L82.2253 17.1668L80.5637 18.2773ZM25.0008 15.7336L23.4477 14.4745L24.0758 13.698C24.6354 13.0071 25.2292 12.3276 25.8402 11.6796L26.5254 10.9515L27.9814 12.3219L27.2962 13.0499C26.7195 13.6637 26.1599 14.3032 25.6318 14.957L25.0037 15.7336H25.0008ZM76.4326 12.95L75.7246 12.2448C75.1279 11.651 74.5027 11.0743 73.8631 10.529L73.1037 9.87809L74.4027 8.35926L75.1621 9.01019C75.8388 9.58974 76.5011 10.2007 77.1321 10.8288L77.8401 11.534L76.4297 12.95H76.4326ZM29.6001 10.8002L28.3268 9.26142L29.0977 8.62477C29.7829 8.05664 30.4995 7.50849 31.2246 6.9946L32.0411 6.4179L33.1974 8.04807L32.3809 8.62477C31.6957 9.11011 31.0219 9.62685 30.371 10.1636L29.6001 10.8002ZM71.328 8.53912L70.4943 7.98812C69.792 7.52562 69.064 7.0831 68.3303 6.67199L67.4567 6.18665L68.4302 4.44228L69.3038 4.93048C70.0803 5.36443 70.8512 5.83264 71.5963 6.32369L72.43 6.87469L71.328 8.54198V8.53912ZM35.0845 6.87469L34.1395 5.11319L35.0188 4.64213C35.8039 4.22245 36.6147 3.82561 37.4284 3.46589L38.342 3.06049L39.1499 4.88765L38.2363 5.29305C37.4684 5.63279 36.7032 6.00679 35.9638 6.40363L35.0845 6.87469ZM65.4525 5.22739L64.5246 4.85339C63.7424 4.53935 62.9401 4.251 62.1408 3.99691L61.1872 3.69429L61.7925 1.79004L62.746 2.09267C63.5939 2.36103 64.4447 2.66651 65.2726 3.00054L66.2005 3.37453L65.4525 5.22739ZM41.234 4.11967L40.6602 2.20401L41.6166 1.91851C42.4702 1.66442 43.341 1.43603 44.2117 1.2476L45.1881 1.03348L45.6164 2.98626L44.64 3.20038C43.8206 3.38024 42.9955 3.59436 42.1904 3.83418L41.234 4.11967ZM59.0346 3.1547L58.0525 2.97484C57.2245 2.82353 56.3823 2.70077 55.5487 2.61226L54.5552 2.50663L54.7693 0.519593L55.7628 0.625226C56.645 0.719439 57.5386 0.850766 58.4151 1.01064L59.3972 1.1905L59.0374 3.1547H59.0346ZM47.8118 2.64652L47.6319 0.65663L48.6255 0.565272C49.5105 0.485334 50.4098 0.4368 51.3005 0.422525L52.2998 0.405396L52.334 2.40385L51.3348 2.42098C50.4926 2.43526 49.6447 2.48094 48.8082 2.55517L47.8118 2.64652Z" fill="#A0A2F8"/>
<path d="M16.1277 37.4426L16.1191 36.2007C16.1191 35.8409 16.1249 35.4812 16.1363 35.1244L16.1648 34.1251L18.1633 34.1851L18.1347 35.1843C18.1233 35.5212 18.1205 35.8609 18.1205 36.2035L18.129 37.4311L16.1306 37.4454L16.1277 37.4426Z" fill="#A0A2F8"/>
<path d="M18.6428 32.3921C15.6252 32.3921 13.1699 29.9369 13.1699 26.9192C13.1699 23.9015 15.6252 21.4463 18.6428 21.4463C21.6605 21.4463 24.1158 23.9015 24.1158 26.9192C24.1158 29.9369 21.6605 32.3921 18.6428 32.3921ZM18.6428 23.4476C16.7272 23.4476 15.1684 25.0064 15.1684 26.9221C15.1684 28.8377 16.7272 30.3965 18.6428 30.3965C20.5585 30.3965 22.1173 28.8377 22.1173 26.9221C22.1173 25.0064 20.5585 23.4476 18.6428 23.4476Z" fill="#E7A87B"/>
<path d="M60.1337 16.7871C57.7469 16.7871 55.8027 14.8457 55.8027 12.4561C55.8027 10.0665 57.7441 8.12518 60.1337 8.12518C62.5233 8.12518 64.4646 10.0665 64.4646 12.4561C64.4646 14.8457 62.5233 16.7871 60.1337 16.7871ZM60.1337 10.1236C58.849 10.1236 57.8012 11.1686 57.8012 12.4561C57.8012 13.7437 58.8461 14.7886 60.1337 14.7886C61.4213 14.7886 62.4662 13.7437 62.4662 12.4561C62.4662 11.1686 61.4213 10.1236 60.1337 10.1236Z" fill="#D77599"/>
<path d="M41.4821 52.6623C39.3552 52.6623 37.6279 50.9322 37.6279 48.8081C37.6279 46.684 39.3552 44.9539 41.4821 44.9539C43.609 44.9539 45.3363 46.684 45.3363 48.8081C45.3363 50.9322 43.6062 52.6623 41.4821 52.6623ZM41.4821 46.9524C40.46 46.9524 39.6264 47.786 39.6264 48.8081C39.6264 49.8302 40.46 50.6638 41.4821 50.6638C42.5042 50.6638 43.3378 49.8302 43.3378 48.8081C43.3378 47.786 42.5042 46.9524 41.4821 46.9524Z" fill="#AFDCF2"/>
<path d="M6.32931 54.3038C5.7783 54.3038 5.33293 53.8585 5.33008 53.3103C5.33008 52.7593 5.77259 52.3082 6.3236 52.3054L10.6288 52.2854H10.6346C11.1827 52.2854 11.6309 52.7308 11.6338 53.2789C11.6338 53.8299 11.1913 54.281 10.6403 54.2839L6.33502 54.3038H6.32931Z" fill="white"/>
<path d="M8.48484 56.4136C7.93384 56.4136 7.48562 55.9683 7.48562 55.4173L7.47705 51.1748C7.47705 50.6238 7.92242 50.1756 8.47342 50.1727C9.02443 50.1727 9.47265 50.6181 9.47551 51.1691L9.48407 55.4115C9.48407 55.9625 9.0387 56.4108 8.4877 56.4136H8.48484Z" fill="white"/>
<path d="M0.999229 27.2761C0.448226 27.2761 0 26.8336 0 26.2826C0 25.7316 0.442516 25.2805 0.993519 25.2777L5.29877 25.2577H5.30448C5.85548 25.2577 6.30085 25.7031 6.30371 26.2512C6.30371 26.8022 5.86119 27.2533 5.31019 27.2561L1.00494 27.2761H0.999229Z" fill="white"/>
<path d="M3.15477 29.3888C2.60376 29.3888 2.15554 28.9434 2.15554 28.3924L2.14697 24.15C2.14697 23.599 2.59234 23.1507 3.14335 23.1479C3.69435 23.1479 4.14258 23.5933 4.14258 24.1443L4.15114 28.3867C4.15114 28.9377 3.70577 29.3859 3.15477 29.3888Z" fill="white"/>
<path d="M7.57973 43.3865C7.45411 43.3865 7.32849 43.3637 7.20287 43.3123L7.12579 43.2809C6.61476 43.0725 6.36923 42.4901 6.57764 41.9791C6.78605 41.468 7.36846 41.2225 7.87949 41.4309L7.95658 41.4623C8.46761 41.6707 8.71314 42.2531 8.50758 42.7642C8.35056 43.1524 7.97656 43.3865 7.58258 43.3865H7.57973Z" fill="white"/>
<path d="M89.9679 57.7069C89.8423 57.7069 89.7167 57.6841 89.5911 57.6327L89.514 57.6013C89.0029 57.3929 88.7574 56.8105 88.9658 56.2994C89.1742 55.7884 89.7566 55.5429 90.2677 55.7513L90.3448 55.7827C90.8558 55.9911 91.1013 56.5735 90.8958 57.0845C90.7387 57.4728 90.3648 57.7069 89.9708 57.7069H89.9679Z" fill="white"/>
<path d="M91.2296 46.4527C90.7671 46.4527 90.3532 46.1301 90.2533 45.659C90.1391 45.1195 90.4845 44.5884 91.0241 44.4742C91.1326 44.4486 93.8134 43.8205 94.0874 41.0797C94.1388 40.5715 94.5642 40.1861 95.0724 40.1804H95.081C95.5863 40.1804 96.0145 40.5601 96.0745 41.0626C96.0888 41.1911 96.5084 44.263 99.075 44.4543C99.626 44.4942 100.037 44.9739 99.9972 45.5249C99.9572 46.0759 99.4747 46.487 98.9266 46.447C97.0395 46.3071 95.8118 45.2337 95.061 44.0232C94.0104 45.4935 92.4145 46.2215 91.4381 46.427C91.3695 46.4413 91.2982 46.4499 91.2296 46.4499V46.4527Z" fill="white"/>
<path d="M95.0954 50.6124C94.5958 50.6124 94.1676 50.2413 94.1048 49.7359C94.0905 49.6217 93.6823 46.821 91.0586 46.4642C90.5104 46.3899 90.1279 45.8875 90.2021 45.3393C90.2763 44.7912 90.7788 44.4058 91.3269 44.4828C93.0998 44.7227 94.2818 45.6933 95.0269 46.7782C96.049 45.4193 97.682 44.7255 98.7184 44.5171C99.2579 44.4086 99.7861 44.7569 99.8946 45.2994C100.003 45.8418 99.6548 46.3671 99.1123 46.4756C98.9924 46.5013 96.0918 47.1379 96.0947 49.6103C96.0947 50.1385 95.6836 50.5753 95.1583 50.6095C95.1383 50.6095 95.1154 50.6095 95.0954 50.6095V50.6124Z" fill="white"/>
<path d="M87.2186 65.3952C86.739 65.3952 86.3164 65.0498 86.2336 64.5616C86.1423 64.0163 86.5106 63.5024 87.053 63.4111C87.2357 63.3768 88.9201 63.0142 89.0401 61.2042C89.0743 60.6903 89.4968 60.2849 90.0107 60.2706C90.5275 60.2535 90.9671 60.6389 91.0299 61.1528C91.0414 61.2356 91.324 63.2769 92.9799 63.3996C93.5309 63.4396 93.942 63.9192 93.902 64.4702C93.862 65.0213 93.3796 65.4352 92.8314 65.3924C91.5381 65.2953 90.6417 64.6444 90.0421 63.8536C89.2285 64.8071 88.1036 65.2611 87.387 65.381C87.3299 65.3895 87.2757 65.3952 87.2186 65.3952Z" fill="white"/>
<path d="M90.0505 68.4358C89.5509 68.4358 89.1227 68.0646 89.0599 67.5593C89.0342 67.368 88.743 65.6265 87.0586 65.3981C86.5104 65.3239 86.1279 64.8214 86.2021 64.2733C86.2763 63.7251 86.7788 63.3397 87.3269 63.4168C88.5574 63.5824 89.4224 64.1991 90.0077 64.9271C90.8014 64.0506 91.9148 63.5909 92.6457 63.4425C93.1853 63.334 93.7134 63.6823 93.8219 64.2247C93.9304 64.7672 93.5821 65.2925 93.0397 65.401C92.9626 65.4181 91.0441 65.8464 91.0469 67.4337C91.0469 67.9619 90.6387 68.3987 90.1105 68.4329C90.0877 68.4329 90.0677 68.4329 90.0477 68.4329L90.0505 68.4358Z" fill="white"/>
<path d="M55.4403 32.3665C55.2204 32.3665 55.0006 32.2951 54.8179 32.1466C54.3868 31.8012 54.3154 31.1731 54.6609 30.742L55.4174 29.797C55.7629 29.3659 56.391 29.2945 56.8221 29.64C57.2531 29.9854 57.3245 30.6135 56.9791 31.0446L56.2225 31.9896C56.0255 32.238 55.7343 32.3665 55.4403 32.3665Z" fill="#E7A87B"/>
<path d="M51.9313 31.1759C51.9142 31.1759 51.8971 31.1759 51.8799 31.1759C51.3289 31.1474 50.9064 30.6763 50.935 30.1253L50.9863 29.1261C51.0149 28.5751 51.4803 28.1497 52.037 28.1811C52.588 28.2096 53.0105 28.6807 52.982 29.2317L52.9306 30.2309C52.902 30.7648 52.4624 31.1788 51.9342 31.1788L51.9313 31.1759Z" fill="#E7A87B"/>
<path d="M50.0069 31.4414C49.5816 31.4414 49.1876 31.1673 49.0534 30.7391L48.6765 29.5343C48.511 29.009 48.805 28.4466 49.3303 28.281C49.8585 28.1154 50.4181 28.4094 50.5836 28.9348L50.9605 30.1395C51.1261 30.6677 50.832 31.2273 50.3067 31.3929C50.2068 31.4243 50.1069 31.4385 50.0069 31.4385V31.4414Z" fill="#E7A87B"/>
<path d="M53.7243 31.5756C53.633 31.5756 53.5387 31.5642 53.4474 31.5356C52.9164 31.3815 52.6109 30.8276 52.7651 30.2994L53.1019 29.1403C53.2561 28.6093 53.81 28.3067 54.3381 28.458C54.8692 28.6122 55.1746 29.166 55.0205 29.6942L54.6836 30.8533C54.558 31.2901 54.1583 31.5756 53.7243 31.5756Z" fill="#E7A87B"/>
<path d="M46.7153 33.7967C46.5183 33.7967 46.3185 33.7396 46.1443 33.6169L45.2279 32.9802C44.7739 32.6662 44.6626 32.0409 44.9766 31.5899C45.2935 31.1359 45.9159 31.0246 46.367 31.3415L47.2834 31.9781C47.7374 32.2922 47.8487 32.9174 47.5347 33.3685C47.3405 33.6483 47.0293 33.7967 46.7124 33.7967H46.7153Z" fill="#E7A87B"/>
<path d="M45.9357 35.7752C45.8786 35.7752 45.8187 35.7695 45.7616 35.761L44.5625 35.5497C44.0201 35.4526 43.6575 34.9359 43.7517 34.3934C43.8488 33.851 44.3655 33.4856 44.908 33.5826L46.107 33.7939C46.6495 33.8881 47.0121 34.4077 46.9178 34.9502C46.8322 35.4355 46.4097 35.7752 45.9357 35.7752Z" fill="#E7A87B"/>
<path d="M48.2568 32.2836C47.9628 32.2836 47.6744 32.1551 47.4774 31.9096L46.8408 31.1159C46.4953 30.6849 46.5667 30.0568 46.9949 29.7113C47.426 29.3659 48.0541 29.4372 48.3996 29.8655L49.0362 30.6592C49.3817 31.0903 49.3103 31.7183 48.8821 32.0638C48.6965 32.2122 48.4767 32.2836 48.2568 32.2836Z" fill="#E7A87B"/>
<path d="M59.7055 37.8651C59.6684 37.8651 59.6313 37.8651 59.5942 37.8594L58.024 37.6852C57.4758 37.6253 57.0818 37.1285 57.1418 36.5803C57.2017 36.0322 57.6956 35.6382 58.2466 35.6982L59.8169 35.8723C60.365 35.9323 60.759 36.429 60.699 36.9772C60.6419 37.4882 60.2108 37.8651 59.7084 37.8651H59.7055Z" fill="#E7A87B"/>
<path d="M57.8124 35.6382C57.347 35.6382 56.9302 35.3127 56.8331 34.8388C56.7218 34.2992 57.0729 33.7711 57.6125 33.6597L59.2912 33.3171C59.8308 33.2058 60.359 33.5541 60.4703 34.0965C60.5788 34.6361 60.2305 35.1643 59.6909 35.2756L58.0122 35.6182C57.9437 35.6325 57.878 35.6382 57.8124 35.6382Z" fill="#E7A87B"/>
<path d="M57.0558 33.8367C56.7075 33.8681 56.3535 33.7168 56.1422 33.4085C55.8282 32.9545 55.9424 32.3322 56.3963 32.0181L57.464 31.2815C57.918 30.9675 58.5403 31.0817 58.8544 31.5356C59.1684 31.9896 59.0542 32.6119 58.6003 32.926L57.5326 33.6626C57.387 33.7625 57.2214 33.8196 57.0558 33.8339V33.8367Z" fill="#E7A87B"/>
<path d="M57.6986 42.5243C57.4531 42.5243 57.2075 42.4358 57.0162 42.2531L55.82 41.1311C55.4175 40.7543 55.3975 40.1205 55.7743 39.7179C56.1512 39.3154 56.785 39.2954 57.1875 39.6722L58.3838 40.7942C58.7863 41.1711 58.8063 41.8049 58.4294 42.2074C58.2325 42.4187 57.9669 42.5243 57.7014 42.5243H57.6986Z" fill="#E7A87B"/>
<path d="M55.8028 44.1945C55.4831 44.1945 55.169 44.0403 54.9749 43.7548L53.9756 42.2788C53.6673 41.822 53.7844 41.1996 54.2412 40.8913C54.6979 40.583 55.3203 40.7029 55.6287 41.1597L56.6279 42.6357C56.9362 43.0925 56.8192 43.7148 56.3595 44.0232C56.1882 44.1402 55.9941 44.1945 55.8 44.1945H55.8028Z" fill="#E7A87B"/>
<path d="M53.3135 44.9538C52.8367 44.9538 52.4141 44.6113 52.3285 44.1231L52.0573 42.5528C51.9631 42.0075 52.3285 41.4937 52.8738 41.3994C53.4219 41.3052 53.9358 41.6707 54.0272 42.216L54.2984 43.7862C54.3926 44.3286 54.0272 44.8454 53.4819 44.9396C53.4248 44.9481 53.3677 44.9538 53.3106 44.9538H53.3135Z" fill="#E7A87B"/>
<path d="M50.9123 44.8082C50.858 44.8082 50.8067 44.8054 50.7524 44.794C50.2071 44.7055 49.8388 44.1944 49.9245 43.6491L50.1529 42.2245C50.2414 41.6792 50.7524 41.3081 51.2977 41.3966C51.843 41.4851 52.2141 41.9961 52.1256 42.5414L51.8972 43.966C51.8173 44.4571 51.3948 44.8054 50.9123 44.8054V44.8082Z" fill="#E7A87B"/>
<path d="M48.4743 44.1459C48.2916 44.1459 48.1088 44.0974 47.9433 43.9917C47.4779 43.6977 47.3352 43.081 47.6292 42.6128L48.4372 41.3281C48.7312 40.8627 49.3479 40.72 49.8161 41.014C50.2843 41.3081 50.4242 41.9248 50.1301 42.393L49.3222 43.6777C49.1309 43.9803 48.8083 44.1431 48.4771 44.1431L48.4743 44.1459Z" fill="#E7A87B"/>
<path d="M46.5726 42.5757C46.3014 42.5757 46.033 42.4672 45.836 42.2531C45.462 41.8477 45.4877 41.2139 45.896 40.8399L47.0865 39.7464C47.4919 39.3724 48.1257 39.3981 48.4997 39.8064C48.8737 40.2118 48.848 40.8456 48.4397 41.2196L47.2492 42.313C47.0579 42.49 46.8153 42.5757 46.5726 42.5757Z" fill="#E7A87B"/>
<path d="M45.2396 40.5772C44.8685 40.5772 44.5116 40.3688 44.3403 40.0119C44.1005 39.5152 44.3061 38.9185 44.8028 38.6787L46.2788 37.965C46.7756 37.7251 47.3723 37.9335 47.6149 38.4303C47.8548 38.9271 47.6463 39.5238 47.1496 39.7636L45.6736 40.4773C45.5337 40.5458 45.3852 40.5772 45.2396 40.5772Z" fill="#E7A87B"/>
<path d="M44.5914 38.062C44.089 38.062 43.6579 37.6852 43.6008 37.1742C43.538 36.626 43.9348 36.1321 44.483 36.0693L46.2245 35.8723C46.7783 35.8123 47.2665 36.2063 47.3293 36.7545C47.3921 37.3026 46.9982 37.7965 46.45 37.8593L44.7085 38.0563C44.6714 38.0592 44.6314 38.062 44.5943 38.062H44.5914Z" fill="#E7A87B"/>
<path d="M58.7805 40.0948C58.6663 40.0948 58.5464 40.0748 58.4322 40.032L57.3959 39.6465C56.8791 39.4553 56.6136 38.8786 56.8078 38.3618C56.999 37.8451 57.5757 37.5796 58.0925 37.7737L59.1288 38.1591C59.6456 38.3504 60.1423 38.9043 59.8112 39.5238C59.5257 40.0577 59.1859 40.0948 58.7805 40.0948Z" fill="#E7A87B"/>
<path d="M42.9951 40.5715C42.9181 40.5715 42.9837 40.2232 43.1436 40.1461C43.3035 40.069 43.4947 40.1147 43.5718 40.2974C43.6489 40.4801 43.5833 40.6514 43.4234 40.7285C43.3777 40.7514 43.332 40.7571 43.2835 40.7571C43.1636 40.7571 43.0494 40.6628 42.9951 40.5715Z" fill="#E7A87B"/>
<path d="M43.2837 41.3252C43.0211 41.3252 42.7584 41.191 42.5843 40.9741C42.4986 40.8913 42.4386 40.7856 42.4101 40.6629C42.333 40.3203 42.5129 39.8121 42.8983 39.6294C43.0239 39.5694 43.1609 39.538 43.298 39.538C43.652 39.538 43.9603 39.7436 44.1002 40.0719C44.1059 40.0862 44.1116 40.1004 44.1174 40.1147C44.2801 40.5572 44.0974 41.034 43.6748 41.2396C43.5606 41.2967 43.4293 41.3252 43.2866 41.3252H43.2837ZM43.4978 40.3288L43.0468 40.5201C43.101 40.6429 43.278 40.7171 43.3922 40.66C43.4836 40.6172 43.5264 40.5544 43.5321 40.5401C43.5378 40.5201 43.5407 40.4345 43.4978 40.3317V40.3288Z" fill="#E7A87B"/>
<path d="M44.7339 43.2837C44.6568 43.2837 44.7225 42.9354 44.8824 42.8583C45.0422 42.7812 45.2335 42.8269 45.3106 43.0096C45.3877 43.1923 45.322 43.3636 45.1621 43.4407C45.1165 43.4636 45.0708 43.4693 45.0223 43.4693C44.9023 43.4693 44.7882 43.3751 44.7339 43.2837Z" fill="#E7A87B"/>
<path d="M45.0225 44.0374C44.7598 44.0374 44.4972 43.9033 44.323 43.6863C44.2374 43.6035 44.1774 43.4978 44.1489 43.3751C44.0718 43.0325 44.2516 42.5243 44.6371 42.3416C44.7627 42.2816 44.8997 42.2502 45.0368 42.2502C45.3908 42.2502 45.6991 42.4558 45.839 42.7841C45.8447 42.7984 45.8504 42.8127 45.8561 42.8269C46.0189 43.2695 45.8361 43.7462 45.4136 43.9518C45.2994 44.0089 45.1681 44.0374 45.0253 44.0374H45.0225ZM45.2337 43.0411L44.7827 43.2323C44.8341 43.3551 45.0139 43.4293 45.1281 43.3722C45.2195 43.3294 45.2623 43.2666 45.268 43.2523C45.2737 43.2323 45.2766 43.1467 45.2337 43.0439V43.0411Z" fill="#E7A87B"/>
<path d="M47.1118 45.0424C47.0348 45.0424 47.1004 44.6941 47.2603 44.617C47.4202 44.5399 47.6114 44.5856 47.6885 44.7683C47.7656 44.951 47.7 45.1223 47.5401 45.1994C47.4944 45.2222 47.4459 45.2279 47.4002 45.2279C47.2803 45.2279 47.1661 45.1337 47.1118 45.0424Z" fill="#E7A87B"/>
<path d="M47.4004 45.7989C47.1378 45.7989 46.8751 45.6647 46.701 45.4478C46.6182 45.3678 46.5553 45.2593 46.5268 45.1366C46.4497 44.794 46.6296 44.2858 47.015 44.1031C47.1406 44.0431 47.2776 44.0117 47.4147 44.0117C47.7687 44.0117 48.077 44.2173 48.2169 44.5484C48.2226 44.5627 48.2283 44.577 48.2341 44.5913C48.3968 45.0338 48.2141 45.5106 47.7915 45.7161C47.6773 45.7732 47.546 45.8018 47.4033 45.8018L47.4004 45.7989ZM47.6145 44.7997L47.1634 44.991C47.2148 45.1137 47.3947 45.188 47.5089 45.1309C47.6003 45.088 47.6402 45.0252 47.6488 45.0109C47.6545 44.991 47.6574 44.9053 47.6145 44.8025V44.7997Z" fill="#E7A87B"/>
<path d="M42.2413 37.4396C42.2156 37.2655 42.3355 37.0999 42.5125 37.0742C42.6866 37.0485 42.8494 37.1684 42.8779 37.3426C42.9036 37.5167 42.7837 37.6795 42.6095 37.708C42.5924 37.708 42.5781 37.7109 42.561 37.7109C42.404 37.7109 42.2698 37.5967 42.2441 37.4396H42.2413Z" fill="#E7A87B"/>
<path d="M42.5584 38.2847C42.1159 38.2847 41.7447 37.965 41.6762 37.5282C41.6419 37.2883 41.699 37.0542 41.8389 36.863C41.9817 36.6717 42.1901 36.5461 42.427 36.5118C42.4699 36.5061 42.5127 36.5032 42.5584 36.5032C42.9952 36.5032 43.3749 36.8287 43.4377 37.2627C43.4748 37.4968 43.4149 37.7337 43.275 37.925C43.1351 38.1163 42.9267 38.2419 42.6926 38.2762C42.6526 38.2819 42.6069 38.2876 42.5584 38.2876V38.2847ZM42.5584 37.1427C42.5412 37.1427 42.527 37.1427 42.5127 37.1484C42.4556 37.157 42.3985 37.1913 42.3585 37.2455C42.3186 37.2998 42.3014 37.3683 42.3129 37.4339C42.3328 37.5681 42.4585 37.6623 42.5983 37.6424C42.6612 37.6338 42.7211 37.5967 42.7611 37.5424C42.801 37.491 42.8182 37.4225 42.8068 37.3597C42.7868 37.2341 42.6811 37.1456 42.5584 37.1456V37.1427Z" fill="#E7A87B"/>
<path d="M42.3587 34.2707C42.1902 34.2193 42.0932 34.0394 42.1474 33.871C42.1988 33.7026 42.3787 33.6055 42.5471 33.6597C42.7155 33.7111 42.8126 33.891 42.7584 34.0594C42.7155 34.1965 42.5899 34.285 42.4529 34.285C42.4215 34.285 42.3901 34.2793 42.3587 34.2707Z" fill="#E7A87B"/>
<path d="M42.4529 34.8559C42.3672 34.8559 42.2816 34.8445 42.1988 34.8188C41.9618 34.7474 41.7763 34.5904 41.6621 34.3792C41.5479 34.1679 41.5279 33.9281 41.5993 33.6997C41.7135 33.3228 42.0561 33.0716 42.45 33.0716C42.5385 33.0716 42.627 33.0859 42.7127 33.1116C42.9382 33.1801 43.1267 33.3371 43.238 33.5455C43.3493 33.7568 43.3722 33.9966 43.3037 34.225C43.1923 34.5933 42.8412 34.8531 42.4529 34.8531V34.8559ZM42.4529 33.714C42.3416 33.714 42.2445 33.7853 42.2131 33.8938C42.1931 33.9538 42.2017 34.0251 42.2302 34.0822C42.2588 34.1393 42.3159 34.185 42.3787 34.205C42.5014 34.2421 42.6527 34.1707 42.6927 34.0394C42.7127 33.9766 42.7041 33.9081 42.6756 33.8481C42.6442 33.791 42.5928 33.7454 42.5271 33.7254C42.4986 33.7168 42.4757 33.714 42.4529 33.714Z" fill="#E7A87B"/>
<path d="M43.5837 31.2901C43.4381 31.1902 43.401 30.9904 43.5009 30.8448C43.6009 30.6992 43.7979 30.6592 43.9463 30.7591C44.0919 30.859 44.129 31.0589 44.032 31.2045C43.9691 31.2959 43.8692 31.3444 43.7664 31.3444C43.7036 31.3444 43.6408 31.3273 43.5866 31.2873L43.5837 31.2901Z" fill="#E7A87B"/>
<path d="M43.7634 31.9182C43.5835 31.9182 43.4122 31.864 43.2609 31.764C43.0639 31.6299 42.9297 31.4272 42.8869 31.193C42.8412 30.9589 42.8926 30.722 43.0268 30.525C43.1924 30.2823 43.4665 30.1367 43.7634 30.1367C43.9432 30.1367 44.1145 30.191 44.2659 30.2909C44.4628 30.4251 44.5942 30.6278 44.6399 30.8619C44.6855 31.096 44.6341 31.3329 44.5 31.5299C44.3315 31.7755 44.0574 31.9182 43.7634 31.9182ZM43.7634 30.7762C43.6806 30.7762 43.6035 30.8162 43.5578 30.8819C43.5179 30.939 43.5036 31.0075 43.5179 31.0703C43.5293 31.1359 43.5692 31.193 43.6235 31.2302C43.732 31.3015 43.8976 31.273 43.9718 31.1645C44.0089 31.1103 44.0232 31.0417 44.0118 30.9761C44.0003 30.9104 43.9604 30.8533 43.9061 30.8162C43.8633 30.7876 43.8148 30.7734 43.7634 30.7734V30.7762Z" fill="#E7A87B"/>
<path d="M45.8935 29.0033C45.7822 28.8663 45.805 28.6636 45.9421 28.5522C46.0791 28.4437 46.2818 28.4637 46.3932 28.6036C46.5045 28.7406 46.4817 28.9433 46.3446 29.0547C46.2847 29.1032 46.2133 29.1261 46.1448 29.1261C46.0506 29.1261 45.9592 29.0861 45.8935 29.0062V29.0033Z" fill="#E7A87B"/>
<path d="M46.1417 29.6942C45.8676 29.6942 45.6136 29.5714 45.4451 29.3573C45.1396 28.9748 45.2024 28.4123 45.585 28.1069C45.742 27.9812 45.939 27.9127 46.1417 27.9127C46.4129 27.9127 46.667 28.0355 46.8383 28.2467C46.9868 28.4323 47.0553 28.6636 47.0296 28.9005C47.0039 29.1375 46.8869 29.3488 46.7013 29.5001C46.5443 29.6257 46.3444 29.6971 46.1446 29.6971L46.1417 29.6942ZM46.1417 28.5522C46.0846 28.5522 46.0304 28.5722 45.9847 28.6065C45.9333 28.6464 45.8991 28.7092 45.8933 28.7749C45.8848 28.8406 45.9048 28.9062 45.9476 28.9576C46.0304 29.0604 46.196 29.0775 46.2987 28.9976C46.4072 28.9119 46.4244 28.7521 46.3387 28.6464C46.293 28.5865 46.2188 28.5522 46.1417 28.5522Z" fill="#E7A87B"/>
<path d="M57.4267 28.8691C57.2897 28.7578 57.264 28.558 57.3753 28.4181C57.4838 28.281 57.6865 28.2553 57.8264 28.3667C57.9635 28.4752 57.9863 28.6779 57.8778 28.8178C57.815 28.8977 57.7208 28.9377 57.6266 28.9377C57.5581 28.9377 57.4867 28.9148 57.4267 28.8691Z" fill="#E7A87B"/>
<path d="M57.6268 29.5087C57.4241 29.5087 57.23 29.4401 57.0729 29.3145C56.6875 29.0062 56.6247 28.4438 56.933 28.0612C57.1015 27.8499 57.3556 27.7272 57.6297 27.7272C57.8295 27.7272 58.0265 27.7957 58.1864 27.9213C58.3719 28.0698 58.489 28.281 58.5175 28.518C58.5432 28.755 58.4776 28.9862 58.3291 29.1718C58.1607 29.3859 57.9066 29.5087 57.6325 29.5087H57.6268ZM57.6268 28.3667C57.5497 28.3667 57.4755 28.4038 57.4298 28.4637C57.3898 28.5123 57.3699 28.5808 57.3784 28.6465C57.387 28.7121 57.4212 28.7749 57.4726 28.8149C57.5754 28.8948 57.7438 28.8777 57.8238 28.7749C57.9094 28.6693 57.8923 28.5123 57.7867 28.4266C57.741 28.3895 57.6839 28.3695 57.6268 28.3695V28.3667Z" fill="#E7A87B"/>
<path d="M59.9306 31.0646C59.7936 30.9532 59.7679 30.7534 59.8792 30.6135C59.9877 30.4765 60.1904 30.4508 60.3303 30.5621C60.4674 30.6706 60.4902 30.8733 60.3817 31.0132C60.3189 31.0931 60.2247 31.1331 60.1305 31.1331C60.062 31.1331 59.9906 31.1103 59.9306 31.0646Z" fill="#E7A87B"/>
<path d="M60.1278 31.707C59.928 31.707 59.731 31.6384 59.574 31.5128C59.1886 31.2045 59.1257 30.6421 59.4312 30.2595C59.5997 30.0482 59.8538 29.9255 60.1278 29.9255C60.3277 29.9255 60.5247 29.994 60.6845 30.1196C60.8701 30.2681 60.9872 30.4793 61.0129 30.7134C61.0414 30.9504 60.9729 31.1845 60.8244 31.3701C60.6531 31.5842 60.399 31.707 60.1278 31.707ZM60.1278 30.565C60.0507 30.565 59.9794 30.5992 59.9308 30.6592C59.8909 30.7106 59.8709 30.7762 59.8794 30.8419C59.888 30.9076 59.9223 30.9704 59.9737 31.0104C60.0736 31.0903 60.242 31.0732 60.3248 30.9704C60.4105 30.8648 60.3933 30.7049 60.2877 30.6192C60.242 30.5821 60.1849 30.5621 60.1278 30.5621V30.565Z" fill="#E7A87B"/>
<path d="M61.3642 34.0737C61.2272 33.9623 61.2015 33.7625 61.3128 33.6226C61.4213 33.4856 61.624 33.4599 61.7639 33.5712C61.901 33.6797 61.9238 33.8824 61.8153 34.0223C61.7525 34.1022 61.6583 34.1422 61.5641 34.1422C61.4956 34.1422 61.4242 34.1194 61.3642 34.0737Z" fill="#E7A87B"/>
<path d="M61.5612 34.716C61.3614 34.716 61.1644 34.6475 61.0074 34.5219C60.8189 34.3706 60.7019 34.1565 60.6762 33.9195C60.6505 33.6826 60.719 33.4513 60.8675 33.2657C61.0331 33.0545 61.29 32.9317 61.5641 32.9317C61.7639 32.9317 61.9609 33.0002 62.1179 33.1258C62.5034 33.4342 62.5662 33.9937 62.2607 34.3792C62.0922 34.5933 61.8382 34.716 61.5641 34.716H61.5612ZM61.5612 33.5741C61.4841 33.5741 61.4128 33.6083 61.3642 33.6711C61.2786 33.7768 61.2986 33.9338 61.4042 34.0223C61.5098 34.1051 61.6754 34.0851 61.7582 33.9823C61.7982 33.9338 61.8182 33.8653 61.8096 33.7996C61.801 33.7339 61.7696 33.674 61.7182 33.634C61.6726 33.5969 61.6155 33.5769 61.5584 33.5769L61.5612 33.5741Z" fill="#E7A87B"/>
<path d="M61.6782 37.2227C61.5412 37.1113 61.5155 36.9115 61.6268 36.7716C61.7353 36.6345 61.938 36.6088 62.0779 36.7202C62.2149 36.8287 62.2378 37.0314 62.1293 37.1713C62.0665 37.2512 61.9723 37.2912 61.878 37.2912C61.8095 37.2912 61.7381 37.2683 61.6782 37.2227Z" fill="#E7A87B"/>
<path d="M61.878 37.8622C61.6782 37.8622 61.4783 37.7937 61.3213 37.668C61.1358 37.5196 61.0187 37.3055 60.9902 37.0685C60.9645 36.8315 61.033 36.6003 61.1814 36.4147C61.347 36.2035 61.6011 36.0807 61.878 36.0807C62.0779 36.0807 62.2749 36.1492 62.4319 36.2748C62.6175 36.4233 62.7345 36.6345 62.7631 36.8715C62.7888 37.1085 62.7231 37.3426 62.5746 37.5281C62.4062 37.7394 62.1521 37.865 61.878 37.865V37.8622ZM61.878 36.7202C61.801 36.7202 61.7296 36.7545 61.6811 36.8173C61.6439 36.8658 61.6239 36.9315 61.6297 36.9971C61.6382 37.0628 61.6696 37.1256 61.7239 37.1656C61.8295 37.2484 61.9951 37.2284 62.0779 37.1256C62.1179 37.0771 62.135 37.0085 62.1293 36.9429C62.1236 36.8772 62.0893 36.8173 62.0379 36.7773C61.9922 36.7402 61.9351 36.7202 61.878 36.7202Z" fill="#E7A87B"/>
<path d="M60.7441 40.2689C60.6071 40.1576 60.5814 39.9577 60.6927 39.8178C60.8012 39.6808 61.0039 39.6551 61.1438 39.7665C61.2808 39.8778 61.3037 40.0776 61.1952 40.2175C61.1324 40.2975 61.0382 40.3374 60.944 40.3374C60.8754 40.3374 60.8041 40.3146 60.7441 40.2689Z" fill="#E7A87B"/>
<path d="M60.9413 40.9084C60.7386 40.9084 60.5444 40.8399 60.3874 40.7143C60.002 40.406 59.9392 39.8435 60.2475 39.461C60.4159 39.2497 60.67 39.127 60.9441 39.127C61.144 39.127 61.3409 39.1955 61.498 39.3211C61.8834 39.6266 61.9462 40.189 61.6407 40.5744C61.4723 40.7885 61.2182 40.9113 60.9441 40.9113L60.9413 40.9084ZM60.9413 39.7665C60.8642 39.7665 60.7899 39.8007 60.7443 39.8607C60.6586 39.9663 60.6786 40.1262 60.7871 40.2118C60.8927 40.2946 61.0583 40.2746 61.1411 40.1719C61.2267 40.0662 61.2096 39.9092 61.104 39.8236C61.0583 39.7864 61.0012 39.7665 60.9441 39.7665H60.9413Z" fill="#E7A87B"/>
<path d="M59.1484 43.1924C59.0114 43.081 58.9857 42.8812 59.097 42.7413C59.2055 42.6043 59.4082 42.5786 59.5481 42.6899C59.6851 42.7984 59.708 43.0011 59.5995 43.141C59.5367 43.2209 59.4425 43.2609 59.3483 43.2609C59.2797 43.2609 59.2084 43.2381 59.1484 43.1924Z" fill="#E7A87B"/>
<path d="M59.3484 43.8319C59.1486 43.8319 58.9516 43.7634 58.7946 43.6378C58.609 43.4893 58.4919 43.278 58.4634 43.0411C58.4348 42.8041 58.5034 42.57 58.6518 42.3844C58.8203 42.1732 59.0743 42.0504 59.3484 42.0504C59.5483 42.0504 59.7453 42.1189 59.9051 42.2446C60.0907 42.393 60.2078 42.6043 60.2363 42.8384C60.262 43.0753 60.1963 43.3094 60.0479 43.495C59.8794 43.7091 59.6253 43.8319 59.3513 43.8319H59.3484ZM59.3484 42.6899C59.2713 42.6899 59.1971 42.7242 59.1514 42.787C59.1115 42.8355 59.0915 42.904 59.1 42.9697C59.1086 43.0354 59.1429 43.0982 59.1942 43.1382C59.2942 43.2181 59.4626 43.201 59.5454 43.0953C59.5854 43.0468 59.6054 42.9783 59.5968 42.9126C59.5882 42.8469 59.5568 42.787 59.5054 42.747C59.4598 42.7099 59.4055 42.6928 59.3484 42.6928V42.6899Z" fill="#E7A87B"/>
<path d="M56.5879 45.2708C56.4508 45.1594 56.4251 44.9596 56.5365 44.8197C56.645 44.6826 56.8477 44.6569 56.9876 44.7683C57.1246 44.8768 57.1474 45.0795 57.0389 45.2194C56.9761 45.2993 56.8819 45.3393 56.7877 45.3393C56.7192 45.3393 56.6478 45.3164 56.5879 45.2708Z" fill="#E7A87B"/>
<path d="M56.7849 45.9103C56.5822 45.9103 56.3881 45.8417 56.2311 45.7161C56.0455 45.5677 55.9285 45.3564 55.8999 45.1223C55.8714 44.8853 55.9399 44.6512 56.0883 44.4628C56.2568 44.2515 56.5109 44.1288 56.7849 44.1288C56.9848 44.1288 57.1818 44.1973 57.3388 44.3229C57.7242 44.6284 57.787 45.1908 57.4815 45.5762C57.3131 45.7904 57.059 45.9131 56.7849 45.9131V45.9103ZM56.7849 44.7683C56.7079 44.7683 56.6365 44.8025 56.5879 44.8654C56.5052 44.971 56.5223 45.128 56.6308 45.2165C56.7335 45.2993 56.902 45.2793 56.9819 45.1765C57.0219 45.128 57.0419 45.0595 57.0333 44.991C57.0248 44.9253 56.9933 44.8654 56.942 44.8254C56.8963 44.7883 56.8392 44.7683 56.7849 44.7683Z" fill="#E7A87B"/>
<path d="M53.5498 46.4185C53.4127 46.3071 53.387 46.1073 53.4984 45.9674C53.6069 45.8303 53.8096 45.8047 53.9495 45.916C54.0865 46.0245 54.1093 46.2272 54.0009 46.3671C53.938 46.447 53.8438 46.487 53.7496 46.487C53.6811 46.487 53.6097 46.4641 53.5498 46.4185Z" fill="#E7A87B"/>
<path d="M53.7498 47.058C53.5499 47.058 53.3529 46.9894 53.1959 46.8638C53.0104 46.7154 52.8933 46.5041 52.8648 46.2671C52.8362 46.0302 52.9047 45.7961 53.0532 45.6076C53.2216 45.3964 53.4757 45.2736 53.7498 45.2736C53.9525 45.2736 54.1466 45.3421 54.3065 45.4678C54.4921 45.6162 54.6091 45.8275 54.6377 46.0644C54.6634 46.3014 54.5977 46.5326 54.4492 46.7211C54.2808 46.9352 54.0267 47.058 53.7498 47.058ZM53.7498 45.916C53.6727 45.916 53.6013 45.9502 53.5528 46.0102C53.5128 46.0587 53.4928 46.1272 53.5014 46.1929C53.51 46.2586 53.5414 46.3214 53.5956 46.3614C53.6984 46.4441 53.8668 46.4242 53.9468 46.3214C53.9867 46.2728 54.0067 46.2043 53.9982 46.1358C53.9896 46.073 53.9582 46.0102 53.9068 45.9702C53.8611 45.9331 53.804 45.9131 53.7469 45.9131L53.7498 45.916Z" fill="#E7A87B"/>
<path d="M50.3608 46.2757C50.2238 46.1644 50.1981 45.9645 50.3094 45.8246C50.4179 45.6876 50.6206 45.6619 50.7605 45.7732C50.8975 45.8817 50.9204 46.0844 50.8119 46.2243C50.7491 46.3043 50.6549 46.3442 50.5607 46.3442C50.4921 46.3442 50.4208 46.3214 50.3608 46.2757Z" fill="#E7A87B"/>
<path d="M50.5608 46.9152C50.361 46.9152 50.164 46.8467 50.007 46.7211C49.8214 46.5726 49.7043 46.3613 49.6758 46.1244C49.6472 45.8874 49.7158 45.6533 49.8642 45.4649C50.0327 45.2536 50.2867 45.1309 50.5608 45.1309C50.7635 45.1309 50.9577 45.1994 51.1175 45.325C51.3031 45.4735 51.4202 45.6847 51.4487 45.9217C51.4744 46.1586 51.4087 46.3899 51.2603 46.5783C51.0918 46.7924 50.8377 46.9152 50.5608 46.9152ZM50.5608 45.7732C50.4837 45.7732 50.4124 45.8075 50.3638 45.8674C50.3239 45.916 50.3039 45.9845 50.3124 46.0502C50.321 46.1158 50.3524 46.1786 50.4067 46.2186C50.5094 46.3014 50.6779 46.2814 50.7578 46.1786C50.7978 46.1301 50.8178 46.0616 50.8092 45.9931C50.8006 45.9302 50.7692 45.8674 50.7178 45.8275C50.6722 45.7904 50.6151 45.7704 50.558 45.7704L50.5608 45.7732Z" fill="#E7A87B"/>
<path d="M48.6539 27.3389C48.5883 27.1733 48.6711 26.9877 48.8338 26.9221C48.9994 26.8564 49.185 26.9363 49.2478 27.1019C49.3134 27.2675 49.2335 27.4531 49.0679 27.5187C49.0308 27.533 48.9908 27.5416 48.9509 27.5416C48.8224 27.5416 48.7025 27.4645 48.6511 27.3389H48.6539Z" fill="#E7A87B"/>
<path d="M48.9537 28.1126C48.5854 28.1126 48.26 27.8899 48.1229 27.5473C47.9431 27.0905 48.1686 26.5709 48.6254 26.3911C48.731 26.3511 48.8424 26.3282 48.9537 26.3282C49.322 26.3282 49.6475 26.5509 49.7817 26.8935C49.8673 27.1134 49.8644 27.356 49.7702 27.573C49.676 27.7928 49.5019 27.9613 49.2792 28.0469C49.1764 28.0869 49.0651 28.1097 48.9537 28.1097V28.1126ZM48.9537 26.9706C48.9195 26.9706 48.8881 26.9763 48.8567 26.9877C48.7996 27.0106 48.7482 27.0591 48.7225 27.1191C48.6968 27.179 48.6939 27.2504 48.7225 27.3103C48.771 27.4331 48.9223 27.4988 49.0479 27.4502C49.1764 27.3988 49.2392 27.2532 49.1907 27.1248C49.1536 27.0306 49.0594 26.9649 48.9594 26.9649L48.9537 26.9706Z" fill="#E7A87B"/>
<path d="M54.7063 27.5816C54.5236 27.5188 54.4579 27.3332 54.5208 27.1676C54.5864 27.002 54.7691 26.9221 54.9347 26.9849C55.1003 27.0505 55.1802 27.2361 55.1174 27.3988C55.0689 27.5245 54.949 27.6015 54.8205 27.6015C54.7806 27.6015 54.7063 27.593 54.7063 27.5787V27.5816Z" fill="#E7A87B"/>
<path d="M54.8203 28.1754C54.6661 28.1754 54.5434 28.144 54.4463 28.0926C54.2493 28.0041 54.0952 27.8528 54.0038 27.6586C53.9039 27.4417 53.8982 27.1876 53.9867 26.9592C54.1237 26.6137 54.4492 26.3911 54.8175 26.3911C54.9288 26.3911 55.0401 26.411 55.1429 26.4539C55.5969 26.6309 55.8253 27.1476 55.6482 27.6073C55.5141 27.9527 55.1886 28.1754 54.8203 28.1754ZM55.2343 27.3703C55.26 27.436 55.2742 27.5045 55.2742 27.5787C55.2742 27.5016 55.26 27.4303 55.2343 27.3703Z" fill="#E7A87B"/>
<path d="M51.7115 26.9278C51.6972 26.7508 51.8314 26.5966 52.0084 26.5824C52.1854 26.5709 52.3367 26.7023 52.351 26.8793C52.3653 27.0563 52.2311 27.2076 52.0569 27.2219C52.0569 27.2219 52.0398 27.2219 52.0312 27.2219C51.8657 27.2219 51.7258 27.0934 51.7115 26.9249V26.9278Z" fill="#E7A87B"/>
<path d="M52.0311 27.5102C51.5686 27.5102 51.1775 27.1476 51.1432 26.688C51.1233 26.451 51.2003 26.2197 51.3574 26.037C51.5115 25.8572 51.7285 25.7487 51.9655 25.7287C51.9797 25.7287 52.0197 25.7287 52.034 25.7287C52.4965 25.7287 52.8876 26.0913 52.9219 26.5509C52.9419 26.7879 52.8648 27.0191 52.7077 27.199C52.5536 27.3789 52.3395 27.4873 52.1025 27.5073C52.0882 27.5073 52.0483 27.5073 52.034 27.5073L52.0311 27.5102Z" fill="#E7A87B"/>
<path d="M20.7214 8.31644C20.4587 8.31644 20.2018 8.21081 20.0162 8.02524C19.8307 7.83967 19.7222 7.57987 19.7222 7.31721C19.7222 7.05456 19.8307 6.79476 20.0162 6.61204C20.3874 6.23804 21.0554 6.23804 21.4294 6.61204C21.615 6.79761 21.7206 7.05456 21.7206 7.31721C21.7206 7.57987 21.615 7.83681 21.4294 8.02524C21.241 8.21081 20.9841 8.31644 20.7214 8.31644Z" fill="white"/>
<path d="M23.5305 4.58791C23.1765 4.16538 23.2307 3.53444 23.6532 3.17757C24.0758 2.82355 24.7039 2.8778 25.0607 3.30033C25.4147 3.72286 25.3605 4.35095 24.938 4.70782C24.7524 4.86484 24.524 4.94192 24.2956 4.94192C24.0101 4.94192 23.7275 4.82201 23.5305 4.58791Z" fill="white"/>
<path d="M28.2297 1.99846C27.9699 1.99846 27.7101 1.88997 27.5245 1.7044C27.339 1.51883 27.2305 1.26188 27.2305 0.999229C27.2305 0.736575 27.339 0.476775 27.5245 0.291204C27.7101 0.105633 27.967 0 28.2297 0C28.4924 0 28.7522 0.105633 28.9377 0.291204C29.1233 0.47963 29.2318 0.736575 29.2318 0.999229C29.2318 1.26188 29.1233 1.51883 28.9377 1.7044C28.7522 1.88997 28.4924 1.99846 28.2297 1.99846Z" fill="white"/>
<path d="M94.8181 27.2076C94.5554 27.2076 94.2985 27.0991 94.1101 26.9135C93.9245 26.728 93.8188 26.471 93.8188 26.2084C93.8188 25.9457 93.9245 25.6859 94.1101 25.5003C94.4841 25.1292 95.1521 25.1292 95.5261 25.5003C95.7117 25.6859 95.8173 25.9457 95.8173 26.2084C95.8173 26.471 95.7117 26.728 95.5261 26.9135C95.3377 27.0991 95.0807 27.2076 94.8181 27.2076Z" fill="white"/>
<path d="M94.4097 30.5165C94.3612 29.9683 94.7666 29.483 95.3176 29.4345C95.8686 29.3859 96.3511 29.7942 96.3996 30.3452C96.4481 30.8933 96.0399 31.3787 95.4917 31.4272C95.4603 31.4272 95.4318 31.4272 95.4032 31.4272C94.8893 31.4272 94.4525 31.0361 94.4097 30.5136V30.5165Z" fill="white"/>
<path d="M95.6516 35.6897C95.3889 35.6897 95.132 35.584 94.9464 35.3956C94.7608 35.21 94.6523 34.9531 94.6523 34.6904C94.6523 34.4278 94.7608 34.168 94.9464 33.9824C95.3175 33.6113 95.9885 33.6113 96.3596 33.9824C96.5452 34.168 96.6508 34.4278 96.6508 34.6904C96.6508 34.9531 96.5452 35.21 96.3596 35.3956C96.1712 35.584 95.9142 35.6897 95.6516 35.6897Z" fill="white"/>
</g>
<defs>
<clipPath id="clip0_25_1741">
<rect width="100" height="71.9816" fill="white"/>
</clipPath>
</defs>
</svg>
