<svg xmlns="http://www.w3.org/2000/svg" width="100" height="72" fill="none" viewBox="0 0 100 72"><g clip-path="url(#a)"><path fill="#d77599" d="m37.548 44.317-.428-.902a17 17 0 0 1-.368-.834l-.377-.925 1.85-.756.377.925q.15.368.323.734l.428.902zm14.344 8.565-.1-1.996.999-.05a14 14 0 0 0 1.602-.17l.987-.16.32 1.974-.988.16c-.6.096-1.213.162-1.821.194zm6.278-1.17-.851-1.808.905-.425c.482-.228.96-.485 1.416-.765l.85-.523 1.048 1.702-.85.522c-.52.32-1.06.611-1.61.871l-.906.425zm5.358-3.464-1.47-1.353.677-.736a15 15 0 0 0 1.022-1.245l.59-.805 1.61 1.182-.59.805c-.36.49-.75.968-1.162 1.416zm3.658-5.235-1.873-.694.345-.937c.186-.502.346-1.019.474-1.538l.24-.971 1.938.48-.24.97c-.145.591-.328 1.18-.539 1.75l-.346.937zM35.74 39.144l-.108-.993a17 17 0 0 1-.097-1.81v-1l1.998-.017v1q0 .823.086 1.61l.108.993zm30.842-2.295-.034-1a14 14 0 0 0-.143-1.604l-.143-.988 1.979-.285.143.987c.085.6.14 1.214.16 1.822l.034 1-1.999.065zm-28.77-3.538-1.92-.548.274-.962c.168-.585.368-1.167.6-1.733l.379-.925 1.847.76-.38.925a15 15 0 0 0-.528 1.521l-.274.962zm27.885-2.004-.411-.91a15 15 0 0 0-.74-1.428l-.508-.86 1.722-1.016.508.86c.311.525.594 1.07.842 1.624l.411.91-1.821.82zM40.021 28.15l-1.57-1.236.62-.786c.376-.476.781-.939 1.21-1.373l.702-.71 1.425 1.401-.703.711q-.566.576-1.065 1.208zm22.75-1.633-.724-.688q-.585-.555-1.225-1.045l-.797-.605 1.21-1.59.797.605c.486.368.954.768 1.394 1.187l.725.688-1.376 1.448zm-18.75-2.31-.988-1.739.868-.494c.53-.3 1.082-.573 1.638-.813l.92-.394.788 1.835-.92.395c-.49.21-.976.45-1.441.716l-.868.494zm14.231-1.025-.93-.362a14 14 0 0 0-1.53-.5l-.965-.257.513-1.93.965.257a16 16 0 0 1 1.742.571l.93.363-.727 1.861zm-9.041-1.11-.251-1.982.99-.125c.603-.078 1.216-.12 1.825-.129l.999-.014.031 1.998-.999.017a14 14 0 0 0-1.607.115l-.991.125zm.051 30.578-.973-.225a16 16 0 0 1-.883-.231l-.959-.28.56-1.918.96.28q.381.111.773.202l.973.226-.454 1.947z"/><path fill="#afdcf2" d="m67.965 17.764-.783-.62c-.285-.226-.58-.448-.876-.662l-.81-.586 1.17-1.621.81.585c.32.231.64.471.945.717l.783.62zm-15.62 45.382-.999-.02a28 28 0 0 1-2.386-.154l-.994-.109.217-1.987.993.108c.728.08 1.474.129 2.21.143l1 .02zm2.487-.155-.291-1.975.988-.146a24 24 0 0 0 2.172-.422l.971-.234.468 1.94-.97.235a27 27 0 0 1-2.35.457zm-9.313-.61-.962-.275a26 26 0 0 1-2.27-.762l-.933-.36.722-1.864.93.36a25 25 0 0 0 2.1.705l.961.274-.55 1.921zm15.99-1.014-.79-1.836.916-.394a26 26 0 0 0 1.993-.965l.88-.476.953 1.755-.88.477c-.699.38-1.424.731-2.152 1.045l-.916.394zm-22.396-1.479-.86-.51a26 26 0 0 1-1.998-1.32l-.808-.588 1.173-1.616.808.588c.597.434 1.22.845 1.848 1.22l.856.51-1.025 1.716zm28.43-1.804-1.234-1.573.785-.617c.58-.454 1.145-.94 1.682-1.444l.728-.686 1.367 1.456-.728.686a27 27 0 0 1-1.816 1.558l-.785.617zm-33.98-2.241-.7-.714a26 26 0 0 1-1.596-1.784l-.633-.774 1.547-1.265.634.774c.465.57.965 1.125 1.479 1.65l.7.714-1.428 1.399zM72.54 53.37l-1.593-1.207.606-.797c.445-.585.867-1.199 1.258-1.824l.532-.848 1.693 1.06-.532.847a27 27 0 0 1-1.358 1.97l-.606.796zm-43.318-2.855-.494-.867a27 27 0 0 1-1.09-2.133l-.414-.91 1.818-.829.414.908c.306.668.643 1.333 1.008 1.973l.494.868-1.736.988zm46.953-2.977-1.847-.76.38-.925c.279-.68.53-1.382.747-2.084l.294-.953 1.91.59-.294.954c-.234.76-.508 1.519-.81 2.255l-.38.925zm-49.788-3.28-.254-.966a27 27 0 0 1-.505-2.34l-.166-.986 1.97-.334.166.985c.123.725.28 1.453.465 2.164l.254.965-1.933.508zm51.803-3.292-1.981-.26.131-.99c.094-.726.16-1.471.189-2.208l.04-.999 1.995.083-.04.999a27 27 0 0 1-.203 2.384zm-50.938-3.483h-1.998v-1c0-.796.034-1.601.105-2.39l.089-.996 1.99.177-.089.997c-.065.73-.097 1.473-.097 2.212zm49.225-3.13-.125-.99a25 25 0 0 0-.377-2.181l-.214-.977 1.952-.428.215.976c.17.777.305 1.57.405 2.359l.126.99-1.985.252zM27.81 31.15l-1.933-.508.254-.965c.203-.768.443-1.539.714-2.287l.34-.939 1.878.682-.34.94a24 24 0 0 0-.659 2.112zm47.315-3.003-.377-.925a25 25 0 0 0-.925-2.013l-.457-.888 1.776-.916.457.888c.365.705.702 1.439 1 2.175l.376.925-1.853.751zm-45.15-2.972-1.737-.988.494-.868a27 27 0 0 1 1.276-2.024l.571-.82 1.642 1.143-.571.819a25 25 0 0 0-1.182 1.873l-.494.868zm42.244-2.684-.6-.8a25 25 0 0 0-1.407-1.71l-.668-.742 1.484-1.338.668.742c.534.59 1.045 1.21 1.522 1.847l.6.8zm-38.625-2.54-1.427-1.4.7-.713a27 27 0 0 1 1.75-1.633l.759-.648 1.296 1.521-.76.648c-.56.477-1.105.988-1.618 1.51zm4.834-4.132-1.025-1.716.856-.51a27 27 0 0 1 2.11-1.134l.9-.434.864 1.801-.899.434a25 25 0 0 0-1.95 1.048zm5.724-2.76-.548-1.922.962-.274a26 26 0 0 1 2.33-.554l.981-.185.374 1.964-.982.185c-.722.138-1.444.309-2.152.511l-.962.274zm9.381-1.189-.999-.025q-.547-.013-1.096-.003l-1 .02-.037-1.998 1-.02c.394-.009.793-.006 1.187.003l1 .025-.052 1.999z"/><path fill="#a0a2f8" d="m22.052 20.333-1.736-.99.494-.869c.217-.377.442-.76.676-1.136l.529-.848 1.698 1.056-.528.848c-.22.354-.437.714-.64 1.071zM51.9 71.982c-.462 0-.925-.009-1.376-.026l-1-.037.078-1.999 1 .037c.827.032 1.692.035 2.531 0l1-.034.071 1.999-1 .034q-.647.022-1.304.023zm4.762-.3-.32-1.973.988-.16a34 34 0 0 0 2.481-.497l.97-.234.466 1.945-.97.234c-.863.208-1.748.385-2.63.525l-.988.16zm-9.593-.012-.984-.162a36 36 0 0 1-2.627-.531l-.97-.234.468-1.942.97.234c.82.197 1.653.366 2.481.503l.988.163-.323 1.972zm16.542-1.636-.705-1.87.933-.353a34 34 0 0 0 2.33-.983l.905-.422.845 1.81-.905.422c-.808.377-1.639.726-2.466 1.04l-.934.354zm-23.49-.022-.934-.354a35 35 0 0 1-2.47-1.048l-.904-.425.847-1.81.905.425c.763.357 1.545.69 2.333.988l.933.354-.71 1.867zm29.968-2.975-1.065-1.69.845-.531a33 33 0 0 0 2.09-1.428l.802-.594 1.188 1.608-.802.594a35 35 0 0 1-2.213 1.51zm-36.446-.043-.845-.534a36 36 0 0 1-2.21-1.519l-.802-.596 1.193-1.605.802.597c.674.5 1.376.982 2.087 1.433l.845.534-1.067 1.69zm42.199-4.182-1.38-1.448.726-.688a34 34 0 0 0 1.767-1.813l.671-.74 1.482 1.343-.671.739a36 36 0 0 1-1.873 1.919l-.725.688zm-47.946-.06-.723-.691a37 37 0 0 1-1.867-1.925l-.668-.742 1.485-1.339.668.742a33 33 0 0 0 1.764 1.816l.723.691-1.382 1.445zm52.753-5.222-1.636-1.148.574-.82c.483-.69.945-1.404 1.376-2.126l.511-.86 1.72 1.023-.512.859a37 37 0 0 1-1.456 2.253l-.574.819zm-57.547-.069-.57-.819a36 36 0 0 1-1.451-2.255l-.508-.86 1.721-1.016.508.86a33 33 0 0 0 1.368 2.126l.571.82-1.639 1.142zm61.216-6.06-1.833-.8.4-.916c.337-.771.648-1.565.922-2.359l.328-.942 1.887.657-.328.942a35 35 0 0 1-.98 2.498l-.399.916zm-64.867-.072-.397-.916a36 36 0 0 1-.97-2.496l-.326-.945 1.887-.653.328.944c.274.794.583 1.585.917 2.356l.397.916-1.833.794zm67.24-6.672-1.956-.417.208-.976c.174-.82.32-1.659.434-2.493l.134-.99 1.982.268-.135.99c-.12.883-.274 1.774-.46 2.642zm-69.595-.068-.206-.977a36 36 0 0 1-.454-2.64l-.131-.991 1.981-.263.131.99c.112.834.254 1.674.429 2.496l.205.976-1.955.411zm70.577-7.004-1.999-.02.011-.999v-.368a34 34 0 0 0-.068-2.164l-.063-.997 1.996-.125.063.996c.048.76.07 1.53.07 2.29v.388zm-2.396-6.752-.185-.982a34 34 0 0 0-.566-2.466l-.26-.965 1.93-.52.26.965c.231.86.434 1.736.6 2.612l.185.982zm-1.724-6.517-.38-.925c-.32-.777-.67-1.55-1.048-2.302l-.448-.893 1.787-.897.448.894c.4.796.771 1.616 1.108 2.438l.38.925-1.85.76zm-2.99-6.039-.556-.83a33 33 0 0 0-1.485-2.05l-.616-.788 1.573-1.23.617.787a37 37 0 0 1 1.573 2.17l.556.83zm-55.562-2.543-1.553-1.26.628-.776c.56-.69 1.153-1.37 1.764-2.018l.685-.729 1.456 1.37-.685.729a34 34 0 0 0-1.664 1.907l-.628.777zm51.432-2.784-.708-.705a33 33 0 0 0-1.862-1.716l-.76-.65 1.3-1.52.76.651a36 36 0 0 1 1.97 1.819l.707.705-1.41 1.416zM29.6 10.8l-1.273-1.539.77-.636a36 36 0 0 1 2.128-1.63l.816-.577 1.156 1.63-.816.577a35 35 0 0 0-2.01 1.539zm41.728-2.26-.834-.552a36 36 0 0 0-2.164-1.316l-.873-.485.973-1.745.874.488a37 37 0 0 1 2.292 1.394l.834.55-1.102 1.668zM35.084 6.874l-.945-1.762.88-.47a36 36 0 0 1 2.41-1.177l.913-.406.808 1.828-.914.405a33 33 0 0 0-2.272 1.11zm30.368-1.648-.927-.374a34 34 0 0 0-2.384-.856l-.954-.303.605-1.904.954.303c.848.268 1.699.574 2.527.908l.928.374zM41.235 4.12l-.574-1.916.957-.285a35 35 0 0 1 2.595-.671l.976-.215.428 1.953-.976.214c-.82.18-1.645.394-2.45.634zm17.8-.965-.981-.18a34 34 0 0 0-2.504-.363l-.994-.105L54.77.52l.994.105a36 36 0 0 1 2.652.386l.982.18-.36 1.964zm-11.222-.508-.18-1.99.994-.092C49.51.485 50.41.437 51.3.423l1-.018.034 1.999-1 .017c-.841.014-1.69.06-2.526.134zM16.128 37.443l-.009-1.242q0-.54.017-1.077l.029-.999 1.998.06-.028 1q-.016.505-.015 1.018l.009 1.228-1.998.014z"/><path fill="#e7a87b" d="M18.643 32.392a5.48 5.48 0 0 1-5.473-5.473 5.48 5.48 0 0 1 5.473-5.473 5.48 5.48 0 0 1 5.473 5.473 5.48 5.48 0 0 1-5.473 5.473m0-8.944a3.48 3.48 0 0 0-3.475 3.474 3.48 3.48 0 0 0 3.475 3.474 3.48 3.48 0 0 0 3.474-3.474 3.48 3.48 0 0 0-3.474-3.474"/><path fill="#d77599" d="M60.134 16.787a4.336 4.336 0 0 1-4.331-4.33c0-2.39 1.941-4.332 4.33-4.332s4.332 1.941 4.332 4.331a4.334 4.334 0 0 1-4.331 4.331m0-6.663a2.333 2.333 0 1 0 .002 4.663 2.333 2.333 0 0 0-.002-4.663"/><path fill="#afdcf2" d="M41.482 52.662a3.86 3.86 0 0 1-3.854-3.854 3.86 3.86 0 0 1 3.854-3.854 3.86 3.86 0 0 1 3.854 3.854 3.86 3.86 0 0 1-3.854 3.854m0-5.71a1.86 1.86 0 0 0-1.856 1.856 1.86 1.86 0 0 0 1.856 1.856 1.86 1.86 0 0 0 1.856-1.856 1.86 1.86 0 0 0-1.856-1.856"/><path fill="#fff" d="M6.33 54.304a1 1 0 0 1-.006-1.999l4.305-.02h.006c.548 0 .996.446.999.994 0 .55-.443 1.002-.994 1.005l-4.305.02z"/><path fill="#fff" d="M8.485 56.414a1 1 0 0 1-1-.997l-.008-4.242c0-.551.445-1 .996-1.002.551 0 1 .445 1.003.996l.008 4.243c0 .55-.445.999-.996 1.002zM1 27.276c-.552 0-1-.442-1-.993s.443-1.003.994-1.005l4.305-.02h.005a1 1 0 0 1 .006 1.998l-4.305.02z"/><path fill="#fff" d="M3.155 29.389a1 1 0 0 1-1-.997l-.008-4.242a.998.998 0 1 1 1.996-.006l.008 4.243c0 .55-.445.999-.996 1.002M7.58 43.387a1 1 0 0 1-.377-.075l-.077-.031a.998.998 0 1 1 .753-1.85l.078.031c.51.209.756.791.55 1.302a1 1 0 0 1-.924.622zm82.388 14.32a1 1 0 0 1-.377-.074l-.077-.032a.998.998 0 1 1 .754-1.85l.077.032a.997.997 0 0 1-.374 1.924zm1.262-11.254a1 1 0 0 1-.206-1.979c.109-.025 2.79-.653 3.063-3.394a1 1 0 0 1 .985-.9h.009c.505 0 .933.38.993.883.015.128.434 3.2 3.001 3.391a.998.998 0 1 1-.148 1.993c-1.888-.14-3.115-1.213-3.866-2.424-1.05 1.47-2.647 2.198-3.623 2.404q-.105.022-.208.023z"/><path fill="#fff" d="M95.095 50.612a1 1 0 0 1-.99-.876c-.014-.114-.423-2.915-3.046-3.272a1 1 0 0 1-.857-1.125.996.996 0 0 1 1.125-.856c1.773.24 2.955 1.21 3.7 2.295 1.022-1.359 2.655-2.053 3.691-2.26a.998.998 0 1 1 .394 1.958c-.12.025-3.02.662-3.017 3.134 0 .529-.411.965-.937 1h-.063zm-7.876 14.783a1 1 0 0 1-.166-1.984c.183-.034 1.867-.397 1.987-2.207a.998.998 0 0 1 1.99-.051c.011.083.294 2.124 1.95 2.247a.998.998 0 1 1-.149 1.992c-1.293-.097-2.19-.748-2.789-1.538-.814.953-1.938 1.407-2.655 1.527a1 1 0 0 1-.168.014"/><path fill="#fff" d="M90.05 68.436a1 1 0 0 1-.99-.877c-.026-.191-.317-1.933-2.001-2.16a1 1 0 0 1-.857-1.126.996.996 0 0 1 1.125-.856 4.05 4.05 0 0 1 2.68 1.51c.794-.876 1.908-1.336 2.639-1.485a.998.998 0 1 1 .394 1.959c-.077.017-1.996.445-1.993 2.033a1 1 0 0 1-.936.999h-.063z"/><path fill="#e7a87b" d="M55.44 32.367a.999.999 0 0 1-.78-1.625l.757-.945a.999.999 0 1 1 1.562 1.248l-.757.945a1 1 0 0 1-.782.377m-3.509-1.191h-.051a1 1 0 0 1-.945-1.05l.051-1a1 1 0 0 1 1.996.106l-.051.999a1 1 0 0 1-.997.948z"/><path fill="#e7a87b" d="M50.007 31.441a1 1 0 0 1-.954-.702l-.377-1.205a1 1 0 0 1 1.907-.6l.378 1.206a1 1 0 0 1-.954 1.299zm3.717.135a.998.998 0 0 1-.96-1.276l.338-1.16a.998.998 0 1 1 1.919.554l-.337 1.16a1 1 0 0 1-.96.722m-7.009 2.221a1 1 0 0 1-.57-.18l-.917-.637a1 1 0 0 1-.251-1.39.997.997 0 0 1 1.39-.248l.916.636a1 1 0 0 1-.57 1.819zm-.779 1.978q-.087 0-.174-.014l-1.2-.211a1 1 0 0 1 .346-1.967l1.199.21a.999.999 0 0 1-.171 1.981"/><path fill="#e7a87b" d="M48.257 32.284a1 1 0 0 1-.78-.374l-.636-.794a1 1 0 0 1 .154-1.405 1 1 0 0 1 1.405.155l.636.793a1.001 1.001 0 0 1-.78 1.625m11.45 5.581q-.057.002-.112-.006l-1.57-.174a1 1 0 0 1 .223-1.987l1.57.174a1 1 0 0 1-.109 1.993zm-1.894-2.227a1 1 0 0 1-.2-1.978l1.68-.343a.999.999 0 1 1 .399 1.959l-1.679.342a1 1 0 0 1-.2.02"/><path fill="#e7a87b" d="M57.056 33.837a1 1 0 0 1-.66-1.819l1.068-.736a1 1 0 0 1 1.136 1.644l-1.067.737a1 1 0 0 1-.477.17zm.643 8.687a.98.98 0 0 1-.683-.27L55.82 41.13a1 1 0 0 1 1.367-1.459l1.197 1.122a1 1 0 0 1-.683 1.73zm-1.896 1.671a1 1 0 0 1-.828-.44l-1-1.476a1 1 0 0 1 .266-1.388 1 1 0 0 1 1.388.269l.999 1.476a.998.998 0 0 1-.828 1.558z"/><path fill="#e7a87b" d="M53.314 44.954c-.477 0-.9-.343-.986-.83l-.27-1.571a.997.997 0 0 1 .816-1.154.995.995 0 0 1 1.153.817l.271 1.57a1 1 0 0 1-.987 1.168z"/><path fill="#e7a87b" d="M50.912 44.808a1 1 0 0 1-.988-1.16l.229-1.423a.998.998 0 1 1 1.973.316l-.229 1.425a1 1 0 0 1-.985.84z"/><path fill="#e7a87b" d="M48.474 44.146a1.002 1.002 0 0 1-.845-1.533l.808-1.285a1 1 0 1 1 1.693 1.065l-.808 1.285a1 1 0 0 1-.845.465z"/><path fill="#e7a87b" d="M46.573 42.576a.999.999 0 0 1-.677-1.736l1.19-1.094a1 1 0 0 1 1.414.06 1 1 0 0 1-.06 1.414l-1.19 1.093a1 1 0 0 1-.677.263"/><path fill="#e7a87b" d="M45.24 40.577a1 1 0 0 1-.9-.565.997.997 0 0 1 .463-1.333l1.476-.714a.998.998 0 1 1 .87 1.799l-1.475.713a1 1 0 0 1-.434.1"/><path fill="#e7a87b" d="M44.591 38.062a1 1 0 0 1-.108-1.993l1.742-.197a.999.999 0 0 1 .225 1.987l-1.742.197-.114.006zm14.189 2.033a1 1 0 0 1-.348-.063l-1.036-.385a1 1 0 0 1-.588-1.285 1 1 0 0 1 1.285-.588l1.036.385c.517.191 1.013.745.682 1.365-.285.534-.625.57-1.03.57m-15.786.478c-.077 0-.011-.349.149-.426s.35-.031.428.151c.077.183.011.354-.149.431a.3.3 0 0 1-.14.03c-.12 0-.234-.095-.288-.187"/><path fill="#e7a87b" d="M43.284 41.325a.92.92 0 0 1-.7-.35.6.6 0 0 1-.174-.312c-.077-.343.103-.85.488-1.034a.9.9 0 0 1 .4-.091.86.86 0 0 1 .82.577.89.89 0 0 1-.443 1.125.86.86 0 0 1-.388.085zm.214-.996-.451.191c.054.123.231.197.345.14a.3.3 0 0 0 .14-.12.4.4 0 0 0-.034-.208zm1.236 2.955c-.077 0-.012-.349.148-.426s.352-.031.429.152c.077.182.011.354-.149.43a.3.3 0 0 1-.14.03c-.12 0-.234-.095-.288-.186"/><path fill="#e7a87b" d="M45.023 44.037a.92.92 0 0 1-.7-.35.6.6 0 0 1-.174-.312c-.077-.343.103-.85.488-1.033a.9.9 0 0 1 .4-.092c.354 0 .662.206.802.534l.017.043a.89.89 0 0 1-.442 1.125.86.86 0 0 1-.389.085zm.21-.996-.45.191c.051.123.23.197.345.14a.3.3 0 0 0 .14-.12.4.4 0 0 0-.034-.208zm1.879 2.001c-.077 0-.012-.348.148-.425s.351-.031.428.151c.078.183.012.354-.148.431a.3.3 0 0 1-.14.029c-.12 0-.234-.094-.288-.186"/><path fill="#e7a87b" d="M47.4 45.799a.92.92 0 0 1-.699-.351.63.63 0 0 1-.174-.311c-.077-.343.103-.851.488-1.034a.9.9 0 0 1 .4-.091.86.86 0 0 1 .802.536l.017.043a.89.89 0 0 1-.443 1.125.86.86 0 0 1-.388.086zm.215-1-.452.192c.052.123.232.197.346.14a.3.3 0 0 0 .14-.12.4.4 0 0 0-.035-.209zm-5.374-7.359a.322.322 0 0 1 .637-.097.323.323 0 0 1-.269.365c-.017 0-.03.003-.048.003a.32.32 0 0 1-.317-.271z"/><path fill="#e7a87b" d="M42.558 38.285a.89.89 0 1 1 .88-1.022.886.886 0 0 1-.745 1.013 1 1 0 0 1-.135.012zm0-1.142q-.025-.001-.045.005a.24.24 0 0 0-.154.097.25.25 0 1 0 .2-.1zm-.199-2.873a.32.32 0 0 1-.212-.399.32.32 0 0 1 .4-.211.32.32 0 0 1-.188.611"/><path fill="#e7a87b" d="M42.453 34.856a.9.9 0 0 1-.79-.477.87.87 0 0 1-.064-.68.88.88 0 0 1 1.114-.587.89.89 0 0 1-.26 1.741zm0-1.142a.25.25 0 0 0-.24.18.26.26 0 0 0 .017.188.26.26 0 0 0 .149.123.26.26 0 0 0 .314-.166.26.26 0 0 0-.017-.19.26.26 0 0 0-.223-.135m1.131-2.424a.321.321 0 0 1 .363-.531c.145.1.182.3.085.445a.32.32 0 0 1-.445.083z"/><path fill="#e7a87b" d="M43.763 31.918a.9.9 0 0 1-.502-.154.88.88 0 0 1-.374-.571.89.89 0 0 1 1.379-.902.891.891 0 0 1-.503 1.627m0-1.142a.25.25 0 0 0-.205.106.25.25 0 0 0 .066.348.263.263 0 0 0 .348-.066.248.248 0 0 0-.208-.391zm2.131-1.773a.32.32 0 0 1 .048-.45.322.322 0 1 1 .203.573.32.32 0 0 1-.252-.12z"/><path fill="#e7a87b" d="M46.142 29.694a.892.892 0 0 1 0-1.781.895.895 0 0 1 .888.988.893.893 0 0 1-.885.796zm0-1.142a.26.26 0 0 0-.157.055.24.24 0 0 0-.092.168.24.24 0 0 0 .055.183.26.26 0 0 0 .35.04.25.25 0 0 0-.156-.446m11.285.318a.322.322 0 0 1 .4-.503c.137.108.16.31.05.45a.32.32 0 0 1-.25.12.33.33 0 0 1-.2-.068"/><path fill="#e7a87b" d="M57.627 29.509a.89.89 0 1 1 .56-1.587.9.9 0 0 1 .33.596.88.88 0 0 1-.188.654.88.88 0 0 1-.697.337zm0-1.142a.25.25 0 0 0-.154.448c.102.08.27.063.35-.04a.249.249 0 0 0-.196-.405zm2.303 2.698a.322.322 0 0 1 .4-.503c.137.109.16.311.052.451a.32.32 0 0 1-.252.12.33.33 0 0 1-.2-.068"/><path fill="#e7a87b" d="M60.128 31.707a.894.894 0 0 1-.697-1.448.89.89 0 0 1 .697-.334c.2 0 .397.069.556.195a.88.88 0 0 1 .329.593.88.88 0 0 1-.189.657.89.89 0 0 1-.696.337m0-1.142a.247.247 0 0 0-.248.277.26.26 0 0 0 .094.168c.1.08.268.063.35-.04a.252.252 0 0 0-.196-.408zm1.236 3.509a.322.322 0 0 1 .4-.503c.137.109.16.311.051.451a.32.32 0 0 1-.25.12.33.33 0 0 1-.2-.068"/><path fill="#e7a87b" d="M61.561 34.716a.89.89 0 0 1-.885-.797.9.9 0 0 1 .191-.653.89.89 0 0 1 1.25-.14.893.893 0 0 1-.553 1.59zm0-1.142a.253.253 0 0 0-.157.448.26.26 0 0 0 .354-.04.25.25 0 0 0-.04-.348.26.26 0 0 0-.16-.057zm.117 3.649a.322.322 0 0 1 .4-.503c.137.109.16.311.051.451a.32.32 0 0 1-.251.12.33.33 0 0 1-.2-.068"/><path fill="#e7a87b" d="M61.878 37.862c-.2 0-.4-.068-.557-.194a.886.886 0 0 1-.14-1.253.89.89 0 0 1 1.582.457.89.89 0 0 1-.885.993zm0-1.142a.25.25 0 0 0-.197.097.246.246 0 0 0 .043.348.26.26 0 0 0 .354-.04.26.26 0 0 0 .051-.182.255.255 0 0 0-.251-.223m-1.134 3.549a.322.322 0 0 1 .4-.502c.137.11.16.31.051.45a.32.32 0 0 1-.251.12.33.33 0 0 1-.2-.068"/><path fill="#e7a87b" d="M60.941 40.908a.89.89 0 1 1 .7-.334.88.88 0 0 1-.697.337zm0-1.142a.25.25 0 0 0-.197.095.25.25 0 0 0 .043.35.26.26 0 0 0 .354-.04.249.249 0 0 0-.197-.404zm-1.793 3.426a.322.322 0 0 1 .4-.502c.137.108.16.311.051.451a.32.32 0 0 1-.25.12.33.33 0 0 1-.2-.069"/><path fill="#e7a87b" d="M59.348 43.832a.89.89 0 0 1-.885-.79.887.887 0 0 1 .885-.99.895.895 0 0 1 .888.788.89.89 0 0 1-.885.992zm0-1.142a.24.24 0 0 0-.197.097.24.24 0 0 0-.051.183.26.26 0 0 0 .094.168c.1.08.269.063.351-.043a.248.248 0 0 0-.197-.403zm-2.76 2.58a.322.322 0 0 1 .4-.502c.137.109.16.312.05.451a.32.32 0 0 1-.25.12.33.33 0 0 1-.2-.068"/><path fill="#e7a87b" d="M56.785 45.91a.895.895 0 0 1-.885-.788.89.89 0 0 1 1.439-.8.893.893 0 0 1-.554 1.591zm0-1.142a.25.25 0 0 0-.197.097.253.253 0 0 0 .043.352.26.26 0 0 0 .35-.04.25.25 0 0 0 .052-.186.253.253 0 0 0-.248-.223m-3.235 1.651a.322.322 0 0 1 .4-.503c.136.109.16.311.05.451a.32.32 0 0 1-.25.12.33.33 0 0 1-.2-.069"/><path fill="#e7a87b" d="M53.75 47.058a.89.89 0 0 1-.885-.79.89.89 0 0 1 .885-.994.9.9 0 0 1 .888.79.894.894 0 0 1-.888.994m0-1.142a.25.25 0 0 0-.197.094.24.24 0 0 0-.052.183c.009.066.04.128.095.168a.26.26 0 0 0 .35-.04.25.25 0 0 0 .052-.185.255.255 0 0 0-.251-.223zm-3.39.36a.322.322 0 0 1 .4-.503c.138.109.16.311.052.451a.32.32 0 0 1-.251.12.33.33 0 0 1-.2-.068"/><path fill="#e7a87b" d="M50.56 46.915a.89.89 0 0 1-.884-.79.89.89 0 0 1 .885-.994.895.895 0 0 1 .7 1.447.88.88 0 0 1-.7.337m0-1.142a.25.25 0 0 0-.196.094.24.24 0 0 0-.052.183c.009.066.04.129.095.169a.26.26 0 0 0 .35-.04.255.255 0 0 0-.2-.408zm-1.907-18.434a.32.32 0 0 1 .18-.417.316.316 0 0 1 .414.18.32.32 0 0 1-.297.44.32.32 0 0 1-.3-.203z"/><path fill="#e7a87b" d="M48.954 28.113a.892.892 0 1 1 .816-.54.87.87 0 0 1-.49.474.9.9 0 0 1-.326.063zm0-1.142a.3.3 0 0 0-.097.017.25.25 0 0 0-.135.131.24.24 0 0 0 0 .191c.049.123.2.189.326.14a.254.254 0 0 0 .143-.325.25.25 0 0 0-.232-.16zm5.752.611c-.182-.063-.248-.249-.185-.414a.32.32 0 0 1 .596.23.32.32 0 0 1-.296.204c-.04 0-.115-.009-.115-.023z"/><path fill="#e7a87b" d="M54.82 28.175a.8.8 0 0 1-.374-.082.9.9 0 0 1-.442-.434.9.9 0 0 1-.017-.7.89.89 0 0 1 1.156-.505.894.894 0 0 1 .505 1.153.88.88 0 0 1-.828.568m-3.108-1.247a.32.32 0 0 1 .296-.346.32.32 0 0 1 .343.297.32.32 0 0 1-.294.343h-.026a.323.323 0 0 1-.32-.297z"/><path fill="#e7a87b" d="M52.031 27.51a.895.895 0 0 1-.888-.822.894.894 0 0 1 .822-.96h.069c.462 0 .854.363.888.823a.87.87 0 0 1-.214.648.9.9 0 0 1-.605.308h-.069z"/><path fill="#fff" d="M20.721 8.316c-.262 0-.52-.105-.705-.29a1 1 0 0 1-.294-.709c0-.262.109-.522.294-.705.371-.374 1.04-.374 1.413 0a1.003 1.003 0 0 1 0 1.413 1 1 0 0 1-.708.291m2.809-3.728A1 1 0 1 1 25.06 3.3a1 1 0 0 1-1.53 1.288m4.7-2.59a1.006 1.006 0 0 1-1-1A1.003 1.003 0 0 1 28.937.29c.186.19.295.447.295.71a1.006 1.006 0 0 1-1.002.998m66.588 25.21a1.003 1.003 0 0 1-.708-1.707c.374-.372 1.042-.372 1.416 0a1.003 1.003 0 0 1-.708 1.707m-.408 3.309a.998.998 0 1 1 1.99-.172 1 1 0 0 1-.908 1.082h-.089a.995.995 0 0 1-.993-.913zm1.242 5.173a1.006 1.006 0 0 1-1-1c0-.262.109-.522.294-.708.371-.37 1.043-.37 1.414 0a1.003 1.003 0 0 1-.708 1.707"/></g><defs><clipPath id="a"><path fill="#fff" d="M0 0h100v71.982H0z"/></clipPath></defs></svg>