<svg width="100" height="105" viewBox="0 0 100 105" fill="none" xmlns="http://www.w3.org/2000/svg">
<g clip-path="url(#clip0_25_1897)">
<path d="M49.6585 62.3928C49.4659 62.3928 49.2734 62.3492 49.0917 62.2584C48.9028 62.1639 48.732 62.0695 48.5685 61.9677C47.4023 61.2411 46.9736 60.2238 46.5957 59.3301C46.4685 59.0321 46.3523 58.7487 46.207 58.4762C45.5857 57.3027 45.1097 56.6597 44.2305 56.3981C43.2895 56.1147 42.3049 55.9839 41.2585 55.8458C40.59 55.755 39.8997 55.6642 39.2094 55.5297C35.202 54.745 32.4117 53.4661 30.4244 51.5005C29.2835 50.3706 27.7031 47.7874 28.328 45.662C28.5242 44.9971 29.1237 43.8236 30.933 43.4421C32.0193 43.2132 33.0439 43.2386 33.9449 43.2604C35.202 43.2931 36.1939 43.3149 37.1676 42.7554C37.5018 42.5629 37.8361 42.3812 38.1703 42.2032C39.4202 41.531 40.4992 40.9461 41.215 39.9433C41.422 39.6563 41.5855 39.2676 41.7745 38.8207C42.1959 37.8324 42.7191 36.6008 44.0779 35.4055C45.3459 34.2937 47.2025 33.5852 48.6957 33.0185L49.0408 32.8877C49.7312 32.6224 50.2253 32.2482 50.3888 31.8631C50.4469 31.7287 50.5087 31.5034 50.3524 31.1256C50.287 30.9621 50.0799 30.4643 49.1971 30.2027C47.7874 29.7886 45.7383 30.2463 44.7791 30.9148C44.6992 30.9693 44.6229 31.0275 44.5466 31.082C43.9326 31.5216 43.1732 32.0666 41.9743 32.0411C40.6954 32.0157 39.9433 31.4162 39.54 30.9221C38.1994 29.2763 38.7444 26.3879 39.0023 25L39.0278 24.8692C38.8497 24.7566 38.6172 24.6585 38.3738 24.5495C38.1958 24.4732 38.0214 24.3969 37.8506 24.3133C36.4845 23.6412 35.4927 23.3905 34.4318 23.445C33.8941 23.4704 33.3382 23.5613 32.7532 23.6557C31.9685 23.7829 31.1583 23.921 30.2936 23.9064C29.5924 23.9028 29.0256 23.3287 29.0292 22.6275C29.0329 21.93 29.6033 21.3632 30.3008 21.3632C30.3154 21.3632 30.3335 21.3632 30.3481 21.3632C30.9839 21.3632 31.6451 21.2578 32.3463 21.1452C32.9749 21.0435 33.6252 20.9381 34.3046 20.9054C36.1975 20.8073 37.7271 21.4213 38.9733 22.0317C39.1077 22.0971 39.2494 22.1589 39.3875 22.2206C39.7653 22.3877 40.1977 22.573 40.6082 22.871C41.7454 23.6957 41.6945 24.4914 41.5347 25.3052L41.502 25.4687C41.1132 27.536 41.1169 28.833 41.5129 29.3162C41.5601 29.3744 41.6546 29.4906 42.0252 29.4979C42.363 29.5052 42.5556 29.378 43.0642 29.0147C43.1478 28.9529 43.235 28.8912 43.3258 28.8294C44.8154 27.7903 47.6893 27.1109 49.9164 27.7649C51.2607 28.1609 52.2272 28.9893 52.7067 30.1628C53.0846 31.0856 53.0919 32.0266 52.7249 32.8731C52.278 33.9122 51.3189 34.737 49.9528 35.2638L49.604 35.3982C48.3033 35.896 46.6829 36.51 45.7601 37.3202C44.8336 38.134 44.4848 38.9515 44.1179 39.8198C43.889 40.3575 43.6528 40.9098 43.2859 41.4257C42.225 42.9117 40.779 43.6928 39.3802 44.4449C39.0677 44.6156 38.7516 44.7864 38.4356 44.9644C36.8442 45.88 35.271 45.8436 33.8832 45.8073C33.0439 45.7855 32.2555 45.7673 31.4562 45.9345C30.8676 46.058 30.7986 46.2869 30.7695 46.3814C30.5515 47.1189 31.2673 48.7575 32.2119 49.6948C33.825 51.2934 36.2048 52.3543 39.6963 53.0374C40.3103 53.1573 40.9316 53.2408 41.5928 53.328C42.69 53.4733 43.8272 53.6259 44.9571 53.9638C46.8573 54.5306 47.7547 55.9802 48.4523 57.2918C48.6485 57.666 48.8011 58.0257 48.9355 58.3455C49.2588 59.1121 49.4514 59.5262 49.9128 59.8133C50.0182 59.8787 50.1199 59.9332 50.2253 59.9877C50.8538 60.3001 51.1081 61.0631 50.7957 61.6916C50.5741 62.1385 50.1235 62.3965 49.6585 62.3965V62.3928Z" fill="#63A566"/>
<path d="M42.8609 88.7371C42.2323 88.7371 41.7128 88.4028 41.4621 88.2393C40.1178 87.3746 39.2059 86.4663 38.5955 85.3873C38.2504 84.7769 38.4647 83.9994 39.0751 83.6542C39.6855 83.3091 40.463 83.5235 40.8081 84.1338C41.1678 84.7696 41.7019 85.3182 42.5157 85.885C42.6719 85.4527 42.7846 85.0094 42.8391 84.5807C43.0789 82.6987 43.4422 81.0165 45.4259 79.5378C45.6948 79.338 45.9745 79.1818 46.2179 79.0474C46.3596 78.9674 46.505 78.8911 46.6394 78.8003C47.0935 78.4987 47.3842 78.0991 47.6458 77.4306C47.951 76.6458 48.2889 75.901 48.6377 75.1417C48.9283 74.5022 49.684 74.2225 50.3235 74.5168C50.9629 74.8111 51.2427 75.5631 50.9484 76.2026C50.6177 76.9256 50.298 77.634 50.0146 78.3571C49.5641 79.5088 48.9392 80.3226 48.0491 80.9185C47.842 81.0565 47.6349 81.1728 47.4496 81.2745C47.257 81.3799 47.0754 81.4816 46.9446 81.5797C45.851 82.3972 45.5894 83.1274 45.3605 84.9077C45.2588 85.6925 45.0299 86.5063 44.6993 87.2693C44.5503 87.6108 44.2015 88.4137 43.355 88.6681C43.1842 88.7189 43.0171 88.7407 42.8572 88.7407L42.8609 88.7371Z" fill="#63A566"/>
<path d="M38.8969 76.7475C38.2465 76.7475 37.6907 76.2534 37.6325 75.5922C37.6144 75.3924 37.5889 75.2107 37.5599 75.0399C37.36 73.9173 37.1602 73.1143 36.9132 72.424C36.677 71.7628 37.0185 71.0362 37.6798 70.7964C38.341 70.5566 39.0676 70.9017 39.3074 71.563C39.6054 72.3913 39.8379 73.3251 40.0631 74.5894C40.1067 74.8292 40.1394 75.0835 40.1649 75.356C40.2303 76.0536 39.7143 76.6749 39.0131 76.7366C38.9732 76.7403 38.9332 76.7403 38.8969 76.7403V76.7475Z" fill="#63A566"/>
<path d="M36.7243 70.7092C36.3356 70.7092 35.9505 70.5312 35.7034 70.1933C35.202 69.5176 35.4091 68.8527 35.7361 68.4894C35.7834 68.4385 36.0667 68.1442 36.51 68.0824C36.9496 67.988 37.4219 68.1297 37.7344 68.4894C38.4973 69.3722 37.8833 70.1534 37.8143 70.2369C37.6472 70.4331 37.3275 70.662 36.9205 70.6874C36.8551 70.6983 36.7934 70.702 36.728 70.702L36.7243 70.7092Z" fill="#63A566"/>
<path d="M34.3337 68.0933C34.014 68.0933 33.6943 67.9734 33.4472 67.7336L33.3818 67.6719C31.518 65.8625 28.9675 63.3811 31.7651 60.2347C32.241 59.7007 32.4517 59.0212 32.3391 58.3745C32.2156 57.6515 31.7178 57.0303 30.9004 56.5761C30.2863 56.2346 30.0647 55.4607 30.4026 54.8467C30.7441 54.2327 31.518 54.0111 32.132 54.349C33.6289 55.1773 34.5917 56.4526 34.846 57.9458C35.0858 59.3591 34.6571 60.8088 33.6652 61.9242C32.637 63.0795 32.8332 63.5918 35.1548 65.848L35.2202 65.9098C35.7252 66.4003 35.7361 67.2032 35.2457 67.7082C34.995 67.9662 34.6643 68.0933 34.3337 68.0933Z" fill="#63A566"/>
<path d="M28.5135 55.3953C28.35 55.3953 28.1865 55.3626 28.0267 55.2972L27.7215 55.17C26.6061 54.705 25.4507 54.2254 24.2699 53.6368C22.5587 52.783 21.7049 51.5841 21.0945 50.5196C20.7457 49.9092 20.9565 49.1317 21.5668 48.7829C22.1772 48.4341 22.9547 48.6448 23.3035 49.2516C23.8122 50.1381 24.3644 50.8393 25.4071 51.3552C26.508 51.9038 27.5725 52.3471 28.7024 52.8157L29.0076 52.9429C29.6543 53.2118 29.9632 53.9566 29.6943 54.6069C29.4908 55.0938 29.0185 55.3917 28.5208 55.3917L28.5135 55.3953Z" fill="#63A566"/>
<path d="M20.6402 48.3833C20.266 48.3833 19.8954 48.2198 19.6447 47.9037C19.1615 47.2933 19.3214 46.5994 19.6774 46.2106C19.8482 46.0253 20.0916 45.8763 20.3714 45.8219C20.8073 45.7238 21.2833 45.8582 21.603 46.2142C22.1407 46.8173 22.0027 47.5331 21.6502 47.94C21.4504 48.1725 21.1452 48.3397 20.8037 48.3724C20.7492 48.3796 20.6947 48.3833 20.6402 48.3833Z" fill="#63A566"/>
<path d="M18.3731 46.0144C18.0498 46.0144 17.7264 45.8909 17.4794 45.6474C15.9861 44.1687 14.5874 42.73 13.9116 41.3748C13.5955 40.7462 13.8535 39.9833 14.4784 39.6672C15.1069 39.3547 15.8699 39.6091 16.186 40.234C16.7309 41.3239 18.2605 42.8353 19.2705 43.8381C19.7683 44.3322 19.7719 45.1388 19.2778 45.6365C19.0308 45.8872 18.7001 46.0144 18.3731 46.0144Z" fill="#63A566"/>
<path d="M74.0629 64.4347C73.4707 64.4347 72.9402 64.0168 72.8167 63.4137C72.675 62.7016 73.0347 62.2039 73.4198 61.975C73.5978 61.8696 73.8195 61.8006 74.0629 61.797C74.6224 61.7425 75.171 62.0658 75.3781 62.6144C75.6542 63.352 75.3127 63.926 74.9385 64.1876C74.7495 64.3184 74.4952 64.4165 74.2118 64.4201C74.161 64.4274 74.1101 64.4274 74.0592 64.4274L74.0629 64.4347Z" fill="#63A566"/>
<path d="M73.9863 75.4905C73.405 75.4905 72.8782 75.0872 72.7474 74.495C72.4676 73.2451 72.2605 71.9772 72.1298 70.7164C71.9953 69.4303 72.1298 68.2132 72.3114 66.8689C72.4022 66.1713 73.0453 65.6845 73.7393 65.7753C74.4368 65.8661 74.9237 66.5056 74.8328 67.2031C74.6766 68.3839 74.5531 69.4412 74.6585 70.4512C74.7784 71.5957 74.9745 72.8019 75.2289 73.9391C75.3815 74.6258 74.9491 75.3052 74.2661 75.4578C74.1716 75.4796 74.0808 75.4868 73.9863 75.4868V75.4905Z" fill="#63A566"/>
<path d="M76.951 82.4335C76.3878 82.4335 75.8755 82.0557 75.7229 81.4889C75.5449 80.8131 75.1307 80.0828 74.6911 79.3126C74.5785 79.1164 74.4659 78.9202 74.3569 78.7204C74.0153 78.1064 74.2406 77.3325 74.8546 76.991C75.4686 76.6531 76.2425 76.8747 76.5804 77.4887C76.6857 77.6777 76.7911 77.8666 76.9001 78.0519C77.4015 78.9311 77.9174 79.8394 78.179 80.8349C78.3606 81.5143 77.9537 82.2119 77.2779 82.3899C77.1689 82.419 77.06 82.4335 76.951 82.4335Z" fill="#63A566"/>
<path d="M49.7495 95.0152C43.2715 95.0152 36.8444 93.413 31.1657 90.3829C30.5444 90.0523 30.3119 89.2821 30.6425 88.6608C30.9731 88.0395 31.7434 87.807 32.3646 88.1376C37.6764 90.9715 43.6893 92.472 49.7531 92.472C67.098 92.472 82.3101 80.1809 85.9252 63.243C86.0705 62.5563 86.7463 62.1167 87.4329 62.2656C88.1196 62.411 88.5592 63.0867 88.4103 63.7734C86.5501 72.4858 81.707 80.4134 74.7713 86.0885C67.741 91.8435 58.8542 95.0152 49.7495 95.0152Z" fill="#AFDCF2"/>
<path d="M11.1105 84.9114C10.4093 84.9114 9.83887 84.3409 9.83887 83.6397C9.83887 83.1747 9.86067 82.6842 9.90063 82.1865C10.1223 79.5124 10.5946 76.2716 13.3921 71.6066C13.7518 71.0035 14.533 70.8109 15.1361 71.1706C15.7392 71.5303 15.9354 72.3114 15.572 72.9145C13.0542 77.1073 12.6437 79.8975 12.4366 82.3972C12.4003 82.8259 12.3821 83.2437 12.3821 83.6397C12.3821 84.3409 11.8117 84.9114 11.1105 84.9114Z" fill="#E7A87B"/>
<path d="M25.5048 86.3574C25.2214 86.3574 24.9344 86.2629 24.6982 86.0704C15.4953 78.5242 10.2163 67.3776 10.2163 55.4861C10.2163 33.687 27.9499 15.9534 49.7491 15.9534C50.5375 15.9534 51.3332 15.9752 52.1143 16.0224C52.8155 16.0624 53.3496 16.6655 53.3096 17.3667C53.266 18.0679 52.6665 18.602 51.9653 18.562C51.2314 18.5184 50.4866 18.4966 49.7491 18.4966C29.3523 18.4966 12.7595 35.0894 12.7595 55.4861C12.7595 66.611 17.7007 77.0419 26.3114 84.1012C26.8563 84.548 26.9326 85.3474 26.4894 85.8923C26.2387 86.1975 25.8717 86.3574 25.5048 86.3574Z" fill="#AFDCF2"/>
<path d="M66.3494 102.674C66.3494 103.088 66.0115 103.426 65.5973 103.426C65.1831 103.426 64.8452 103.088 64.8452 102.674C64.8452 102.26 65.1795 101.922 65.5973 101.922C66.0151 101.922 66.3494 102.26 66.3494 102.674Z" fill="#D77599"/>
<path d="M65.5974 104.334C64.6818 104.334 63.937 103.59 63.937 102.674C63.937 101.758 64.6818 101.014 65.5974 101.014C66.5129 101.014 67.2577 101.758 67.2577 102.674C67.2577 103.59 66.5129 104.334 65.5974 104.334ZM65.5974 102.518C65.5102 102.518 65.4412 102.587 65.4412 102.674C65.4412 102.761 65.5102 102.83 65.5974 102.83C65.6846 102.83 65.7536 102.761 65.7536 102.674C65.7536 102.587 65.6846 102.518 65.5974 102.518Z" fill="#D77599"/>
<path d="M11.3681 87.8324C10.8304 87.8324 10.3327 87.4909 10.1583 86.9532C9.98025 86.4046 10.1583 85.9977 10.2963 85.7869C10.4598 85.4817 10.7469 85.2419 11.1102 85.1511C11.7932 84.9804 12.4835 85.3945 12.6543 86.074C12.7778 86.5608 12.6397 86.9241 12.4981 87.1494C12.3491 87.4364 12.0911 87.6653 11.7605 87.7707C11.6297 87.8142 11.4989 87.8324 11.3681 87.8324Z" fill="#E7A87B"/>
<path d="M13.0357 90.7317C12.6978 90.7317 12.3599 90.5973 12.1093 90.3321C12.0693 90.2957 12.033 90.2558 12.0003 90.2158C11.9639 90.1722 11.9312 90.1286 11.9022 90.085C11.5025 89.5291 11.6042 88.7371 12.1528 88.3193C12.7124 87.8942 13.5008 87.9887 13.9258 88.5446C13.9331 88.5518 13.9404 88.5627 13.944 88.57C13.9513 88.5772 13.9549 88.5845 13.9622 88.5881C14.4454 89.1004 14.42 89.9034 13.9077 90.3866C13.6606 90.6191 13.3482 90.7317 13.0357 90.7317ZM11.7496 89.758C11.7786 89.8489 11.815 89.9397 11.8622 90.0196C11.815 89.9361 11.7786 89.8489 11.7496 89.758Z" fill="#E7A87B"/>
<path d="M15.7644 92.4357C15.63 92.4357 15.4919 92.4139 15.3575 92.3666C14.7144 92.1486 14.471 91.7526 14.3838 91.4293C14.253 91.0914 14.2639 90.7026 14.4455 90.3647C14.7798 89.7507 15.5319 89.5146 16.1495 89.8416C16.422 89.9869 16.6037 90.1577 16.7236 90.3284C17.0069 90.659 17.1159 91.1241 16.967 91.5673C16.789 92.0978 16.2912 92.432 15.7608 92.432L15.7644 92.4357Z" fill="#E7A87B"/>
<path d="M19.2961 92.9516C18.3951 92.9516 18.0535 92.4793 17.9264 92.116C17.8464 91.9271 17.8101 91.7127 17.8319 91.4947C17.9046 90.7971 18.5113 90.2885 19.2089 90.3612C19.3833 90.3793 19.5359 90.4157 19.6667 90.4629C20.1862 90.6191 20.5677 91.106 20.5677 91.6764C20.5677 92.3776 20.0009 92.948 19.2997 92.9516H19.2925H19.2961Z" fill="#E7A87B"/>
<path d="M22.2715 92.6755C21.643 92.6755 21.0944 92.2105 21.0108 91.5674C20.92 90.8698 21.4105 90.234 22.1081 90.1395C22.1517 90.1323 22.1952 90.1286 22.2388 90.125C22.9183 90.0233 23.565 90.4847 23.6812 91.1677C23.8011 91.858 23.3361 92.5156 22.6421 92.6355L22.5658 92.6501C22.4968 92.661 22.4241 92.6682 22.3551 92.6682C22.326 92.6682 22.297 92.6682 22.2715 92.6682V92.6755Z" fill="#E7A87B"/>
<path d="M25.1709 92.0324C24.5896 92.0324 24.0665 91.6327 23.932 91.0442C23.7758 90.3611 24.2045 89.6781 24.8876 89.5218C39.5221 86.1684 51.537 70.7491 56.0277 64.2712C56.4273 63.6935 57.2193 63.5518 57.797 63.9514C58.3747 64.3511 58.5164 65.1431 58.1167 65.7208C52.3327 74.0662 40.4013 88.5772 25.458 91.9997C25.3635 92.0215 25.2654 92.0324 25.1746 92.0324H25.1709Z" fill="#E7A87B"/>
<path d="M52.0347 58.2619C51.4243 57.9494 50.6831 58.1747 50.367 58.7851C50.367 58.7923 50.3598 58.7996 50.3525 58.8105C48.1907 62.767 45.0989 66.4584 42.1051 70.0298C41.7382 70.4658 41.3749 70.9017 41.0007 71.3523C37.7126 75.3015 34.6099 79.0328 30.548 81.9358C26.5805 84.7733 21.1344 86.8333 17.9081 85.0349C16.4693 84.2319 15.8335 82.1101 15.9643 80.5261C15.997 80.1119 16.0443 79.6795 16.1278 79.2399C15.4266 78.437 15.1723 78.288 14.729 77.3325C14.0278 78.8294 13.9079 79.8685 13.8389 80.6787C13.6427 83.0257 14.2095 85.8269 16.6946 87.2111C17.9916 87.9342 19.405 88.2248 20.8292 88.2248C25.7267 88.2248 30.795 84.8205 31.994 83.9667C36.3138 80.8785 39.6673 76.8493 42.9263 72.9327C43.2859 72.504 43.6456 72.0716 44.0126 71.6357C47.0826 67.9698 50.2544 64.1803 52.536 60.0094C52.536 60.0058 52.5397 60.0022 52.5433 59.9985C52.5506 59.9876 52.5578 59.9695 52.5651 59.9586C52.8776 59.3482 52.645 58.5816 52.0347 58.2691V58.2619Z" fill="#E7A87B"/>
<path d="M69.7318 24.2625C69.4993 24.2625 69.245 24.1971 68.987 24.0372C68.4929 23.7248 68.2858 23.1325 68.4457 22.5985C68.5038 22.2824 68.6782 22.0244 68.8707 21.8609C69.2123 21.5666 69.8372 21.3741 70.4766 21.7955C70.938 22.1044 71.1379 22.6602 71.0034 23.1725C70.9562 23.4995 70.7818 23.7684 70.582 23.9427C70.3822 24.1171 70.0806 24.2625 69.7318 24.2625Z" fill="#AFDCF2"/>
<path d="M66.3169 22.4313C66.128 22.4313 65.9354 22.3877 65.7538 22.3005C62.7346 20.8109 59.5301 19.7427 56.2203 19.1251C55.53 18.9979 55.0758 18.3331 55.203 17.6428C55.3301 16.9525 55.995 16.4983 56.6853 16.6255C60.2204 17.2867 63.6502 18.4275 66.8764 20.0225C67.505 20.335 67.7629 21.0943 67.4541 21.7265C67.2325 22.1733 66.782 22.4349 66.3133 22.4349L66.3169 22.4313Z" fill="#AFDCF2"/>
<path d="M87.8288 60.5108C87.7888 60.5108 87.7452 60.5108 87.7053 60.5035C87.0077 60.4345 86.4954 59.8132 86.5608 59.1157C86.6771 57.9131 86.7352 56.6923 86.7352 55.4825C86.7352 54.4361 86.6916 53.3789 86.6044 52.3398C86.5463 51.6386 87.0658 51.0245 87.767 50.9664C88.4682 50.9119 89.0822 51.4278 89.1404 52.129C89.2348 53.2372 89.2821 54.3671 89.2821 55.4861C89.2821 56.7759 89.2203 58.0802 89.0968 59.3627C89.0314 60.0203 88.4791 60.5108 87.8324 60.5108H87.8288Z" fill="#AFDCF2"/>
<path d="M87.3963 49.9128C86.7932 49.9128 86.2591 49.4805 86.1464 48.8665C86.1319 48.7865 86.121 48.7139 86.1174 48.6412C85.9902 47.9654 86.4226 47.3078 87.0983 47.1625C87.785 47.0135 88.4608 47.4495 88.6097 48.1362C88.6315 48.2452 88.6461 48.3469 88.6533 48.4414C88.7623 49.1208 88.3046 49.7675 87.6252 49.891C87.5489 49.9055 87.4726 49.9128 87.3963 49.9128Z" fill="#AFDCF2"/>
<path d="M79.9157 94.7283C79.2981 94.7283 78.7567 94.2778 78.6586 93.6492C78.5533 92.9553 79.0292 92.3049 79.7232 92.1996C79.8794 92.1741 83.7161 91.5056 83.9958 87.8034C84.0503 87.1022 84.6607 86.579 85.3583 86.6299C86.0595 86.6844 86.5826 87.2948 86.5318 87.9923C86.1866 92.5811 82.1792 94.3904 80.1083 94.7101C80.0429 94.721 79.9775 94.7246 79.9157 94.7246V94.7283Z" fill="#D77599"/>
<path d="M90.688 94.7283C90.648 94.7283 90.6044 94.7283 90.5644 94.721C88.2065 94.4921 83.814 92.7591 84.0719 87.8325C84.1082 87.1313 84.7041 86.5899 85.4089 86.6299C86.1101 86.6662 86.6478 87.2657 86.6115 87.9669C86.4153 91.7236 90.6298 92.1741 90.8115 92.1923C91.5091 92.2613 92.0213 92.8826 91.9559 93.5802C91.8905 94.2378 91.3383 94.7283 90.6916 94.7283H90.688Z" fill="#D77599"/>
<path d="M84.9076 100.254C84.2173 100.254 83.6505 99.7021 83.6359 99.0082C83.5633 95.5421 79.6903 94.6774 79.6503 94.6701C78.9637 94.5248 78.524 93.849 78.6694 93.1623C78.8147 92.4757 79.4905 92.0361 80.1771 92.185C82.2117 92.6174 86.0847 94.5902 86.1755 98.9573C86.1901 99.6585 85.6342 100.24 84.933 100.254C84.9221 100.254 84.9148 100.254 84.9039 100.254H84.9076Z" fill="#D77599"/>
<path d="M84.9948 100.273C84.9584 100.273 84.9185 100.273 84.8785 100.269C84.1773 100.207 83.6614 99.5895 83.7268 98.8883C84.1555 94.0815 88.3845 92.3885 90.5572 92.1632C91.2584 92.0906 91.8797 92.5992 91.9523 93.2968C92.025 93.9944 91.5163 94.6193 90.8188 94.6919C90.6516 94.7101 86.6079 95.2115 86.2591 99.1135C86.201 99.7748 85.6451 100.273 84.9948 100.273Z" fill="#D77599"/>
<path d="M94.9572 85.1657C94.256 85.1657 93.6855 84.5953 93.6855 83.8941V83.1747C93.6855 82.4735 94.256 81.9031 94.9572 81.9031C95.6584 81.9031 96.2288 82.4735 96.2288 83.1747V83.8941C96.2288 84.5953 95.6584 85.1657 94.9572 85.1657Z" fill="#D77599"/>
<path d="M94.9572 80.497C94.256 80.497 93.6855 79.9266 93.6855 79.2254V78.5061C93.6855 77.8048 94.256 77.2344 94.9572 77.2344C95.6584 77.2344 96.2288 77.8048 96.2288 78.5061V79.2254C96.2288 79.9266 95.6584 80.497 94.9572 80.497Z" fill="#D77599"/>
<path d="M97.6492 82.4735H96.9298C96.2286 82.4735 95.6582 81.9031 95.6582 81.2019C95.6582 80.5006 96.2286 79.9302 96.9298 79.9302H97.6492C98.3504 79.9302 98.9208 80.5006 98.9208 81.2019C98.9208 81.9031 98.3504 82.4735 97.6492 82.4735Z" fill="#D77599"/>
<path d="M92.9805 82.4735H92.2648C91.5636 82.4735 90.9932 81.9031 90.9932 81.2019C90.9932 80.5006 91.5636 79.9302 92.2648 79.9302H92.9805C93.6817 79.9302 94.2521 80.5006 94.2521 81.2019C94.2521 81.9031 93.6817 82.4735 92.9805 82.4735Z" fill="#D77599"/>
<path d="M12.2259 16.7853C11.6373 16.7853 11.1105 16.3748 10.9833 15.7753C10.838 15.0886 11.2776 14.4129 11.9643 14.2675C12.1024 14.2385 15.5139 13.4355 15.8627 9.94768C15.9281 9.30097 16.4658 8.80686 17.1162 8.80322H17.1271C17.7701 8.80322 18.3151 9.28644 18.3914 9.92588C18.4132 10.0857 18.9437 13.9987 22.2099 14.2421C22.9111 14.293 23.4343 14.9034 23.3834 15.6046C23.3326 16.3058 22.7222 16.8289 22.021 16.7781C19.6194 16.6001 18.0572 15.234 17.1016 13.6935C15.7646 15.5646 13.7337 16.4911 12.4911 16.7526C12.4039 16.7708 12.3131 16.7817 12.2259 16.7817V16.7853Z" fill="#D77599"/>
<path d="M17.1487 22.0753C16.5129 22.0753 15.9679 21.603 15.888 20.9599C15.8698 20.8146 15.3503 17.2504 12.0113 16.7963C11.3138 16.7018 10.8269 16.0623 10.9214 15.3648C11.0159 14.6672 11.6589 14.184 12.3529 14.2748C14.6091 14.58 16.1132 15.8153 17.0615 17.1959C18.3622 15.4665 20.4404 14.5836 21.7592 14.3148C22.4459 14.1731 23.118 14.62 23.2561 15.3103C23.3941 15.997 22.9509 16.6691 22.2606 16.8072C22.108 16.8399 18.4167 17.6501 18.4203 20.7964C18.4203 21.4685 17.9008 22.0244 17.2286 22.068C17.2032 22.068 17.1741 22.068 17.1487 22.068V22.0753Z" fill="#D77599"/>
<path d="M2.80098 15.8516C2.80098 16.6255 2.17243 17.2504 1.4022 17.2504C0.63196 17.2504 0.00341797 16.6219 0.00341797 15.8516C0.00341797 15.0814 0.628327 14.4492 1.4022 14.4492C2.17607 14.4492 2.80098 15.0778 2.80098 15.8516Z" fill="#D77599"/>
<path d="M7.66224 6.49978C6.96104 6.49978 6.39062 5.92937 6.39062 5.22816V1.27162C6.39062 0.570411 6.96104 0 7.66224 0C8.36345 0 8.93386 0.570411 8.93386 1.27162V5.22816C8.93386 5.92937 8.36345 6.49978 7.66224 6.49978Z" fill="#D77599"/>
<path d="M9.64223 4.51968H5.68568C4.98447 4.51968 4.41406 3.94926 4.41406 3.24806C4.41406 2.54685 4.98447 1.97644 5.68568 1.97644H9.64223C10.3434 1.97644 10.9138 2.54685 10.9138 3.24806C10.9138 3.94926 10.3434 4.51968 9.64223 4.51968Z" fill="#D77599"/>
<path d="M4.78822 35.9541C4.08701 35.9541 3.5166 35.3837 3.5166 34.6825V33.9631C3.5166 33.2619 4.08701 32.6915 4.78822 32.6915C5.48943 32.6915 6.05984 33.2619 6.05984 33.9631V34.6825C6.05984 35.3837 5.48943 35.9541 4.78822 35.9541Z" fill="#D77599"/>
<path d="M4.78822 31.2854C4.08701 31.2854 3.5166 30.715 3.5166 30.0138V29.2944C3.5166 28.5932 4.08701 28.0228 4.78822 28.0228C5.48943 28.0228 6.05984 28.5932 6.05984 29.2944V30.0138C6.05984 30.715 5.48943 31.2854 4.78822 31.2854Z" fill="#D77599"/>
<path d="M7.47683 33.2583H6.75746C6.05625 33.2583 5.48584 32.6879 5.48584 31.9866C5.48584 31.2854 6.05625 30.715 6.75746 30.715H7.47683C8.17804 30.715 8.74845 31.2854 8.74845 31.9866C8.74845 32.6879 8.17804 33.2583 7.47683 33.2583Z" fill="#D77599"/>
<path d="M2.81179 33.2583H2.09242C1.39121 33.2583 0.820801 32.6879 0.820801 31.9866C0.820801 31.2854 1.39121 30.715 2.09242 30.715H2.81179C3.513 30.715 4.08341 31.2854 4.08341 31.9866C4.08341 32.6879 3.513 33.2583 2.81179 33.2583Z" fill="#D77599"/>
<path d="M96.7555 70.7964C96.0543 70.7964 95.4839 70.226 95.4839 69.5248V65.5755C95.4839 64.8743 96.0543 64.3039 96.7555 64.3039C97.4567 64.3039 98.0271 64.8743 98.0271 65.5755V69.5248C98.0271 70.226 97.4567 70.7964 96.7555 70.7964Z" fill="#D77599"/>
<path d="M98.7282 68.8236H94.7789C94.0777 68.8236 93.5073 68.2532 93.5073 67.552C93.5073 66.8507 94.0777 66.2803 94.7789 66.2803H98.7282C99.4294 66.2803 99.9998 66.8507 99.9998 67.552C99.9998 68.2532 99.4294 68.8236 98.7282 68.8236Z" fill="#D77599"/>
<path d="M82.1681 38.1812C80.624 38.1812 79.1526 37.5999 78.0263 36.5463C76.8419 35.4382 76.1588 33.9377 76.1007 32.3172C76.0462 30.6968 76.6239 29.1491 77.732 27.9647C78.8765 26.7403 80.4932 26.0355 82.1718 26.0355C83.7159 26.0355 85.1873 26.6168 86.3136 27.6704C88.7624 29.9557 88.8932 33.8032 86.6079 36.252C85.4634 37.4764 83.8467 38.1812 82.1681 38.1812ZM82.1681 28.5823C81.1799 28.5823 80.2643 28.982 79.5886 29.7014C78.9455 30.3917 78.6076 31.2891 78.6403 32.2301C78.673 33.1711 79.069 34.0467 79.7593 34.6897C80.4169 35.3037 81.2707 35.638 82.1681 35.638C83.1564 35.638 84.0719 35.2383 84.7477 34.519C86.0774 33.0984 85.9975 30.8603 84.5769 29.5306C83.9193 28.9166 83.0655 28.5823 82.1681 28.5823Z" fill="white"/>
<path d="M70.9128 48.5213C69.6993 48.5213 68.5439 48.0671 67.6574 47.2388C65.7355 45.444 65.6301 42.4175 67.4285 40.4956C68.3259 39.5328 69.5976 38.9805 70.9164 38.9805C72.1299 38.9805 73.2852 39.4347 74.1717 40.263C76.0937 42.0578 76.1954 45.0843 74.4006 47.0063C73.5032 47.9691 72.2316 48.5213 70.9128 48.5213ZM70.9128 41.5274C70.2879 41.5274 69.7102 41.7781 69.2851 42.2359C68.4458 43.1333 68.4967 44.5466 69.3941 45.3822C69.8083 45.7673 70.346 45.9817 70.9128 45.9817C71.5377 45.9817 72.1154 45.731 72.5404 45.2732C73.3797 44.3758 73.3288 42.9625 72.4351 42.1269C72.0209 41.7418 71.4832 41.5274 70.9164 41.5274H70.9128Z" fill="white"/>
<path d="M63.5519 56.5615C62.4511 56.5615 61.4047 56.1473 60.5982 55.3953C59.7516 54.6069 59.2648 53.5351 59.2248 52.3797C59.1848 51.2244 59.599 50.1235 60.3874 49.277C61.2013 48.405 62.3566 47.9036 63.5519 47.9036C64.6528 47.9036 65.6992 48.3178 66.5057 49.0662C67.3523 49.8546 67.8391 50.9264 67.8791 52.0818C67.919 53.2372 67.5049 54.338 66.7165 55.1845C65.9026 56.0565 64.7473 56.5579 63.5519 56.5579V56.5615ZM63.5519 50.4505C63.0506 50.4505 62.5892 50.6503 62.2476 51.0173C61.9206 51.3661 61.7535 51.8202 61.768 52.2962C61.7826 52.7721 61.986 53.2154 62.3348 53.5387C62.6655 53.8475 63.0978 54.0183 63.5519 54.0183C64.0533 54.0183 64.5147 53.8185 64.8563 53.4515C65.1832 53.1027 65.354 52.6486 65.3358 52.1726C65.3213 51.6967 65.1179 51.2534 64.7691 50.9301C64.4384 50.6212 64.0061 50.4505 63.5519 50.4505Z" fill="white"/>
<path d="M51.8313 59.6824C51.6859 59.6824 51.537 59.657 51.3917 59.6025C50.734 59.3591 50.3962 58.6288 50.6396 57.9676C50.7086 57.7786 52.3508 53.3461 53.0629 51.9873C60.8271 37.1966 77.9757 17.6101 78.1501 17.4139C78.2955 17.2504 78.4771 17.1268 78.6842 17.0542C79.1711 16.8834 90.721 12.8651 97.4533 14.9251C98.1254 15.1322 98.5033 15.8407 98.2962 16.5128C98.0891 17.185 97.3806 17.5628 96.7085 17.3557C91.3241 15.7099 81.6889 18.7327 79.8396 19.3467C77.8086 21.6865 62.462 39.5582 55.3191 53.1718C54.7887 54.1781 53.488 57.6115 53.0302 58.8504C52.8413 59.3627 52.3544 59.6824 51.8385 59.6824H51.8313Z" fill="white"/>
<path d="M74.0154 32.9494C73.6048 32.9494 73.2197 32.7532 72.9799 32.419C72.5876 31.874 72.7765 31.3217 72.8564 31.0856C73.0562 30.497 73.6521 30.1373 74.2661 30.2354C74.8801 30.3371 75.3306 30.8676 75.3306 31.4889C75.3306 32.3209 74.7638 32.9494 74.0118 32.9494H74.0154ZM74.2007 31.5397L75.2652 31.8994C75.3125 31.6851 75.3052 31.2781 75.0291 30.9148L74.2007 31.5434V31.5397ZM74.0154 30.4062C73.3142 30.4062 72.791 30.9802 72.791 31.4889H74.0154V30.4062Z" fill="white"/>
<path d="M81.4199 41.8762C79.2764 41.8762 77.1655 41.0733 75.5196 39.5364C74.4006 38.4901 73.5759 37.1639 73.1363 35.6998C72.9328 35.0276 73.3143 34.3191 73.9901 34.1157C74.6622 33.9122 75.3707 34.2937 75.5741 34.9695C75.8829 36.0013 76.4679 36.9387 77.2599 37.6798C79.1056 39.402 81.7724 39.8198 84.0504 38.7407C84.6862 38.4392 85.4419 38.7117 85.7434 39.3475C86.045 39.9833 85.7725 40.739 85.1367 41.0406C83.945 41.6037 82.677 41.8798 81.4199 41.8798V41.8762Z" fill="white"/>
<path d="M46.3667 54.5814C46.127 54.5814 45.8872 54.5124 45.6764 54.378C45.2695 54.1164 45.0479 53.6477 45.1024 53.1681C45.8981 46.0798 53.6767 43.9398 57.6805 43.7981C58.3781 43.7763 58.9703 44.3213 58.9957 45.0225C59.0212 45.7237 58.4725 46.3123 57.7713 46.3377C57.4335 46.3523 50.4396 46.6756 48.2378 51.2825C51.1626 50.6794 54.2726 51.3007 54.4397 51.3334C55.1264 51.4751 55.5696 52.1472 55.4279 52.8339C55.2862 53.5205 54.6177 53.9638 53.9274 53.8221C52.6958 53.5714 49.048 53.1863 47.0135 54.3961C46.8136 54.516 46.5884 54.5742 46.3631 54.5742L46.3667 54.5814Z" fill="white"/>
<path d="M63.0793 70.1896C62.6833 70.1896 62.3018 70.0043 62.062 69.6774C61.775 69.2922 61.7278 68.7727 61.9458 68.344C63.0212 66.2222 62.3817 62.6181 62.0475 61.4082C61.8586 60.7324 62.2546 60.0312 62.934 59.8423C63.6098 59.657 64.311 60.0494 64.4999 60.7288C64.5471 60.8959 65.3755 63.9514 64.9758 66.9125C69.4192 64.3983 69.2666 57.3972 69.2557 57.0629C69.234 56.3617 69.7862 55.7731 70.4874 55.7513C71.1995 55.7259 71.7736 56.2781 71.799 56.9794C71.9334 60.9831 70.3312 68.8926 63.3118 70.1715C63.2355 70.186 63.1593 70.1933 63.083 70.1933L63.0793 70.1896Z" fill="white"/>
<path d="M57.7748 66.0987C57.4551 66.0987 57.139 65.9788 56.8956 65.7463L50.8463 59.9549C50.3377 59.4681 50.3231 58.6652 50.8063 58.1565C51.2932 57.6479 52.0961 57.6333 52.6048 58.1166L58.0037 63.2866C59.4206 62.5636 62.3054 61.0849 63.1955 60.5363C76.2896 52.4742 93.064 35.9468 95.2621 33.7596C95.7453 31.8704 98.0996 22.0426 96.0941 16.7926C95.8434 16.135 96.1704 15.4011 96.828 15.1504C97.4856 14.8997 98.2195 15.2267 98.4702 15.8843C100.984 22.4604 97.769 34.2574 97.6309 34.7551C97.5728 34.9658 97.4602 35.1584 97.3076 35.311C97.1223 35.4963 78.7529 53.9456 64.5289 62.7016C63.2464 63.49 58.5487 65.8625 58.3489 65.9642C58.1672 66.0551 57.971 66.1023 57.7748 66.1023V66.0987Z" fill="white"/>
<path d="M59.7512 59.3809C59.4388 59.3809 59.13 59.2683 58.8829 59.0394L53.5203 54.0292C53.008 53.5496 52.979 52.7467 53.4585 52.2308C53.9381 51.7185 54.7411 51.6894 55.257 52.169L60.6196 57.1792C61.1319 57.6588 61.1609 58.4617 60.6813 58.9776C60.4306 59.2465 60.0928 59.3809 59.7512 59.3809Z" fill="white"/>
<path d="M96.3412 35.7651C96.0288 35.7651 95.72 35.6525 95.4729 35.4236L78.1971 19.2922C77.6848 18.8127 77.6557 18.0097 78.1353 17.4938C78.6149 16.9815 79.4178 16.9525 79.9337 17.4321L97.2096 33.5634C97.7218 34.043 97.7509 34.846 97.2713 35.3619C97.0206 35.6307 96.6828 35.7651 96.3412 35.7651Z" fill="white"/>
<path d="M94.1396 28.8621C94.0779 28.8621 94.0125 28.8584 93.9471 28.8475C93.2531 28.7422 92.7772 28.0955 92.8789 27.3979C92.8789 27.3833 93.0969 25.9664 93.3294 23.7356C93.4021 23.038 94.0306 22.5294 94.7246 22.6021C95.4222 22.6747 95.9308 23.2996 95.8581 23.9972C95.6184 26.2934 95.404 27.7176 95.3931 27.7794C95.2986 28.4079 94.7537 28.8584 94.136 28.8584L94.1396 28.8621Z" fill="white"/>
<path d="M94.67 21.4976C94.2885 21.4976 93.9398 21.3268 93.7072 21.0543C93.5401 20.8727 93.4129 20.6256 93.373 20.2986C93.2894 19.601 93.7835 18.9689 94.4811 18.8817C94.8699 18.8344 95.2404 18.9689 95.5057 19.2196C95.7309 19.4194 95.909 19.7173 95.9417 20.1351C95.9925 20.8363 95.4657 21.4431 94.7645 21.4976C94.7318 21.4976 94.7027 21.4976 94.67 21.4976Z" fill="white"/>
</g>
<defs>
<clipPath id="clip0_25_1897">
<rect width="100" height="104.334" fill="white"/>
</clipPath>
</defs>
</svg>
