<svg xmlns="http://www.w3.org/2000/svg" width="100" height="105" fill="none" viewBox="0 0 100 105"><g clip-path="url(#a)"><path fill="#63a566" d="M49.659 62.393c-.193 0-.386-.044-.567-.135a6 6 0 0 1-.523-.29c-1.167-.727-1.595-1.744-1.973-2.638-.127-.298-.244-.581-.389-.854-.621-1.173-1.097-1.816-1.977-2.078-.94-.283-1.925-.414-2.971-.552-.669-.091-1.36-.182-2.05-.316-4.007-.785-6.797-2.064-8.785-4.03-1.14-1.13-2.72-3.713-2.096-5.838.196-.665.796-1.838 2.605-2.22 1.086-.229 2.11-.203 3.012-.182 1.257.033 2.249.055 3.223-.505a34 34 0 0 1 1.002-.552c1.25-.672 2.33-1.257 3.045-2.26.207-.287.37-.675.56-1.122.42-.989.944-2.22 2.303-3.415 1.268-1.112 3.124-1.82 4.618-2.387l.345-.131c.69-.266 1.184-.64 1.348-1.025.058-.134.12-.36-.037-.737-.065-.164-.272-.662-1.155-.923-1.41-.414-3.459.043-4.418.712-.08.054-.156.113-.232.167-.614.44-1.374.985-2.573.96-1.279-.026-2.03-.626-2.434-1.12-1.34-1.646-.796-4.534-.538-5.922l.026-.13c-.178-.113-.41-.212-.654-.32a11 11 0 0 1-.523-.237c-1.367-.672-2.358-.922-3.42-.868-.537.025-1.093.116-1.678.21-.785.128-1.595.266-2.46.251a1.273 1.273 0 0 1-1.264-1.278 1.274 1.274 0 0 1 1.272-1.265h.047c.636 0 1.297-.105 1.998-.218.629-.101 1.28-.207 1.959-.24 1.892-.098 3.422.516 4.668 1.127.135.065.276.127.415.189.377.167.81.352 1.22.65 1.137.825 1.087 1.62.927 2.434l-.033.164c-.389 2.067-.385 3.364.01 3.847.048.058.143.175.513.182.338.007.53-.12 1.04-.483a8 8 0 0 1 .26-.186c1.49-1.039 4.364-1.718 6.591-1.064 1.345.396 2.311 1.224 2.79 2.398.379.923.386 1.864.019 2.71-.447 1.04-1.406 1.864-2.772 2.39l-.349.135c-1.3.498-2.921 1.112-3.844 1.922-.926.814-1.275 1.632-1.642 2.5-.229.538-.465 1.09-.832 1.606-1.061 1.486-2.507 2.267-3.906 3.019q-.469.253-.944.52c-1.592.915-3.165.879-4.553.842-.84-.022-1.628-.04-2.427.127-.588.124-.657.353-.686.447-.218.738.497 2.377 1.442 3.314 1.613 1.598 3.993 2.66 7.484 3.342.614.12 1.236.204 1.897.291 1.097.145 2.234.298 3.364.636 1.9.567 2.798 2.016 3.495 3.328.197.374.35.734.483 1.053.324.767.516 1.181.978 1.468.105.066.207.12.312.175a1.27 1.27 0 0 1-.567 2.409zM42.86 88.737c-.628 0-1.147-.334-1.398-.498-1.344-.864-2.256-1.773-2.867-2.852a1.273 1.273 0 0 1 .48-1.733 1.273 1.273 0 0 1 1.733.48c.36.636.894 1.184 1.708 1.751.156-.432.269-.876.323-1.304.24-1.882.603-3.565 2.587-5.043.269-.2.548-.356.792-.49.142-.08.287-.157.421-.248.454-.301.745-.7 1.007-1.37a41 41 0 0 1 .992-2.288c.29-.64 1.046-.92 1.686-.625.639.294.919 1.046.624 1.686-.33.723-.65 1.431-.933 2.154-.45 1.152-1.076 1.966-1.966 2.561a8 8 0 0 1-.6.356 5 5 0 0 0-.504.306c-1.094.817-1.356 1.547-1.584 3.328a9 9 0 0 1-.662 2.361c-.149.342-.497 1.145-1.344 1.4a1.7 1.7 0 0 1-.498.072zm-3.963-11.989c-.65 0-1.206-.495-1.264-1.156a7 7 0 0 0-.073-.552c-.2-1.123-.4-1.926-.647-2.616a1.271 1.271 0 1 1 2.394-.861c.298.828.53 1.762.756 3.026q.065.36.102.767a1.27 1.27 0 0 1-1.152 1.38q-.061.005-.116.004zm-2.173-6.038c-.388 0-.773-.179-1.02-.517-.502-.675-.295-1.34.032-1.704.047-.05.33-.345.774-.407.44-.094.912.048 1.224.407.763.883.15 1.664.08 1.748a1.32 1.32 0 0 1-.894.45q-.096.016-.192.015zm-2.39-2.617c-.32 0-.64-.12-.887-.36l-.065-.061c-1.864-1.81-4.414-4.29-1.617-7.437.476-.534.687-1.214.574-1.86-.123-.724-.621-1.345-1.439-1.799a1.276 1.276 0 0 1-.497-1.73 1.276 1.276 0 0 1 1.729-.497c1.497.828 2.46 2.104 2.714 3.597.24 1.413-.189 2.863-1.18 3.978-1.029 1.156-.833 1.668 1.489 3.924l.065.062a1.27 1.27 0 0 1-.886 2.183m-5.82-12.698a1.3 1.3 0 0 1-.487-.098l-.306-.127c-1.115-.465-2.27-.945-3.451-1.533-1.711-.854-2.565-2.053-3.175-3.117a1.273 1.273 0 0 1 2.209-1.268c.508.886 1.06 1.587 2.103 2.103 1.101.549 2.166.992 3.295 1.46l.306.128c.646.269.955 1.014.686 1.664a1.275 1.275 0 0 1-1.173.785zm-7.874-7.012c-.374 0-.745-.163-.995-.48a1.285 1.285 0 0 1 .032-1.692 1.3 1.3 0 0 1 .694-.39c.436-.097.912.037 1.232.393.538.603.4 1.32.047 1.726-.2.233-.505.4-.846.432q-.083.012-.164.011m-2.267-2.369a1.27 1.27 0 0 1-.894-.367c-1.493-1.478-2.892-2.917-3.567-4.272a1.274 1.274 0 0 1 .566-1.708 1.277 1.277 0 0 1 1.708.567c.545 1.09 2.075 2.601 3.084 3.604a1.273 1.273 0 0 1-.897 2.176m55.69 18.421a1.276 1.276 0 0 1-1.246-1.021c-.142-.712.218-1.21.603-1.439.178-.105.4-.174.643-.178a1.276 1.276 0 0 1 1.315.817c.276.738-.065 1.312-.44 1.574a1.3 1.3 0 0 1-.726.232q-.076.009-.153.007zm-.077 11.055a1.27 1.27 0 0 1-1.239-.995 33 33 0 0 1-.617-3.779c-.135-1.286 0-2.503.181-3.847a1.272 1.272 0 0 1 2.522.334c-.156 1.18-.28 2.238-.174 3.248.12 1.145.316 2.35.57 3.488a1.273 1.273 0 0 1-1.243 1.548zm2.965 6.944a1.275 1.275 0 0 1-1.228-.945c-.178-.676-.592-1.406-1.032-2.176q-.17-.294-.334-.593a1.27 1.27 0 1 1 2.224-1.232q.156.286.32.564c.5.88 1.016 1.787 1.278 2.783a1.27 1.27 0 0 1-1.228 1.599"/><path fill="#afdcf2" d="M49.75 95.015a39.6 39.6 0 0 1-18.584-4.632 1.272 1.272 0 1 1 1.199-2.245 37.1 37.1 0 0 0 17.388 4.334c17.345 0 32.557-12.291 36.172-29.229a1.27 1.27 0 0 1 1.508-.977c.687.145 1.126.82.977 1.507-1.86 8.713-6.703 16.64-13.639 22.315a39.6 39.6 0 0 1-25.022 8.927"/><path fill="#e7a87b" d="M11.11 84.911c-.7 0-1.271-.57-1.271-1.271 0-.465.022-.956.062-1.454.221-2.674.694-5.914 3.491-10.58a1.27 1.27 0 1 1 2.18 1.309c-2.518 4.192-2.928 6.982-3.135 9.482-.037.429-.055.847-.055 1.243 0 .7-.57 1.271-1.271 1.271"/><path fill="#afdcf2" d="M25.505 86.357c-.284 0-.57-.094-.807-.287-9.203-7.546-14.482-18.692-14.482-30.584 0-21.799 17.734-39.533 39.533-39.533.788 0 1.584.022 2.365.07a1.272 1.272 0 0 1-.149 2.539 38 38 0 0 0-2.216-.065c-20.397 0-36.99 16.592-36.99 36.99 0 11.124 4.942 21.555 13.552 28.614a1.274 1.274 0 0 1-.806 2.256"/><path fill="#d77599" d="M66.35 102.674a.754.754 0 0 1-.753.752.751.751 0 1 1 .752-.752"/><path fill="#d77599" d="M65.597 104.334c-.915 0-1.66-.744-1.66-1.66s.745-1.66 1.66-1.66a1.661 1.661 0 0 1 0 3.32m0-1.816a.155.155 0 0 0-.156.156c0 .087.07.156.156.156a.155.155 0 0 0 .157-.156.155.155 0 0 0-.157-.156"/><path fill="#e7a87b" d="M11.368 87.832a1.27 1.27 0 0 1-1.21-.879c-.178-.548 0-.955.138-1.166a1.272 1.272 0 0 1 2.358.287 1.34 1.34 0 0 1-.156 1.075 1.26 1.26 0 0 1-.737.622q-.197.063-.393.061m1.668 2.9c-.338 0-.676-.135-.927-.4a1.5 1.5 0 0 1-.207-.247c-.4-.556-.298-1.348.25-1.766a1.26 1.26 0 0 1 1.792.251c.007.007.01.015.018.018a1.27 1.27 0 0 1-.926 2.144m2.728 1.704q-.203.001-.406-.07c-.644-.217-.887-.613-.974-.937a1.27 1.27 0 0 1 .061-1.064 1.26 1.26 0 0 1 1.704-.523c.273.145.455.316.575.486a1.273 1.273 0 0 1-.963 2.104zm3.532.516c-.9 0-1.242-.473-1.37-.836a1.3 1.3 0 0 1-.094-.621 1.255 1.255 0 0 1 1.377-1.134c.174.018.327.055.458.102a1.271 1.271 0 0 1-.367 2.489h-.008zm2.976-.276a1.272 1.272 0 0 1-.164-2.537q.066-.01.13-.014a1.271 1.271 0 0 1 .403 2.51l-.075.015q-.107.017-.21.018h-.085zm2.898-.644a1.272 1.272 0 0 1-.282-2.51c14.634-3.354 26.649-18.773 31.14-25.25a1.271 1.271 0 1 1 2.089 1.449C52.333 74.066 40.4 88.577 25.458 92a1.3 1.3 0 0 1-.283.032z"/><path fill="#e7a87b" d="M52.035 58.262a1.233 1.233 0 0 0-1.668.523q-.002.01-.014.026c-2.162 3.956-5.254 7.647-8.248 11.219-.367.436-.73.872-1.104 1.322-3.288 3.95-6.391 7.68-10.453 10.584-3.967 2.837-9.414 4.897-12.64 3.099-1.439-.803-2.075-2.925-1.944-4.509.033-.414.08-.846.164-1.286-.701-.803-.956-.952-1.399-1.907-.701 1.496-.821 2.535-.89 3.346-.196 2.347.37 5.148 2.856 6.532 1.297.723 2.71 1.014 4.134 1.014 4.898 0 9.966-3.404 11.165-4.258 4.32-3.088 7.673-7.118 10.932-11.034l1.087-1.297c3.07-3.666 6.241-7.456 8.523-11.627q.001-.005.007-.01c.008-.011.015-.03.022-.04.313-.61.08-1.377-.53-1.69z"/><path fill="#afdcf2" d="M69.732 24.263c-.233 0-.487-.066-.745-.226a1.27 1.27 0 0 1-.541-1.438 1.28 1.28 0 0 1 .425-.738c.341-.294.966-.487 1.606-.066.461.31.66.865.526 1.377a1.28 1.28 0 0 1-.421.77c-.2.175-.501.32-.85.32m-3.415-1.831c-.189 0-.382-.043-.563-.13a36.8 36.8 0 0 0-9.534-3.176 1.271 1.271 0 0 1 .465-2.5 39.3 39.3 0 0 1 10.191 3.398c.629.312.887 1.071.578 1.704a1.27 1.27 0 0 1-1.14.708zM87.829 60.51q-.062.002-.124-.006a1.276 1.276 0 0 1-1.144-1.388 38 38 0 0 0 .043-6.776 1.271 1.271 0 1 1 2.536-.211c.095 1.108.142 2.238.142 3.357 0 1.29-.062 2.594-.185 3.877a1.27 1.27 0 0 1-1.265 1.148zm-.433-10.597a1.275 1.275 0 0 1-1.25-1.046 2 2 0 0 1-.029-.226 1.271 1.271 0 0 1 2.493-.505q.033.164.043.305a1.272 1.272 0 0 1-1.257 1.472"/><path fill="#d77599" d="M79.916 94.728a1.272 1.272 0 0 1-.192-2.529c.155-.025 3.992-.693 4.272-4.396a1.275 1.275 0 0 1 1.362-1.173 1.275 1.275 0 0 1 1.174 1.362c-.345 4.59-4.353 6.398-6.424 6.718q-.098.016-.192.015z"/><path fill="#d77599" d="M90.688 94.728q-.062.002-.124-.007c-2.357-.229-6.75-1.962-6.492-6.889a1.272 1.272 0 0 1 2.54.134c-.197 3.758 4.018 4.208 4.2 4.226.697.07 1.21.69 1.144 1.388a1.27 1.27 0 0 1-1.264 1.148zm-5.78 5.526c-.69 0-1.258-.552-1.272-1.246-.073-3.466-3.946-4.33-3.986-4.338a1.273 1.273 0 0 1-.98-1.508 1.27 1.27 0 0 1 1.507-.977c2.035.432 5.908 2.405 5.998 6.772a1.27 1.27 0 0 1-1.242 1.297h-.03z"/><path fill="#d77599" d="M84.995 100.273q-.056.001-.117-.004a1.267 1.267 0 0 1-1.151-1.38c.428-4.807 4.657-6.5 6.83-6.726a1.27 1.27 0 1 1 .262 2.529c-.167.018-4.211.52-4.56 4.422a1.27 1.27 0 0 1-1.264 1.159m9.962-15.107c-.701 0-1.271-.57-1.271-1.272v-.72a1.272 1.272 0 0 1 2.543 0v.72c0 .701-.57 1.272-1.272 1.272m0-4.669c-.701 0-1.271-.57-1.271-1.272v-.719c0-.701.57-1.272 1.271-1.272s1.272.57 1.272 1.272v.72c0 .7-.57 1.271-1.272 1.271m2.693 1.977h-.72a1.273 1.273 0 0 1 0-2.543h.72a1.272 1.272 0 0 1 0 2.543m-4.67 0h-.715a1.273 1.273 0 0 1 0-2.543h.716a1.273 1.273 0 0 1 0 2.543M12.226 16.785a1.272 1.272 0 0 1-.262-2.517c.138-.03 3.55-.833 3.899-4.32a1.27 1.27 0 0 1 1.253-1.145h.011c.643 0 1.188.483 1.264 1.123.022.16.553 4.073 3.819 4.316a1.27 1.27 0 1 1-.189 2.536c-2.402-.178-3.964-1.544-4.92-3.084-1.336 1.87-3.367 2.797-4.61 3.059a1.3 1.3 0 0 1-.265.029z"/><path fill="#d77599" d="M17.149 22.075a1.27 1.27 0 0 1-1.261-1.115c-.018-.145-.538-3.71-3.877-4.164a1.27 1.27 0 0 1-1.09-1.431 1.275 1.275 0 0 1 1.432-1.09c2.256.305 3.76 1.54 4.708 2.92 1.301-1.729 3.38-2.611 4.698-2.88a1.27 1.27 0 0 1 1.497.995 1.27 1.27 0 0 1-.995 1.497c-.153.033-3.844.843-3.84 3.99 0 .671-.52 1.227-1.192 1.271h-.08zM2.801 15.852a1.4 1.4 0 1 1-1.399-1.403 1.4 1.4 0 0 1 1.399 1.403M7.662 6.5c-.701 0-1.271-.57-1.271-1.272V1.272a1.271 1.271 0 1 1 2.543 0v3.956c0 .701-.57 1.272-1.272 1.272"/><path fill="#d77599" d="M9.642 4.52H5.686a1.273 1.273 0 0 1 0-2.543h3.956c.701 0 1.272.57 1.272 1.271s-.57 1.272-1.272 1.272M4.788 35.954c-.701 0-1.271-.57-1.271-1.272v-.719c0-.701.57-1.272 1.271-1.272s1.272.57 1.272 1.272v.72c0 .7-.57 1.271-1.272 1.271m0-4.669c-.701 0-1.271-.57-1.271-1.271v-.72c0-.7.57-1.271 1.271-1.271s1.272.57 1.272 1.271v.72c0 .701-.57 1.271-1.272 1.271m2.689 1.973h-.72a1.272 1.272 0 0 1 0-2.543h.72a1.273 1.273 0 0 1 0 2.543m-4.665 0h-.72a1.272 1.272 0 0 1 0-2.543h.72a1.273 1.273 0 0 1 0 2.543m93.944 37.538c-.702 0-1.272-.57-1.272-1.271v-3.95a1.273 1.273 0 0 1 2.543 0v3.95c0 .701-.57 1.271-1.272 1.271"/><path fill="#d77599" d="M98.728 68.824h-3.95a1.273 1.273 0 0 1 0-2.543h3.95c.701 0 1.272.57 1.272 1.271s-.57 1.272-1.272 1.272"/><path fill="#fff" d="M82.168 38.181a6.04 6.04 0 0 1-4.142-1.635 6.05 6.05 0 0 1-1.925-4.229 6.03 6.03 0 0 1 1.631-4.352 6.1 6.1 0 0 1 4.44-1.93c1.544 0 3.015.582 4.142 1.635a6.077 6.077 0 0 1 .294 8.582 6.1 6.1 0 0 1-4.44 1.93m0-9.599c-.988 0-1.904.4-2.58 1.12a3.5 3.5 0 0 0-.948 2.528 3.5 3.5 0 0 0 1.12 2.46 3.5 3.5 0 0 0 2.408.948c.988 0 1.904-.4 2.58-1.119a3.534 3.534 0 0 0-.171-4.988 3.5 3.5 0 0 0-2.409-.949M70.913 48.521a4.75 4.75 0 0 1-3.256-1.282 4.774 4.774 0 0 1 3.26-8.258 4.75 4.75 0 0 1 3.255 1.282 4.78 4.78 0 0 1 .229 6.743 4.78 4.78 0 0 1-3.488 1.515m0-6.994c-.625 0-1.203.251-1.628.709a2.227 2.227 0 1 0 1.631-.709zm-7.361 15.035c-1.1 0-2.147-.415-2.954-1.167a4.3 4.3 0 0 1-1.373-3.015 4.3 4.3 0 0 1 1.162-3.103 4.35 4.35 0 0 1 3.165-1.373c1.1 0 2.147.414 2.954 1.162a4.3 4.3 0 0 1 1.373 3.016 4.3 4.3 0 0 1-1.163 3.102 4.35 4.35 0 0 1-3.164 1.374zm0-6.111c-.501 0-.963.2-1.304.566a1.78 1.78 0 0 0-.48 1.28c.015.475.218.918.567 1.242.33.308.763.48 1.217.48.501 0 .963-.2 1.304-.567a1.76 1.76 0 0 0 .48-1.28 1.76 1.76 0 0 0-.567-1.242 1.78 1.78 0 0 0-1.217-.48"/><path fill="#fff" d="M51.831 59.682a1.273 1.273 0 0 1-1.192-1.715c.07-.188 1.712-4.62 2.424-5.98 7.764-14.79 24.913-34.377 25.087-34.573.145-.164.327-.287.534-.36.487-.17 12.037-4.189 18.77-2.129a1.27 1.27 0 0 1 .842 1.588 1.27 1.27 0 0 1-1.588.843c-5.384-1.646-15.02 1.377-16.868 1.99-2.031 2.34-17.378 20.212-24.52 33.826-.531 1.006-1.832 4.44-2.29 5.678a1.27 1.27 0 0 1-1.191.832z"/><path fill="#fff" d="M74.015 32.95c-.41 0-.795-.197-1.035-.531-.392-.545-.204-1.097-.124-1.333.2-.589.796-.949 1.41-.85a1.27 1.27 0 0 1 1.065 1.253c0 .832-.567 1.46-1.32 1.46zm.186-1.41 1.064.36c.047-.215.04-.622-.236-.985l-.828.628zm-.186-1.134c-.7 0-1.224.574-1.224 1.083h1.224zm7.405 11.47a8.63 8.63 0 0 1-5.9-2.34 8.7 8.7 0 0 1-2.384-3.836 1.27 1.27 0 0 1 .854-1.584 1.27 1.27 0 0 1 1.584.853 6.13 6.13 0 0 0 1.686 2.71 6.09 6.09 0 0 0 6.79 1.062 1.27 1.27 0 0 1 1.693.606 1.27 1.27 0 0 1-.606 1.694 8.7 8.7 0 0 1-3.717.839zM46.367 54.581a1.267 1.267 0 0 1-1.264-1.413c.795-7.088 8.574-9.228 12.578-9.37a1.27 1.27 0 0 1 .09 2.54c-.337.014-7.331.338-9.533 4.944 2.925-.603 6.035.019 6.202.051a1.271 1.271 0 0 1-.513 2.49c-1.231-.252-4.879-.637-6.913.573-.2.12-.426.178-.65.178zM63.08 70.19a1.273 1.273 0 0 1-1.134-1.846c1.075-2.122.436-5.726.102-6.936a1.27 1.27 0 0 1 .886-1.566 1.274 1.274 0 0 1 1.566.887c.047.167.876 3.222.476 6.183 4.443-2.514 4.29-9.515 4.28-9.85a1.274 1.274 0 0 1 1.231-1.31 1.264 1.264 0 0 1 1.312 1.227c.134 4.004-1.468 11.914-8.487 13.192a1.2 1.2 0 0 1-.229.022z"/><path fill="#fff" d="M57.775 66.099c-.32 0-.636-.12-.88-.353l-6.049-5.791a1.273 1.273 0 0 1-.04-1.798 1.273 1.273 0 0 1 1.799-.04l5.399 5.17c1.417-.723 4.301-2.202 5.192-2.75 13.094-8.063 29.868-24.59 32.066-26.777.483-1.89 2.838-11.717.832-16.967a1.27 1.27 0 0 1 .734-1.643 1.27 1.27 0 0 1 1.642.734c2.514 6.576-.701 18.373-.84 18.871-.057.21-.17.403-.322.556-.186.185-18.555 18.635-32.78 27.39-1.282.789-5.98 3.161-6.18 3.263-.18.091-.377.138-.573.138z"/><path fill="#fff" d="M59.751 59.38c-.312 0-.621-.112-.868-.34l-5.363-5.01a1.274 1.274 0 0 1 1.737-1.861l5.363 5.01a1.274 1.274 0 0 1-.869 2.202m36.59-23.616c-.312 0-.621-.112-.868-.341L78.197 19.292a1.274 1.274 0 0 1 1.737-1.86L97.21 33.563a1.274 1.274 0 0 1-.869 2.202m-2.201-6.903q-.094 0-.193-.014a1.276 1.276 0 0 1-1.068-1.45c0-.015.218-1.432.45-3.662a1.272 1.272 0 0 1 2.529.262 86 86 0 0 1-.465 3.781 1.27 1.27 0 0 1-1.257 1.08zm.53-7.364c-.382 0-.73-.171-.963-.444a1.33 1.33 0 0 1-.334-.755 1.274 1.274 0 0 1 1.108-1.417c.389-.048.76.087 1.025.338.225.2.403.497.436.915a1.276 1.276 0 0 1-1.177 1.363z"/></g><defs><clipPath id="a"><path fill="#fff" d="M0 0h100v104.334H0z"/></clipPath></defs></svg>