<svg xmlns="http://www.w3.org/2000/svg" width="100" height="93" fill="none" viewBox="0 0 100 93"><g clip-path="url(#a)"><path fill="#a0a2f8" d="M24.489 32.066c-1.289 0-2.583-.544-3.512-1.905-1.11-1.63-1.161-4.094.674-5.396.904-.639 2.338-.728 3.48-.213 1.012.455 1.658 1.314 1.772 2.364.083.757-.283 1.508-.98 2.004-.661.47-1.45.582-2.06.293-.545-.258-.882-.783-.927-1.438a1.11 1.11 0 0 1 1.037-1.184q.154-.01.303.02l-.058-.03c-.486-.219-1.075-.145-1.282 0-.71.503-.614 1.598-.12 2.323 1.011 1.486 2.564.82 3.012.582.999-.531 1.813-1.628 1.447-2.545a1.114 1.114 0 0 1 2.068-.827c.869 2.18-.585 4.333-2.472 5.335a5.1 5.1 0 0 1-2.389.614zm-10.905-3.413q-.12.001-.239-.013c-.951-.108-1.648-.71-1.918-1.651-.375-1.31.168-3.152 1.164-3.945.452-.36 1.1-.308 1.492.099q.188-.058.395-.044c.74.05 1.342.451 1.65 1.107.503 1.062.087 2.446-.511 3.282-.538.751-1.27 1.168-2.033 1.168zm.172-3.54c-.191.42-.3 1.074-.179 1.307.07-.039.23-.185.366-.459.134-.267.178-.518.185-.674a1.1 1.1 0 0 1-.373-.175m3.671 10.6c-.71 0-1.33-.258-1.746-.729-.283-.318-.598-.874-.496-1.73.143-1.203 1.151-2.043 2.452-2.043s2.323.872 2.405 2.068a2.1 2.1 0 0 1-.572 1.584c-.497.532-1.26.847-2.046.847zm-.006-2.227a.8.8 0 0 0 .258-.045.53.53 0 0 0-.258.045m-8.821-.137a1.11 1.11 0 0 1-1.044-.728 1.6 1.6 0 0 1-.21-.547 1.113 1.113 0 0 1 2.157-.544c.06.098.118.225.169.4a1.11 1.11 0 0 1-1.069 1.42zm3.394 6.432c-.328 0-.652-.143-.872-.42l-.229-.298c-.85-1.174-1.39-2.237-2.017-3.468l-.101-.2a1.115 1.115 0 0 1 1.985-1.012l.101.2c.608 1.197 1.088 2.138 1.836 3.172.054.073.111.15.169.22a1.116 1.116 0 0 1-.872 1.807"/><path fill="#a0a2f8" d="M15.32 43.417c-.372 0-.731-.185-.941-.519-.356-.563-.802-1.04-1.362-1.581a1.115 1.115 0 0 1 1.55-1.6c.359.35.728.722 1.075 1.145q.508-.284 1.04-.588c1.785-1.018 3.63-2.071 5.656-2.67 1.626-.48 3.067-.422 4.67.185 1.32.5 1.915 1.377 2.411 2.185q.257-.244.51-.48c.696-.652 1.355-1.266 1.825-1.982.637-.967.92-2.131 1.219-3.362.073-.296.143-.592.22-.888.81-3.114.96-5.462-.66-7.94-2.815.312-4.119-1.559-4.94-3.276-.7-1.467-1.033-1.445-3.203-1.298l-.13.01c-1.187.079-2.453-.294-3.678-.656-.907-.267-1.845-.544-2.554-.557-1.314-.029-2.507.169-3.547.58a1.112 1.112 0 1 1-.818-2.072c1.314-.518 2.803-.767 4.41-.735 1.01.02 2.092.34 3.142.65 1.037.305 2.11.62 2.898.569l.13-.01c2.326-.156 4.009-.27 5.36 2.56.87 1.817 1.642 2.288 3.192 1.938a1.11 1.11 0 0 1 1.135.417c2.545 3.375 2.408 6.591 1.419 10.383q-.109.425-.213.85c-.33 1.361-.675 2.77-1.524 4.062-.617.938-1.403 1.673-2.163 2.386-.49.458-.954.894-1.343 1.352a1.13 1.13 0 0 1-.874.394 1.1 1.1 0 0 1-.856-.432 12 12 0 0 1-.76-1.142c-.474-.783-.732-1.17-1.397-1.422-1.148-.436-2.093-.474-3.251-.13-1.778.524-3.509 1.514-5.185 2.468-.64.366-1.302.744-1.95 1.085a1.1 1.1 0 0 1-.519.127zM8.313 29.932h-.067a1.114 1.114 0 0 1-1.047-1.177c.083-1.41.433-2.386.805-3.417.172-.474.347-.964.518-1.552.471-1.594 1.267-2.934 2.36-3.977a1.115 1.115 0 0 1 1.537 1.613c-.808.773-1.402 1.781-1.762 2.997-.19.649-.388 1.192-.56 1.673-.356.99-.61 1.705-.677 2.796a1.11 1.11 0 0 1-1.11 1.047z"/><path fill="#a0a2f8" d="M16.074 43.973a1.114 1.114 0 0 1-.553-2.08c2.287-1.308 4.912-1.05 7.227-.824 1.028.102 2.036.302 3.01.496l.35.07c.9.178 1.527-.19 2.134-.547l.067-.038a1.11 1.11 0 0 1 1.524.397 1.11 1.11 0 0 1-.398 1.524l-.063.038c-.735.433-1.966 1.155-3.697.815l-.353-.07c-.92-.185-1.874-.372-2.79-.465-2.08-.203-4.23-.416-5.904.541a1.1 1.1 0 0 1-.554.147z"/><path fill="#e7a87b" d="M80.376 18.203c-.376 0-.735-.191-.942-.519-.14-.223-.35-.42-.592-.652-.251-.242-.537-.512-.792-.862-.397-.547-1.422-2.377-1.489-3.449-.086-1.383.102-1.857.672-2.5.133-.15.27-.305.445-.588q.257-.424.442-.742c.82-1.393 1.161-1.851 2.819-2.207.544-.115 1.285-.032 1.969.063.369.051.738.108.97.092q.101-.007.207-.006c1.027 0 2.35.519 2.691 1.355.09.217.111.446.076.662l.07-.045a1.114 1.114 0 0 1 1.483.27c1.256 1.668 1.072 3.271.684 4.757a12 12 0 0 0-.083.334c-.14.575-.299 1.228-.703 1.842-.293.445-.652.782-.973 1.081a6 6 0 0 0-.487.49c-.356.42-.967.519-1.435.23a1.11 1.11 0 0 1-.448-1.36c.08-.305-.016-1.055-.191-1.24-.56-.216-1.712-.534-2.125-.534-1.298.226-1.266.607-1.184 1.625.023.296.048.598.02.897a1.11 1.11 0 0 1-1.108 1.002zm-1.591-6.372c-.01.054-.032.238 0 .75.02.274.369 1.076.716 1.706.36-.79 1.139-1.521 2.777-1.807q.17-.03.369-.029c.967 0 2.608.56 2.962.7.334.13.773.407 1.113.983q.064-.23.124-.49.044-.187.092-.369c.245-.939.287-1.559.102-2.11q-.353.09-.697.09c-.89 0-1.628-.455-1.927-1.183a1.75 1.75 0 0 1-.099-.987 1.3 1.3 0 0 0-.29-.019c-.423.029-.941-.041-1.428-.111-.36-.05-.731-.105-1.005-.105a1 1 0 0 0-.185.013q-.781.169-1.368 1.16c-.13.223-.28.478-.46.77a5.6 5.6 0 0 1-.681.907 2 2 0 0 0-.112.13z"/><path fill="#e7a87b" d="M80.68 18.425a1.115 1.115 0 0 1-.553-2.08c1.104-.633 2.326-.515 3.309-.417.445.045.884.13 1.272.21l.143.029c.099.019.156 0 .398-.144l.029-.015a1.112 1.112 0 1 1 1.126 1.921c-.353.207-1.037.608-1.982.423l-.15-.029c-.353-.07-.719-.143-1.056-.175-.735-.073-1.495-.146-1.982.134a1.1 1.1 0 0 1-.553.146z"/><path fill="#fff" d="M96.202 30.339c-.188 0-.379-.048-.55-.146-.055-.032-.166-.061-.287-.096a4 4 0 0 1-.646-.229 7 7 0 0 1-1.12-.684c-.868-.655-1.056-1.565-1.205-2.297l-.026-.117c-.257-1.247.335-2.405 1.547-3.026.286-.146.582-.206.843-.26.095-.02.238-.052.299-.07.426-.265 1.151-.7 2.077-.093.296-.14.642-.146.948-.006 1.161.537 1.524 1.466 1.727 2.303l.038.156c.083.315.182.703.14 1.167-.028.328-.124.608-.2.834l-.05.15a1.114 1.114 0 0 1-2.126-.669q.029-.1.067-.197c.038-.118.086-.251.092-.318.007-.08-.038-.251-.08-.407l-.047-.194c-.06-.252-.115-.414-.178-.525-.366.073-.808.028-1.305-.264-.337.19-.674.26-.95.318a3 3 0 0 0-.296.07c-.44.226-.392.458-.366.585l.025.124c.115.567.185.83.363.964.226.169.5.337.754.461.054.026.156.054.264.086.092.026.19.051.296.09.41.031.785.289.948.696l.028.073c.175.44.054.942-.302 1.254a1.1 1.1 0 0 1-.732.273z"/><path fill="#fff" d="M96.387 30.368a1.11 1.11 0 0 1-.942-1.702c.433-.69 1.116-.974 1.616-1.18a7 7 0 0 1 .662-.227l.066-.022a.5.5 0 0 0-.165.096l1.9 1.139c-.122.197-.424.693-1.089.897l-.07.022c-.165.05-.324.098-.455.153-.171.07-.528.219-.582.305a1.11 1.11 0 0 1-.945.522z"/><path fill="#e7a87b" d="M7.374 60.337h-5.71a1.11 1.11 0 0 1-1.085-1.355l.913-4.091c.054-.248.194-.47.395-.63l3.426-2.72a1.11 1.11 0 0 1 1.183-.127l2.742 1.349c.471.232.716.76.589 1.27l-1.371 5.461c-.124.496-.57.843-1.079.843zM3.051 58.11h3.452l.941-3.744-1.3-.64-2.568 2.037z"/><path fill="#a0a2f8" d="M3.025 47.23q-.24 0-.47-.104l-1.913-.89a1.115 1.115 0 0 1-.617-1.258l.866-3.788c.114-.496.55-.856 1.062-.865l3.938-.086a1.115 1.115 0 0 1 1.117 1.333l-.57 2.834c-.05.251-.184.474-.381.636L3.735 46.97a1.1 1.1 0 0 1-.713.258zm-.627-2.633.459.213 1.479-1.225.22-1.085-1.684.035-.47 2.065z"/><path fill="#fff" d="M43.016 56.329c-.207 0-.414-.057-.598-.175l-4.19-2.672a1.11 1.11 0 0 1-.436-1.349l1.594-4.018c.223-.56.846-.84 1.413-.636l3.168 1.142a1.1 1.1 0 0 1 .668.668l1.32 3.63c.147.404.048.856-.254 1.164l-1.896 1.918c-.216.22-.503.331-.792.331zM40.2 52.1l2.656 1.693.767-.777-.9-2.478-1.664-.598zm-13.819 4.375-1.61 1.629-2.376.197-1.177-2.465 1.352-3.407 2.688.97zm5.86-10.72.986.843.207 1.333-1.346.766-1.982-.626.44-1.56z"/><path fill="#afdcf2" d="M66.96 66.801c-1.577 0-2.668-.327-3.343-.999-.232-.232-.43-.53-.64-.843-.158-.241-.445-.67-.616-.81H62.1l-.293-.21c-.044-.032-.165-.08-.274-.125-.362-.143-.913-.36-1.288-.964-.477-.77-.378-1.61-.302-2.223.038-.325.083-.694.01-.846-.172-.357-.586-.484-1.486-.69-.735-.17-1.572-.36-2.275-.92-1.09-.872-3.648-2.917-2.691-5.666.162-.468.417-.83.64-1.148.178-.258.334-.477.384-.675.147-.55.099-1.018.032-1.66q-.03-.272-.054-.563c-.067-.83.105-1.699.258-2.466.038-.2.08-.397.111-.585.356-2.042.967-4.33 2.803-5.812.416-.337.836-.579 1.209-.789.27-.153.524-.299.757-.47.623-.456 1.199-1.483 1.253-2.244.02-.267-.029-.575-.083-.903-.108-.687-.241-1.543.166-2.481.84-1.94 3.25-2.72 5.013-3.29.366-.117.713-.229 1-.337l4.058-1.52c.78-.293 1.954-.681 3.182-.681.798 0 1.546.162 2.214.487.785.378 1.52.849 2.23 1.304.334.213.668.43 1.002.63l.264.159 2.624 4.918q.175.33.344.668c.366.728.712 1.419 1.209 1.905 1.31 1.286 1.396 2.479 1.498 3.862q.014.206.032.427c.105 1.313.365 2.669.649 4.059.086.426.464.728 1.072 1.186.264.2.537.408.801.653 1.171 1.09 1.744 1.698 1.925 3.566.124 1.272.28 2.856-.71 4.256-.12.172-.25.395-.388.633-.295.51-.63 1.085-1.087 1.502l-.026.022c-.436.388-.97.64-1.441.859-.178.083-.35.162-.503.248q-.45.246-.893.483c-1.034.55-2.011 1.073-2.876 1.795-1.149.96-2.574 2.16-4.403 2.52l-.767.149c-2.3.439-3.82.728-5.503 2.258-1.145 1.04-2.523 1.257-3.458 1.327a15 15 0 0 1-1.082.044zm-4.129-4.845c.955.191 1.553 1.092 2.004 1.772.118.178.28.423.357.5.035.035.388.35 1.772.35.28 0 .579-.013.913-.038.983-.077 1.638-.31 2.131-.758 2.144-1.95 4.202-2.34 6.582-2.796q.367-.07.754-.146c1.266-.252 2.35-1.161 3.404-2.043 1.04-.871 2.166-1.472 3.257-2.054.287-.153.573-.306.862-.468.204-.111.42-.213.63-.312.337-.159.716-.337.907-.506.213-.194.455-.614.671-.983.156-.267.318-.547.496-.798.478-.675.436-1.489.312-2.755-.108-1.114-.235-1.231-1.228-2.154a8 8 0 0 0-.623-.502c-.735-.557-1.651-1.247-1.91-2.52-.298-1.46-.572-2.888-.686-4.326q-.019-.23-.032-.442c-.09-1.228-.124-1.737-.834-2.43-.763-.748-1.23-1.677-1.641-2.498-.105-.207-.207-.417-.318-.62l-2.335-4.378q-.396-.243-.792-.502c-.684-.44-1.333-.853-1.998-1.174-.89-.43-1.972-.356-3.646.27l-4.059 1.52c-.334.125-.703.246-1.097.373-1.359.44-3.216 1.037-3.655 2.052-.144.33-.099.674-.01 1.253.064.417.14.888.102 1.41-.099 1.412-1.012 3.047-2.166 3.887-.331.242-.653.423-.961.601-.328.188-.636.363-.916.589-1.257 1.018-1.709 2.745-2.008 4.463-.035.207-.08.42-.12.636-.131.655-.265 1.333-.223 1.858.012.175.032.343.047.509.077.744.156 1.514-.095 2.456-.153.579-.464 1.024-.713 1.38-.162.233-.299.43-.362.605-.363 1.046.528 2.033 1.982 3.194.305.245.827.362 1.377.49.986.226 2.338.534 2.994 1.892.359.742.27 1.483.197 2.08-.029.249-.073.618-.029.755.054.028.153.067.226.095.143.057.305.121.477.213z"/><path fill="#afdcf2" d="M78.288 57.939c-.887 0-1.82-.236-2.507-.697-.922-.62-1.317-1.603-1.056-2.63a1.113 1.113 0 1 1 2.157.547c-.019.079-.028.117.14.232.608.41 1.75.375 2.01.184.204-.15.497-.474.56-.598.039-.105.039-.16.042-.29.016-.572.15-1.04.776-1.603.264-.238.379-.378.43-.455a1.6 1.6 0 0 0-.261-.257c-.573-.471-1.839-.452-2.548-.124a1.113 1.113 0 1 1-.942-2.017c1.358-.633 3.537-.7 4.902.42.729.598 1.091 1.227 1.107 1.924.023.945-.626 1.651-1.196 2.163l-.041.038c-.007.21-.023.55-.191 1.003-.264.703-1.037 1.387-1.314 1.59-.515.382-1.276.57-2.068.57m1.384-9.964q-.249 0-.49-.06c-.77-.194-1.578-.948-1.326-2.437a1.11 1.11 0 0 1 1.097-.926 1.1 1.1 0 0 1 .105-1.339c.738-.814 1.59-.757 2.141-.436 1.05.614 1.394 2.405 1.1 3.264-.375 1.114-1.542 1.931-2.63 1.931zm.217-2.914c.092.14.15.3.171.471a.6.6 0 0 0 .121-.168 1.2 1.2 0 0 0-.038-.331q-.126.028-.251.028zm-5.386-5.481a1.114 1.114 0 0 1-.69-1.988c.257-.204.499-.356.69-.48.42-.27.534-.34.661-.681.214-.573.134-1.19-.06-1.432-.041-.05-.13-.162-.487-.108-1.011.15-1.167.426-1.167.43a1.114 1.114 0 0 1-2.02-.933c.42-.91 1.383-1.482 2.863-1.701 1.037-.153 1.94.168 2.541.91.723.89.888 2.34.417 3.607-.385 1.037-1.03 1.45-1.546 1.781-.175.111-.34.217-.512.353a1.1 1.1 0 0 1-.69.239zm-2.911 7.505c-.308 0-.598-.115-.82-.328-.29-.28-.417-.684-.35-1.114.066-.41.35-.731.715-.865.251-.302.353-.445.37-.608.006-.053-.017-.108-.128-.334-.108-.219-.258-.515-.33-.893a3.2 3.2 0 0 1-.033-.917q0-.026.003-.05a1.113 1.113 0 0 1-1.25-1.84c.84-.635 2.138-.537 2.892.217.662.662.608 1.422.576 1.832-.01.13-.02.255-.003.325.016.086.07.194.14.334.165.334.416.837.353 1.533-.083.862-.541 1.42-.875 1.83-.108.13-.207.25-.28.365a1.1 1.1 0 0 1-.71.487q-.134.03-.263.029zm-5.554-4.699c-1.667 0-1.807-1.957-1.883-3.006-.02-.245-.045-.617-.077-.729-.385-1.11-1.454-4.829 1.025-5.824.178-.07.369-.109.569-.109 1.41 0 3.242 2.08 3.321 2.17 1.161 1.33 1.371 2.958.576 4.473-.461.874-1.406 1.962-2.195 2.529-.465.334-.9.496-1.333.496zm-.22-7.326c-.136.413-.095 1.542.366 2.872.124.36.156.792.19 1.292.014.153.026.366.049.57.445-.414.935-1.019 1.174-1.467.369-.7.28-1.327-.284-1.97-.365-.42-1.069-1.03-1.492-1.297zm-6.435 21.135c-.433 0-.869-.178-1.234-.525-.637-.607-1.798-2.373-1.591-3.709.102-.649.398-1.17.662-1.629.206-.359.385-.67.43-.97.053-.363.282-.674.61-.833.789-.388 1.406-.185 1.702-.029 1.011.528 1.215 1.883 1.314 2.532a1.11 1.11 0 0 1-.738 1.219c.391.102.712.416.808.836.21.936-.217 2.351-1.161 2.889a1.6 1.6 0 0 1-.805.216zm-.274-4.68c-.172.303-.311.564-.346.787-.013.18.152.607.385 1.014 0-.464.298-.887.75-1.043a1.11 1.11 0 0 1-.786-.76zm8.819 9.99c-.675 0-1.35-.213-2.008-.646a1.114 1.114 0 1 1 1.222-1.864c.493.324 1.075.509 1.95-.318q.608-.574.557-.92v-.012a2.6 2.6 0 0 1-.643-.474 1.115 1.115 0 0 1 1.578-1.572.5.5 0 0 0 .172.111c.55.27.945.646 1.094 1.607.153.996-.26 1.966-1.231 2.879-.85.801-1.766 1.206-2.691 1.206zm-5.644-15.652h-.019c-.674-.006-1.416-.464-1.559-1.47a1.12 1.12 0 0 1 .178-.779 1.65 1.65 0 0 1-.044-1.266c.26-.687.935-1.094 1.686-1.015.582.064 1.1.36 1.466.837.392.515.56 1.203.455 1.839-.162.976-1.19 1.854-2.163 1.854m-4.114 2.135c-.343 0-.84-.124-1.3-.69a1.112 1.112 0 0 1 .935-1.81q.076-.283.169-.703c.038-.172.066-.306.089-.373q.041-.146.07-.26a1.115 1.115 0 0 1-.179-2.199c1.04-.235 1.642.127 1.963.474.538.58.63 1.467.274 2.637-.007.032-.023.099-.038.185-.207.97-.519 2.433-1.658 2.707-.076.02-.187.038-.324.038zm6.306 1.556c-.162 0-.318-.026-.461-.07-.773-.249-1.304-1.12-1.158-1.906.13-.716.77-1.187 1.543-1.142.378.019.7.226.887.525a1.107 1.107 0 0 1 .684 1.524c-.372.795-.967 1.069-1.492 1.069z"/><path fill="#afdcf2" d="M68.49 50.59a1.112 1.112 0 0 1-.153-2.214c.28-.038.494-.09.672-.153l.05-.019c.087-.032.189-.067.262-.098a1 1 0 0 0 .013-.096c.057-.458 0-1.1-.134-1.457-.076-.213-.33-.458-.601-.719-.474-.461-1.07-1.037-1.267-1.947-.216-.992.08-1.444.494-1.93l.184-.223a1.114 1.114 0 0 1 1.756 1.368c-.089.114-.169.206-.238.29q-.011.008-.016.018c.057.255.327.519.642.824.395.385.888.862 1.14 1.55.25.683.352 1.689.25 2.5-.18 1.453-1.002 1.75-1.727 2.013l-.05.02a5.4 5.4 0 0 1-1.124.264c-.05.006-.105.01-.156.01zm-4.402 14.777c-.614 0-1.114-.5-1.114-1.114 0-1.037-.241-1.527-.728-2.507q-.1-.198-.204-.416c-.48-.986-.646-1.985-.808-2.95-.032-.197-.067-.39-.102-.588-.26-1.434-.152-2.669.36-4.132.28-.795.674-1.365 1.215-1.743.535-.379 1.1-.414 1.473-.436a3 3 0 0 0 .299-.029 1.114 1.114 0 0 1 .487 2.173c-.239.054-.452.067-.643.08-.114.006-.29.019-.34.038-.137.095-.27.318-.388.655-.382 1.085-.459 1.953-.27 2.997q.056.31.104.62c.14.846.274 1.645.614 2.341q.102.21.197.401c.538 1.082.961 1.937.961 3.496 0 .614-.5 1.114-1.113 1.114m15.699-24.254c-.553 0-1.142-.32-1.419-1.123a1.113 1.113 0 0 1 .866-1.46 1.11 1.11 0 0 1 .553-1.845c1.11-.258 1.826.395 2.02 1.114.286 1.069-.47 2.907-1.61 3.254-.13.041-.27.06-.41.06m4.336 11.517a1.39 1.39 0 0 1-1.091-.545 1.11 1.11 0 0 1 .194-1.562c.095-.076.2-.13.308-.172a1.11 1.11 0 0 1-.566-.922 1.1 1.1 0 0 1 1.056-1.155c.974-.035 1.715.484 1.935 1.358.26 1.034-.328 2.421-1.206 2.85-.204.1-.417.15-.627.15zM69.04 34.7a1.12 1.12 0 0 1-1.097-.926c-.12-.715.045-2.217.328-2.923.353-.884 1.19-1.543 1.877-2.017 1.422-.976 2.752-1.629 4.616-1.629h.01a1.115 1.115 0 0 1 0 2.227h-.01c-1.301 0-2.214.455-3.353 1.238-.802.55-1.015.865-1.069 1.005-.13.324-.254 1.406-.2 1.724a1.113 1.113 0 0 1-1.098 1.301z"/><path fill="#d77599" d="M63.547 13.937q-.179-.002-.343-.054a1.13 1.13 0 0 1-.739-1.33c.048-.226.16-.42.315-.573.35-.385.828-.404 1.095-.337.451.111.89.525.852 1.202a1.12 1.12 0 0 1-.563.907 1.1 1.1 0 0 1-.617.185m-2.942 5.538c-.303 0-.602-.12-.821-.363a1.113 1.113 0 0 1 .07-1.574c.458-.42.871-.767 1.263-1.066l.248-.188c.671-.502.85-.652.964-1.135a1.114 1.114 0 0 1 2.17.509c-.303 1.288-1.028 1.832-1.795 2.408l-.235.178c-.338.258-.7.563-1.107.935a1.1 1.1 0 0 1-.751.293z"/><path fill="#d77599" d="M54.64 25.669c-.28 0-.57-.02-.853-.092l-.076-.023c-.423-.12-.786-.35-1.107-.55-.108-.067-.213-.134-.315-.188q-.315-.171-.62-.343c-.694-.388-1.352-.754-2.065-.977-1.03-.321-2.31-.722-3.267-1.715q-.195-.201-.375-.394c-1.082-1.136-1.795-1.887-3.223-2.271-1.142-.306-1.835-1.085-2.259-1.645-.986-1.304-1.355-2.329-1.164-3.22a4 4 0 0 1 .274-.753c.057-.13.146-.331.187-.465l-.08-.124.02-.36c-.003-.028-.016-.072-.026-.12-.057-.293-.155-.78.105-1.327.322-.674.936-.973 1.343-1.17.127-.064.321-.156.372-.207.057-.096-.08-.474-.2-.808-.182-.5-.407-1.126-.334-1.823.108-1.037.36-3.464 2.557-3.992.379-.093.726-.077 1.002-.067.169.006.344.013.42-.013.318-.102.538-.28.875-.547.102-.08.204-.162.315-.248.496-.379 1.091-.614 1.62-.82q.194-.079.375-.15C49.525.674 51.163.153 52.823.703c.379.124.69.286.964.43.182.095.357.184.525.25.407.16 1.117.115 1.495-.088.127-.07.27-.198.433-.344.372-.33.884-.786 1.683-.916 1.6-.264 3.028.91 4.072 1.766.2.165.388.318.56.445l2.41 1.8c.882.659 2.075 1.715 2.272 3.309l.032.245c.111.852.264 2.02-.118 2.907-.273.637-.808 1.037-1.16 1.305a1.112 1.112 0 1 1-1.34-1.778c.111-.083.407-.306.455-.408.14-.321.013-1.279-.048-1.737l-.035-.264c-.07-.576-.5-1.13-1.393-1.794l-2.412-1.8c-.197-.147-.41-.322-.639-.513-.674-.553-1.69-1.387-2.297-1.288-.156.025-.305.156-.563.385-.232.207-.493.439-.846.633-.96.525-2.345.61-3.372.213-.28-.108-.528-.238-.744-.35-.23-.118-.427-.223-.637-.293-.96-.318-2.067.048-3.12.494q-.205.085-.423.171c-.41.163-.834.328-1.088.522l-.274.213c-.41.328-.875.697-1.578.926-.455.146-.865.13-1.193.118-.156-.007-.315-.013-.394.006-.474.115-.722.71-.862 2.058-.02.191.098.519.213.837.248.684.62 1.718-.01 2.752-.35.572-.887.833-1.282 1.024a5 5 0 0 0-.226.114c.016.086.035.185.045.296.267.745-.07 1.515-.306 2.049-.047.111-.12.277-.136.337 0 0 .006.395.766 1.4.363.48.688.738 1.056.836 2.036.548 3.067 1.633 4.26 2.889l.366.385c.56.582 1.457.862 2.325 1.132.932.29 1.724.732 2.488 1.158q.29.163.589.325c.14.073.286.165.439.26.178.112.423.265.547.3h.003c.137.035.47.022.712.01.223-.01.455-.02.684-.01.459.022.869-.28 1.499-.78.505-.4.509-.416.674-1.317.026-.146.041-.327.054-.518.02-.248.042-.528.096-.815a1.111 1.111 0 1 1 2.182.433c-.032.156-.045.347-.06.554a8 8 0 0 1-.083.744c-.207 1.148-.37 1.788-1.486 2.669-.741.585-1.657 1.314-2.974 1.257a5 5 0 0 0-.487.01c-.162.006-.334.015-.509.015z"/><path fill="#d77599" d="M53.46 17.636a1.1 1.1 0 0 1-.757-.299 1.13 1.13 0 0 1-.226-1.425 1.11 1.11 0 0 1 1.024-.544c.207.013.414.054.601.172.57.36.652.999.44 1.444a1.13 1.13 0 0 1-.812.617 1 1 0 0 1-.27.032zm-7.056-4.568c-.274 0-.544-.098-.76-.299a1.126 1.126 0 0 1-.223-1.425c.175-.293.531-.57 1.021-.54h.01c.203 0 .41.053.594.171.57.36.653.999.44 1.444-.144.3-.436.55-.809.617a1 1 0 0 1-.273.035z"/><path fill="#d77599" d="M51.465 21.457c-.449 0-.961-.124-1.467-.54-.623-.516-.938-1.235-.884-2.024.08-1.215 1.015-2.332 1.848-2.854a1.114 1.114 0 0 1 1.183 1.887c-.4.251-.785.783-.808 1.113-.003.058-.006.09.083.162l.048.035c.06.007.277-.053.417-.095.4-.118.95-.277 1.58-.105l.052.013a1 1 0 0 0-.051-.22 1.113 1.113 0 1 1 2.102-.735c.16.452.214.898.163 1.32-.086.745-.376 1.286-.856 1.61-.741.503-1.62.261-1.991.16-.048 0-.245.057-.379.095-.258.073-.62.181-1.037.181zm6.569-3.515c-.89 0-1.775-.55-2.042-1.346-.232-.69.006-1.59 1.066-2.042.33-.14.69-.111.98.05a1.1 1.1 0 0 1 .858-.212c.764.127 1.276.668 1.305 1.377.038.929-.882 1.915-1.664 2.112q-.25.061-.503.06m-2.386-4.231c-.2 0-.381-.022-.534-.037-.105-.013-.207-.026-.28-.026-.296 0-.579-.12-.789-.328a1.18 1.18 0 0 1-.328-1.05c.074-.387.334-.706.716-.87.35-.154.735-.112 1.034.072.067.007.134.013.181.013.013-.022.032-.05.045-.073.095-.162.229-.382.452-.598.073-.07.15-.134.222-.185a1.112 1.112 0 0 1 1.292-1.69c.852.316 1.368 1.264 1.174 2.164-.172.786-.748 1.1-1.025 1.25-.044.026-.108.058-.127.074a2 2 0 0 0-.076.13c-.143.239-.382.643-.9.91a2.25 2.25 0 0 1-1.06.248zm-9.333 3.093q-.426.002-.904-.121c-1.387-.343-2.873-1.695-2.857-3.277a1.115 1.115 0 0 1 1.114-1.103h.01c.613.006 1.11.509 1.103 1.123-.003.368.63.963 1.168 1.097.222.057.35.057.41.054.01-.076.016-.19.02-.274.009-.2.015-.426.072-.674a1.112 1.112 0 1 1 2.173.48c-.013.055-.016.182-.022.284-.02.467-.051 1.247-.738 1.854-.417.372-.936.557-1.546.557zm6.648-9.13c-.42 0-.83-.095-1.164-.3-.738-.448-.868-1.03-.878-1.338-.016-.493.23-.958.675-1.276a1.114 1.114 0 0 1 1.38.07 1.112 1.112 0 0 1 1.718-.19c.649.635.735 1.513.213 2.185-.423.544-1.196.849-1.94.849z"/><path fill="#d77599" d="M53.934 13.208a1.115 1.115 0 0 1-.757-1.931c.076-.07.117-.12.136-.146.051-.064.102-.318.134-.484.095-.47.226-1.113.754-1.641.604-.608 1.12-.598 1.6-.535l.184.023a1.11 1.11 0 0 1 1.006 1.212 1.115 1.115 0 0 1-1.273.999 4 4 0 0 0-.089.384c-.082.41-.187.917-.54 1.384a3.6 3.6 0 0 1-.401.44 1.12 1.12 0 0 1-.758.295zm-3.156-.436c-.252 0-.563-.082-.869-.388a1.115 1.115 0 0 1 .557-1.88c.245-.076.808-.156 1.288.449a1.116 1.116 0 0 1-.789 1.803q-.086.016-.187.016m-10.043 2.364a1.116 1.116 0 0 1-.605-2.052c.538-.347.697-.61 1.082-1.253l.169-.28c.42-.69.983-1.203 1.479-1.651q.154-.139.302-.277c.776-.722 1.607-1.161 2.701-1.422.64-.153 1.19-.13 1.68.07.394.16.649.42.82.636a1.113 1.113 0 0 1 1.291 1.813l-.136.102c-.343.252-1.148.847-2.138.248-.34-.206-.544-.483-.68-.668l-.054-.073c-.039 0-.134.007-.27.038-.723.172-1.2.42-1.696.885q-.163.152-.328.299c-.423.382-.82.744-1.075 1.158l-.16.264c-.435.728-.81 1.355-1.787 1.982-.185.12-.395.178-.601.178zm24.985-7.24c-.366 0-.725-.182-.939-.513-.388-.604-.865-.963-1.829-1.367-.57-.239-.76-.23-.795-.226-.194.044-.764.321-.916.451a1.11 1.11 0 0 1-1.572-.073 1.116 1.116 0 0 1 .073-1.574c.42-.385 1.41-.875 1.995-.99.738-.143 1.498.118 2.077.36 1.009.423 2.052.986 2.841 2.22a1.111 1.111 0 0 1-.935 1.712M42.271 80.083a1.114 1.114 0 0 1-.881-1.794c1.33-1.721.904-3.662.624-4.947q-.06-.267-.1-.477c-.107-.58-.632-1.387-.944-1.588a1 1 0 0 0-.105.134c-.114.165-.213.29-.296.394q-.044.051-.08.102s-.009.051-.021.162a1.115 1.115 0 0 1-2.217-.232c.079-.757.301-1.085.588-1.435.054-.063.114-.14.184-.241.853-1.254 1.915-1.184 2.329-1.098 1.555.325 2.558 2.373 2.748 3.394q.036.18.086.414c.303 1.377.93 4.24-1.034 6.782-.22.283-.55.433-.88.433z"/><path fill="#d77599" d="M39.437 75.855c-.5 0-1.037-.35-1.117-1.034-.025-.203.01-.4.086-.579a1.1 1.1 0 0 1 .977-.719 1.12 1.12 0 0 1 1.17.983c.035.226 0 .445-.089.64a1.11 1.11 0 0 1-.992.709h-.038zM22.01 92.852c-.368 0-.757-.057-1.164-.197-.849-.293-1.482-.837-1.934-1.667-.458-.84-.502-1.222-.238-2.04l.092-.292c.595-2.017.025-3.846-.61-4.167-.265-.134-.764.206-1.267.868a1.112 1.112 0 0 1-1.651.137c-1.41-1.323-1.168-3.369-1.024-4.59a1.113 1.113 0 1 1 2.21.258c-.054.473-.127 1.08-.079 1.625 1.263-.872 2.335-.532 2.812-.29 1.797.91 2.577 3.954 1.74 6.786a8 8 0 0 1-.108.343q-.016.051-.032.092c.022.045.057.109.105.2.185.341.382.516.703.627.528.182 1.015.02 1.75-.318-.846-1.17-.28-2.284.028-2.885.688-1.349 2.546-2.507 4.206-2.087.932.236 1.438.904 1.807 1.39.343.455.5.63.78.688.995.203 1.555.025 2.627-.586.592-.337 1.142-.633 1.909-.84.362-.098.725-.14 1.078-.178.321-.035.652-.07.859-.15.245-.091.604-.311.748-.438l-.026-.077a2.6 2.6 0 0 1-.181-.995c.054-1.791 1.501-2.653 2.462-3.223q.174-.102.34-.203c.401-.249.815-.503 1.009-.799q.038-.058.067-.111c-.007-.003-.013-.01-.02-.013-.267-.197-.473-.439-.658-.649a4 4 0 0 0-.216-.239c-.07-.073-.137-.127-.2-.18-.214-.182-.503-.427-.758-.888a1.114 1.114 0 0 1 1.95-1.072c.054.095.093.13.242.257.099.083.223.188.356.325.102.105.204.222.306.337.102.118.232.267.299.318.057.041.102.067.162.099.582.311.834.728.872 1.44.025.465-.156.996-.535 1.585-.464.722-1.155 1.145-1.708 1.489-.121.073-.245.15-.372.222-.923.548-1.359.862-1.371 1.375 0 .022.035.13.057.194.127.366.369 1.053-.13 1.921-.497.872-1.89 1.406-1.903 1.413-.474.178-.97.232-1.41.28a5 5 0 0 0-.728.11c-.521.144-.89.341-1.396.63-1.384.787-2.51 1.178-4.18.834-1.123-.232-1.69-.98-2.103-1.524-.251-.33-.41-.534-.579-.575-.538-.137-1.412.423-1.676.941-.055.105-.217.423-.23.541 0 0 .01.01.017.022.031.016.088.045.133.064.296.14 1.082.506 1.149 1.533a1.11 1.11 0 0 1-.77 1.13c-.338.108-.684.273-1.05.448-.729.347-1.584.754-2.57.754zm16.523-21.724c-.843 0-1.702-.239-2.14-.811a1.114 1.114 0 0 1 1.657-1.48c.13.042.36.06.582.054l-.242-.19c-.114-.09-.35-.163-.576-.233-.528-.165-1.247-.388-1.702-1.12a6 6 0 0 1-.356-.687c-.226-.483-.245-.49-.439-.537-.64-.16-1.708-.207-2.274-.022-.23.073-.497.28-.783.499-.455.347-1.018.782-1.756.922-.318.06-.659.07-1.021.08-.23.006-.595.016-.853.054.315.111.78.175.986.105a1.107 1.107 0 0 1 1.46.576 1.12 1.12 0 0 1-.578 1.47c-1.021.445-2.959.165-3.834-.85-.604-.7-.645-1.629-.111-2.478.655-1.047 1.94-1.078 2.879-1.1.255-.007.515-.013.655-.039.223-.041.512-.267.821-.502.4-.309.859-.659 1.447-.853 1.073-.35 2.568-.255 3.51-.02 1.24.313 1.644 1.181 1.914 1.757.077.162.147.318.233.452.047.035.302.114.47.165.373.118.837.26 1.263.585.519.398 1.49 1.136 1.49 2.208 0 .328-.106.955-.793 1.48-.417.317-1.155.505-1.906.505z"/><path fill="#d77599" d="M20.054 76.288a1.114 1.114 0 0 1-.57-2.07c.72-.428 1.203-1.213 1.715-2.044.198-.318.398-.645.62-.967.538-.773 1.146-1.644 2.396-1.988l.13-.035c.767-.203 1.423-.439 1.668-1.26a1.117 1.117 0 0 1 1.386-.747c.589.178.923.798.748 1.387-.623 2.08-2.45 2.564-3.229 2.774l-.114.032c-.43.117-.668.413-1.155 1.11-.188.27-.366.56-.554.865-.6.977-1.285 2.08-2.471 2.787a1.1 1.1 0 0 1-.57.156"/><path fill="#d77599" d="M16.73 79.761a1.114 1.114 0 0 1-.923-1.737c.261-.384.5-.874.729-1.345.292-.601.57-1.168.925-1.62.07-.088.118-.155.156-.203.567-.786 1.247-.63 1.6-.468.045.02.08.035.163.058.184.044.321.095.42.13.114.042.117.045.206.048.446.022.837-.06 1.107-.232a1.113 1.113 0 1 1 1.193 1.88c-.668.423-1.495.623-2.414.575a2.6 2.6 0 0 1-.843-.174 12 12 0 0 0-.515.986c-.252.515-.538 1.1-.888 1.616-.216.318-.566.49-.923.49z"/><path fill="#d77599" d="M15.903 82.007q-.106 0-.217-.016c-.884-.124-1.816-1.03-1.695-2.007a1.117 1.117 0 0 1 1.24-.97c.357.044.652.251.821.537q.143-.015.293.01c.607.099 1.02.668.922 1.276a1.364 1.364 0 0 1-1.364 1.17m8.751-3.27a1.113 1.113 0 0 1-.958-1.68c.051-.184-.019-.655-.101-.817a1.11 1.11 0 0 1 .4-1.52 1.115 1.115 0 0 1 1.524.4c.404.69.662 2.195.07 3.108-.213.33-.57.51-.935.51"/><path fill="#d77599" d="M23.99 76.119h-.055a1.114 1.114 0 0 1-1.06-1.168c.1-2.02 1.96-3.308 2.756-3.858.6-.417 1.724-1.193 3.003-.557.378.188.642.458.855.674.051.051.115.118.169.169a1.114 1.114 0 0 1 .433 2.18c-1.126.301-1.849-.437-2.195-.793-.083-.083-.207-.21-.258-.239-.153-.016-.595.296-.741.398-.815.563-1.756 1.317-1.798 2.135a1.114 1.114 0 0 1-1.11 1.059"/><path fill="#d77599" d="M25.067 76.51c-.6 0-1.097-.48-1.113-1.088a1.11 1.11 0 0 1 1.085-1.139c.22-.016.808-.324.967-.505.152-.191.308-.363.458-.532.27-.299.503-.553.573-.785a1.113 1.113 0 1 1 2.128.659c-.217.702-.662 1.192-1.05 1.625a8 8 0 0 0-.366.423c-.487.617-1.727 1.323-2.653 1.345h-.029zm-5.643 14.424c-.553 0-1.03-.41-1.104-.974-.083-.645-.439-1.457-1.037-2.347l-.226-.347c-.19-.3-.356-.56-.57-.78a2 2 0 0 0-.225-.13c-.28-.153-.665-.366-.923-.77a1.112 1.112 0 0 1 1.817-1.282c.044.029.12.07.175.099.226.124.509.28.757.537.366.379.62.777.843 1.127q.096.152.197.305c.802 1.193 1.273 2.306 1.4 3.308a1.114 1.114 0 0 1-1.104 1.254m12.856-8.637c-.494 0-.959-.093-1.36-.172a9 9 0 0 0-.521-.095c-1.139-.172-2.411-.493-3.197-1.553-.51-.687-.624-1.473-.315-2.154.35-.772 1.203-1.3 2.224-1.383a1.115 1.115 0 0 1 .178 2.22 1 1 0 0 0-.248.051c.334.37 1.075.525 1.695.617.207.032.414.073.62.112.745.146 1.101.194 1.4.016a4 4 0 0 0-.292-.27 1.115 1.115 0 0 1 .2-2.186c1.117-.099 2.173 1.495 2.182 1.51.516.9.29 1.897-.585 2.603-.655.528-1.34.677-1.972.677zm-12.146.216a1.38 1.38 0 0 1-.974-.407 1.112 1.112 0 0 1 .43-1.842 1.113 1.113 0 0 1 1.858.678c.076.614-.213 1.18-.738 1.438a1.3 1.3 0 0 1-.576.133M19.3 78.03a1.112 1.112 0 0 1-.977-1.648q.102-.18.233-.371c.05-.08.127-.191.162-.261a1.113 1.113 0 0 1 2.198-.344c.172.818-.254 1.457-.509 1.84-.047.07-.095.136-.13.203a1.12 1.12 0 0 1-.977.579zm18.91 7.022a1.11 1.11 0 0 1-.955-.538c-.522-.865-.764-2.526.372-3.343a1.114 1.114 0 0 1 1.422 1.708c-.006.127.041.36.114.483a1.112 1.112 0 0 1-.95 1.687zm-.395-4.238c-.293 0-.583-.117-.79-.324a1.13 1.13 0 0 1-.324-.789c0-.293.118-.582.325-.786.413-.416 1.16-.416 1.574 0 .207.207.328.493.328.786s-.12.579-.328.789a1.12 1.12 0 0 1-.785.324M25.39 91.274h-.014a1.115 1.115 0 0 1 .003-2.227h.01c.945 0 2.135-1.024 2.707-1.514.468-.4 1.17-.347 1.572.118.4.467.347 1.167-.118 1.571-1.24 1.066-2.605 2.055-4.158 2.055z"/><path fill="#afdcf2" d="M66.973 57.054a1.12 1.12 0 0 1-.789-.327 1.12 1.12 0 0 1-.324-.786c0-.293.118-.58.324-.786.417-.417 1.162-.417 1.575 0a1.107 1.107 0 0 1 0 1.572c-.204.21-.493.327-.786.327"/><path fill="#fff" d="M43.614 39.17q-.063.002-.12-.007c-.014 0-1.095-.143-.968-1.342a1.114 1.114 0 0 1 2.22.137c0 .054 0 .108-.01.165-.1.783-.69 1.047-1.125 1.047zM8.62 72.254q-.061.002-.12-.007c-.013 0-1.094-.143-.967-1.342a1.114 1.114 0 0 1 2.22.137c0 .054 0 .108-.01.165-.101.783-.69 1.047-1.125 1.047z"/></g><defs><clipPath id="a"><path fill="#fff" d="M0 0h100v92.852H0z"/></clipPath></defs></svg>