<svg width="100" height="93" viewBox="0 0 100 93" fill="none" xmlns="http://www.w3.org/2000/svg">
<g clip-path="url(#clip0_25_1969)">
<path d="M24.4887 32.0662C23.2004 32.0662 21.9056 31.5222 20.9767 30.1606C19.8665 28.5319 19.8156 26.0665 21.6511 24.7654C22.5546 24.126 23.9893 24.0369 25.1313 24.5523C26.1429 25.0072 26.7887 25.8661 26.9032 26.9159C26.986 27.673 26.6201 28.4237 25.9234 28.92C25.2618 29.3908 24.4728 29.5021 23.8621 29.2127C23.3181 28.955 22.9809 28.4301 22.9363 27.7748C22.895 27.1608 23.3594 26.6296 23.9734 26.5914C24.0752 26.585 24.177 26.5914 24.2756 26.6105C24.2565 26.6009 24.2374 26.5914 24.2183 26.5818C23.7316 26.3623 23.1431 26.4355 22.9363 26.5818C22.2269 27.0845 22.3224 28.1788 22.8154 28.9041C23.8271 30.3897 25.3795 29.7248 25.828 29.4862C26.8269 28.955 27.6413 27.8575 27.2754 26.9413C27.0464 26.3719 27.3263 25.7229 27.8958 25.4939C28.4684 25.2648 29.1142 25.5448 29.3432 26.1142C30.2117 28.2933 28.7579 30.447 26.8714 31.449C26.1493 31.8339 25.319 32.063 24.4824 32.063L24.4887 32.0662Z" fill="#A0A2F8"/>
<path d="M13.5837 28.6528C13.5042 28.6528 13.4247 28.6496 13.3451 28.6401C12.394 28.5319 11.6973 27.9307 11.4269 26.989C11.0515 25.6784 11.5955 23.8365 12.5912 23.0444C13.0429 22.6849 13.6919 22.7358 14.0832 23.143C14.2072 23.1048 14.3408 23.0889 14.4776 23.0985C15.2188 23.1494 15.8201 23.5502 16.1287 24.2055C16.6313 25.268 16.2146 26.6518 15.6165 27.4885C15.0789 28.2392 14.3472 28.656 13.5837 28.656V28.6528ZM13.7555 25.1121C13.5646 25.5321 13.4565 26.1874 13.5774 26.4196C13.6473 26.3814 13.8064 26.2351 13.9432 25.9615C14.0768 25.6943 14.1213 25.443 14.1277 25.2871C13.9909 25.2521 13.8669 25.1917 13.7555 25.1121Z" fill="#A0A2F8"/>
<path d="M17.4263 35.7118C16.7169 35.7118 16.0966 35.4541 15.6799 34.9833C15.3968 34.6652 15.0818 34.1085 15.1836 33.2528C15.3268 32.0503 16.3352 31.2104 17.6363 31.2104C18.9374 31.2104 19.9586 32.0821 20.0413 33.2782C20.0826 33.8604 19.879 34.4234 19.4687 34.8624C18.9724 35.3937 18.2089 35.7086 17.4232 35.7086L17.4263 35.7118ZM17.42 33.485C17.5059 33.485 17.6045 33.4659 17.6777 33.4404C17.5695 33.4309 17.4645 33.4627 17.42 33.485Z" fill="#A0A2F8"/>
<path d="M8.59884 33.3482C8.14075 33.3482 7.71765 33.065 7.55541 32.6197C7.47589 32.4924 7.39636 32.327 7.34546 32.0725C7.23094 31.4681 7.6254 30.8859 8.22982 30.7682C8.78971 30.6601 9.33687 30.9941 9.50229 31.5285C9.56273 31.6271 9.61999 31.7544 9.67089 31.9294C9.83949 32.5211 9.49911 33.135 8.90741 33.3036C8.80561 33.3323 8.70064 33.3482 8.60202 33.3482H8.59884Z" fill="#A0A2F8"/>
<path d="M11.993 39.7805C11.6653 39.7805 11.3408 39.6373 11.1213 39.3606C11.045 39.262 10.9686 39.1633 10.8923 39.0615C10.0429 37.8877 9.50211 36.8252 8.87542 35.5941L8.77362 35.3937C8.49368 34.8465 8.71318 34.1753 9.26034 33.8953C9.8075 33.6154 10.4787 33.8349 10.7587 34.382L10.8605 34.5825C11.4681 35.7786 11.9484 36.7202 12.696 37.7541C12.7501 37.8272 12.8073 37.9036 12.8646 37.9736C13.2463 38.4539 13.1668 39.1538 12.6865 39.5387C12.4829 39.701 12.2379 39.7805 11.993 39.7805Z" fill="#A0A2F8"/>
<path d="M15.3204 43.4166C14.9482 43.4166 14.5887 43.2321 14.3788 42.898C14.0225 42.335 13.5771 41.8578 13.0172 41.317C12.5751 40.8907 12.5655 40.1845 12.9918 39.7423C13.4212 39.3001 14.1243 39.2906 14.5665 39.7169C14.9259 40.0668 15.295 40.439 15.6417 40.8621C15.9821 40.6712 16.3257 40.4772 16.6819 40.2736C18.4666 39.2556 20.3117 38.2026 22.3381 37.6046C23.9636 37.1242 25.4047 37.1815 27.008 37.7891C28.3282 38.2885 28.9231 39.1665 29.4193 39.9745C29.5911 39.8123 29.7597 39.6501 29.9283 39.4942C30.625 38.842 31.2835 38.2281 31.7543 37.5123C32.3905 36.5452 32.6737 35.3809 32.9727 34.1498C33.0459 33.854 33.1159 33.5581 33.1922 33.2623C34.0034 30.1479 34.1529 27.8002 32.5337 25.3221C29.7184 25.6338 28.4141 23.7633 27.5933 22.0455C26.8935 20.579 26.5595 20.6012 24.3899 20.7476L24.2595 20.7571C23.0729 20.8366 21.8068 20.4644 20.5821 20.1018C19.6754 19.8346 18.737 19.5578 18.0276 19.5451C16.7138 19.5165 15.5208 19.7137 14.4806 20.1241C13.908 20.3499 13.2622 20.07 13.0363 19.4974C12.8105 18.9248 13.0904 18.279 13.663 18.0531C14.9768 17.5346 16.4656 17.2865 18.0721 17.3183C19.0837 17.3374 20.1653 17.6586 21.2151 17.9672C22.2522 18.2726 23.3242 18.5876 24.1132 18.5367L24.2436 18.5271C26.569 18.3712 28.2519 18.2567 29.6038 21.0879C30.4723 22.9044 31.2453 23.3752 32.7946 23.0253C33.224 22.9267 33.6662 23.0921 33.9302 23.442C36.4752 26.8172 36.3384 30.0334 35.349 33.8253C35.2759 34.1085 35.2059 34.3916 35.1359 34.6747C34.8051 36.0363 34.4615 37.4455 33.6121 38.7371C32.995 39.6755 32.2092 40.4104 31.4489 41.1229C30.959 41.581 30.4946 42.0168 30.1065 42.4749C29.8902 42.7326 29.5625 42.8726 29.2317 42.8694C28.8944 42.863 28.5795 42.704 28.3759 42.4368C28.0642 42.0328 27.8256 41.6415 27.6156 41.2947C27.1416 40.5122 26.8839 40.1241 26.2191 39.8727C25.0707 39.4369 24.1259 39.3987 22.9679 39.7423C21.1897 40.2672 19.4591 41.2565 17.7826 42.2109C17.1432 42.5767 16.4815 42.9553 15.8326 43.2957C15.6672 43.3816 15.489 43.4229 15.314 43.4229L15.3204 43.4166Z" fill="#A0A2F8"/>
<path d="M8.31252 29.9316C8.29025 29.9316 8.26798 29.9316 8.24571 29.9316C7.63175 29.8966 7.16412 29.3685 7.19911 28.7545C7.28182 27.3453 7.63175 26.3687 8.00394 25.338C8.17573 24.864 8.35069 24.3741 8.52247 23.7856C8.99329 22.1918 9.78858 20.8525 10.8829 19.8091C11.3283 19.386 12.0345 19.4019 12.4576 19.8473C12.8807 20.2926 12.8648 20.9957 12.4194 21.4219C11.6114 22.195 11.0165 23.2034 10.657 24.4186C10.4662 25.0676 10.2689 25.6115 10.0972 26.0919C9.74086 27.0812 9.48637 27.797 9.41956 28.8881C9.38457 29.4798 8.89467 29.9348 8.30934 29.9348L8.31252 29.9316Z" fill="#A0A2F8"/>
<path d="M16.0744 43.9733C15.6894 43.9733 15.3141 43.7729 15.1073 43.4134C14.8019 42.879 14.9864 42.1982 15.5208 41.8928C17.8081 40.5853 20.4326 40.843 22.7485 41.0689C23.776 41.1707 24.7844 41.3711 25.7578 41.5651L26.1078 41.6351C27.008 41.8133 27.6347 41.4443 28.2423 41.088L28.3091 41.0498C28.8404 40.738 29.5212 40.9162 29.8329 41.4474C30.1447 41.9787 29.9665 42.6595 29.4353 42.9712L29.3716 43.0094C28.6368 43.442 27.4057 44.1642 25.6751 43.8238L25.322 43.7538C24.4027 43.5693 23.4483 43.3816 22.5321 43.2893C20.4517 43.0857 18.3012 42.8726 16.6279 43.8301C16.4529 43.9288 16.2621 43.9765 16.0744 43.9765V43.9733Z" fill="#A0A2F8"/>
<path d="M80.3755 18.2026C80.0002 18.2026 79.6407 18.0117 79.4339 17.6841C79.294 17.4614 79.084 17.2642 78.8422 17.0319C78.5909 16.7902 78.3046 16.5198 78.0501 16.1699C77.6525 15.6227 76.6281 13.7935 76.5613 12.7215C76.4754 11.3377 76.6631 10.8637 77.2326 10.2211C77.3662 10.0716 77.503 9.91568 77.6779 9.63255C77.8497 9.34943 77.996 9.10448 78.1201 8.89134C78.9408 7.49799 79.2812 7.0399 80.9386 6.68361C81.4826 6.56909 82.2238 6.6518 82.9078 6.74723C83.2768 6.79813 83.6458 6.85539 83.878 6.83949C83.9448 6.83313 84.0148 6.83313 84.0848 6.83313C85.1123 6.83313 86.4357 7.35166 86.7761 8.1883C86.8651 8.40462 86.8874 8.63367 86.8524 8.84999C86.8747 8.83726 86.9001 8.82136 86.9224 8.80545C87.4123 8.49688 88.0549 8.61458 88.4048 9.07585C89.6614 10.7428 89.4769 12.3461 89.0888 13.8317C89.0601 13.943 89.0315 14.0544 89.0061 14.1657C88.8661 14.7415 88.707 15.3936 88.303 16.0076C88.0103 16.453 87.6509 16.7902 87.3296 17.0892C87.1451 17.261 86.9733 17.4232 86.8429 17.5791C86.4866 17.999 85.8758 18.0976 85.4082 17.8082C84.9469 17.525 84.7592 16.9492 84.9596 16.4498C85.0391 16.1444 84.9437 15.3936 84.7687 15.2091C84.2089 14.9928 83.0573 14.6747 82.6437 14.6747C81.3458 14.9006 81.3776 15.2823 81.4603 16.3003C81.4826 16.5961 81.508 16.8983 81.4794 17.1974C81.4317 17.6714 81.0913 18.0626 80.6269 18.1708C80.541 18.1899 80.4551 18.1994 80.3724 18.1994L80.3755 18.2026ZM78.785 11.8307C78.7754 11.8848 78.7532 12.0693 78.785 12.5815C78.8041 12.8551 79.154 13.6567 79.5007 14.2866C79.8602 13.4977 80.6396 12.766 82.2779 12.4797C82.3924 12.4606 82.5133 12.4511 82.6469 12.4511C83.614 12.4511 85.2555 13.011 85.6086 13.1509C85.9426 13.2814 86.3816 13.5581 86.722 14.1339C86.7665 13.9812 86.8047 13.8158 86.846 13.644C86.8747 13.5199 86.9065 13.3959 86.9383 13.275C87.1832 12.3365 87.2246 11.7162 87.0401 11.1659C86.8047 11.2263 86.5725 11.2549 86.3434 11.2549C85.4527 11.2549 84.7147 10.8 84.4156 10.0716C84.2852 9.75344 84.2566 9.41623 84.317 9.08539C84.2216 9.06949 84.123 9.05994 84.0275 9.06631C83.6044 9.09494 83.0859 9.02495 82.5992 8.95496C82.2397 8.90407 81.8675 8.84999 81.5939 8.84999C81.4794 8.84999 81.4253 8.85953 81.4094 8.86271C80.8877 8.97511 80.4317 9.36215 80.0415 10.0238C79.9111 10.2465 79.7616 10.501 79.5803 10.7937C79.3035 11.2486 79.0617 11.5222 78.8995 11.7003C78.8581 11.7448 78.8104 11.7989 78.7881 11.8307H78.785Z" fill="#E7A87B"/>
<path d="M80.6808 18.4253C80.2959 18.4253 79.9205 18.2249 79.7137 17.8654C79.4083 17.331 79.5929 16.6502 80.1273 16.3448C81.2312 15.7117 82.4527 15.8295 83.4357 15.9281C83.8811 15.9726 84.3201 16.0585 84.7082 16.138L84.8513 16.1667C84.9499 16.1857 85.0072 16.1667 85.249 16.0235L85.2776 16.0076C85.8089 15.6958 86.4896 15.874 86.8014 16.4052C87.1131 16.9365 86.935 17.6173 86.4037 17.929C86.0506 18.1358 85.3667 18.5366 84.4219 18.3521L84.2723 18.3235C83.9192 18.2535 83.5534 18.1803 83.2162 18.1485C82.4814 18.0754 81.7211 18.0022 81.2343 18.2821C81.0594 18.3807 80.8685 18.4285 80.6808 18.4285V18.4253Z" fill="#E7A87B"/>
<path d="M96.2018 30.3388C96.0142 30.3388 95.8233 30.2911 95.6515 30.1925C95.5974 30.1606 95.4861 30.132 95.3652 30.097C95.1839 30.0461 94.958 29.9825 94.7194 29.868C94.3377 29.6835 93.94 29.4385 93.5997 29.184C92.7312 28.5287 92.5435 27.6189 92.394 26.8872L92.3685 26.7695C92.1109 25.5225 92.7026 24.3646 93.9146 23.7442C94.2009 23.5979 94.4967 23.5375 94.7576 23.4834C94.853 23.4643 94.9962 23.4325 95.0566 23.4134C95.4829 23.1494 96.2082 22.7135 97.1339 23.3211C97.4298 23.1812 97.7765 23.1748 98.0819 23.3148C99.243 23.8524 99.6057 24.7813 99.8093 25.6179L99.8475 25.7738C99.9302 26.0888 100.029 26.4769 99.9874 26.9413C99.9588 27.269 99.8634 27.5489 99.787 27.7748C99.7711 27.8257 99.752 27.8766 99.7361 27.9243C99.5516 28.5096 98.9281 28.8373 98.3396 28.6528C97.7543 28.4683 97.4266 27.8448 97.6111 27.2562C97.6302 27.1894 97.6525 27.1226 97.6779 27.059C97.7161 26.9413 97.7638 26.8077 97.7702 26.7409C97.7765 26.6614 97.732 26.4896 97.6906 26.3337C97.6747 26.2701 97.6588 26.2065 97.6429 26.1397C97.5825 25.8883 97.5284 25.7261 97.4648 25.6148C97.0989 25.6879 96.6568 25.6434 96.1605 25.3507C95.8233 25.5416 95.4861 25.6116 95.2093 25.6688C95.1107 25.6879 94.9612 25.7197 94.9135 25.7388C94.4745 25.9647 94.5222 26.1969 94.5476 26.3242L94.5731 26.4482C94.6876 27.0145 94.7576 27.2785 94.9357 27.4121C95.1616 27.5807 95.4352 27.7493 95.6897 27.8734C95.7438 27.8988 95.8456 27.9275 95.9537 27.9593C96.046 27.9847 96.1446 28.0102 96.2496 28.0484C96.6599 28.0802 97.0353 28.3378 97.1976 28.745L97.2262 28.8182C97.4011 29.2572 97.2803 29.7598 96.924 30.0716C96.7172 30.2529 96.4563 30.3452 96.1923 30.3452L96.2018 30.3388Z" fill="white"/>
<path d="M96.3865 30.3675C96.1861 30.3675 95.9794 30.3134 95.798 30.1988C95.2763 29.8712 95.1173 29.1872 95.4449 28.6655C95.8776 27.9752 96.5615 27.6921 97.0609 27.4853C97.2932 27.3899 97.5222 27.3199 97.7226 27.2595L97.7894 27.2372C97.7226 27.2595 97.6654 27.2976 97.624 27.3326L99.5232 28.4715C99.4023 28.6687 99.1001 29.165 98.4352 29.3686L98.3652 29.3908C98.1998 29.4417 98.0407 29.4894 97.9103 29.5435C97.7385 29.6135 97.3822 29.763 97.3282 29.8489C97.1182 30.1861 96.7556 30.3706 96.3834 30.3706L96.3865 30.3675Z" fill="white"/>
<path d="M7.37418 60.3372H1.66399C1.32679 60.3372 1.00549 60.1845 0.795531 59.9205C0.585574 59.6564 0.502863 59.3128 0.579211 58.982L1.49221 54.891C1.54629 54.6429 1.68626 54.4202 1.88667 54.2612L5.31279 51.5413C5.64999 51.274 6.10808 51.2231 6.49618 51.414L9.23835 52.7628C9.70916 52.995 9.95411 53.5231 9.82686 54.0321L8.45578 59.4942C8.33172 59.9904 7.88635 60.3372 7.37737 60.3372H7.37418ZM3.05098 58.1104H6.50254L7.44417 54.3661L6.14307 53.7267L3.57587 55.7627L3.05098 58.1104Z" fill="#E7A87B"/>
<path d="M3.02512 47.2308C2.86606 47.2308 2.707 47.1958 2.5543 47.1258L0.642423 46.2351C0.165248 46.0124 -0.0892455 45.4907 0.0252765 44.9785L0.890554 41.1898C1.00508 40.6935 1.4409 40.334 1.95306 40.3245L5.89135 40.2386C6.22537 40.229 6.55303 40.3786 6.76935 40.6362C6.98567 40.8939 7.07474 41.2375 7.00794 41.5715L6.43851 44.4059C6.38761 44.6572 6.254 44.8799 6.05677 45.0422L3.73452 46.9699C3.53092 47.1385 3.27961 47.2276 3.02194 47.2276L3.02512 47.2308ZM2.39843 44.5968L2.85652 44.8099L4.33576 43.5852L4.55526 42.5004L2.87242 42.5354L2.40161 44.6L2.39843 44.5968Z" fill="#A0A2F8"/>
<path d="M43.0159 56.3289C42.8092 56.3289 42.6024 56.2717 42.4179 56.154L38.2283 53.4818C37.7797 53.1955 37.5952 52.6292 37.7925 52.133L39.3862 48.1152C39.6089 47.5553 40.2324 47.2753 40.7987 47.4789L43.9671 48.621C44.2789 48.7323 44.5238 48.9773 44.6351 49.289L45.9553 52.9187C46.1017 53.3227 46.003 53.7745 45.7008 54.083L43.8049 56.0013C43.5885 56.2208 43.3022 56.3321 43.0128 56.3321L43.0159 56.3289ZM40.2006 52.1012L42.8569 53.7935L43.6235 53.0173L42.7233 50.5392L41.0595 49.9412L40.2006 52.1012Z" fill="white"/>
<path d="M26.3813 56.4753L24.7716 58.104L22.3953 58.3013L21.2183 55.8359L22.5703 52.4288L25.2583 53.3991L26.3813 56.4753Z" fill="white"/>
<path d="M32.241 45.7548L33.2272 46.5978L33.4339 47.9307L32.0883 48.6973L30.1064 48.0707L30.5454 46.5119L32.241 45.7548Z" fill="white"/>
<path d="M66.9605 66.8013C65.3827 66.8013 64.2915 66.4737 63.6171 65.8024C63.3849 65.5702 63.1877 65.2712 62.9777 64.9594C62.8187 64.7177 62.5324 64.2882 62.3606 64.1482H62.0997L61.807 63.9383C61.7625 63.9065 61.6416 63.8587 61.5335 63.8142C61.1708 63.6711 60.6205 63.4547 60.2451 62.8503C59.7679 62.0805 59.8665 61.2406 59.9429 60.6267C59.9811 60.3022 60.0256 59.9332 59.9524 59.7805C59.7806 59.4242 59.3671 59.297 58.4668 59.0902C57.732 58.9216 56.8953 58.7307 56.1923 58.1708C55.1011 57.2992 52.5435 55.2537 53.501 52.5052C53.6633 52.0375 53.9178 51.6749 54.1404 51.3568C54.3186 51.0991 54.4745 50.8796 54.5254 50.6824C54.6717 50.132 54.624 49.6644 54.5572 49.0218C54.5381 48.8405 54.519 48.6528 54.5031 48.4587C54.4363 47.6284 54.6081 46.76 54.7608 45.9933C54.7989 45.7929 54.8403 45.5957 54.8721 45.408C55.2284 43.3657 55.8392 41.0784 57.6747 39.596C58.0914 39.2588 58.5114 39.017 58.8836 38.8071C59.154 38.6544 59.4084 38.508 59.6407 38.3362C60.2642 37.8813 60.84 36.8538 60.8941 36.0935C60.9131 35.8263 60.8654 35.5177 60.8113 35.1901C60.7032 34.5029 60.5696 33.6472 60.9768 32.7088C61.8166 30.7682 64.2279 29.9889 65.9903 29.4194C66.3561 29.3017 66.7029 29.1904 66.9892 29.0822L71.0483 27.5616C71.8277 27.269 73.0016 26.8809 74.2295 26.8809C75.028 26.8809 75.7756 27.0431 76.4436 27.3676C77.2293 27.7461 77.9642 28.2169 78.6736 28.6719C79.0076 28.885 79.3416 29.1013 79.6757 29.3017L79.9397 29.4608L82.5642 34.3789C82.6819 34.5984 82.7932 34.8211 82.9077 35.0469C83.2736 35.7754 83.6203 36.4657 84.1166 36.9524C85.4272 38.2376 85.5131 39.4306 85.6149 40.8144C85.6244 40.9512 85.634 41.0943 85.6467 41.2406C85.7517 42.5545 86.0125 43.9096 86.2957 45.2998C86.3816 45.7261 86.7601 46.0283 87.3677 46.4864C87.6318 46.6868 87.9053 46.8936 88.1694 47.1385C89.3401 48.2297 89.9127 48.8373 90.094 50.7046C90.2181 51.9771 90.3739 53.5613 89.3846 54.961C89.2637 55.1328 89.1333 55.3555 88.9965 55.5941C88.7006 56.1031 88.3666 56.6789 87.9085 57.0956L87.8831 57.1179C87.4473 57.506 86.9128 57.7573 86.442 57.9768C86.2639 58.0595 86.0921 58.139 85.9394 58.2249C85.6404 58.3903 85.3413 58.5494 85.0455 58.7084C84.0116 59.2588 83.035 59.7805 82.1697 60.5026C81.0213 61.4633 79.5961 62.6626 77.767 63.0221C77.5061 63.073 77.2484 63.1239 77.0003 63.1716C74.7003 63.6106 73.1797 63.9001 71.4969 65.4302C70.3517 66.4705 68.9742 66.6868 68.039 66.7568C67.6477 66.7854 67.2946 66.8013 66.9574 66.8013H66.9605ZM62.8314 61.9564C63.7857 62.1473 64.3838 63.0476 64.8355 63.7283C64.9532 63.9065 65.1155 64.1514 65.1918 64.2278C65.2268 64.2628 65.5799 64.5777 66.9637 64.5777C67.2437 64.5777 67.5427 64.565 67.8767 64.5395C68.8597 64.4632 69.515 64.2309 70.0081 63.7824C72.1522 61.8323 74.2104 61.4411 76.5899 60.9862C76.8349 60.9384 77.0862 60.8907 77.3439 60.8398C78.61 60.5885 79.6948 59.6787 80.7477 58.7975C81.788 57.9259 82.9141 57.3246 84.0052 56.7425C84.2915 56.5898 84.5778 56.4371 84.8673 56.2748C85.0709 56.1635 85.2872 56.0617 85.4972 55.9631C85.8344 55.804 86.213 55.6259 86.4038 55.4573C86.617 55.2632 86.8587 54.8433 87.0751 54.4743C87.2309 54.2071 87.3932 53.9271 87.5713 53.6758C88.0485 53.0014 88.0071 52.187 87.8831 50.9209C87.7749 49.8075 87.6477 49.6898 86.6551 48.7673C86.477 48.6019 86.2607 48.4364 86.0316 48.2647C85.2968 47.708 84.3806 47.0176 84.1229 45.7452C83.8239 44.285 83.5503 42.8567 83.4358 41.4188C83.4231 41.2661 83.4135 41.1166 83.404 40.9766C83.3149 39.7487 83.2799 39.2397 82.5705 38.5462C81.807 37.7986 81.3394 36.8697 80.929 36.049C80.8241 35.8422 80.7223 35.6323 80.6109 35.4287L78.2759 31.0514C78.0119 30.8891 77.7479 30.7205 77.4838 30.5487C76.7999 30.1097 76.1509 29.6962 75.4861 29.3749C74.5953 28.9454 73.5137 29.0186 71.8404 29.6453L67.7813 31.1659C67.4473 31.29 67.0782 31.4108 66.6838 31.5381C65.3254 31.9771 63.4676 32.5751 63.0286 33.5899C62.8855 33.9208 62.93 34.2643 63.0191 34.8433C63.0827 35.2601 63.159 35.7309 63.1209 36.2526C63.0223 37.665 62.1093 39.3001 60.9545 40.14C60.6237 40.3817 60.3024 40.5631 59.9938 40.7412C59.6661 40.9289 59.3575 41.1039 59.0776 41.3297C57.821 42.3477 57.3693 44.0751 57.0703 45.7929C57.0353 45.9997 56.9908 46.2128 56.9494 46.4291C56.819 47.0845 56.6854 47.762 56.7267 48.2869C56.7394 48.4619 56.7585 48.6305 56.7744 48.7959C56.8508 49.5403 56.9303 50.3102 56.679 51.2518C56.5263 51.8308 56.2146 52.2761 55.9664 52.6324C55.8042 52.8646 55.6674 53.0619 55.6038 53.2368C55.2411 54.2834 56.1318 55.2696 57.5856 56.4307C57.891 56.6757 58.4127 56.7934 58.9631 56.9206C59.9492 57.1465 61.3012 57.4551 61.9566 58.8134C62.316 59.5546 62.227 60.2958 62.1538 60.8939C62.1252 61.142 62.0806 61.511 62.1252 61.6478C62.1792 61.6765 62.2779 61.7146 62.351 61.7433C62.4942 61.8005 62.6564 61.8642 62.8282 61.9564H62.8314Z" fill="#AFDCF2"/>
<path d="M78.2883 57.9386C77.4008 57.9386 76.4687 57.7032 75.7815 57.2419C74.859 56.6216 74.4645 55.6386 74.7254 54.6111C74.8749 54.0131 75.4825 53.6536 76.0774 53.8063C76.6723 53.959 77.0349 54.5634 76.8822 55.1583C76.8631 55.2378 76.8536 55.276 77.0222 55.3905C77.6298 55.8009 78.7718 55.7659 79.0327 55.575C79.2363 55.4255 79.529 55.101 79.5926 54.977C79.6308 54.872 79.6308 54.8179 79.6339 54.6875C79.6498 54.1149 79.7835 53.6472 80.4101 53.0842C80.6742 52.8456 80.7887 52.7056 80.8396 52.6293C80.7982 52.5752 80.7219 52.4893 80.5787 52.3716C80.0061 51.9008 78.74 51.9199 78.0306 52.2475C77.4739 52.5084 76.8122 52.2666 76.5514 51.7099C76.2905 51.1532 76.5323 50.4915 77.089 50.2307C78.4474 49.5976 80.6265 49.5308 81.9912 50.6506C82.7197 51.2486 83.0823 51.8785 83.0982 52.5752C83.1205 53.52 82.4715 54.2262 81.9021 54.7384C81.8862 54.7511 81.8735 54.7638 81.8608 54.7765C81.8544 54.9865 81.8385 55.3269 81.6699 55.7786C81.4059 56.4816 80.6328 57.1656 80.3561 57.3692C79.8407 57.7509 79.0804 57.9386 78.2883 57.9386Z" fill="#AFDCF2"/>
<path d="M79.6723 47.9752C79.5068 47.9752 79.3414 47.9561 79.1824 47.9148C78.4125 47.7207 77.6045 46.9668 77.8558 45.478C77.9481 44.934 78.4189 44.5523 78.9533 44.5523C78.6861 44.1419 78.7147 43.5947 79.0583 43.213C79.7963 42.3986 80.6489 42.4559 81.1992 42.7772C82.249 43.3911 82.5926 45.1821 82.2999 46.0411C81.9245 47.1545 80.757 47.972 79.6691 47.972L79.6723 47.9752ZM79.8886 45.0613C79.9808 45.2012 80.0381 45.3603 80.0604 45.5321C80.1113 45.4812 80.1526 45.4239 80.1813 45.3635C80.1876 45.2808 80.1717 45.1567 80.1431 45.0326C80.0604 45.0517 79.9745 45.0613 79.8918 45.0613H79.8886Z" fill="#AFDCF2"/>
<path d="M74.5027 39.5801C74.1751 39.5801 73.8474 39.4337 73.6279 39.157C73.2462 38.6734 73.3289 37.9736 73.8124 37.5918C74.0701 37.3882 74.3119 37.2355 74.5027 37.1115C74.9226 36.8411 75.0372 36.7711 75.1644 36.4307C75.3776 35.8581 75.298 35.241 75.104 34.9992C75.0626 34.9483 74.9735 34.8369 74.6173 34.891C73.6056 35.0405 73.4498 35.3173 73.4498 35.3205C73.1921 35.8772 72.5304 36.1221 71.9737 35.8645C71.4138 35.6068 71.172 34.9451 71.4297 34.3884C71.8496 33.4786 72.8135 32.906 74.2928 32.6865C75.3298 32.5338 76.2333 32.8551 76.8345 33.5963C77.5566 34.487 77.7221 35.9376 77.2513 37.2037C76.8663 38.2408 76.2206 38.6543 75.7052 38.9852C75.5302 39.0965 75.3648 39.2015 75.193 39.3383C74.9894 39.5005 74.7445 39.5769 74.5027 39.5769V39.5801Z" fill="#AFDCF2"/>
<path d="M71.5921 47.0845C71.2836 47.0845 70.9941 46.97 70.7714 46.7568C70.4819 46.4769 70.3547 46.0729 70.4215 45.6434C70.4883 45.233 70.7714 44.9117 71.1372 44.7781C71.3885 44.4759 71.4903 44.3328 71.5062 44.1705C71.5126 44.1165 71.4903 44.0624 71.379 43.8365C71.2708 43.617 71.1213 43.3212 71.0481 42.9426C70.975 42.5768 70.9973 42.2586 71.0163 42.0264C71.0163 42.0105 71.0163 41.9914 71.0195 41.9755C70.536 42.2682 69.8997 42.1569 69.553 41.6956C69.1808 41.2057 69.2794 40.5058 69.7693 40.1368C70.6092 39.5006 71.9071 39.5992 72.661 40.3531C73.3227 41.0148 73.2686 41.7751 73.2368 42.1855C73.2272 42.3159 73.2177 42.44 73.2336 42.51C73.2495 42.5959 73.3036 42.704 73.3736 42.844C73.539 43.178 73.7903 43.6806 73.7267 44.3773C73.644 45.2394 73.1859 45.7961 72.8519 46.2065C72.7437 46.3369 72.6451 46.4578 72.5719 46.5723C72.4097 46.8236 72.1552 46.9986 71.8625 47.059C71.7735 47.0781 71.6844 47.0877 71.5985 47.0877L71.5921 47.0845Z" fill="#AFDCF2"/>
<path d="M66.0377 42.3859C64.3708 42.3859 64.2308 40.4295 64.1545 39.3797C64.1354 39.1347 64.11 38.7625 64.0781 38.6512C63.6932 37.541 62.6243 33.8222 65.1025 32.8265C65.2806 32.7565 65.4715 32.7183 65.6719 32.7183C67.0812 32.7183 68.9135 34.7988 68.9931 34.8879C70.1542 36.2176 70.3641 37.8464 69.5688 39.3606C69.1076 40.2354 68.1628 41.3234 67.3738 41.8896C66.9094 42.2236 66.4736 42.3859 66.0409 42.3859H66.0377ZM65.8182 35.0597C65.6815 35.4732 65.7228 36.6025 66.1841 37.9323C66.3081 38.2917 66.34 38.7244 66.3749 39.2238C66.3877 39.3765 66.4004 39.5896 66.4227 39.7932C66.868 39.3797 67.3579 38.7753 67.5965 38.3267C67.9655 37.6269 67.8765 37.0002 67.3134 36.3576C66.9476 35.9377 66.2445 35.3269 65.8214 35.0597H65.8182Z" fill="#AFDCF2"/>
<path d="M59.3829 56.1953C58.9503 56.1953 58.5144 56.0172 58.1486 55.6704C57.5124 55.0628 56.3512 53.2973 56.558 51.9612C56.6598 51.3122 56.9557 50.7905 57.2197 50.3324C57.4265 49.973 57.6046 49.6612 57.6492 49.3622C57.7032 48.9995 57.9323 48.6878 58.2599 48.5287C59.0489 48.1406 59.666 48.3442 59.9619 48.5001C60.9735 49.0282 61.1771 50.3833 61.2757 51.0323C61.3584 51.5731 61.0371 52.0789 60.5377 52.2507C60.929 52.3525 61.2502 52.6674 61.3457 53.0873C61.5556 54.0226 61.1294 55.4382 60.1846 55.9758C59.9301 56.1222 59.6533 56.1921 59.3797 56.1921L59.3829 56.1953ZM59.1093 51.5158C58.9375 51.818 58.7976 52.0789 58.7626 52.3016C58.7499 52.4829 58.9153 52.9092 59.1475 53.3164C59.1475 52.8519 59.4465 52.4288 59.8982 52.2729C59.5292 52.1775 59.2238 51.8912 59.1125 51.5126L59.1093 51.5158Z" fill="#AFDCF2"/>
<path d="M67.9276 61.5047C67.2532 61.5047 66.5788 61.2916 65.9203 60.8589C65.405 60.5217 65.2618 59.8314 65.599 59.3161C65.9362 58.8007 66.6265 58.6576 67.1419 58.9948C67.635 59.3193 68.2171 59.5038 69.0919 58.6767C69.4959 58.2949 69.6836 57.9863 69.6486 57.7573C69.6486 57.7541 69.6486 57.7478 69.6486 57.7446C69.48 57.6555 69.251 57.5155 69.006 57.2706C68.5734 56.8348 68.5734 56.1285 69.0092 55.6959C69.445 55.2633 70.1513 55.2633 70.5839 55.6991C70.6348 55.75 70.6603 55.7627 70.7557 55.8104C71.306 56.0808 71.7005 56.4562 71.85 57.4169C72.0027 58.4126 71.5892 59.3829 70.6189 60.2959C69.7695 61.0975 68.8533 61.5015 67.9276 61.5015V61.5047Z" fill="#AFDCF2"/>
<path d="M62.2841 45.8533C62.2841 45.8533 62.2714 45.8533 62.2651 45.8533C61.5906 45.847 60.8494 45.3889 60.7063 44.3836C60.6649 44.1005 60.7381 43.8269 60.8844 43.6042C60.7063 43.2098 60.6808 42.7549 60.8399 42.3381C61.1007 41.651 61.7752 41.2438 62.5259 41.3233C63.1081 41.387 63.6266 41.6828 63.9924 42.16C64.3837 42.6753 64.5523 43.3625 64.4473 43.9987C64.2851 44.9753 63.2576 45.8533 62.2841 45.8533Z" fill="#AFDCF2"/>
<path d="M58.1708 47.9879C57.8272 47.9879 57.3309 47.8639 56.8697 47.2976C56.4816 46.8204 56.5579 46.1174 57.0351 45.7325C57.2609 45.5511 57.5345 45.4684 57.8049 45.4875C57.8558 45.2998 57.9131 45.0644 57.9735 44.7845C58.0117 44.6127 58.0403 44.4791 58.0626 44.4123C58.0912 44.3137 58.1135 44.2278 58.1326 44.1514C57.6522 44.1228 57.226 43.7792 57.1146 43.2862C56.9778 42.6881 57.3564 42.09 57.9544 41.9532C58.9947 41.7178 59.5959 42.0805 59.9172 42.4272C60.4548 43.0062 60.5471 43.8938 60.1908 45.0644C60.1844 45.0962 60.1685 45.163 60.1526 45.2489C59.9459 46.2192 59.6341 47.6825 58.4952 47.9561C58.4189 47.9752 58.3076 47.9943 58.1708 47.9943V47.9879Z" fill="#AFDCF2"/>
<path d="M64.476 49.5435C64.3138 49.5435 64.1579 49.518 64.0147 49.4735C63.2417 49.2254 62.7105 48.3537 62.8568 47.568C62.9872 46.8522 63.6266 46.3814 64.3997 46.4259C64.7782 46.445 65.0995 46.6518 65.2872 46.9508C65.3349 46.9667 65.3795 46.9826 65.4272 47.0049C65.9839 47.2658 66.2288 47.9179 65.9712 48.4746C65.599 49.2699 65.0041 49.5435 64.4792 49.5435H64.476Z" fill="#AFDCF2"/>
<path d="M68.4905 50.5901C67.9433 50.5901 67.4662 50.1893 67.3898 49.6326C67.3039 49.025 67.727 48.4619 68.3378 48.376C68.6177 48.3378 68.8309 48.2869 69.009 48.2233L69.0599 48.2042C69.1458 48.1724 69.2476 48.1374 69.3208 48.1056C69.3271 48.0802 69.3303 48.0483 69.3335 48.0102C69.3908 47.5521 69.3335 46.9095 69.1999 46.5532C69.1235 46.3401 68.8691 46.0951 68.5987 45.8343C68.1247 45.373 67.5298 44.7972 67.3325 43.8874C67.1162 42.8949 67.4121 42.4431 67.8256 41.9564C67.8797 41.8928 67.9401 41.8196 68.0101 41.7337C68.3887 41.247 69.0886 41.1643 69.5721 41.5397C70.0556 41.9182 70.1447 42.6181 69.7661 43.1016C69.6771 43.2162 69.5975 43.3084 69.5276 43.3911C69.5212 43.3975 69.5148 43.4038 69.5116 43.4102C69.5689 43.6647 69.8393 43.9287 70.1542 44.2341C70.5487 44.619 71.0418 45.0962 71.2931 45.7834C71.5444 46.4673 71.6462 47.4726 71.5444 48.2838C71.3631 49.7375 70.5423 50.0334 69.817 50.2974L69.7661 50.3165C69.4385 50.4374 69.0822 50.5201 68.6432 50.5806C68.5923 50.5869 68.5382 50.5901 68.4873 50.5901H68.4905Z" fill="#AFDCF2"/>
<path d="M64.0877 65.3666C63.4737 65.3666 62.9743 64.8672 62.9743 64.2532C62.9743 63.2161 62.7325 62.7262 62.2458 61.7464C62.179 61.6128 62.1122 61.476 62.0422 61.3297C61.5619 60.3435 61.3964 59.3447 61.2342 58.3808C61.2024 58.1835 61.1674 57.9895 61.1324 57.7922C60.8715 56.3575 60.9797 55.1232 61.4919 53.6599C61.7718 52.8646 62.1663 52.2952 62.7071 51.9166C63.2415 51.5381 63.8078 51.5031 64.18 51.4808C64.2977 51.4745 64.4122 51.4649 64.479 51.4522C65.0802 51.3186 65.6751 51.6971 65.8087 52.2952C65.9423 52.8964 65.5638 53.4913 64.9657 53.6249C64.7271 53.679 64.514 53.6917 64.3231 53.7045C64.2086 53.7108 64.0336 53.7235 63.9827 53.7426C63.8459 53.8381 63.7123 54.0607 63.5946 54.3979C63.2129 55.4827 63.1365 56.3512 63.3242 57.3946C63.3624 57.6014 63.3974 57.8082 63.4292 58.0149C63.5692 58.8611 63.7028 59.6596 64.0432 60.3563C64.11 60.4962 64.1768 60.6299 64.2404 60.7571C64.778 61.8387 65.2011 62.6944 65.2011 64.2532C65.2011 64.8672 64.7017 65.3666 64.0877 65.3666Z" fill="#AFDCF2"/>
<path d="M79.787 41.1134C79.2335 41.1134 78.645 40.7921 78.3682 39.9904C78.1678 39.4083 78.4764 38.7752 79.0586 38.5748C79.1158 38.5557 79.1763 38.5398 79.2335 38.5303C79.1031 38.3903 79.0045 38.2185 78.9599 38.0213C78.82 37.4232 79.189 36.8252 79.787 36.6852C80.8973 36.4275 81.613 37.0797 81.8071 37.7986C82.0934 38.8675 81.3363 40.7062 80.1974 41.053C80.067 41.0943 79.927 41.1134 79.787 41.1134Z" fill="#AFDCF2"/>
<path d="M84.1229 52.6292C83.7094 52.6292 83.3118 52.4383 83.0318 52.0852C82.6533 51.6017 82.7391 50.9018 83.2259 50.5233C83.3213 50.4469 83.4263 50.3928 83.5344 50.3515C83.21 50.167 82.9841 49.8266 82.9682 49.429C82.9459 48.815 83.4104 48.2965 84.0243 48.2742C84.9978 48.2392 85.739 48.7577 85.9585 49.6325C86.2193 50.6664 85.6308 52.0534 84.7528 52.4829C84.5492 52.5815 84.3361 52.6324 84.1261 52.6324L84.1229 52.6292Z" fill="#AFDCF2"/>
<path d="M69.0409 34.7002C68.5064 34.7002 68.0388 34.3152 67.9434 33.7744C67.8225 33.0587 67.9879 31.5572 68.271 30.8509C68.6241 29.9666 69.4608 29.3081 70.1479 28.8341C71.5699 27.8575 72.8996 27.2053 74.7638 27.2053H74.7733C75.3873 27.2053 75.8867 27.7048 75.8867 28.3187C75.8867 28.9327 75.3873 29.4321 74.7733 29.4321C74.7733 29.4321 74.767 29.4321 74.7638 29.4321C73.4627 29.4321 72.5497 29.887 71.4108 30.6696C70.6092 31.22 70.396 31.5349 70.342 31.6749C70.2115 31.9993 70.0875 33.0809 70.1415 33.3991C70.2465 34.0035 69.8393 34.5793 69.2317 34.6842C69.1681 34.6938 69.1045 34.7002 69.044 34.7002H69.0409Z" fill="#AFDCF2"/>
<path d="M63.5471 13.9367C63.4294 13.9367 63.3117 13.9176 63.2035 13.8826C62.7327 13.7267 62.3255 13.2209 62.4655 12.5529C62.5132 12.327 62.6245 12.1329 62.7804 11.9802C63.1303 11.5953 63.6075 11.5762 63.8747 11.643C64.3264 11.7544 64.7654 12.1679 64.7273 12.8455C64.705 13.2368 64.4823 13.5708 64.1642 13.7522C63.9733 13.8794 63.757 13.9367 63.5471 13.9367Z" fill="#D77599"/>
<path d="M60.6045 19.4751C60.3022 19.4751 60.0032 19.3542 59.7837 19.1124C59.367 18.6575 59.3988 17.9545 59.8537 17.5377C60.3118 17.1178 60.7253 16.7711 61.1166 16.4721L61.3647 16.2844C62.036 15.7817 62.2141 15.6322 62.3286 15.1487C62.4686 14.5506 63.0699 14.1784 63.6679 14.3184C64.266 14.4584 64.6382 15.0564 64.4982 15.6577C64.196 16.9461 63.4707 17.49 62.704 18.0658L62.4686 18.244C62.1314 18.5016 61.7688 18.807 61.3616 19.1792C61.1484 19.3765 60.878 19.4719 60.6108 19.4719L60.6045 19.4751Z" fill="#D77599"/>
<path d="M54.6398 25.6688C54.3598 25.6688 54.0704 25.6497 53.7872 25.5766L53.7109 25.5543C53.2878 25.4334 52.9251 25.2044 52.6038 25.004C52.4957 24.9372 52.3907 24.8704 52.2889 24.8163C52.0789 24.7018 51.8722 24.5872 51.6686 24.4727C50.9751 24.0846 50.3166 23.7188 49.604 23.4961C48.5733 23.1748 47.2945 22.774 46.3369 21.7814C46.2065 21.6478 46.0824 21.5142 45.9616 21.387C44.88 20.2513 44.1674 19.5005 42.739 19.1156C41.597 18.8102 40.9035 18.0308 40.4804 17.471C39.4942 16.1667 39.1252 15.1423 39.3161 14.2516C39.3734 13.9939 39.4783 13.7522 39.5897 13.4977C39.6469 13.3673 39.736 13.1668 39.7774 13.0332L39.6978 12.9092L39.7169 12.5497C39.7137 12.5211 39.701 12.4765 39.6915 12.4288C39.6342 12.1361 39.5356 11.6494 39.7965 11.1023C40.1178 10.4279 40.7317 10.1288 41.1389 9.9316C41.2662 9.86797 41.4602 9.77572 41.5111 9.72482C41.5684 9.62938 41.4316 9.25083 41.3107 8.9168C41.1294 8.41736 40.9035 7.79067 40.9767 7.09399C41.0848 6.05693 41.3361 3.6297 43.5343 3.10163C43.9129 3.00937 44.2596 3.02528 44.5364 3.03482C44.705 3.04119 44.88 3.04755 44.9563 3.0221C45.2744 2.9203 45.4939 2.74216 45.8311 2.47494C45.9329 2.39541 46.0347 2.3127 46.1461 2.22681C46.6423 1.84825 47.2372 1.61284 47.7653 1.40607C47.8957 1.35517 48.0198 1.30427 48.1407 1.25655C49.5245 0.674398 51.1628 0.152686 52.8233 0.703028C53.2019 0.827094 53.5137 0.989333 53.7872 1.13249C53.9686 1.22792 54.1435 1.31699 54.3121 1.3838C54.7193 1.54286 55.4287 1.49832 55.8073 1.29473C55.9345 1.22474 56.0777 1.09749 56.2399 0.951159C56.6121 0.620318 57.1243 0.165411 57.9227 0.034983C59.5229 -0.229054 60.9512 0.944797 61.9946 1.80053C62.1951 1.96595 62.3827 2.11865 62.5545 2.24589L64.9659 4.04644C65.847 4.70494 67.04 5.76109 67.2372 7.35485L67.269 7.5998C67.3804 8.45235 67.5331 9.61984 67.1513 10.5074C66.8777 11.1436 66.3433 11.5444 65.9902 11.8117C65.4971 12.1807 64.8004 12.0852 64.4314 11.5922C64.0624 11.1023 64.1578 10.4024 64.6509 10.0334C64.7623 9.95068 65.0581 9.728 65.1058 9.6262C65.2458 9.30491 65.1185 8.34737 65.0581 7.88929L65.0231 7.62525C64.9531 7.04946 64.5237 6.49593 63.6298 5.83107L61.2184 4.03053C61.0212 3.8842 60.8081 3.70923 60.579 3.51836C59.9046 2.96484 58.8898 2.13137 58.2822 2.22999C58.1263 2.25544 57.9768 2.38587 57.7192 2.61491C57.4869 2.82169 57.2261 3.05391 56.873 3.24796C55.9123 3.77285 54.5284 3.85875 53.5009 3.4611C53.221 3.35294 52.9729 3.22251 52.7565 3.11117C52.5275 2.99347 52.3303 2.88849 52.1203 2.8185C51.1596 2.50039 50.0525 2.86622 48.9996 3.31159C48.8628 3.36885 48.7228 3.42611 48.5765 3.48337C48.1661 3.64561 47.743 3.81103 47.4885 4.00508C47.3931 4.07825 47.304 4.14823 47.2149 4.21822C46.8046 4.54588 46.3401 4.91489 45.6371 5.14394C45.1822 5.29027 44.7718 5.27437 44.4441 5.26164C44.2883 5.25528 44.1292 5.24892 44.0497 5.268C43.5757 5.38253 43.3276 5.9774 43.1876 7.32622C43.1685 7.51709 43.2862 7.84475 43.4007 8.16287C43.6488 8.84682 44.021 9.8807 43.3912 10.9146C43.0412 11.4872 42.5036 11.748 42.1092 11.9389C42.0424 11.9707 41.9533 12.0153 41.8833 12.0534C41.8992 12.1393 41.9183 12.2379 41.9278 12.3493C42.1951 13.0937 41.8579 13.8635 41.6224 14.398C41.5747 14.5093 41.5016 14.6747 41.4857 14.7352C41.4857 14.7352 41.492 15.1296 42.2523 16.1349C42.615 16.6152 42.9395 16.8729 43.3085 16.9715C45.3444 17.5187 46.3751 18.6035 47.568 19.86C47.6858 19.9841 47.8098 20.1145 47.9339 20.2449C48.4938 20.8271 49.3909 21.107 50.2593 21.3774C51.1914 21.6669 51.9835 22.1091 52.747 22.5354C52.941 22.6435 53.1351 22.7517 53.3355 22.8599C53.4755 22.933 53.6218 23.0253 53.7745 23.1207C53.9527 23.2321 54.1976 23.3848 54.3217 23.4197H54.3249C54.4616 23.4547 54.7957 23.442 55.0374 23.4293C55.2601 23.4197 55.4923 23.4102 55.7214 23.4197C56.1795 23.442 56.5898 23.1398 57.2197 22.6404C57.7255 22.2395 57.7287 22.2236 57.8941 21.3234C57.9196 21.177 57.9355 20.9957 57.9482 20.8048C57.9673 20.5567 57.9896 20.2768 58.0436 19.9904C58.1645 19.386 58.7499 18.9947 59.3511 19.1156C59.9555 19.2365 60.3468 19.8218 60.2259 20.4231C60.1941 20.579 60.1814 20.7698 60.1655 20.9766C60.1496 21.2025 60.1273 21.4601 60.0828 21.721C59.876 22.8694 59.7137 23.5088 58.5972 24.39C57.8559 24.9753 56.9398 25.7038 55.6228 25.6466C55.4923 25.6402 55.3174 25.6466 55.136 25.6561C54.9738 25.6625 54.802 25.672 54.6271 25.672L54.6398 25.6688Z" fill="#D77599"/>
<path d="M53.4597 17.6364C53.1893 17.6364 52.9157 17.5378 52.7026 17.3374C52.2254 16.892 52.2445 16.3003 52.4767 15.9122C52.6517 15.6195 53.0112 15.3396 53.5011 15.3682C53.7078 15.381 53.9146 15.4223 54.1023 15.54C54.6717 15.8995 54.7544 16.5389 54.5413 16.9843C54.3982 17.2833 54.1023 17.5346 53.7301 17.6014C53.641 17.6237 53.5488 17.6332 53.4597 17.6332V17.6364Z" fill="#D77599"/>
<path d="M46.4038 13.0682C46.1302 13.0682 45.8598 12.9696 45.6435 12.7692C45.1663 12.3239 45.1886 11.7322 45.4208 11.3441C45.5958 11.0514 45.9521 10.7746 46.442 10.8033H46.4515C46.6551 10.8033 46.8619 10.8573 47.0464 10.975C47.6158 11.3345 47.6986 11.9739 47.4854 12.4193C47.3423 12.7183 47.0496 12.9696 46.6774 13.0364C46.5883 13.0587 46.4961 13.0714 46.4038 13.0714V13.0682Z" fill="#D77599"/>
<path d="M51.4648 21.457C51.0162 21.457 50.504 21.3329 49.9982 20.9162C49.3747 20.4008 49.0598 19.6819 49.1139 18.893C49.1934 17.6778 50.1287 16.5612 50.9621 16.0395C51.4838 15.7118 52.171 15.8709 52.4986 16.3926C52.8263 16.9143 52.6672 17.6014 52.1455 17.9259C51.7447 18.1772 51.3598 18.7085 51.3375 19.0393C51.3343 19.0966 51.3312 19.1284 51.4202 19.2015C51.452 19.227 51.4679 19.2365 51.4679 19.2365C51.5284 19.2429 51.7447 19.1825 51.8847 19.1411C52.2855 19.0234 52.8358 18.8643 53.4657 19.0361C53.4848 19.0425 53.5007 19.0457 53.5166 19.0488C53.5103 18.9948 53.4975 18.9216 53.4657 18.8293C53.2621 18.2504 53.5675 17.6141 54.1497 17.4105C54.7286 17.2069 55.3649 17.5123 55.5685 18.0945C55.7275 18.5462 55.7816 18.9916 55.7307 19.4147C55.6448 20.1591 55.3553 20.6999 54.875 21.0243C54.1338 21.527 53.2558 21.2852 52.8836 21.1834C52.8358 21.1834 52.6386 21.2407 52.505 21.2788C52.2473 21.352 51.8847 21.4602 51.4679 21.4602L51.4648 21.457Z" fill="#D77599"/>
<path d="M58.0342 17.9418C57.1435 17.9418 56.2591 17.3915 55.9919 16.5962C55.7597 15.9059 55.9983 15.0056 57.0576 14.5539C57.3884 14.4139 57.7479 14.4425 58.0374 14.6048C58.2728 14.4234 58.5814 14.3375 58.8963 14.3916C59.6598 14.5189 60.172 15.0597 60.2006 15.7691C60.2388 16.698 59.3194 17.6841 58.5368 17.8814C58.3714 17.9227 58.2028 17.9418 58.0342 17.9418Z" fill="#D77599"/>
<path d="M55.6484 13.7108C55.448 13.7108 55.2667 13.6885 55.114 13.6726C55.009 13.6599 54.9072 13.6472 54.834 13.6472C54.5382 13.6472 54.255 13.5263 54.0451 13.3195C53.7683 13.0396 53.6443 12.6483 53.7174 12.2697C53.7906 11.8816 54.0515 11.5635 54.4332 11.3981C54.7831 11.2454 55.168 11.2867 55.4671 11.4713C55.5339 11.4776 55.6007 11.484 55.6484 11.484C55.6611 11.4617 55.6802 11.4331 55.6929 11.4108C55.7884 11.2486 55.922 11.0291 56.1447 10.8128C56.2178 10.7428 56.2942 10.6791 56.3673 10.6282C56.1637 10.3388 56.1001 9.95702 56.2305 9.60073C56.4437 9.02175 57.0831 8.72591 57.6589 8.93904C58.5114 9.25398 59.0268 10.202 58.8327 11.1022C58.661 11.888 58.0852 12.2029 57.8084 12.3524C57.7639 12.3779 57.7003 12.4097 57.6812 12.4256C57.6748 12.432 57.6334 12.502 57.6048 12.556C57.4617 12.7946 57.2231 13.1986 56.7045 13.4658C56.3228 13.6631 55.9602 13.714 55.6452 13.714L55.6484 13.7108Z" fill="#D77599"/>
<path d="M46.3145 16.8029C46.0313 16.8029 45.7291 16.7648 45.411 16.682C44.024 16.3385 42.5384 14.9865 42.5543 13.4054C42.5607 12.7947 43.057 12.3016 43.6677 12.3016H43.6773C44.2912 12.3079 44.7875 12.8106 44.7811 13.4245C44.778 13.7935 45.411 14.3884 45.9486 14.522C46.1713 14.5793 46.2986 14.5793 46.359 14.5761C46.3685 14.4998 46.3749 14.3852 46.3781 14.3025C46.3876 14.1021 46.394 13.8763 46.4513 13.6281C46.5849 13.0269 47.1766 12.6483 47.7778 12.7819C48.379 12.9155 48.7576 13.5104 48.624 14.1085C48.6113 14.1626 48.6081 14.2898 48.6017 14.3916C48.5826 14.8592 48.5508 15.6386 47.8637 16.2462C47.447 16.6184 46.9284 16.8029 46.3176 16.8029H46.3145Z" fill="#D77599"/>
<path d="M52.9634 7.67294C52.5435 7.67294 52.1332 7.57751 51.7991 7.37391C51.0611 6.92537 50.9307 6.34321 50.9211 6.03464C50.9052 5.54156 51.1502 5.07711 51.5955 4.75899C52.025 4.4536 52.5944 4.49496 52.9762 4.82898C53.0175 4.76535 53.0652 4.70809 53.1193 4.65083C53.552 4.21183 54.255 4.20547 54.694 4.63811C55.343 5.27434 55.4289 6.15234 54.9071 6.82357C54.484 7.36755 53.711 7.67294 52.9666 7.67294H52.9634Z" fill="#D77599"/>
<path d="M53.9336 13.2082C53.6346 13.2082 53.3356 13.0873 53.1161 12.8519C52.6993 12.4002 52.7248 11.6971 53.1765 11.2772C53.2529 11.2072 53.2942 11.1563 53.3133 11.1309C53.3642 11.0672 53.4151 10.8128 53.4469 10.6473C53.5423 10.1765 53.6728 9.53392 54.2009 9.00585C54.8053 8.39825 55.3206 8.40779 55.801 8.47141C55.8551 8.47778 55.9155 8.48732 55.9855 8.49368C56.5995 8.55094 57.048 9.09174 56.9907 9.70571C56.9335 10.3165 56.3895 10.7682 55.7787 10.711C55.7596 10.711 55.7374 10.7078 55.7183 10.7046C55.6833 10.8159 55.6515 10.9718 55.6292 11.0895C55.5465 11.4999 55.4415 12.0057 55.0884 12.4733C54.9771 12.6197 54.8434 12.766 54.6876 12.9123C54.4744 13.1096 54.2008 13.2082 53.9304 13.2082H53.9336Z" fill="#D77599"/>
<path d="M50.7778 12.7724C50.5264 12.7724 50.2147 12.6896 49.9093 12.3843C49.4735 11.9516 49.4735 11.2454 49.9061 10.8096C50.0652 10.6505 50.2592 10.5487 50.466 10.5042C50.7109 10.4278 51.274 10.3483 51.7544 10.9527C52.1361 11.4331 52.0566 12.1329 51.5762 12.5179C51.3949 12.6642 51.1818 12.7405 50.9654 12.7564C50.9082 12.766 50.8446 12.7724 50.7778 12.7724Z" fill="#D77599"/>
<path d="M40.7349 15.136C40.3691 15.136 40.0096 14.9547 39.7965 14.6238C39.4657 14.1053 39.6152 13.4182 40.1305 13.0842C40.6681 12.7374 40.8272 12.4734 41.2121 11.8308L41.3807 11.5508C41.8006 10.8605 42.3637 10.3484 42.86 9.89981C42.9618 9.80755 43.0636 9.7153 43.1622 9.62304C43.9384 8.90092 44.7687 8.46192 45.863 8.20106C46.5024 8.04837 47.0527 8.07064 47.5426 8.27105C47.9371 8.43011 48.1916 8.69096 48.3634 8.90728C48.8565 8.57008 49.5309 8.68142 49.8872 9.16178C50.253 9.65486 50.1512 10.3547 49.6549 10.7205L49.5181 10.8223C49.1746 11.0737 48.3697 11.6685 47.3804 11.0705C47.04 10.8637 46.8364 10.5869 46.6996 10.4024C46.6837 10.3802 46.6646 10.3547 46.6456 10.3293C46.6074 10.3293 46.5119 10.3356 46.3751 10.3674C45.653 10.5392 45.1758 10.7874 44.6796 11.2518C44.5714 11.3536 44.4633 11.4522 44.3519 11.5508C43.9288 11.9326 43.5312 12.2952 43.2767 12.7088L43.1176 12.9728C42.6818 13.7013 42.3064 14.328 41.3298 14.9547C41.1453 15.0756 40.9354 15.1328 40.7286 15.1328L40.7349 15.136Z" fill="#D77599"/>
<path d="M65.7198 7.89567C65.3539 7.89567 64.9945 7.71434 64.7813 7.3835C64.3932 6.77908 63.916 6.41961 62.9521 6.0156C62.3827 5.77701 62.1918 5.78656 62.1569 5.78974C61.9628 5.83428 61.3934 6.11104 61.2407 6.24147C60.7858 6.65502 60.0859 6.6232 59.6692 6.1683C59.2556 5.71339 59.2874 5.00717 59.7423 4.59362C60.1623 4.2087 61.1516 3.7188 61.7369 3.60428C62.475 3.46112 63.2353 3.72198 63.8142 3.96375C64.8227 4.38684 65.8661 4.94991 66.655 6.1842C66.9859 6.70273 66.8364 7.38987 66.3178 7.72071C66.1333 7.83841 65.9234 7.89567 65.7198 7.89567Z" fill="#D77599"/>
<path d="M42.2712 80.0827C42.0326 80.0827 41.794 80.0063 41.5904 79.8505C41.1037 79.4751 41.0146 78.7752 41.39 78.2885C42.7197 76.5675 42.2935 74.627 42.0135 73.3418C41.9753 73.1637 41.9403 73.0046 41.9149 72.8646C41.8067 72.2857 41.2818 71.4776 40.9701 71.2772C40.9415 71.3059 40.9065 71.3504 40.8651 71.4108C40.7506 71.5763 40.652 71.7003 40.5693 71.8053C40.5406 71.8403 40.512 71.8721 40.4897 71.9071C40.4897 71.9071 40.4802 71.958 40.4675 72.0693C40.4038 72.6801 39.8599 73.1255 39.2427 73.0619C38.6319 72.9982 38.1866 72.4511 38.2502 71.8371C38.3297 71.08 38.5524 70.7523 38.8387 70.4024C38.8928 70.3388 38.9532 70.2624 39.0232 70.1606C39.8758 68.9073 40.9383 68.9772 41.3518 69.0631C42.9074 69.3876 43.9095 71.4363 44.1004 72.4574C44.1226 72.5783 44.1544 72.7151 44.1862 72.871C44.4885 74.2484 45.1151 77.1115 43.1524 79.6532C42.9329 79.9364 42.602 80.0859 42.2712 80.0859V80.0827Z" fill="#D77599"/>
<path d="M39.4368 75.8549C38.9374 75.8549 38.3998 75.505 38.3202 74.8211C38.2948 74.6175 38.3298 74.4202 38.4061 74.2421C38.5779 73.7776 38.9978 73.5422 39.3827 73.5231C39.8854 73.4945 40.4484 73.8253 40.5534 74.5061C40.5884 74.732 40.5534 74.9515 40.4643 75.1455C40.2894 75.5973 39.8726 75.839 39.4718 75.8549C39.4591 75.8549 39.4464 75.8549 39.4336 75.8549H39.4368Z" fill="#D77599"/>
<path d="M22.0106 92.8519C21.6416 92.8519 21.2535 92.7946 20.8463 92.6547C19.997 92.362 19.3639 91.818 18.9122 90.9877C18.4541 90.1479 18.4096 89.7662 18.6736 88.9486C18.699 88.8659 18.7309 88.7705 18.7658 88.6559C19.3607 86.6391 18.7913 84.8099 18.1551 84.4886C17.891 84.355 17.3916 84.6954 16.889 85.3571C16.6981 85.6084 16.4086 85.7674 16.0937 85.7929C15.7787 85.8183 15.4702 85.7102 15.2379 85.4939C13.8287 84.1705 14.0704 82.125 14.2136 80.9034C14.2868 80.2926 14.8371 79.8568 15.4479 79.9268C16.0587 79.9968 16.4945 80.5503 16.4245 81.1611C16.3704 81.6351 16.2973 82.2427 16.345 82.7867C17.6079 81.915 18.68 82.2554 19.1571 82.4972C20.9545 83.407 21.7339 86.4514 20.8972 89.2826C20.8591 89.4162 20.8209 89.5308 20.7891 89.6262C20.7795 89.6612 20.7668 89.6898 20.7573 89.7184C20.7795 89.763 20.8145 89.8266 20.8622 89.9189C21.0467 90.2592 21.244 90.4342 21.5653 90.5455C22.0933 90.7269 22.5801 90.5646 23.3149 90.2274C22.4687 89.0568 23.035 87.9434 23.3435 87.3421C24.0307 85.9933 25.8885 84.8354 27.549 85.2553C28.4811 85.4907 28.9869 86.1587 29.3559 86.6454C29.6995 87.1003 29.8554 87.2753 30.1353 87.3326C31.131 87.5362 31.6909 87.358 32.763 86.7472C33.3547 86.41 33.905 86.1142 34.6717 85.9074C35.0343 85.8088 35.397 85.7674 35.7501 85.7293C36.0714 85.6943 36.4022 85.6593 36.609 85.5797C36.854 85.4875 37.2134 85.268 37.3566 85.1407C37.347 85.1153 37.3375 85.0867 37.3311 85.0644C37.2516 84.8417 37.1339 84.5077 37.1498 84.0687C37.2039 82.2777 38.6513 81.4156 39.612 80.8462C39.7266 80.7794 39.8411 80.7094 39.9524 80.6426C40.3532 80.3944 40.7668 80.14 40.9608 79.8441C40.9863 79.8059 41.0086 79.7678 41.0277 79.7328C41.0213 79.7296 41.0149 79.7232 41.0086 79.72C40.7413 79.5228 40.5346 79.281 40.3501 79.0711C40.2801 78.9884 40.2069 78.9057 40.1337 78.8325C40.0638 78.7593 39.997 78.7052 39.9333 78.6512C39.7202 78.4698 39.4307 78.2249 39.1762 77.7636C38.8804 77.226 39.0776 76.5484 39.6152 76.2526C40.1528 75.9567 40.8304 76.1539 41.1263 76.6916C41.1803 76.787 41.2185 76.822 41.368 76.9492C41.4667 77.0319 41.5907 77.1369 41.7243 77.2737C41.8261 77.3787 41.9279 77.4964 42.0297 77.6109C42.1315 77.7286 42.2619 77.8781 42.3288 77.929C42.386 77.9704 42.4306 77.9958 42.491 78.0277C43.0731 78.3394 43.3245 78.7561 43.3626 79.4687C43.3881 79.9332 43.2068 80.4644 42.8282 81.0529C42.3637 81.7751 41.6734 82.1982 41.1199 82.5417C40.999 82.6149 40.875 82.6912 40.7477 82.7644C39.8252 83.3116 39.3894 83.6265 39.3766 84.1387C39.3766 84.1609 39.4116 84.2691 39.4339 84.3327C39.5611 84.6986 39.8029 85.3857 39.3035 86.2542C38.8072 87.1258 37.4138 87.6602 37.4011 87.6666C36.9271 87.8447 36.4309 87.8988 35.9919 87.9465C35.7151 87.9752 35.4542 88.0038 35.2634 88.0579C34.7417 88.201 34.3727 88.3983 33.8668 88.6877C32.483 89.4735 31.3569 89.8648 29.6868 89.5212C28.5638 89.289 27.9976 88.5414 27.584 87.9974C27.3327 87.6666 27.1737 87.463 27.0051 87.4216C26.4674 87.2849 25.5926 87.8447 25.3286 88.3633C25.2745 88.4682 25.1123 88.7864 25.0995 88.9041C25.0995 88.9041 25.1091 88.9136 25.1155 88.9263C25.1473 88.9422 25.2045 88.9709 25.2491 88.99C25.5449 89.1299 26.3307 89.4958 26.3975 90.5233C26.4293 91.0323 26.1143 91.4967 25.6276 91.6526C25.2904 91.7607 24.9437 91.9262 24.5778 92.1011C23.8493 92.4479 22.9936 92.8551 22.0075 92.8551L22.0106 92.8519Z" fill="#D77599"/>
<path d="M38.5333 71.1277C37.6903 71.1277 36.8314 70.8891 36.3924 70.3165C36.017 69.8298 36.1092 69.13 36.596 68.7546C37.0413 68.4142 37.6585 68.4587 38.0497 68.8373C38.1802 68.8786 38.4092 68.8977 38.6319 68.8914C38.5587 68.8341 38.4792 68.7705 38.3901 68.7005C38.2756 68.6114 38.0402 68.5383 37.8143 68.4683C37.2863 68.3029 36.5673 68.0802 36.1124 67.3485C35.9597 67.1004 35.8516 66.8681 35.7561 66.6614C35.5303 66.1778 35.5112 66.1715 35.3171 66.1238C34.6777 65.9647 33.6088 65.917 33.0426 66.1015C32.8135 66.1747 32.5463 66.3814 32.26 66.6009C31.8051 66.9477 31.242 67.3835 30.504 67.5235C30.1859 67.5839 29.8455 67.5935 29.4829 67.603C29.2538 67.6094 28.888 67.6189 28.6303 67.6571C28.9452 67.7684 29.4097 67.832 29.6165 67.7621C30.1795 67.5139 30.8285 67.7748 31.0766 68.3378C31.3216 68.9009 31.0607 69.5594 30.4977 69.8075C29.4765 70.2529 27.5392 69.973 26.6643 68.9582C26.0599 68.2583 26.0186 67.3294 26.553 66.48C27.2083 65.4334 28.4935 65.4016 29.432 65.3794C29.6865 65.373 29.9473 65.3666 30.0873 65.3412C30.31 65.2998 30.5995 65.074 30.908 64.8386C31.3089 64.53 31.7669 64.1801 32.3555 63.986C33.4275 63.6361 34.9227 63.7315 35.8643 63.9669C37.1049 64.2787 37.5089 65.1471 37.7793 65.7229C37.8557 65.8852 37.9257 66.041 38.0116 66.1747C38.0593 66.2096 38.3138 66.2892 38.4824 66.3401C38.8546 66.4578 39.319 66.6009 39.7453 66.9254C40.2638 67.3231 41.2341 68.0611 41.2341 69.1331C41.2341 69.4608 41.1291 70.0875 40.442 70.6124C40.0253 70.9305 39.2872 71.1182 38.5365 71.1182L38.5333 71.1277Z" fill="#D77599"/>
<path d="M20.0542 76.2876C19.6756 76.2876 19.3034 76.0936 19.0967 75.7436C18.7817 75.2156 18.9567 74.5316 19.4848 74.2167C20.2037 73.7904 20.6872 73.0046 21.1994 72.1744C21.3966 71.8562 21.5971 71.5286 21.8197 71.2073C22.3574 70.4343 22.965 69.5626 24.2152 69.219L24.3456 69.1841C25.1123 68.9805 25.7676 68.7451 26.0125 67.9243C26.1907 67.3358 26.811 67.0018 27.3995 67.1767C27.988 67.3549 28.3221 67.9752 28.1471 68.5637C27.5236 70.6442 25.6976 71.1278 24.9182 71.3377L24.8037 71.3695C24.3742 71.4872 24.1356 71.7831 23.6489 72.4797C23.4612 72.7501 23.2831 73.0396 23.0954 73.345C22.4942 74.3216 21.8102 75.4255 20.6236 76.1317C20.4455 76.2367 20.2482 76.2876 20.0542 76.2876Z" fill="#D77599"/>
<path d="M16.7298 79.7614C16.5167 79.7614 16.2972 79.6978 16.1063 79.5705C15.5973 79.227 15.4637 78.5335 15.8073 78.0245C16.0681 77.6396 16.3067 77.1497 16.5358 76.6789C16.8284 76.0776 17.1052 75.5114 17.4615 75.0596C17.5315 74.9706 17.5792 74.9038 17.6174 74.856C18.1836 74.0703 18.8644 74.2262 19.2175 74.3884C19.262 74.4075 19.297 74.4234 19.3797 74.4457C19.5642 74.4902 19.701 74.5411 19.7996 74.5761C19.9142 74.6175 19.9173 74.6206 20.0064 74.6238C20.4518 74.6461 20.8431 74.5634 21.1135 74.3916C21.632 74.0608 22.3191 74.2166 22.65 74.7352C22.9808 75.2537 22.8249 75.9408 22.3064 76.2717C21.6384 76.6948 20.8112 76.8952 19.8919 76.8475C19.4783 76.8252 19.2302 76.7393 19.0489 76.6725C18.8835 76.9397 18.7053 77.3055 18.5335 77.6587C18.2822 78.174 17.9959 78.7593 17.646 79.2747C17.4297 79.5928 17.0797 79.7646 16.7234 79.7646L16.7298 79.7614Z" fill="#D77599"/>
<path d="M15.9025 82.0073C15.8325 82.0073 15.7593 82.0009 15.6862 81.9914C14.8018 81.8673 13.8697 80.9607 13.9906 79.9841C14.067 79.3733 14.6237 78.9406 15.2313 79.0138C15.5876 79.0583 15.8834 79.2651 16.052 79.5514C16.1474 79.5419 16.2461 79.5451 16.3447 79.561C16.9523 79.6596 17.3658 80.229 17.2672 80.8366C17.1559 81.5333 16.5864 82.0073 15.9025 82.0073Z" fill="#D77599"/>
<path d="M24.654 78.7371C24.4472 78.7371 24.2372 78.6798 24.0496 78.5589C23.5469 78.2344 23.391 77.5696 23.6964 77.0574C23.7473 76.8729 23.6774 76.4021 23.5946 76.2399C23.2861 75.7086 23.4642 75.0278 23.9955 74.7193C24.5267 74.4075 25.2107 74.592 25.5193 75.1201C25.9233 75.8104 26.1809 77.3151 25.5892 78.2281C25.3761 78.5589 25.0198 78.7371 24.654 78.7371Z" fill="#D77599"/>
<path d="M23.9892 76.119C23.9701 76.119 23.9542 76.119 23.9351 76.119C23.3211 76.0903 22.8471 75.5686 22.8757 74.9515C22.9744 72.9314 24.8353 71.6431 25.6306 71.0927C26.2319 70.676 27.3548 69.8998 28.6337 70.536C29.0122 70.7237 29.2763 70.9941 29.4894 71.2104C29.5403 71.2613 29.6039 71.3281 29.658 71.379C30.2052 71.309 30.73 71.6494 30.8764 72.1934C31.0354 72.7883 30.6855 73.3991 30.0906 73.5581C28.9645 73.8603 28.2424 73.1223 27.8956 72.766C27.8129 72.6833 27.6888 72.5561 27.6379 72.5274C27.4853 72.5115 27.0431 72.8233 26.8967 72.9251C26.0824 73.4881 25.1407 74.2421 25.0994 75.0596C25.0707 75.6545 24.5777 76.119 23.9892 76.119Z" fill="#D77599"/>
<path d="M25.0674 76.5102C24.4662 76.5102 23.9699 76.0299 23.954 75.4223C23.9381 74.8083 24.4248 74.2993 25.0388 74.2834C25.2583 74.2675 25.8468 73.9589 26.0058 73.7776C26.1585 73.5867 26.3144 73.415 26.4639 73.2464C26.7343 72.9473 26.9666 72.6928 27.0365 72.4606C27.2179 71.8721 27.8414 71.5412 28.4299 71.7258C29.0184 71.9071 29.3461 72.5306 29.1647 73.1191C28.9484 73.8221 28.5031 74.312 28.115 74.7447C27.9909 74.8815 27.8668 75.0183 27.7491 75.1678C27.2624 75.7849 26.0217 76.4911 25.096 76.5134C25.0865 76.5134 25.0769 76.5134 25.0674 76.5134V76.5102Z" fill="#D77599"/>
<path d="M19.424 90.9337C18.8705 90.9337 18.3933 90.5233 18.3201 89.9603C18.2374 89.3145 17.8811 88.5033 17.2831 87.6126C17.2067 87.498 17.1304 87.3803 17.0572 87.2658C16.8663 86.9668 16.7009 86.7059 16.4878 86.4864C16.4623 86.4642 16.3414 86.3973 16.2619 86.356C15.982 86.2033 15.597 85.9902 15.3394 85.5862C15.0085 85.0676 15.1612 84.3805 15.6797 84.0496C16.1665 83.7379 16.8059 83.8556 17.1558 84.3041C17.2003 84.3328 17.2767 84.3741 17.3308 84.4028C17.5566 84.5268 17.8398 84.6827 18.0879 84.9404C18.4537 85.3189 18.7082 85.7166 18.9309 86.0665C18.9945 86.1683 19.0613 86.2701 19.1281 86.3719C19.9298 87.5648 20.4006 88.6782 20.5278 89.6803C20.6042 90.2911 20.1716 90.8478 19.5639 90.9242C19.5162 90.9305 19.4685 90.9337 19.424 90.9337Z" fill="#D77599"/>
<path d="M32.2791 82.2968C31.786 82.2968 31.3215 82.2045 30.9207 82.125C30.7489 82.09 30.574 82.055 30.399 82.0296C29.2601 81.8578 27.9877 81.5365 27.2019 80.4772C26.6929 79.79 26.5784 79.0043 26.887 78.3235C27.2369 77.5505 28.0895 77.0224 29.1106 76.9397C29.7214 76.892 30.259 77.3469 30.3099 77.9609C30.3577 78.5748 29.9027 79.1093 29.2888 79.1602C29.1902 79.1665 29.1043 79.1888 29.0406 79.2111C29.3747 79.5801 30.1159 79.736 30.7362 79.8282C30.943 79.86 31.1498 79.9014 31.3565 79.9396C32.1009 80.0859 32.4572 80.1336 32.7563 79.9555C32.6576 79.8537 32.5431 79.7487 32.4636 79.6851C32.0278 79.5642 31.6906 79.1824 31.6492 78.7053C31.5983 78.0913 32.05 77.5537 32.664 77.4996C33.7806 77.401 34.8367 78.9947 34.8463 79.0107C35.3616 79.9109 35.1358 80.9066 34.2609 81.6128C33.6056 82.1409 32.9217 82.2904 32.2886 82.2904L32.2791 82.2968Z" fill="#D77599"/>
<path d="M20.1338 82.5131C19.7807 82.5131 19.4276 82.3731 19.1604 82.1059C18.7245 81.6733 18.7245 80.9671 19.1604 80.5312C19.2844 80.4072 19.4339 80.3149 19.5898 80.264C19.7552 80.1113 19.9652 80.0095 20.2038 79.9777C20.8114 79.9014 21.3713 80.3308 21.4476 80.9416C21.524 81.5556 21.2345 82.1218 20.7096 82.3795C20.5283 82.4686 20.331 82.5131 20.1338 82.5131Z" fill="#D77599"/>
<path d="M19.3001 78.0309C19.1188 78.0309 18.9375 77.9863 18.7657 77.8941C18.2249 77.5982 18.0277 76.9207 18.3235 76.383C18.3903 76.2622 18.4698 76.1381 18.5557 76.0108C18.6066 75.9313 18.683 75.82 18.718 75.75C18.6607 75.1901 19.0329 74.6652 19.596 74.5475C20.1972 74.4203 20.7889 74.8052 20.9162 75.4064C21.0879 76.224 20.6617 76.8634 20.4072 77.2451C20.3595 77.3151 20.3117 77.3819 20.2767 77.4487C20.0732 77.8177 19.6914 78.0277 19.3001 78.0277V78.0309Z" fill="#D77599"/>
<path d="M38.2091 85.0517C37.8305 85.0517 37.4647 84.8608 37.2548 84.5141C36.733 83.6488 36.4913 81.9882 37.6269 81.1707C38.1264 80.8112 38.8231 80.9225 39.1825 81.422C39.5134 81.8801 39.4466 82.5004 39.0489 82.8789C39.0426 83.0062 39.0903 83.2384 39.1635 83.3625C39.4816 83.8874 39.3098 84.5745 38.7849 84.8894C38.6036 84.9976 38.4063 85.0485 38.2123 85.0485L38.2091 85.0517Z" fill="#D77599"/>
<path d="M37.8146 80.8144C37.5219 80.8144 37.2324 80.6967 37.0256 80.4899C36.8189 80.2831 36.7012 79.9936 36.7012 79.701C36.7012 79.4083 36.8189 79.1188 37.0256 78.9152C37.4392 78.4985 38.1868 78.4985 38.6003 78.9152C38.8071 79.122 38.928 79.4083 38.928 79.701C38.928 79.9936 38.8071 80.2799 38.6003 80.4899C38.3936 80.6967 38.1072 80.8144 37.8146 80.8144Z" fill="#D77599"/>
<path d="M25.3891 91.274H25.3763C24.7624 91.274 24.2661 90.7714 24.2661 90.1574C24.2661 89.5435 24.7656 89.0472 25.3795 89.0472H25.3891C26.3339 89.0472 27.5236 88.0229 28.0962 87.533C28.5639 87.1322 29.2669 87.1862 29.6677 87.6507C30.0686 88.1183 30.0145 88.8182 29.55 89.2222C28.3094 90.2879 26.9447 91.2772 25.3922 91.2772L25.3891 91.274Z" fill="#D77599"/>
<path d="M66.9733 57.0542C66.6806 57.0542 66.3943 56.9365 66.1843 56.7266C65.9776 56.5198 65.8599 56.2335 65.8599 55.9408C65.8599 55.6482 65.9776 55.3619 66.1843 55.1551C66.6011 54.7383 67.3455 54.7383 67.759 55.1551C67.969 55.3619 68.0867 55.6482 68.0867 55.9408C68.0867 56.2335 67.969 56.5198 67.759 56.7266C67.5554 56.9365 67.2659 57.0542 66.9733 57.0542Z" fill="#AFDCF2"/>
<path d="M43.614 39.1697C43.5726 39.1697 43.5313 39.1697 43.4931 39.1634C43.4804 39.1634 42.3988 39.0202 42.526 37.8209C42.5928 37.2101 43.1432 36.7648 43.7508 36.8316C44.3298 36.8952 44.756 37.3851 44.7465 37.9577C44.7465 38.0118 44.7465 38.0659 44.7369 38.1231C44.6351 38.9057 44.0466 39.1697 43.6108 39.1697H43.614Z" fill="white"/>
<path d="M8.62083 72.2539C8.57947 72.2539 8.53811 72.2539 8.49994 72.2475C8.48722 72.2475 7.40562 72.1043 7.53287 70.905C7.59967 70.2943 8.14683 69.8489 8.75762 69.9157C9.33659 69.9793 9.76286 70.4692 9.75332 71.0418C9.75332 71.0959 9.75332 71.15 9.74378 71.2072C9.64198 71.9898 9.05346 72.2539 8.61764 72.2539H8.62083Z" fill="white"/>
</g>
<defs>
<clipPath id="clip0_25_1969">
<rect width="100" height="92.8519" fill="white"/>
</clipPath>
</defs>
</svg>
